<svg viewBox="0 0 360 38" fill="none" xmlns="http://www.w3.org/2000/svg">
<g clip-path="url(#clip0_53_46351)">
<path d="M221.035 0.116943H220.133V38H221.035V0.116943Z" fill="white"/>
<path d="M241.379 9.32043C243.217 9.32043 244.235 10.0721 244.235 11.3916C244.235 12.0932 243.818 12.5776 243.116 12.8114C244.185 13.0787 244.72 13.7134 244.72 14.6154C244.72 15.9683 243.534 16.72 241.413 16.72H238.439V9.32043H241.379ZM240.427 12.1433H241.613C242.097 12.1433 242.381 11.9429 242.381 11.5587C242.381 11.1578 242.014 10.9407 241.379 10.9407H240.427V12.1433ZM240.427 15.0831H241.479C242.248 15.0831 242.682 14.8158 242.682 14.3481C242.682 13.9305 242.298 13.68 241.613 13.68H240.427V15.0831Z" fill="white"/>
<path d="M245.355 16.72V8.88611H247.292V16.7033H245.355V16.72Z" fill="white"/>
<path d="M254.057 13.8136C254.057 15.7345 252.921 16.8202 251 16.8202C249.08 16.8202 247.96 15.7345 247.96 13.8136C247.96 11.8427 249.08 10.7402 251 10.7402C252.921 10.7402 254.057 11.8427 254.057 13.8136ZM252.153 13.8136C252.153 12.6778 251.735 12.2769 251 12.2769C250.266 12.2769 249.865 12.6778 249.865 13.8136C249.865 14.8994 250.266 15.2835 251 15.2835C251.735 15.2835 252.153 14.8994 252.153 13.8136Z" fill="white"/>
<path d="M260.571 13.8136C260.571 15.7345 259.435 16.8202 257.515 16.8202C255.594 16.8202 254.475 15.7345 254.475 13.8136C254.475 11.8427 255.594 10.7402 257.515 10.7402C259.435 10.7402 260.571 11.8427 260.571 13.8136ZM258.667 13.8136C258.667 12.6778 258.25 12.2769 257.515 12.2769C256.78 12.2769 256.379 12.6778 256.379 13.8136C256.379 14.8994 256.78 15.2835 257.515 15.2835C258.25 15.2835 258.667 14.8994 258.667 13.8136Z" fill="white"/>
<path d="M263.16 11.6255C263.695 11.0576 264.229 10.7402 264.914 10.7402C265.733 10.7569 266.334 11.0409 266.585 11.7424C267.32 10.9908 267.904 10.7569 268.522 10.7569C269.725 10.7569 270.326 11.4084 270.326 12.9952V16.72H268.389V13.5297C268.389 12.8449 268.238 12.5442 267.77 12.5442C267.453 12.5442 267.119 12.7279 266.768 13.1455V16.72H264.831V13.5297C264.831 12.8449 264.63 12.5442 264.179 12.5442C263.812 12.5442 263.494 12.7947 263.177 13.1789V16.7033H261.24V10.8572H263.177V11.6255H263.16Z" fill="white"/>
<path d="M273.116 11.6254C273.7 11.0241 274.268 10.7402 274.986 10.7402C276.423 10.7402 277.174 11.6254 277.174 13.7301C277.174 15.9182 276.089 16.8202 274.853 16.8202C273.951 16.8202 273.6 16.5362 273.116 16.0518V16.7033H271.178V8.88611H273.116V11.6254ZM273.116 14.5986C273.416 15.0162 273.7 15.2334 274.235 15.2334C274.853 15.2334 275.27 14.7991 275.27 13.7301C275.27 12.7446 274.903 12.3604 274.268 12.3604C273.8 12.3604 273.433 12.5942 273.099 13.0285V14.5986H273.116Z" fill="white"/>
<path d="M283.271 15.8682C282.386 16.5363 281.551 16.8203 280.565 16.8203C278.778 16.8203 277.609 15.8181 277.609 13.8304C277.609 11.7926 278.744 10.757 280.582 10.757C282.235 10.757 283.304 11.709 283.304 13.5631C283.304 13.8137 283.288 14.0475 283.254 14.3482H279.463C279.596 14.9996 279.981 15.317 280.632 15.317C281.417 15.317 281.985 15.1666 282.703 14.7825L283.271 15.8682ZM281.634 13.1956C281.584 12.4273 281.2 12.0932 280.565 12.0932C279.93 12.0932 279.563 12.444 279.446 13.1956H281.634Z" fill="white"/>
<path d="M285.91 11.9262C286.311 11.1578 286.796 10.7402 287.48 10.7402C287.681 10.7402 287.881 10.7402 288.215 10.7736L288.082 12.7279C287.798 12.7112 287.597 12.7112 287.397 12.7112C286.679 12.7112 286.178 12.9451 285.927 13.7969V16.72H283.956V10.8572H285.894V11.9262H285.91Z" fill="white"/>
<path d="M294.379 15.7011C294.379 17.9393 293.36 18.8246 291.406 18.8246C290.537 18.8246 289.485 18.6242 288.817 18.3235L289.067 17.004C289.735 17.171 290.554 17.3547 291.122 17.3547C291.99 17.3547 292.425 16.9371 292.425 15.6844V15.651C291.94 16.2523 291.523 16.4527 290.604 16.4527C289.251 16.4527 288.366 15.5341 288.366 13.6299C288.366 11.6088 289.134 10.7235 290.571 10.7235C291.289 10.7235 291.857 11.0075 292.425 11.4919V10.8571H294.362V15.7011H294.379ZM292.441 13.0286C292.107 12.5943 291.757 12.3604 291.272 12.3604C290.621 12.3604 290.27 12.6945 290.27 13.6466C290.27 14.6488 290.687 14.9661 291.322 14.9661C291.857 14.9661 292.141 14.749 292.425 14.3314V13.0286H292.441Z" fill="white"/>
<path d="M303.967 15.9683C302.898 16.5696 301.945 16.8202 300.81 16.8202C298.571 16.8202 297.152 15.4672 297.152 13.0285C297.152 10.5732 298.555 9.20349 300.927 9.20349C301.862 9.20349 302.831 9.42063 303.699 9.87162L303.098 11.3582C302.213 11.1077 301.611 10.974 301.027 10.974C299.807 10.974 299.156 11.6589 299.156 13.0285C299.156 14.2479 299.841 15.0496 300.91 15.0496C301.728 15.0496 302.33 14.8993 303.332 14.4984L303.967 15.9683Z" fill="white"/>
<path d="M309.896 15.8682C309.011 16.5363 308.176 16.8203 307.19 16.8203C305.403 16.8203 304.234 15.8181 304.234 13.8304C304.234 11.7926 305.37 10.757 307.207 10.757C308.861 10.757 309.93 11.709 309.93 13.5631C309.93 13.8137 309.913 14.0475 309.88 14.3482H306.088C306.222 14.9996 306.606 15.317 307.257 15.317C308.042 15.317 308.61 15.1666 309.328 14.7825L309.896 15.8682ZM308.276 13.1956C308.226 12.4273 307.842 12.0932 307.207 12.0932C306.572 12.0932 306.205 12.444 306.088 13.1956H308.276Z" fill="white"/>
<path d="M312.552 11.6088C313.17 11.0576 313.771 10.7402 314.49 10.7402C315.742 10.7402 316.327 11.4084 316.327 12.9785V16.7033H314.389V13.5297C314.389 12.8114 314.273 12.5442 313.705 12.5442C313.254 12.5442 312.886 12.7947 312.552 13.2123V16.7033H310.615V10.8572H312.552V11.6088Z" fill="white"/>
<path d="M321.171 16.4027C320.753 16.6365 320.069 16.8036 319.467 16.8036C318.098 16.8036 317.53 16.1688 317.53 14.5653V12.444H316.711V10.8572H317.53V9.55432H319.467V10.8572H320.904V12.444H319.467V14.4818C319.467 14.9996 319.618 15.2501 320.202 15.2501C320.486 15.2501 320.67 15.2501 320.987 15.2334L321.171 16.4027Z" fill="white"/>
<path d="M327.067 15.8682C326.182 16.5363 325.347 16.8203 324.361 16.8203C322.574 16.8203 321.405 15.8181 321.405 13.8304C321.405 11.7926 322.541 10.757 324.378 10.757C326.032 10.757 327.101 11.709 327.101 13.5631C327.101 13.8137 327.084 14.0475 327.051 14.3482H323.259C323.392 14.9996 323.777 15.317 324.428 15.317C325.213 15.317 325.781 15.1666 326.499 14.7825L327.067 15.8682ZM325.447 13.1956C325.397 12.4273 325.013 12.0932 324.378 12.0932C323.743 12.0932 323.376 12.444 323.259 13.1956H325.447Z" fill="white"/>
<path d="M329.723 11.9262C330.124 11.1578 330.608 10.7402 331.293 10.7402C331.494 10.7402 331.694 10.7402 332.028 10.7736L331.894 12.7279C331.61 12.7112 331.41 12.7112 331.21 12.7112C330.491 12.7112 329.99 12.9451 329.74 13.7969V16.72H327.802V10.8572H329.74V11.9262H329.723Z" fill="white"/>
<path d="M338.359 9.88837C338.075 9.87166 337.858 9.87166 337.59 9.87166C336.989 9.87166 336.822 10.189 336.822 10.6901V10.8572H338.308V12.444H336.822V16.72H334.884V12.444H334.116V10.8572H334.884V10.6734C334.884 9.10331 335.619 8.43518 337.239 8.43518C337.707 8.43518 338.108 8.48529 338.509 8.56881L338.359 9.88837Z" fill="white"/>
<path d="M344.622 13.8136C344.622 15.7345 343.487 16.8202 341.566 16.8202C339.645 16.8202 338.526 15.7345 338.526 13.8136C338.526 11.8427 339.645 10.7402 341.566 10.7402C343.487 10.7402 344.622 11.8427 344.622 13.8136ZM342.718 13.8136C342.718 12.6778 342.301 12.2769 341.566 12.2769C340.831 12.2769 340.43 12.6778 340.43 13.8136C340.43 14.8994 340.831 15.2835 341.566 15.2835C342.301 15.2835 342.718 14.8994 342.718 13.8136Z" fill="white"/>
<path d="M347.211 11.9262C347.612 11.1578 348.097 10.7402 348.782 10.7402C348.982 10.7402 349.182 10.7402 349.516 10.7736L349.383 12.7279C349.099 12.7112 348.898 12.7112 348.698 12.7112C347.98 12.7112 347.479 12.9451 347.228 13.7969V16.72H345.291V10.8572H347.228V11.9262H347.211Z" fill="white"/>
<path d="M245.371 29.615C244.052 30.2664 242.999 30.5337 241.78 30.5337C239.559 30.5337 238.156 29.1807 238.156 26.742C238.156 24.4537 239.625 22.917 241.847 22.917C242.766 22.917 244.002 23.1174 245.054 23.5851L244.553 25.055C243.617 24.8045 242.899 24.6374 242.031 24.6374C240.912 24.6374 240.16 25.4893 240.16 26.742C240.16 28.0783 240.795 28.7966 241.864 28.7966C242.465 28.7966 242.999 28.7631 243.668 28.5126V27.7776H241.78V26.2242H245.388V29.615H245.371Z" fill="white"/>
<path d="M252.069 27.527C252.069 29.4479 250.934 30.5336 249.013 30.5336C247.092 30.5336 245.973 29.4479 245.973 27.527C245.973 25.556 247.092 24.4536 249.013 24.4536C250.934 24.4536 252.069 25.5727 252.069 27.527ZM250.165 27.527C250.165 26.4079 249.748 25.9903 249.013 25.9903C248.278 25.9903 247.877 26.3912 247.877 27.527C247.877 28.6127 248.278 28.9969 249.013 28.9969C249.748 28.9969 250.165 28.6127 250.165 27.527Z" fill="white"/>
<path d="M254.525 30.4334L252.236 24.5706H254.174L255.276 27.5604C255.393 27.8444 255.46 28.1618 255.544 28.4624C255.644 28.1618 255.711 27.8277 255.828 27.5604L257.047 24.5706H258.968L256.563 30.4334H254.525Z" fill="white"/>
<path d="M264.697 29.5983C263.812 30.2664 262.977 30.5504 261.991 30.5504C260.204 30.5504 259.035 29.5482 259.035 27.5605C259.035 25.5227 260.17 24.4871 262.008 24.4871C263.661 24.4871 264.73 25.4391 264.73 27.2932C264.73 27.5438 264.714 27.7776 264.68 28.0783H260.889C261.022 28.7297 261.407 29.0471 262.058 29.0471C262.843 29.0471 263.411 28.8967 264.129 28.5126L264.697 29.5983ZM263.077 26.909C263.027 26.1407 262.643 25.8066 262.008 25.8066C261.373 25.8066 261.006 26.1574 260.889 26.909H263.077Z" fill="white"/>
<path d="M267.336 25.6563C267.737 24.8879 268.221 24.4703 268.906 24.4703C269.107 24.4703 269.307 24.4703 269.641 24.5037L269.508 26.458C269.224 26.4413 269.023 26.4413 268.823 26.4413C268.105 26.4413 267.603 26.6752 267.353 27.527V30.4501H265.415V24.5873H267.353V25.6563H267.336Z" fill="white"/>
<path d="M271.996 25.3389C272.614 24.7877 273.216 24.4703 273.934 24.4703C275.187 24.4703 275.771 25.1385 275.771 26.7086V30.4334H273.834V27.2598C273.834 26.5415 273.717 26.2743 273.149 26.2743C272.698 26.2743 272.33 26.5248 271.996 26.9424V30.4334H270.059V24.5706H271.996V25.3389Z" fill="white"/>
<path d="M278.561 25.3389C279.095 24.771 279.63 24.4536 280.315 24.4536C281.133 24.4703 281.734 24.7543 281.985 25.4558C282.72 24.7042 283.305 24.4703 283.923 24.4703C285.125 24.4703 285.726 25.1217 285.726 26.7086V30.4334H283.789V27.2598C283.789 26.5749 283.639 26.2743 283.171 26.2743C282.854 26.2743 282.519 26.458 282.169 26.8756V30.4501H280.231V27.2765C280.231 26.5916 280.031 26.291 279.58 26.291C279.212 26.291 278.895 26.5415 278.577 26.9257V30.4501H276.64V24.5872H278.577V25.3389H278.561Z" fill="white"/>
<path d="M292.024 29.5983C291.138 30.2664 290.303 30.5504 289.318 30.5504C287.531 30.5504 286.361 29.5482 286.361 27.5605C286.361 25.5227 287.497 24.4871 289.335 24.4871C290.988 24.4871 292.057 25.4391 292.057 27.2932C292.057 27.5438 292.04 27.7776 292.007 28.0783H288.215C288.349 28.7297 288.733 29.0471 289.401 29.0471C290.186 29.0471 290.754 28.8967 291.473 28.5126L292.024 29.5983ZM290.387 26.909C290.337 26.1407 289.953 25.8066 289.318 25.8066C288.683 25.8066 288.316 26.1574 288.199 26.909H290.387Z" fill="white"/>
<path d="M294.663 25.3389C295.281 24.7877 295.882 24.4703 296.6 24.4703C297.853 24.4703 298.438 25.1385 298.438 26.7086V30.4334H296.5V27.2598C296.5 26.5415 296.383 26.2743 295.815 26.2743C295.364 26.2743 294.997 26.5248 294.663 26.9424V30.4334H292.725V24.5706H294.663V25.3389Z" fill="white"/>
<path d="M303.282 30.1161C302.864 30.3499 302.179 30.5169 301.578 30.5169C300.208 30.5169 299.64 29.8822 299.64 28.2787V26.1574H298.822V24.5706H299.64V23.2677H301.578V24.5706H303.014V26.1574H301.578V28.1952C301.578 28.713 301.728 28.9635 302.313 28.9635C302.597 28.9635 302.78 28.9635 303.098 28.9468L303.282 30.1161Z" fill="white"/>
<path d="M306.004 30.4334V23.0338H311.466V24.8378H307.992V25.9569H310.965V27.6606H307.992V28.6962H311.567V30.4501H306.004V30.4334Z" fill="white"/>
<path d="M315.258 28.9969C315.191 28.8967 315.141 28.7965 315.074 28.6963C315.007 28.8132 314.94 28.8967 314.89 28.9969L313.905 30.4334H311.884L313.738 27.4936L311.9 24.5706H313.955L314.874 25.9903C314.924 26.0906 314.991 26.1908 315.057 26.291C315.124 26.1741 315.174 26.0906 315.241 25.9903L316.143 24.5706H318.198L316.36 27.4936L318.231 30.4334H316.21L315.258 28.9969Z" fill="white"/>
<path d="M323.843 29.6483C323.058 30.2664 322.323 30.5336 321.204 30.5336C319.651 30.5336 318.398 29.5147 318.398 27.527C318.398 25.4892 319.584 24.4536 321.238 24.4536C322.056 24.4536 322.808 24.6039 323.643 25.0883L323.109 26.3077C322.457 26.0237 321.973 25.9736 321.505 25.9736C320.737 25.9736 320.302 26.5248 320.302 27.5103C320.302 28.4457 320.72 28.9802 321.488 28.9802C322.04 28.9802 322.674 28.8466 323.276 28.5292L323.843 29.6483Z" fill="white"/>
<path d="M329.74 29.5983C328.854 30.2664 328.019 30.5504 327.034 30.5504C325.246 30.5504 324.077 29.5482 324.077 27.5605C324.077 25.5227 325.213 24.4871 327.05 24.4871C328.704 24.4871 329.773 25.4391 329.773 27.2932C329.773 27.5438 329.756 27.7776 329.723 28.0783H325.931C326.065 28.7297 326.449 29.0471 327.101 29.0471C327.886 29.0471 328.454 28.8967 329.172 28.5126L329.74 29.5983ZM328.119 26.909C328.069 26.1407 327.685 25.8066 327.05 25.8066C326.416 25.8066 326.048 26.1574 325.931 26.909H328.119Z" fill="white"/>
<path d="M330.441 30.4335V22.6163H332.379V30.4335H330.441Z" fill="white"/>
<path d="M333.281 30.4335V22.6163H335.218V30.4335H333.281Z" fill="white"/>
<path d="M341.549 29.5983C340.664 30.2664 339.828 30.5504 338.843 30.5504C337.056 30.5504 335.886 29.5482 335.886 27.5605C335.886 25.5227 337.022 24.4871 338.86 24.4871C340.513 24.4871 341.582 25.4391 341.582 27.2932C341.582 27.5438 341.566 27.7776 341.532 28.0783H337.741C337.874 28.7297 338.258 29.0471 338.926 29.0471C339.712 29.0471 340.279 28.8967 340.998 28.5126L341.549 29.5983ZM339.912 26.909C339.862 26.1407 339.478 25.8066 338.843 25.8066C338.208 25.8066 337.841 26.1574 337.724 26.909H339.912Z" fill="white"/>
<path d="M344.188 25.3389C344.806 24.7877 345.407 24.4703 346.126 24.4703C347.378 24.4703 347.963 25.1385 347.963 26.7086V30.4334H346.025V27.2598C346.025 26.5415 345.909 26.2743 345.341 26.2743C344.89 26.2743 344.522 26.5248 344.188 26.9424V30.4334H342.25V24.5706H344.188V25.3389Z" fill="white"/>
<path d="M354.01 29.6483C353.225 30.2664 352.49 30.5336 351.37 30.5336C349.817 30.5336 348.564 29.5147 348.564 27.527C348.564 25.4892 349.75 24.4536 351.404 24.4536C352.222 24.4536 352.974 24.6039 353.809 25.0883L353.275 26.3077C352.623 26.0237 352.139 25.9736 351.671 25.9736C350.903 25.9736 350.469 26.5248 350.469 27.5103C350.469 28.4457 350.886 28.9802 351.654 28.9802C352.206 28.9802 352.84 28.8466 353.442 28.5292L354.01 29.6483Z" fill="white"/>
<path d="M359.906 29.5983C359.021 30.2664 358.185 30.5504 357.2 30.5504C355.413 30.5504 354.243 29.5482 354.243 27.5605C354.243 25.5227 355.379 24.4871 357.217 24.4871C358.87 24.4871 359.939 25.4391 359.939 27.2932C359.939 27.5438 359.923 27.7776 359.889 28.0783H356.097C356.231 28.7297 356.615 29.0471 357.283 29.0471C358.068 29.0471 358.636 28.8967 359.355 28.5126L359.906 29.5983ZM358.286 26.909C358.235 26.1407 357.851 25.8066 357.217 25.8066C356.582 25.8066 356.214 26.1574 356.097 26.909H358.286Z" fill="white"/>
<path d="M71.8076 30.517C71.8076 29.8321 71.7909 28.5627 71.6072 28.2453C71.5236 28.1117 71.3232 28.0282 71.0559 28.0115L70.772 27.9948C70.7052 27.9113 70.7219 27.7776 70.7887 27.7275C71.2063 27.7442 71.6072 27.7609 72.0414 27.7609C72.5091 27.7609 72.7931 27.7442 73.194 27.7275C73.2775 27.7776 73.2775 27.928 73.2107 27.9948L72.9434 28.0115C72.6595 28.0282 72.459 28.1284 72.3922 28.2787C72.2419 28.6462 72.2419 29.8989 72.2419 30.517V31.7697C72.2419 32.7218 72.0915 33.7407 71.4735 34.3921C71.0058 34.9099 70.1874 35.1939 69.3689 35.1939C68.6173 35.1939 67.8489 35.0436 67.3144 34.5926C66.7298 34.1082 66.4625 33.3064 66.4625 31.9869V29.3811C66.4625 28.2286 66.4458 28.0449 65.7944 27.9948L65.5272 27.9781C65.4603 27.928 65.477 27.7442 65.5439 27.7108C66.0951 27.7275 66.4625 27.7442 66.9135 27.7442C67.3645 27.7442 67.732 27.7275 68.2665 27.7108C68.3333 27.7442 68.35 27.928 68.2832 27.9781L68.0159 27.9948C67.3812 28.0449 67.3478 28.2453 67.3478 29.3811V31.753C67.3478 33.5236 67.899 34.6928 69.5861 34.6928C71.1896 34.6928 71.7909 33.44 71.7909 31.7697V30.517H71.8076Z" fill="white"/>
<path d="M86.2059 33.1394C86.2059 33.4734 86.2059 34.7763 86.2393 35.0602C86.2226 35.1271 86.1558 35.1772 86.0221 35.1772C85.8885 34.9934 85.5711 34.6093 84.6191 33.5068L82.0635 30.6005C81.7628 30.2664 81.0111 29.3644 80.7773 29.1139H80.7606C80.7105 29.2475 80.7105 29.498 80.7105 29.8321V32.2374C80.7105 32.7552 80.7272 34.1917 80.9109 34.5257C80.9777 34.6427 81.1949 34.7095 81.4788 34.7262L81.8129 34.7596C81.8797 34.8431 81.863 34.9767 81.7962 35.0268C81.2951 35.0101 80.9109 34.9934 80.5101 34.9934C80.0424 34.9934 79.7584 35.0101 79.3575 35.0268C79.274 34.9767 79.274 34.8264 79.3408 34.7596L79.6415 34.7262C79.892 34.6928 80.0758 34.626 80.1259 34.509C80.2762 34.1082 80.2762 32.7719 80.2762 32.2374V29.0638C80.2762 28.7631 80.2595 28.5293 80.0257 28.262C79.8753 28.1117 79.6081 28.0282 79.3408 27.9948L79.1571 27.978C79.0903 27.9112 79.0903 27.7442 79.1738 27.6941C79.6415 27.7275 80.2261 27.7275 80.4098 27.7275C80.5936 27.7275 80.7773 27.7108 80.9109 27.6941C81.1281 28.262 82.4309 29.7152 82.7984 30.1161L83.8674 31.3187C84.6358 32.1706 85.1703 32.7886 85.6881 33.3064H85.7048C85.7549 33.2563 85.7549 33.0726 85.7549 32.8387V30.4835C85.7549 29.9657 85.7382 28.5293 85.5377 28.2119C85.4709 28.1117 85.2872 28.0449 84.8529 27.9948L84.6692 27.978C84.5857 27.9112 84.6024 27.7275 84.6859 27.6941C85.187 27.7108 85.5711 27.7275 85.9887 27.7275C86.4564 27.7275 86.7571 27.7108 87.1246 27.6941C87.2081 27.7442 87.2081 27.9112 87.1413 27.978L86.9909 27.9948C86.6402 28.0449 86.423 28.1284 86.3729 28.2286C86.1892 28.6295 86.2059 29.9824 86.2059 30.5002V33.1394Z" fill="white"/>
<path d="M94.4072 29.4146C94.4072 28.2453 94.3905 28.0616 93.7391 28.0115L93.4551 27.9948C93.3883 27.9447 93.405 27.7442 93.4718 27.7108C94.023 27.7275 94.3905 27.7442 94.8582 27.7442C95.2925 27.7442 95.6767 27.7275 96.2279 27.7108C96.2947 27.7442 96.3114 27.9447 96.2446 27.9948L95.9606 28.0115C95.3092 28.0616 95.2925 28.2453 95.2925 29.4146V33.3398C95.2925 34.5091 95.3092 34.6594 95.9606 34.7429L96.2446 34.7763C96.3114 34.8264 96.2947 35.0102 96.2279 35.0436C95.6767 35.0269 95.3092 35.0102 94.8582 35.0102C94.3905 35.0102 94.023 35.0269 93.4718 35.0436C93.405 35.0102 93.3883 34.8264 93.4551 34.7763L93.7391 34.7429C94.3905 34.6594 94.4072 34.5091 94.4072 33.3398V29.4146Z" fill="white"/>
<path d="M103.327 28.9134C103.076 28.2954 102.909 28.0616 102.441 28.0115L102.241 27.9948C102.157 27.9279 102.174 27.7776 102.258 27.7108C102.575 27.7275 102.926 27.7442 103.41 27.7442C103.895 27.7442 104.279 27.7275 104.746 27.7108C104.83 27.7609 104.847 27.9279 104.763 27.9948L104.596 28.0115C104.179 28.0616 104.095 28.1284 104.078 28.2119C104.095 28.3288 104.279 28.9134 104.63 29.7486C105.131 31.0348 105.648 32.2875 106.2 33.5402C106.534 32.8053 107.001 31.6862 107.252 31.1016C107.569 30.3499 108.087 29.1139 108.271 28.6295C108.354 28.3956 108.371 28.2787 108.371 28.1952C108.371 28.1117 108.254 28.0282 107.87 27.9948L107.67 27.978C107.586 27.9112 107.619 27.7442 107.686 27.6941C107.987 27.7108 108.421 27.7275 108.839 27.7275C109.206 27.7275 109.54 27.7108 109.908 27.6941C109.991 27.7442 109.991 27.9112 109.924 27.978L109.59 27.9948C109.323 28.0115 109.156 28.1451 109.022 28.3789C108.722 28.8967 108.288 29.782 107.786 30.9178L107.185 32.2708C106.751 33.2897 106.233 34.5591 106.033 35.1438C105.999 35.1605 105.949 35.1772 105.916 35.1772C105.866 35.1772 105.799 35.1605 105.749 35.1438C105.632 34.6761 105.431 34.1416 105.248 33.6739L103.327 28.9134Z" fill="white"/>
<path d="M116.589 29.3978C116.589 28.2453 116.573 28.0783 115.921 28.0115L115.737 27.9948C115.671 27.9447 115.687 27.7442 115.754 27.7108C116.222 27.7275 116.606 27.7442 117.057 27.7442H119.128C119.83 27.7442 120.481 27.7442 120.615 27.7108C120.682 27.8946 120.748 28.6963 120.798 29.1807C120.748 29.2475 120.581 29.2642 120.515 29.1974C120.347 28.6796 120.247 28.2954 119.679 28.1451C119.445 28.095 119.095 28.0783 118.61 28.0783H117.825C117.491 28.0783 117.491 28.095 117.491 28.5126V30.7174C117.491 31.0181 117.525 31.0181 117.859 31.0181H118.493C118.961 31.0181 119.295 31.0014 119.429 30.9513C119.562 30.9011 119.646 30.8343 119.696 30.5671L119.78 30.1161C119.83 30.0493 120.013 30.0493 120.064 30.1328C120.064 30.4 120.013 30.8343 120.013 31.2519C120.013 31.6528 120.064 32.0704 120.064 32.3042C120.013 32.3877 119.83 32.3877 119.78 32.3209L119.679 31.8866C119.629 31.6862 119.562 31.5192 119.345 31.4691C119.195 31.4189 118.928 31.4189 118.493 31.4189H117.859C117.525 31.4189 117.491 31.4357 117.491 31.7196V33.273C117.491 33.8576 117.525 34.2251 117.692 34.4255C117.825 34.5592 118.059 34.6761 119.028 34.6761C119.88 34.6761 120.197 34.626 120.431 34.5091C120.631 34.3921 120.932 34.008 121.216 33.44C121.3 33.3899 121.45 33.4233 121.5 33.5236C121.416 33.9077 121.149 34.7596 120.999 35.0603C120.013 35.0436 119.028 35.0269 118.042 35.0269H117.057C116.589 35.0269 116.205 35.0436 115.554 35.0603C115.487 35.0269 115.47 34.8598 115.537 34.793L115.904 34.7596C116.539 34.7095 116.589 34.5425 116.589 33.3899V29.3978Z" fill="white"/>
<path d="M128.532 29.4146C128.532 28.3622 128.499 28.1785 128.048 28.1284L127.697 28.0783C127.613 28.0282 127.613 27.8444 127.713 27.7943C128.331 27.7442 129.083 27.7108 130.169 27.7108C130.854 27.7108 131.505 27.7609 132.006 28.0449C132.541 28.3121 132.925 28.8132 132.925 29.5816C132.925 30.6339 132.106 31.2018 131.555 31.4189C131.505 31.4858 131.555 31.6027 131.605 31.6862C132.491 33.106 133.075 33.9913 133.827 34.6093C134.011 34.7763 134.295 34.8932 134.579 34.9099C134.629 34.9266 134.645 35.0269 134.595 35.0603C134.495 35.0937 134.311 35.1104 134.111 35.1104C133.175 35.1104 132.608 34.8264 131.839 33.724C131.555 33.3231 131.104 32.5548 130.753 32.0537C130.57 31.8365 130.386 31.7363 129.952 31.7363C129.451 31.7363 129.434 31.753 129.434 31.9869V33.3732C129.434 34.5258 129.451 34.6594 130.102 34.7429L130.336 34.7763C130.403 34.8264 130.386 35.0102 130.319 35.0436C129.818 35.0269 129.451 35.0102 129.016 35.0102C128.549 35.0102 128.148 35.0269 127.647 35.0436C127.58 35.0102 127.563 34.8431 127.63 34.7763L127.897 34.7429C128.532 34.6594 128.565 34.5258 128.565 33.3732V29.4146H128.532ZM129.434 30.9847C129.434 31.1851 129.434 31.302 129.467 31.3521C129.501 31.3855 129.668 31.4022 130.236 31.4022C130.637 31.4022 131.054 31.3521 131.371 31.1183C131.672 30.8844 131.923 30.5003 131.923 29.7486C131.923 28.88 131.388 28.0449 130.152 28.0449C129.467 28.0449 129.434 28.095 129.434 28.3957V30.9847Z" fill="white"/>
<path d="M141.845 35.1939C140.926 35.1939 140.341 34.9099 140.124 34.793C139.991 34.5424 139.857 33.7741 139.823 33.2563C139.874 33.1728 140.041 33.1561 140.091 33.2229C140.258 33.7908 140.709 34.8598 141.978 34.8598C142.897 34.8598 143.348 34.2585 143.348 33.5904C143.348 33.106 143.248 32.5715 142.446 32.0537L141.394 31.3688C140.842 31.0013 140.208 30.3833 140.208 29.4813C140.208 28.429 141.026 27.5939 142.446 27.5939C142.78 27.5939 143.181 27.6607 143.465 27.7275C143.615 27.7776 143.765 27.7943 143.849 27.7943C143.949 28.0616 144.049 28.6796 144.049 29.1473C143.999 29.2141 143.832 29.2475 143.782 29.1807C143.632 28.6462 143.348 27.9279 142.279 27.9279C141.193 27.9279 140.976 28.6462 140.976 29.1473C140.976 29.782 141.511 30.2497 141.911 30.5002L142.797 31.0515C143.498 31.4857 144.166 32.1205 144.166 33.1728C144.183 34.3754 143.281 35.1939 141.845 35.1939Z" fill="white"/>
<path d="M151.666 29.4146C151.666 28.2453 151.649 28.0616 150.998 28.0115L150.714 27.9948C150.647 27.9447 150.664 27.7442 150.731 27.7108C151.282 27.7275 151.649 27.7442 152.117 27.7442C152.551 27.7442 152.935 27.7275 153.487 27.7108C153.553 27.7442 153.57 27.9447 153.503 27.9948L153.219 28.0115C152.568 28.0616 152.551 28.2453 152.551 29.4146V33.3398C152.551 34.5091 152.568 34.6594 153.219 34.7429L153.503 34.7763C153.57 34.8264 153.553 35.0102 153.487 35.0436C152.935 35.0269 152.568 35.0102 152.117 35.0102C151.649 35.0102 151.282 35.0269 150.731 35.0436C150.664 35.0102 150.647 34.8264 150.714 34.7763L150.998 34.7429C151.649 34.6594 151.666 34.5091 151.666 33.3398V29.4146Z" fill="white"/>
<path d="M163.909 33.3732C163.909 34.5258 163.926 34.6928 164.561 34.7429L164.912 34.7763C164.978 34.8264 164.962 35.0102 164.895 35.0603C164.26 35.0436 163.893 35.0269 163.458 35.0269C163.024 35.0269 162.64 35.0436 161.922 35.0603C161.855 35.0269 161.838 34.8431 161.922 34.7763L162.323 34.7429C162.957 34.6928 163.007 34.5258 163.007 33.3732V28.4458C163.007 28.1117 163.007 28.095 162.673 28.095H162.072C161.604 28.095 160.986 28.1117 160.719 28.3622C160.452 28.6128 160.352 28.8466 160.218 29.1306C160.135 29.1974 159.967 29.1473 159.934 29.0471C160.118 28.546 160.268 27.8444 160.352 27.4102C160.385 27.3935 160.535 27.3767 160.569 27.4102C160.636 27.7609 161.003 27.7442 161.504 27.7442H165.964C166.565 27.7442 166.666 27.7275 166.816 27.4436C166.866 27.4269 167 27.4269 167.016 27.477C166.899 27.928 166.816 28.8299 166.849 29.1473C166.799 29.2308 166.615 29.2308 166.565 29.164C166.532 28.8967 166.448 28.4792 166.298 28.3622C166.047 28.1785 165.63 28.095 165.012 28.095H164.227C163.893 28.095 163.909 28.1117 163.909 28.4625V33.3732Z" fill="white"/>
<path d="M176.454 33.3398C176.454 34.5257 176.521 34.6928 177.122 34.7429L177.54 34.7763C177.606 34.8431 177.59 35.0101 177.523 35.0435C176.838 35.0268 176.47 35.0101 176.02 35.0101C175.552 35.0101 175.168 35.0268 174.583 35.0435C174.516 35.0101 174.5 34.8431 174.566 34.7763L174.917 34.7429C175.552 34.6761 175.569 34.5257 175.569 33.3398V32.7719C175.569 32.1706 175.535 32.0202 175.218 31.4022L173.915 28.8633C173.547 28.1284 173.38 28.0783 173.046 28.0282L172.746 27.978C172.679 27.8945 172.696 27.7442 172.762 27.6941C173.113 27.7108 173.514 27.7275 174.049 27.7275C174.55 27.7275 174.951 27.7108 175.234 27.6941C175.335 27.7275 175.335 27.9112 175.268 27.978L175.118 27.9948C174.733 28.0449 174.65 28.1117 174.65 28.1952C174.65 28.3121 174.934 28.9301 174.984 29.0471C175.385 29.8655 175.802 30.7341 176.237 31.4857C176.571 30.9011 176.938 30.2664 177.272 29.6317C177.573 29.0638 177.99 28.3121 177.99 28.1785C177.99 28.1117 177.79 28.0449 177.523 28.0115L177.322 27.9948C177.239 27.9112 177.256 27.7609 177.339 27.7108C177.74 27.7275 178.057 27.7442 178.391 27.7442C178.725 27.7442 179.043 27.7275 179.41 27.7108C179.494 27.7609 179.51 27.9279 179.427 27.9948L179.126 28.0449C178.558 28.1451 178.224 28.8299 177.673 29.782L176.972 30.9846C176.487 31.8198 176.454 31.92 176.454 32.7719V33.3398Z" fill="white"/>
<path d="M46.2682 7.63336C46.2682 4.7938 46.0176 4.49314 44.4976 4.35952L43.8629 4.30941C43.7126 4.20919 43.7627 3.7415 43.913 3.67468C45.3996 3.72479 46.2682 3.7582 47.3372 3.7582C48.3561 3.7582 49.2247 3.72479 50.2436 3.67468C50.3939 3.7582 50.444 4.20919 50.2937 4.30941L49.9095 4.35952C48.4062 4.55996 48.3561 4.92743 48.3561 7.63336V17.1041C48.3561 19.1252 48.2559 20.8791 47.7715 22.065C46.9196 24.1028 45.1156 25.7397 42.7438 25.7397C42.4431 25.7397 41.6414 25.7063 41.6414 25.2052C41.6414 24.7709 42.0255 24.036 42.56 24.036C42.8607 24.036 43.1781 24.0861 43.5121 24.1863C43.8629 24.2866 44.2304 24.3701 44.5811 24.3701C45.1156 24.3701 45.433 24.0694 45.6 23.7019C46.1847 22.4993 46.2682 18.6742 46.2682 17.2879V7.63336Z" fill="white"/>
<path d="M50.2437 13.6465C50.2437 9.33706 53.4841 6.04651 57.9105 6.04651C62.888 6.04651 65.3935 9.63772 65.3935 13.4294C65.3935 17.7722 62.0696 20.9458 57.9105 20.9458C53.1333 20.9458 50.2437 17.5217 50.2437 13.6465ZM63.2388 14.0975C63.2388 10.5397 61.6687 6.71464 57.543 6.71464C55.3048 6.71464 52.3984 8.25134 52.3984 12.9617C52.3984 16.152 53.9518 20.2944 58.1944 20.2944C60.7834 20.2777 63.2388 18.3401 63.2388 14.0975Z" fill="white"/>
<path d="M70.2875 13.6466C69.2519 13.6466 69.2018 13.6967 69.2018 14.3314V17.3714C69.2018 19.6264 69.3187 19.927 70.5213 20.0607L71.1393 20.1275C71.273 20.211 71.2229 20.5952 71.0892 20.662C69.92 20.6119 69.1851 20.5952 68.3499 20.5952C67.4312 20.5952 66.6963 20.6453 65.8444 20.662C65.7108 20.5952 65.6774 20.2611 65.7943 20.1275L66.1618 20.0607C67.3644 19.8435 67.4145 19.6264 67.4145 17.3714V9.6211C67.4145 7.36615 67.2642 6.99868 66.1451 6.89846L65.5771 6.84835C65.4435 6.76483 65.4936 6.38066 65.6273 6.31384C66.6796 6.33055 67.4145 6.38066 68.3332 6.38066C69.1684 6.38066 69.9033 6.36395 70.8387 6.31384C70.9723 6.38066 71.0057 6.76483 70.8888 6.84835L70.4879 6.89846C69.2352 7.03208 69.2018 7.34945 69.2018 9.6211V12.0932C69.2018 12.7613 69.2519 12.778 70.2875 12.778H76.451C77.4866 12.778 77.5367 12.7613 77.5367 12.0932V9.6211C77.5367 7.36615 77.4866 7.03208 76.2171 6.89846L75.7996 6.84835C75.6659 6.76483 75.716 6.38066 75.8497 6.31384C76.8352 6.36395 77.5701 6.38066 78.4554 6.38066C79.2906 6.38066 80.0255 6.36395 80.9943 6.31384C81.1279 6.38066 81.1613 6.76483 81.0444 6.84835L80.5934 6.89846C79.3407 7.03208 79.3073 7.34945 79.3073 9.6211V17.3714C79.3073 19.6264 79.3574 19.9103 80.5934 20.0607L81.1112 20.1275C81.2448 20.211 81.1947 20.5952 81.0611 20.662C80.0255 20.6119 79.2906 20.5952 78.4554 20.5952C77.5701 20.5952 76.8018 20.6119 75.8497 20.662C75.716 20.5952 75.6826 20.2611 75.7996 20.1275L76.2171 20.0607C77.5367 19.8435 77.5367 19.6264 77.5367 17.3714V14.3314C77.5367 13.68 77.4866 13.6466 76.451 13.6466H70.2875Z" fill="white"/>
<path d="M95.8101 16.9371C95.8101 17.5886 95.8101 20.1442 95.8769 20.7121C95.8268 20.8457 95.7099 20.9459 95.476 20.9459C95.2255 20.5785 94.5907 19.8268 92.72 17.6888L87.7257 11.993C87.1411 11.3248 85.6712 9.55428 85.2202 9.08659H85.1701C85.0866 9.33714 85.0699 9.83824 85.0699 10.4897V15.2C85.0699 16.2189 85.0866 19.0083 85.454 19.6598C85.5877 19.8936 86.0219 20.0273 86.5565 20.0774L87.2246 20.1442C87.3582 20.3112 87.3415 20.5785 87.1745 20.6787C86.2057 20.6286 85.454 20.6119 84.6523 20.6119C83.7503 20.6119 83.1657 20.6286 82.414 20.6787C82.2637 20.5785 82.247 20.2778 82.3639 20.1442L82.9485 20.0774C83.4496 20.0105 83.7837 19.8936 83.9006 19.6431C84.2013 18.8747 84.1846 16.2356 84.1846 15.2V8.96967C84.1846 8.36835 84.1679 7.91736 83.7169 7.41626C83.4162 7.1156 82.8984 6.96527 82.3806 6.89846L82.0132 6.86505C81.8795 6.73143 81.8795 6.41406 82.0633 6.33055C82.9652 6.39736 84.1178 6.39736 84.502 6.39736C84.8527 6.39736 85.2202 6.38066 85.4874 6.33055C85.9217 7.43296 88.4606 10.2725 89.1622 11.0743L91.2501 13.4294C92.7367 15.0831 93.789 16.3024 94.8079 17.3213H94.858C94.9415 17.2211 94.9415 16.8703 94.9415 16.4193V11.7925C94.9415 10.7736 94.9248 7.98417 94.5072 7.33274C94.3736 7.1323 94.0395 7.01538 93.171 6.89846L92.8035 6.84835C92.6532 6.71472 92.6699 6.38066 92.8369 6.31384C93.8224 6.36395 94.5573 6.38066 95.3758 6.38066C96.2945 6.38066 96.8624 6.36395 97.5973 6.31384C97.7644 6.41406 97.7644 6.73143 97.6474 6.84835L97.3468 6.89846C96.6619 7.01538 96.2277 7.18241 96.1442 7.34945C95.7767 8.1178 95.8268 10.7903 95.8268 11.7925V16.9371H95.8101Z" fill="white"/>
<path d="M101.506 20.9459C99.702 20.9459 98.5495 20.378 98.1486 20.1442C97.898 19.6765 97.6141 18.1398 97.564 17.1209C97.6809 16.9705 97.9983 16.9204 98.0818 17.0541C98.3991 18.1565 99.2844 20.2611 101.79 20.2611C103.594 20.2611 104.479 19.0752 104.479 17.789C104.479 16.8369 104.279 15.7846 102.709 14.7657L100.654 13.4294C99.5684 12.7112 98.3323 11.4919 98.3323 9.72132C98.3323 7.66681 99.9191 6.01318 102.725 6.01318C103.393 6.01318 104.178 6.14681 104.73 6.29714C105.014 6.38066 105.314 6.43077 105.481 6.43077C105.682 6.94857 105.866 8.15121 105.866 9.05318C105.782 9.18681 105.431 9.25362 105.331 9.12C105.047 8.08439 104.479 6.68132 102.408 6.68132C100.303 6.68132 99.8523 8.08439 99.8523 9.06989C99.8523 10.3226 100.888 11.2246 101.69 11.7257L103.41 12.7947C104.763 13.6299 106.099 14.8826 106.099 16.9371C106.099 19.3257 104.312 20.9459 101.506 20.9459Z" fill="white"/>
<path d="M118.894 12.3604C117.675 12.3604 117.625 12.4105 117.625 13.1789V16.7868C117.625 19.4593 117.758 19.8268 119.178 19.9771L119.913 20.0439C120.063 20.1441 120.013 20.6118 119.863 20.6786C118.477 20.6285 117.608 20.5951 116.623 20.5951C115.52 20.5951 114.652 20.6452 113.666 20.6786C113.516 20.5951 113.466 20.1942 113.616 20.0439L114.05 19.9604C115.487 19.7098 115.537 19.4426 115.537 16.7701V7.58325C115.537 4.89402 115.353 4.45974 114.034 4.35952L113.365 4.30941C113.215 4.20919 113.265 3.7415 113.416 3.67468C114.668 3.70809 115.537 3.7582 116.639 3.7582C117.641 3.7582 118.51 3.72479 119.596 3.67468C119.746 3.7582 119.796 4.20919 119.646 4.30941L119.161 4.35952C117.675 4.50985 117.625 4.89402 117.625 7.58325V10.523C117.625 11.3081 117.675 11.3415 118.894 11.3415H126.194C127.413 11.3415 127.463 11.3248 127.463 10.523V7.58325C127.463 4.89402 127.413 4.52655 125.91 4.35952L125.425 4.30941C125.275 4.20919 125.325 3.7415 125.475 3.67468C126.645 3.72479 127.513 3.7582 128.565 3.7582C129.568 3.7582 130.436 3.72479 131.572 3.67468C131.722 3.7582 131.772 4.20919 131.622 4.30941L131.088 4.35952C129.601 4.50985 129.551 4.89402 129.551 7.58325V16.7701C129.551 19.4426 129.601 19.7767 131.088 19.9604L131.706 20.0439C131.856 20.1441 131.806 20.6118 131.656 20.6786C130.436 20.6285 129.568 20.5951 128.565 20.5951C127.513 20.5951 126.594 20.6285 125.475 20.6786C125.325 20.6118 125.275 20.1942 125.425 20.0439L125.91 19.9604C127.463 19.7098 127.463 19.4426 127.463 16.7701V13.1789C127.463 12.4105 127.413 12.3604 126.194 12.3604H118.894Z" fill="white"/>
<path d="M131.539 13.6465C131.539 9.33706 134.779 6.04651 139.205 6.04651C144.183 6.04651 146.688 9.63772 146.688 13.4294C146.688 17.7722 143.365 20.9458 139.205 20.9458C134.428 20.9458 131.539 17.5217 131.539 13.6465ZM144.534 14.0975C144.534 10.5397 142.964 6.71464 138.838 6.71464C136.6 6.71464 133.693 8.25134 133.693 12.9617C133.693 16.152 135.247 20.2944 139.489 20.2944C142.078 20.2777 144.534 18.3401 144.534 14.0975Z" fill="white"/>
<path d="M150.597 17.3714C150.597 19.6264 150.647 19.9103 152.017 20.0607L152.601 20.1275C152.735 20.2277 152.685 20.5952 152.551 20.662C151.315 20.6119 150.614 20.5952 149.745 20.5952C148.843 20.5952 148.058 20.6119 147.123 20.662C146.989 20.5952 146.956 20.2611 147.072 20.1275L147.523 20.0607C148.776 19.8936 148.81 19.6264 148.81 17.3714V9.42068C148.81 7.58331 148.76 7.21584 147.791 7.11562L147.022 7.03211C146.872 6.89848 146.889 6.58112 147.072 6.4976C148.208 6.34727 149.545 6.33057 151.332 6.33057C153.119 6.33057 154.455 6.56441 155.474 7.19914C156.46 7.81716 157.195 8.93628 157.195 10.4229C157.195 12.4106 155.975 13.3961 155.04 13.8471C154.088 14.298 152.952 14.4985 152.067 14.4985C151.916 14.4317 151.916 14.1143 152.05 14.0642C154.372 13.6299 155.224 12.3103 155.224 10.4396C155.224 8.35167 154.004 6.9987 151.749 6.9987C150.614 6.9987 150.58 7.08221 150.58 7.78375V17.3714H150.597Z" fill="white"/>
<path d="M159.55 9.6211C159.55 7.36615 159.5 7.01538 158.264 6.91516L157.729 6.86505C157.596 6.78154 157.646 6.38066 157.779 6.33055C158.832 6.38066 159.516 6.39736 160.502 6.39736C161.337 6.39736 162.072 6.38066 163.007 6.33055C163.141 6.39736 163.175 6.78154 163.041 6.86505L162.64 6.91516C161.387 7.04879 161.354 7.36615 161.354 9.6211V12.0932C161.354 12.5108 161.404 12.9116 161.638 12.9116C161.838 12.9116 162.089 12.778 162.239 12.6778C162.54 12.4272 163.108 11.8593 163.342 11.6422L165.663 9.33714C166.064 8.95296 167.133 7.85055 167.35 7.54989C167.467 7.39956 167.501 7.29934 167.501 7.19912C167.501 7.1156 167.417 7.04879 167.133 6.98197L166.549 6.84835C166.398 6.69802 166.415 6.41406 166.599 6.31384C167.35 6.36395 168.219 6.38066 168.971 6.38066C169.722 6.38066 170.457 6.36395 171.109 6.31384C171.259 6.41406 171.276 6.73143 171.159 6.84835C170.591 6.89846 169.756 7.0989 169.154 7.44967C168.553 7.80044 167.35 8.80263 166.131 9.95516L164.193 11.7925C163.893 12.0932 163.692 12.2936 163.692 12.4607C163.692 12.611 163.826 12.778 164.11 13.1288C166.164 15.484 167.818 17.4215 169.488 19.1754C170.006 19.6932 170.474 19.9771 171.209 20.0607L171.793 20.1275C171.944 20.2277 171.894 20.5952 171.743 20.662C171.175 20.6119 170.34 20.5952 169.338 20.5952C168.453 20.5952 167.701 20.6119 166.716 20.662C166.565 20.6119 166.498 20.2444 166.632 20.1275L167.133 20.044C167.434 19.9938 167.651 19.9437 167.651 19.8268C167.651 19.6932 167.501 19.5262 167.35 19.3257C166.933 18.8079 166.382 18.2233 165.563 17.3046L163.776 15.367C162.54 13.9974 162.206 13.5631 161.688 13.5631C161.371 13.5631 161.32 13.847 161.32 14.5987V17.3714C161.32 19.6264 161.371 19.927 162.573 20.0607L163.158 20.1275C163.291 20.211 163.241 20.5952 163.108 20.662C162.055 20.6119 161.32 20.5952 160.485 20.5952C159.6 20.5952 158.865 20.6119 157.98 20.662C157.846 20.5952 157.813 20.2778 157.93 20.1275L158.364 20.0607C159.5 19.8936 159.55 19.6264 159.55 17.3714V9.6211Z" fill="white"/>
<path d="M174.349 9.6545C174.349 7.36615 174.299 6.99868 173.03 6.89846L172.495 6.84835C172.361 6.76483 172.412 6.38066 172.545 6.31384C173.631 6.36395 174.349 6.38066 175.268 6.38066C176.136 6.38066 176.855 6.36395 177.94 6.31384C178.074 6.38066 178.107 6.76483 177.99 6.84835L177.456 6.89846C176.187 6.99868 176.136 7.36615 176.136 9.6545V17.3213C176.136 19.6097 176.187 19.9103 177.456 20.0607L177.99 20.1275C178.124 20.211 178.074 20.5952 177.94 20.662C176.871 20.6119 176.136 20.5952 175.268 20.5952C174.366 20.5952 173.631 20.6119 172.545 20.662C172.412 20.5952 172.378 20.2611 172.495 20.1275L173.03 20.0607C174.299 19.9103 174.349 19.6097 174.349 17.3213V9.6545Z" fill="white"/>
<path d="M192.973 16.9371C192.973 17.5886 192.973 20.1442 193.04 20.7121C192.99 20.8457 192.873 20.9459 192.622 20.9459C192.372 20.5785 191.737 19.8268 189.866 17.6888L184.872 11.993C184.287 11.3248 182.818 9.55428 182.367 9.08659H182.316C182.233 9.33714 182.2 9.83824 182.2 10.4897V15.2C182.2 16.2189 182.216 19.0083 182.584 19.6598C182.717 19.8936 183.152 20.0273 183.686 20.0774L184.354 20.1442C184.488 20.3112 184.454 20.5785 184.304 20.6787C183.335 20.6286 182.584 20.6119 181.782 20.6119C180.88 20.6119 180.295 20.6286 179.544 20.6787C179.393 20.5785 179.377 20.2778 179.494 20.1442L180.078 20.0774C180.579 20.0105 180.913 19.8936 181.03 19.6431C181.331 18.8747 181.314 16.2356 181.314 15.2V8.96967C181.314 8.36835 181.298 7.91736 180.847 7.41626C180.546 7.1156 180.028 6.96527 179.51 6.89846L179.143 6.84835C179.009 6.71472 179.009 6.39736 179.193 6.31384C180.095 6.38066 181.247 6.38066 181.632 6.38066C181.982 6.38066 182.35 6.36395 182.617 6.31384C183.051 7.41626 185.59 10.2558 186.309 11.0576L188.396 13.4127C189.883 15.0664 190.935 16.2857 191.954 17.3046H192.004C192.088 17.2044 192.088 16.8536 192.088 16.4026V11.7925C192.088 10.7736 192.071 7.98417 191.654 7.33274C191.52 7.1323 191.186 7.01538 190.317 6.89846L189.95 6.84835C189.8 6.71472 189.816 6.38066 189.983 6.31384C190.969 6.36395 191.704 6.38066 192.522 6.38066C193.458 6.38066 194.009 6.36395 194.744 6.31384C194.911 6.41406 194.911 6.73143 194.794 6.84835L194.493 6.89846C193.808 6.99868 193.374 7.18241 193.29 7.34945C192.923 8.1178 192.973 10.7903 192.973 11.7925V16.9371Z" fill="white"/>
<path d="M198.636 20.9459C196.832 20.9459 195.679 20.378 195.278 20.1442C195.028 19.6765 194.744 18.1398 194.694 17.1209C194.794 16.9705 195.128 16.9204 195.211 17.0541C195.529 18.1565 196.414 20.2611 198.92 20.2611C200.723 20.2611 201.609 19.0752 201.609 17.789C201.609 16.8369 201.408 15.7846 199.838 14.7657L197.784 13.4294C196.698 12.7112 195.462 11.4919 195.462 9.72132C195.462 7.66681 197.049 6.01318 199.855 6.01318C200.523 6.01318 201.291 6.14681 201.859 6.29714C202.143 6.38066 202.444 6.43077 202.611 6.43077C202.811 6.94857 202.995 8.15121 202.995 9.05318C202.912 9.18681 202.561 9.25362 202.461 9.12C202.177 8.08439 201.592 6.68132 199.538 6.68132C197.433 6.68132 196.965 8.08439 196.965 9.06989C196.965 10.3226 198.001 11.2246 198.803 11.7257L200.523 12.7947C201.876 13.6299 203.212 14.8826 203.212 16.9371C203.229 19.3257 201.442 20.9459 198.636 20.9459Z" fill="white"/>
<path d="M27.5437 3.89192C27.5103 3.84181 25.8233 3.00664 25.8233 3.00664C23.6685 2.55566 20.1441 2.7561 17.6721 3.65807H17.6554C15.2 2.73939 11.6589 2.55566 9.52085 3.00664C9.52085 3.00664 7.83382 3.84181 7.80041 3.89192L5.19469 9.65456C5.11118 9.82159 5.2448 9.95522 5.39513 9.92181C9.37052 9.17016 13.9472 8.93632 17.6888 8.93632C21.4303 8.93632 25.9903 9.17016 29.9824 9.92181C30.1327 9.95522 30.2663 9.82159 30.1828 9.65456L27.5437 3.89192ZM17.054 8.05104C14.2145 7.93412 9.32041 7.93412 6.86502 8.81939L8.60217 4.45983L9.7881 3.82511L8.55206 7.39961C11.1077 6.91522 13.9305 6.73148 17.0707 7.76709L17.054 8.05104ZM18.2567 8.05104V7.76709C21.3969 6.74818 24.2198 6.91522 26.7754 7.39961L25.5059 3.8084L26.6918 4.44313L28.429 8.80269C26.1072 7.93412 21.2132 7.93412 18.2567 8.05104Z" fill="white"/>
<path d="M33.891 1.73714H33.8743L33.7574 1.70374C28.4958 0.567912 23.084 0 17.6721 0C12.2602 0 6.84835 0.567912 1.57011 1.70374H1.52L1.46989 1.72044C0.618022 1.93758 0 2.72264 0 3.64132V6.51429C0 27.193 12.7947 35.578 16.72 37.6492C17.0374 37.8163 17.3547 37.8998 17.6888 37.8998C18.0062 37.8998 18.3402 37.8163 18.6409 37.6492C22.5494 35.578 35.3442 27.193 35.3442 6.51429V3.64132C35.3442 2.75604 34.7429 1.97099 33.891 1.73714ZM16.9538 36.4633C12.6277 34.0747 3.94198 27.3099 1.70374 13.4295L1.80396 13.4127C6.74813 12.3604 11.8426 11.8259 16.9538 11.7758V36.4633ZM30.6338 23.1675C29.6985 25.0884 28.6629 26.7754 27.5771 28.2453C26.5749 29.5982 25.556 30.7675 24.5204 31.8031V26.2075L21.4637 24.1697V34.4589C20.3279 35.3108 19.2756 35.9789 18.407 36.4633V22.1319L21.4637 24.1697V17.0541L24.5204 19.0919V12.0765C25.5393 12.16 26.5582 12.2769 27.5771 12.4105V21.1464L30.6338 23.1675V12.8615C31.6026 13.0286 32.5881 13.2123 33.5569 13.4127L33.6571 13.4295C33.0391 17.171 31.9701 20.3947 30.6338 23.1675ZM18.3903 15.0163V11.7758C19.4092 11.7925 20.4281 11.8092 21.447 11.8593V17.0541L18.3903 15.0163ZM34.1916 6.51429C34.1916 8.40176 34.0747 10.1723 33.8743 11.8593C23.2677 9.6211 12.1099 9.6211 1.48659 11.8593C1.26945 10.1723 1.15253 8.40176 1.15253 6.51429V3.64132C1.15253 3.25714 1.41978 2.92308 1.78725 2.83956H1.80396C6.91516 1.73714 12.2268 1.16923 17.6721 1.16923C23.1007 1.16923 28.4123 1.75385 33.5235 2.83956H33.5402C33.9244 2.92308 34.2084 3.25714 34.2084 3.65802L34.1916 6.51429Z" fill="white"/>
<path d="M27.5604 21.1297L24.5037 19.0919V26.2075L27.5604 28.2453V21.1297Z" fill="white"/>
<path d="M10.4062 25.6061C13.4963 25.6061 16.0018 23.1006 16.0018 20.0105C16.0018 16.9204 13.4963 14.4149 10.4062 14.4149C7.31604 14.4149 4.81055 16.9204 4.81055 20.0105C4.81055 23.1006 7.33274 25.6061 10.4062 25.6061ZM11.4251 24.8044C11.8593 24.3367 12.3771 23.6518 12.7613 22.7666C13.2958 22.8835 13.7635 23.0338 14.1477 23.1674C13.4629 23.9859 12.5108 24.5705 11.4251 24.8044ZM14.5653 22.5828C14.1477 22.4158 13.6299 22.2488 13.0119 22.0984C13.1789 21.5806 13.2958 20.996 13.3292 20.3613H15.2835C15.2334 21.1798 14.9662 21.9314 14.5653 22.5828ZM14.5653 17.4549C14.9662 18.1063 15.2167 18.858 15.2835 19.6598H13.3292C13.2958 19.025 13.1789 18.4571 13.0119 17.9393C13.6466 17.789 14.1477 17.6219 14.5653 17.4549ZM14.1477 16.8703C13.7635 17.0206 13.3125 17.1543 12.7613 17.2712C12.3771 16.3859 11.8593 15.7011 11.4251 15.2334C12.5108 15.4672 13.4629 16.0518 14.1477 16.8703ZM10.7569 15.5674C11.1411 15.9516 11.6422 16.5696 12.0264 17.4048C11.6255 17.4549 11.2079 17.505 10.7569 17.505V15.5674ZM10.7569 18.2066C11.3081 18.1899 11.8259 18.1398 12.3103 18.0729C12.4774 18.5573 12.5776 19.0918 12.611 19.6765H10.7569V18.2066ZM10.7569 20.3613H12.611C12.5776 20.9459 12.4607 21.4804 12.2936 21.9648C11.8259 21.8813 11.3081 21.8479 10.7569 21.8312V20.3613ZM10.7569 22.5327C11.2079 22.5494 11.6422 22.5828 12.0264 22.6329C11.6422 23.4514 11.1411 24.0694 10.7569 24.4536V22.5327ZM6.68132 23.1674C7.06549 23.0171 7.51648 22.8835 8.06769 22.7666C8.45187 23.6518 8.96967 24.3367 9.40395 24.8044C8.31824 24.5705 7.36615 23.9859 6.68132 23.1674ZM10.0554 24.4703C9.67121 24.0694 9.17011 23.4681 8.78593 22.6496C9.17011 22.5995 9.60439 22.5494 10.0554 22.5494V24.4703ZM10.0554 21.8312C9.50417 21.8479 8.98637 21.898 8.51868 21.9648C8.35165 21.4804 8.23472 20.9626 8.20132 20.378H10.0554V21.8312ZM10.0554 19.6598H8.20132C8.23472 19.0751 8.35165 18.5406 8.51868 18.0729C8.98637 18.1398 9.50417 18.1899 10.0554 18.2066V19.6598ZM10.0554 17.505C9.60439 17.4883 9.17011 17.4549 8.78593 17.4048C9.17011 16.5863 9.67121 15.9683 10.0554 15.5841V17.505ZM9.40395 15.2334C8.96967 15.7011 8.45187 16.3859 8.06769 17.2712C7.51648 17.1543 7.06549 17.0039 6.68132 16.8536C7.36615 16.0518 8.31824 15.4672 9.40395 15.2334ZM6.24703 17.4549C6.66461 17.6219 7.18242 17.789 7.80044 17.9393C7.6334 18.4571 7.51648 19.0417 7.48307 19.6598H5.54549C5.5956 18.858 5.84615 18.1063 6.24703 17.4549ZM5.54549 20.3613H7.49978C7.53318 20.996 7.65011 21.5639 7.81714 22.0817C7.19912 22.2154 6.68132 22.3991 6.26373 22.5661C5.84615 21.9314 5.5956 21.1798 5.54549 20.3613Z" fill="white"/>
</g>
<defs>
<clipPath id="clip0_53_46351">
<rect width="359.939" height="38" fill="white"/>
</clipPath>
</defs>
</svg>
