<svg width="364" height="364" viewBox="0 0 364 364" fill="none" xmlns="http://www.w3.org/2000/svg">
<g filter="url(#filter0_d_2691_6478)">
<rect x="12" y="12" width="340" height="340" rx="5" fill="url(#paint0_radial_2691_6478)" shape-rendering="crispEdges"/>
<path d="M44.864 68H39.872L47.52 50.656H36.768V46.656H52.8V49.824L44.864 68ZM64.4775 68H59.9015V52.512L56.3815 56.128L53.7895 53.408L60.5095 46.656H64.4775V68ZM67.4258 51.712C67.4258 48.704 69.5698 46.336 72.8338 46.336C76.1298 46.336 78.2738 48.704 78.2738 51.712C78.2738 54.688 76.1298 56.96 72.8338 56.96C69.5698 56.96 67.4258 54.688 67.4258 51.712ZM73.1538 68H70.7538L84.3858 46.656H86.8178L73.1538 68ZM75.3618 51.712C75.3618 49.92 74.3058 48.864 72.8338 48.864C71.3938 48.864 70.3058 49.92 70.3058 51.712C70.3058 53.376 71.3938 54.464 72.8338 54.464C74.3058 54.464 75.3618 53.376 75.3618 51.712ZM79.1698 63.104C79.1698 60.096 81.3138 57.728 84.5778 57.728C87.8418 57.728 90.0178 60.096 90.0178 63.104C90.0178 66.08 87.8418 68.384 84.5778 68.384C81.3138 68.384 79.1698 66.08 79.1698 63.104ZM87.1378 63.104C87.1378 61.344 86.0498 60.256 84.5778 60.256C83.1058 60.256 82.0498 61.344 82.0498 63.104C82.0498 64.832 83.1058 65.888 84.5778 65.888C86.0498 65.888 87.1378 64.832 87.1378 63.104Z" fill="white"/>
<path d="M100.148 68.216C97.502 68.216 95.846 66.164 95.846 63.644C95.846 61.124 97.502 59.09 100.148 59.09C102.794 59.09 104.45 61.124 104.45 63.644C104.45 66.164 102.794 68.216 100.148 68.216ZM100.148 67.01C102.002 67.01 103.028 65.426 103.028 63.644C103.028 61.88 102.002 60.296 100.148 60.296C98.294 60.296 97.25 61.88 97.25 63.644C97.25 65.426 98.294 67.01 100.148 67.01ZM110.143 60.494H108.379V68H107.029V60.494H105.589V59.306H107.029V58.64C107.029 56.84 108.037 55.814 109.549 55.814C110.053 55.814 110.521 55.904 110.863 56.12L110.521 57.128C110.305 57.002 110.053 56.93 109.747 56.93C108.865 56.93 108.379 57.542 108.379 58.64V59.306H110.143V60.494ZM115.633 66.848L116.335 65.876C116.911 66.542 118.009 67.118 119.197 67.118C120.529 67.118 121.249 66.524 121.249 65.678C121.249 64.724 120.187 64.418 119.017 64.13C117.541 63.788 115.867 63.392 115.867 61.592C115.867 60.242 117.037 59.09 119.107 59.09C120.583 59.09 121.627 59.648 122.329 60.35L121.699 61.286C121.177 60.656 120.223 60.188 119.107 60.188C117.919 60.188 117.181 60.728 117.181 61.502C117.181 62.348 118.171 62.618 119.305 62.888C120.817 63.23 122.563 63.662 122.563 65.588C122.563 67.046 121.393 68.216 119.143 68.216C117.721 68.216 116.515 67.784 115.633 66.848ZM131.974 68H130.624V66.776C129.958 67.532 128.824 68.216 127.528 68.216C125.71 68.216 124.756 67.334 124.756 65.444V59.306H126.106V65.03C126.106 66.56 126.88 67.01 128.05 67.01C129.112 67.01 130.12 66.398 130.624 65.696V59.306H131.974V68ZM136.02 68H134.67V59.306H136.02V60.71C136.722 59.792 137.73 59.126 138.918 59.126V60.512C138.756 60.476 138.594 60.458 138.378 60.458C137.55 60.458 136.416 61.142 136.02 61.844V68ZM144.41 68H142.934L139.316 59.306H140.774L143.672 66.434L146.552 59.306H148.028L144.41 68ZM148.932 63.644C148.932 61.124 150.732 59.09 153.216 59.09C155.844 59.09 157.392 61.142 157.392 63.752V64.094H150.354C150.462 65.732 151.614 67.1 153.486 67.1C154.476 67.1 155.484 66.704 156.168 66.002L156.816 66.884C155.952 67.748 154.782 68.216 153.36 68.216C150.786 68.216 148.932 66.362 148.932 63.644ZM153.198 60.206C151.344 60.206 150.426 61.772 150.354 63.104H156.06C156.042 61.808 155.178 60.206 153.198 60.206ZM159.093 71.402L159.309 70.178C159.507 70.268 159.831 70.322 160.047 70.322C160.641 70.322 161.037 70.124 161.343 69.404L161.919 68.09L158.283 59.306H159.741L162.639 66.434L165.519 59.306H166.995L162.639 69.764C162.117 71.024 161.235 71.51 160.083 71.528C159.795 71.528 159.345 71.474 159.093 71.402ZM167.899 63.644C167.899 61.124 169.699 59.09 172.183 59.09C174.811 59.09 176.359 61.142 176.359 63.752V64.094H169.321C169.429 65.732 170.581 67.1 172.453 67.1C173.443 67.1 174.451 66.704 175.135 66.002L175.783 66.884C174.919 67.748 173.749 68.216 172.327 68.216C169.753 68.216 167.899 66.362 167.899 63.644ZM172.165 60.206C170.311 60.206 169.393 61.772 169.321 63.104H175.027C175.009 61.808 174.145 60.206 172.165 60.206ZM186.195 68H184.845V66.704C184.197 67.586 183.135 68.216 181.911 68.216C179.643 68.216 178.041 66.488 178.041 63.662C178.041 60.89 179.625 59.09 181.911 59.09C183.081 59.09 184.143 59.666 184.845 60.62V55.994H186.195V68ZM184.845 65.642V61.7C184.359 60.944 183.315 60.296 182.235 60.296C180.489 60.296 179.445 61.736 179.445 63.662C179.445 65.588 180.489 67.01 182.235 67.01C183.315 67.01 184.359 66.398 184.845 65.642ZM193.035 63.644C193.035 61.07 194.781 59.09 197.373 59.09C198.957 59.09 199.893 59.738 200.559 60.602L199.659 61.43C199.083 60.638 198.345 60.296 197.445 60.296C195.591 60.296 194.439 61.718 194.439 63.644C194.439 65.57 195.591 67.01 197.445 67.01C198.345 67.01 199.083 66.65 199.659 65.876L200.559 66.704C199.893 67.568 198.957 68.216 197.373 68.216C194.781 68.216 193.035 66.236 193.035 63.644ZM203.118 57.848C202.632 57.848 202.218 57.434 202.218 56.93C202.218 56.426 202.632 56.03 203.118 56.03C203.622 56.03 204.036 56.426 204.036 56.93C204.036 57.434 203.622 57.848 203.118 57.848ZM203.802 68H202.452V59.306H203.802V68ZM208.691 68.216C207.413 68.216 206.765 67.478 206.765 66.182V60.494H205.325V59.306H206.765V56.93H208.115V59.306H209.879V60.494H208.115V65.894C208.115 66.542 208.403 67.01 208.997 67.01C209.375 67.01 209.735 66.848 209.915 66.65L210.311 67.658C209.969 67.982 209.483 68.216 208.691 68.216ZM212.452 57.848C211.966 57.848 211.552 57.434 211.552 56.93C211.552 56.426 211.966 56.03 212.452 56.03C212.956 56.03 213.37 56.426 213.37 56.93C213.37 57.434 212.956 57.848 212.452 57.848ZM213.136 68H211.786V59.306H213.136V68ZM215.325 63.644C215.325 61.124 217.125 59.09 219.609 59.09C222.237 59.09 223.785 61.142 223.785 63.752V64.094H216.747C216.855 65.732 218.007 67.1 219.879 67.1C220.869 67.1 221.877 66.704 222.561 66.002L223.209 66.884C222.345 67.748 221.175 68.216 219.753 68.216C217.179 68.216 215.325 66.362 215.325 63.644ZM219.591 60.206C217.737 60.206 216.819 61.772 216.747 63.104H222.453C222.435 61.808 221.571 60.206 219.591 60.206ZM225.215 66.848L225.917 65.876C226.493 66.542 227.591 67.118 228.779 67.118C230.111 67.118 230.831 66.524 230.831 65.678C230.831 64.724 229.769 64.418 228.599 64.13C227.123 63.788 225.449 63.392 225.449 61.592C225.449 60.242 226.619 59.09 228.689 59.09C230.165 59.09 231.209 59.648 231.911 60.35L231.281 61.286C230.759 60.656 229.805 60.188 228.689 60.188C227.501 60.188 226.763 60.728 226.763 61.502C226.763 62.348 227.753 62.618 228.887 62.888C230.399 63.23 232.145 63.662 232.145 65.588C232.145 67.046 230.975 68.216 228.725 68.216C227.303 68.216 226.097 67.784 225.215 66.848Z" fill="white"/>
<path d="M45.04 92H43.54V90.9C42.74 91.78 41.64 92.24 40.34 92.24C38.7 92.24 36.96 91.14 36.96 89.04C36.96 86.88 38.7 85.86 40.34 85.86C41.66 85.86 42.76 86.28 43.54 87.18V85.44C43.54 84.14 42.5 83.4 41.1 83.4C39.94 83.4 39 83.82 38.14 84.74L37.44 83.7C38.48 82.62 39.72 82.1 41.3 82.1C43.34 82.1 45.04 83.02 45.04 85.36V92ZM43.54 89.96V88.14C42.96 87.34 41.94 86.94 40.88 86.94C39.48 86.94 38.5 87.82 38.5 89.06C38.5 90.28 39.48 91.16 40.88 91.16C41.94 91.16 42.96 90.76 43.54 89.96ZM49.5469 92H48.0469V82.34H49.5469V83.9C50.3269 82.88 51.4469 82.14 52.7669 82.14V83.68C52.5869 83.64 52.4069 83.62 52.1669 83.62C51.2469 83.62 49.9869 84.38 49.5469 85.16V92ZM54.0884 87.16C54.0884 84.36 56.0884 82.1 58.8484 82.1C61.7684 82.1 63.4884 84.38 63.4884 87.28V87.66H55.6684C55.7884 89.48 57.0684 91 59.1484 91C60.2484 91 61.3684 90.56 62.1284 89.78L62.8484 90.76C61.8884 91.72 60.5884 92.24 59.0084 92.24C56.1484 92.24 54.0884 90.18 54.0884 87.16ZM58.8284 83.34C56.7684 83.34 55.7484 85.08 55.6684 86.56H62.0084C61.9884 85.12 61.0284 83.34 58.8284 83.34ZM70.5142 87.16C70.5142 84.36 72.5142 82.1 75.2742 82.1C78.1942 82.1 79.9142 84.38 79.9142 87.28V87.66H72.0942C72.2142 89.48 73.4942 91 75.5742 91C76.6742 91 77.7942 90.56 78.5542 89.78L79.2742 90.76C78.3142 91.72 77.0142 92.24 75.4342 92.24C72.5742 92.24 70.5142 90.18 70.5142 87.16ZM75.2542 83.34C73.1942 83.34 72.1742 85.08 72.0942 86.56H78.4342C78.4142 85.12 77.4542 83.34 75.2542 83.34ZM83.0838 80.72C82.5438 80.72 82.0838 80.26 82.0838 79.7C82.0838 79.14 82.5438 78.7 83.0838 78.7C83.6438 78.7 84.1038 79.14 84.1038 79.7C84.1038 80.26 83.6438 80.72 83.0838 80.72ZM83.8438 92H82.3438V82.34H83.8438V92ZM89.2759 92.24C87.8559 92.24 87.1359 91.42 87.1359 89.98V83.66H85.5359V82.34H87.1359V79.7H88.6359V82.34H90.5959V83.66H88.6359V89.66C88.6359 90.38 88.9559 90.9 89.6159 90.9C90.0359 90.9 90.4359 90.72 90.6359 90.5L91.0759 91.62C90.6959 91.98 90.1559 92.24 89.2759 92.24ZM100.755 92H99.2548V85.64C99.2548 83.94 98.3748 83.44 97.0748 83.44C95.9148 83.44 94.7948 84.16 94.2148 84.94V92H92.7148V78.66H94.2148V83.74C94.8948 82.94 96.2148 82.1 97.6748 82.1C99.6948 82.1 100.755 83.08 100.755 85.18V92ZM103.19 87.16C103.19 84.36 105.19 82.1 107.95 82.1C110.87 82.1 112.59 84.38 112.59 87.28V87.66H104.77C104.89 89.48 106.17 91 108.25 91C109.35 91 110.47 90.56 111.23 89.78L111.95 90.76C110.99 91.72 109.69 92.24 108.11 92.24C105.25 92.24 103.19 90.18 103.19 87.16ZM107.93 83.34C105.87 83.34 104.85 85.08 104.77 86.56H111.11C111.09 85.12 110.13 83.34 107.93 83.34ZM116.52 92H115.02V82.34H116.52V83.9C117.3 82.88 118.42 82.14 119.74 82.14V83.68C119.56 83.64 119.38 83.62 119.14 83.62C118.22 83.62 116.96 84.38 116.52 85.16V92ZM126.217 87.16C126.217 84.36 128.217 82.1 130.977 82.1C133.897 82.1 135.617 84.38 135.617 87.28V87.66H127.797C127.917 89.48 129.197 91 131.277 91C132.377 91 133.497 90.56 134.257 89.78L134.977 90.76C134.017 91.72 132.717 92.24 131.137 92.24C128.277 92.24 126.217 90.18 126.217 87.16ZM130.957 83.34C128.897 83.34 127.877 85.08 127.797 86.56H134.137C134.117 85.12 133.157 83.34 130.957 83.34ZM145.402 92H143.662L140.762 88.04L137.862 92H136.142L139.842 87.04L136.342 82.34H138.082L140.762 86.02L143.442 82.34H145.182L141.682 87.04L145.402 92ZM148.629 90.54V95.68H147.129V82.34H148.629V83.78C149.329 82.8 150.529 82.1 151.889 82.1C154.429 82.1 156.189 84.02 156.189 87.16C156.189 90.28 154.429 92.24 151.889 92.24C150.569 92.24 149.409 91.62 148.629 90.54ZM154.609 87.16C154.609 85.02 153.449 83.44 151.509 83.44C150.329 83.44 149.149 84.14 148.629 84.98V89.34C149.149 90.18 150.329 90.9 151.509 90.9C153.449 90.9 154.609 89.3 154.609 87.16ZM160.113 92H158.613V78.66H160.113V92ZM167.325 92.24C164.385 92.24 162.545 89.96 162.545 87.16C162.545 84.36 164.385 82.1 167.325 82.1C170.265 82.1 172.105 84.36 172.105 87.16C172.105 89.96 170.265 92.24 167.325 92.24ZM167.325 90.9C169.385 90.9 170.525 89.14 170.525 87.16C170.525 85.2 169.385 83.44 167.325 83.44C165.265 83.44 164.105 85.2 164.105 87.16C164.105 89.14 165.265 90.9 167.325 90.9ZM176.051 92H174.551V82.34H176.051V83.9C176.831 82.88 177.951 82.14 179.271 82.14V83.68C179.091 83.64 178.911 83.62 178.671 83.62C177.751 83.62 176.491 84.38 176.051 85.16V92ZM181.892 80.72C181.352 80.72 180.892 80.26 180.892 79.7C180.892 79.14 181.352 78.7 181.892 78.7C182.452 78.7 182.912 79.14 182.912 79.7C182.912 80.26 182.452 80.72 181.892 80.72ZM182.652 92H181.152V82.34H182.652V92ZM193.665 92H192.165V85.68C192.165 83.98 191.305 83.44 190.005 83.44C188.825 83.44 187.705 84.16 187.145 84.94V92H185.645V82.34H187.145V83.74C187.825 82.94 189.145 82.1 190.585 82.1C192.605 82.1 193.665 83.12 193.665 85.22V92ZM196.64 94.48L197.4 93.36C198.2 94.32 199.16 94.68 200.54 94.68C202.14 94.68 203.64 93.9 203.64 91.78V90.4C202.94 91.38 201.76 92.12 200.4 92.12C197.88 92.12 196.1 90.24 196.1 87.12C196.1 84.02 197.86 82.1 200.4 82.1C201.7 82.1 202.86 82.74 203.64 83.8V82.34H205.14V91.72C205.14 94.92 202.9 95.92 200.54 95.92C198.9 95.92 197.78 95.6 196.64 94.48ZM203.64 89.22V85C203.12 84.16 201.96 83.44 200.76 83.44C198.82 83.44 197.66 84.98 197.66 87.12C197.66 89.24 198.82 90.8 200.76 90.8C201.96 90.8 203.12 90.06 203.64 89.22ZM208.525 94.54L207.785 93.92C208.425 93.5 209.005 92.72 209.085 92.06C209.045 92.08 208.905 92.1 208.805 92.1C208.245 92.1 207.845 91.68 207.845 91.08C207.845 90.5 208.305 90 208.905 90C209.565 90 210.165 90.56 210.165 91.52C210.165 92.74 209.445 93.88 208.525 94.54ZM220.35 92.24C218.93 92.24 218.21 91.42 218.21 89.98V83.66H216.61V82.34H218.21V79.7H219.71V82.34H221.67V83.66H219.71V89.66C219.71 90.38 220.03 90.9 220.69 90.9C221.11 90.9 221.51 90.72 221.71 90.5L222.15 91.62C221.77 91.98 221.23 92.24 220.35 92.24ZM223.229 87.16C223.229 84.36 225.229 82.1 227.989 82.1C230.909 82.1 232.629 84.38 232.629 87.28V87.66H224.809C224.929 89.48 226.209 91 228.289 91C229.389 91 230.509 90.56 231.269 89.78L231.989 90.76C231.029 91.72 229.729 92.24 228.149 92.24C225.289 92.24 223.229 90.18 223.229 87.16ZM227.969 83.34C225.909 83.34 224.889 85.08 224.809 86.56H231.149C231.129 85.12 230.169 83.34 227.969 83.34ZM234.219 90.72L234.999 89.64C235.639 90.38 236.859 91.02 238.179 91.02C239.659 91.02 240.459 90.36 240.459 89.42C240.459 88.36 239.279 88.02 237.979 87.7C236.339 87.32 234.479 86.88 234.479 84.88C234.479 83.38 235.779 82.1 238.079 82.1C239.719 82.1 240.879 82.72 241.659 83.5L240.959 84.54C240.379 83.84 239.319 83.32 238.079 83.32C236.759 83.32 235.939 83.92 235.939 84.78C235.939 85.72 237.039 86.02 238.299 86.32C239.979 86.7 241.919 87.18 241.919 89.32C241.919 90.94 240.619 92.24 238.119 92.24C236.539 92.24 235.199 91.76 234.219 90.72ZM246.795 92.24C245.375 92.24 244.655 91.42 244.655 89.98V83.66H243.055V82.34H244.655V79.7H246.155V82.34H248.115V83.66H246.155V89.66C246.155 90.38 246.475 90.9 247.135 90.9C247.555 90.9 247.955 90.72 248.155 90.5L248.595 91.62C248.215 91.98 247.675 92.24 246.795 92.24ZM250.974 80.72C250.434 80.72 249.974 80.26 249.974 79.7C249.974 79.14 250.434 78.7 250.974 78.7C251.534 78.7 251.994 79.14 251.994 79.7C251.994 80.26 251.534 80.72 250.974 80.72ZM251.734 92H250.234V82.34H251.734V92ZM262.747 92H261.247V85.68C261.247 83.98 260.387 83.44 259.087 83.44C257.907 83.44 256.787 84.16 256.227 84.94V92H254.727V82.34H256.227V83.74C256.907 82.94 258.227 82.1 259.667 82.1C261.687 82.1 262.747 83.12 262.747 85.22V92ZM265.722 94.48L266.482 93.36C267.282 94.32 268.242 94.68 269.622 94.68C271.222 94.68 272.722 93.9 272.722 91.78V90.4C272.022 91.38 270.842 92.12 269.482 92.12C266.962 92.12 265.182 90.24 265.182 87.12C265.182 84.02 266.942 82.1 269.482 82.1C270.782 82.1 271.942 82.74 272.722 83.8V82.34H274.222V91.72C274.222 94.92 271.982 95.92 269.622 95.92C267.982 95.92 266.862 95.6 265.722 94.48ZM272.722 89.22V85C272.202 84.16 271.042 83.44 269.842 83.44C267.902 83.44 266.742 84.98 266.742 87.12C266.742 89.24 267.902 90.8 269.842 90.8C271.042 90.8 272.202 90.06 272.722 89.22ZM277.607 94.54L276.867 93.92C277.507 93.5 278.087 92.72 278.167 92.06C278.127 92.08 277.987 92.1 277.887 92.1C277.327 92.1 276.927 91.68 276.927 91.08C276.927 90.5 277.387 90 277.987 90C278.647 90 279.247 90.56 279.247 91.52C279.247 92.74 278.527 93.88 277.607 94.54ZM291.212 92.24C288.272 92.24 286.432 89.96 286.432 87.16C286.432 84.36 288.272 82.1 291.212 82.1C294.152 82.1 295.992 84.36 295.992 87.16C295.992 89.96 294.152 92.24 291.212 92.24ZM291.212 90.9C293.272 90.9 294.412 89.14 294.412 87.16C294.412 85.2 293.272 83.44 291.212 83.44C289.152 83.44 287.992 85.2 287.992 87.16C287.992 89.14 289.152 90.9 291.212 90.9ZM299.938 92H298.438V82.34H299.938V83.9C300.718 82.88 301.838 82.14 303.158 82.14V83.68C302.978 83.64 302.798 83.62 302.558 83.62C301.638 83.62 300.378 84.38 299.938 85.16V92ZM38.24 104.72C37.7 104.72 37.24 104.26 37.24 103.7C37.24 103.14 37.7 102.7 38.24 102.7C38.8 102.7 39.26 103.14 39.26 103.7C39.26 104.26 38.8 104.72 38.24 104.72ZM39 116H37.5V106.34H39V116ZM55.1522 116H53.6522V109.44C53.6522 108.22 53.1122 107.44 51.8722 107.44C50.8722 107.44 49.8122 108.16 49.3122 108.92V116H47.8122V109.44C47.8122 108.22 47.2922 107.44 46.0322 107.44C45.0522 107.44 44.0122 108.16 43.4922 108.94V116H41.9922V106.34H43.4922V107.74C43.8922 107.12 45.1922 106.1 46.6122 106.1C48.0922 106.1 48.9322 106.9 49.2122 107.9C49.7522 107.02 51.0522 106.1 52.4522 106.1C54.2122 106.1 55.1522 107.08 55.1522 109.02V116ZM59.6445 114.54V119.68H58.1445V106.34H59.6445V107.78C60.3445 106.8 61.5445 106.1 62.9045 106.1C65.4445 106.1 67.2045 108.02 67.2045 111.16C67.2045 114.28 65.4445 116.24 62.9045 116.24C61.5845 116.24 60.4245 115.62 59.6445 114.54ZM65.6245 111.16C65.6245 109.02 64.4645 107.44 62.5245 107.44C61.3445 107.44 60.1645 108.14 59.6445 108.98V113.34C60.1645 114.18 61.3445 114.9 62.5245 114.9C64.4645 114.9 65.6245 113.3 65.6245 111.16ZM71.1289 116H69.6289V102.66H71.1289V116ZM73.5611 111.16C73.5611 108.36 75.5611 106.1 78.3211 106.1C81.2411 106.1 82.9611 108.38 82.9611 111.28V111.66H75.1411C75.2611 113.48 76.5411 115 78.6211 115C79.7211 115 80.8411 114.56 81.6011 113.78L82.3211 114.76C81.3611 115.72 80.0611 116.24 78.4811 116.24C75.6211 116.24 73.5611 114.18 73.5611 111.16ZM78.3011 107.34C76.2411 107.34 75.2211 109.08 75.1411 110.56H81.4811C81.4611 109.12 80.5011 107.34 78.3011 107.34ZM98.5506 116H97.0506V109.44C97.0506 108.22 96.5106 107.44 95.2706 107.44C94.2706 107.44 93.2106 108.16 92.7106 108.92V116H91.2106V109.44C91.2106 108.22 90.6906 107.44 89.4306 107.44C88.4506 107.44 87.4106 108.16 86.8906 108.94V116H85.3906V106.34H86.8906V107.74C87.2906 107.12 88.5906 106.1 90.0106 106.1C91.4906 106.1 92.3306 106.9 92.6106 107.9C93.1506 107.02 94.4506 106.1 95.8506 106.1C97.6106 106.1 98.5506 107.08 98.5506 109.02V116ZM100.983 111.16C100.983 108.36 102.983 106.1 105.743 106.1C108.663 106.1 110.383 108.38 110.383 111.28V111.66H102.563C102.683 113.48 103.963 115 106.043 115C107.143 115 108.263 114.56 109.023 113.78L109.743 114.76C108.783 115.72 107.483 116.24 105.903 116.24C103.043 116.24 100.983 114.18 100.983 111.16ZM105.723 107.34C103.663 107.34 102.643 109.08 102.563 110.56H108.903C108.883 109.12 107.923 107.34 105.723 107.34ZM120.833 116H119.333V109.68C119.333 107.98 118.473 107.44 117.173 107.44C115.993 107.44 114.873 108.16 114.313 108.94V116H112.813V106.34H114.313V107.74C114.993 106.94 116.312 106.1 117.753 106.1C119.773 106.1 120.833 107.12 120.833 109.22V116ZM126.268 116.24C124.848 116.24 124.128 115.42 124.128 113.98V107.66H122.528V106.34H124.128V103.7H125.628V106.34H127.588V107.66H125.628V113.66C125.628 114.38 125.948 114.9 126.608 114.9C127.028 114.9 127.428 114.72 127.628 114.5L128.068 115.62C127.688 115.98 127.148 116.24 126.268 116.24ZM130.447 104.72C129.907 104.72 129.447 104.26 129.447 103.7C129.447 103.14 129.907 102.7 130.447 102.7C131.007 102.7 131.467 103.14 131.467 103.7C131.467 104.26 131.007 104.72 130.447 104.72ZM131.207 116H129.707V106.34H131.207V116ZM142.219 116H140.719V109.68C140.719 107.98 139.859 107.44 138.559 107.44C137.379 107.44 136.259 108.16 135.699 108.94V116H134.199V106.34H135.699V107.74C136.379 106.94 137.699 106.1 139.139 106.1C141.159 106.1 142.219 107.12 142.219 109.22V116ZM145.195 118.48L145.955 117.36C146.755 118.32 147.715 118.68 149.095 118.68C150.695 118.68 152.195 117.9 152.195 115.78V114.4C151.495 115.38 150.315 116.12 148.955 116.12C146.435 116.12 144.655 114.24 144.655 111.12C144.655 108.02 146.415 106.1 148.955 106.1C150.255 106.1 151.415 106.74 152.195 107.8V106.34H153.695V115.72C153.695 118.92 151.455 119.92 149.095 119.92C147.455 119.92 146.335 119.6 145.195 118.48ZM152.195 113.22V109C151.675 108.16 150.515 107.44 149.315 107.44C147.375 107.44 146.215 108.98 146.215 111.12C146.215 113.24 147.375 114.8 149.315 114.8C150.515 114.8 151.675 114.06 152.195 113.22ZM161.835 118.48L162.595 117.36C163.395 118.32 164.355 118.68 165.735 118.68C167.335 118.68 168.835 117.9 168.835 115.78V114.4C168.135 115.38 166.955 116.12 165.595 116.12C163.075 116.12 161.295 114.24 161.295 111.12C161.295 108.02 163.055 106.1 165.595 106.1C166.895 106.1 168.055 106.74 168.835 107.8V106.34H170.335V115.72C170.335 118.92 168.095 119.92 165.735 119.92C164.095 119.92 162.975 119.6 161.835 118.48ZM168.835 113.22V109C168.315 108.16 167.155 107.44 165.955 107.44C164.015 107.44 162.855 108.98 162.855 111.12C162.855 113.24 164.015 114.8 165.955 114.8C167.155 114.8 168.315 114.06 168.835 113.22ZM172.78 111.16C172.78 108.36 174.78 106.1 177.54 106.1C180.46 106.1 182.18 108.38 182.18 111.28V111.66H174.36C174.48 113.48 175.76 115 177.84 115C178.94 115 180.06 114.56 180.82 113.78L181.54 114.76C180.58 115.72 179.28 116.24 177.7 116.24C174.84 116.24 172.78 114.18 172.78 111.16ZM177.52 107.34C175.46 107.34 174.44 109.08 174.36 110.56H180.7C180.68 109.12 179.72 107.34 177.52 107.34ZM192.629 116H191.129V109.68C191.129 107.98 190.269 107.44 188.969 107.44C187.789 107.44 186.669 108.16 186.109 108.94V116H184.609V106.34H186.109V107.74C186.789 106.94 188.109 106.1 189.549 106.1C191.569 106.1 192.629 107.12 192.629 109.22V116ZM195.065 111.16C195.065 108.36 197.065 106.1 199.825 106.1C202.745 106.1 204.465 108.38 204.465 111.28V111.66H196.645C196.765 113.48 198.045 115 200.125 115C201.225 115 202.345 114.56 203.105 113.78L203.825 114.76C202.865 115.72 201.565 116.24 199.985 116.24C197.125 116.24 195.065 114.18 195.065 111.16ZM199.805 107.34C197.745 107.34 196.725 109.08 196.645 110.56H202.985C202.965 109.12 202.005 107.34 199.805 107.34ZM208.395 116H206.895V106.34H208.395V107.9C209.175 106.88 210.295 106.14 211.615 106.14V107.68C211.435 107.64 211.255 107.62 211.015 107.62C210.095 107.62 208.835 108.38 208.395 109.16V116ZM221.036 116H219.536V114.9C218.736 115.78 217.636 116.24 216.336 116.24C214.696 116.24 212.956 115.14 212.956 113.04C212.956 110.88 214.696 109.86 216.336 109.86C217.656 109.86 218.756 110.28 219.536 111.18V109.44C219.536 108.14 218.496 107.4 217.096 107.4C215.936 107.4 214.996 107.82 214.136 108.74L213.436 107.7C214.476 106.62 215.716 106.1 217.296 106.1C219.336 106.1 221.036 107.02 221.036 109.36V116ZM219.536 113.96V112.14C218.956 111.34 217.936 110.94 216.876 110.94C215.476 110.94 214.496 111.82 214.496 113.06C214.496 114.28 215.476 115.16 216.876 115.16C217.936 115.16 218.956 114.76 219.536 113.96ZM226.483 116.24C225.063 116.24 224.343 115.42 224.343 113.98V107.66H222.743V106.34H224.343V103.7H225.843V106.34H227.803V107.66H225.843V113.66C225.843 114.38 226.163 114.9 226.823 114.9C227.243 114.9 227.643 114.72 227.843 114.5L228.283 115.62C227.903 115.98 227.363 116.24 226.483 116.24ZM230.662 104.72C230.122 104.72 229.662 104.26 229.662 103.7C229.662 103.14 230.122 102.7 230.662 102.7C231.222 102.7 231.682 103.14 231.682 103.7C231.682 104.26 231.222 104.72 230.662 104.72ZM231.422 116H229.922V106.34H231.422V116ZM238.634 116H236.994L232.974 106.34H234.594L237.814 114.26L241.014 106.34H242.654L238.634 116ZM243.659 111.16C243.659 108.36 245.659 106.1 248.419 106.1C251.339 106.1 253.059 108.38 253.059 111.28V111.66H245.239C245.359 113.48 246.639 115 248.719 115C249.819 115 250.939 114.56 251.699 113.78L252.419 114.76C251.459 115.72 250.159 116.24 248.579 116.24C245.719 116.24 243.659 114.18 243.659 111.16ZM248.399 107.34C246.339 107.34 245.319 109.08 245.239 110.56H251.579C251.559 109.12 250.599 107.34 248.399 107.34ZM272.125 116H270.285L269.105 113.04H262.345L261.165 116H259.325L264.685 102.66H266.745L272.125 116ZM268.605 111.56L265.725 104.14L262.825 111.56H268.605ZM275.529 116H273.869V102.66H275.529V116Z" fill="white"/>
<path fill-rule="evenodd" clip-rule="evenodd" d="M193.918 190.124V169.001C233.216 169.22 265 201.15 265 240.5C265 279.986 232.991 312 193.512 312C178.928 312 166.344 308.276 154.446 300.394L166.662 283.902C174.552 288.937 183.924 291.854 193.977 291.854C222.065 291.854 244.834 269.081 244.834 240.989C244.834 212.897 222.065 190.124 193.977 190.124C193.958 190.124 193.938 190.124 193.918 190.124Z" fill="#0063A7"/>
<path fill-rule="evenodd" clip-rule="evenodd" d="M128.737 270.803C133.863 282.023 140.826 290.492 151.017 297.999L163.231 281.509C156.84 276.65 151.633 270.313 148.12 263.008L128.737 270.803Z" fill="#539EE9"/>
<path fill-rule="evenodd" clip-rule="evenodd" d="M144.693 253.589L124.458 259.012C125.275 262.063 126.042 264.359 127.226 267.289L146.58 259.467C145.837 257.561 145.205 255.599 144.693 253.589Z" fill="#9FDFFB"/>
<path fill-rule="evenodd" clip-rule="evenodd" d="M189.737 190.299C163.634 192.454 143.121 214.325 143.121 240.989C143.121 244.447 143.466 247.825 144.123 251.089L123.63 255.619C115.591 218.568 137.999 181.355 175.009 171.435C179.888 170.128 184.753 169.355 189.737 169.097V190.299Z" fill="white" fill-opacity="0.1"/>
<path d="M189.737 190.299L189.747 190.423L189.862 190.414V190.299H189.737ZM144.123 251.089L144.15 251.211L144.27 251.185L144.246 251.064L144.123 251.089ZM123.63 255.619L123.508 255.646L123.535 255.768L123.657 255.741L123.63 255.619ZM175.009 171.435L174.977 171.314L174.976 171.314L175.009 171.435ZM189.737 169.097H189.862V168.965L189.73 168.972L189.737 169.097ZM189.727 190.174C188.67 190.261 187.622 190.381 186.585 190.531L186.621 190.779C187.653 190.629 188.696 190.51 189.747 190.423L189.727 190.174ZM180.404 191.826C178.359 192.39 176.365 193.078 174.431 193.881L174.527 194.112C176.451 193.313 178.435 192.628 180.471 192.067L180.404 191.826ZM168.761 196.663C166.926 197.71 165.162 198.867 163.479 200.126L163.629 200.326C165.304 199.073 167.059 197.922 168.885 196.88L168.761 196.663ZM158.664 204.213C157.145 205.672 155.716 207.224 154.387 208.861L154.581 209.018C155.904 207.39 157.325 205.845 158.837 204.393L158.664 204.213ZM150.715 214C149.602 215.78 148.596 217.634 147.706 219.553L147.933 219.658C148.819 217.749 149.82 215.904 150.927 214.132L150.715 214ZM145.411 225.436C144.774 227.428 144.256 229.472 143.866 231.561L144.111 231.607C144.5 229.528 145.015 227.494 145.649 225.513L145.411 225.436ZM143.092 237.829C143.028 238.874 142.996 239.928 142.996 240.989H143.246C143.246 239.933 143.278 238.884 143.342 237.844L143.092 237.829ZM142.996 240.989C142.996 241.843 143.017 242.692 143.058 243.536L143.308 243.524C143.267 242.684 143.246 241.839 143.246 240.989H142.996ZM143.561 248.605C143.687 249.448 143.834 250.284 144.001 251.114L144.246 251.064C144.08 250.239 143.933 249.407 143.808 248.568L143.561 248.605ZM144.096 250.967L141.535 251.533L141.589 251.777L144.15 251.211L144.096 250.967ZM136.412 252.666L131.288 253.798L131.342 254.042L136.465 252.91L136.412 252.666ZM126.165 254.931L123.603 255.497L123.657 255.741L126.219 255.175L126.165 254.931ZM123.753 255.593C123.538 254.604 123.346 253.616 123.174 252.628L122.928 252.671C123.1 253.662 123.293 254.654 123.508 255.646L123.753 255.593ZM122.395 246.644C122.218 244.627 122.129 242.616 122.125 240.616L121.875 240.617C121.879 242.624 121.969 244.642 122.146 246.665L122.395 246.644ZM122.369 234.589C122.537 232.576 122.789 230.579 123.125 228.602L122.878 228.56C122.542 230.544 122.288 232.548 122.12 234.568L122.369 234.589ZM124.386 222.701C124.891 220.749 125.477 218.823 126.142 216.928L125.906 216.845C125.239 218.747 124.65 220.68 124.144 222.638L124.386 222.701ZM128.378 211.324C129.202 209.487 130.102 207.686 131.077 205.927L130.858 205.806C129.88 207.571 128.976 209.378 128.15 211.221L128.378 211.324ZM134.219 200.775C135.337 199.105 136.526 197.48 137.783 195.906L137.588 195.75C136.327 197.329 135.133 198.96 134.011 200.636L134.219 200.775ZM141.744 191.355C143.124 189.897 144.569 188.495 146.075 187.154L145.909 186.967C144.398 188.314 142.948 189.72 141.562 191.183L141.744 191.355ZM150.747 183.335C152.351 182.134 154.012 180.996 155.727 179.927L155.595 179.715C153.874 180.788 152.207 181.929 150.597 183.135L150.747 183.335ZM160.977 176.956C162.757 176.047 164.586 175.207 166.462 174.442L166.367 174.21C164.485 174.978 162.65 175.821 160.864 176.733L160.977 176.956ZM172.141 172.398C173.097 172.098 174.064 171.817 175.041 171.556L174.976 171.314C173.996 171.577 173.026 171.859 172.066 172.159L172.141 172.398ZM175.041 171.556C176.25 171.232 177.457 170.941 178.666 170.683L178.614 170.438C177.401 170.697 176.189 170.989 174.977 171.314L175.041 171.556ZM186.027 169.512C187.259 169.383 188.498 169.286 189.743 169.222L189.73 168.972C188.48 169.037 187.238 169.134 186.001 169.263L186.027 169.512ZM189.612 169.097V171.747H189.862V169.097H189.612ZM189.612 177.047V182.348H189.862V177.047H189.612ZM189.612 187.648V190.299H189.862V187.648H189.612Z" fill="white" fill-opacity="0.5"/>
<path d="M68.176 295.034L68.764 294.166C69.24 294.726 69.8 295.118 70.766 295.118C72.656 295.118 73.398 293.228 73.398 291.464C73.398 291.338 73.398 291.212 73.384 291.086C72.978 291.73 71.942 292.542 70.752 292.542C69.072 292.542 67.686 291.548 67.686 289.56C67.686 287.95 68.918 286.508 70.948 286.508C73.566 286.508 74.56 288.79 74.56 291.338C74.56 293.858 73.384 296.154 70.766 296.154C69.576 296.154 68.764 295.706 68.176 295.034ZM73.342 290.148C73.244 288.986 72.628 287.544 71.004 287.544C69.576 287.544 68.862 288.636 68.862 289.518C68.862 290.89 69.814 291.534 71.018 291.534C71.942 291.534 72.852 290.974 73.342 290.148ZM75.7055 288.846C75.7055 287.53 76.6155 286.522 77.9455 286.522C79.2895 286.522 80.2135 287.53 80.2135 288.846C80.2135 290.148 79.2895 291.128 77.9455 291.128C76.6155 291.128 75.7055 290.148 75.7055 288.846ZM77.8195 296H77.0635L83.0275 286.662H83.7975L77.8195 296ZM79.3735 288.846C79.3735 287.922 78.7855 287.236 77.9455 287.236C77.1195 287.236 76.5455 287.922 76.5455 288.846C76.5455 289.728 77.1195 290.428 77.9455 290.428C78.7855 290.428 79.3735 289.728 79.3735 288.846ZM80.5775 293.886C80.5775 292.57 81.4875 291.562 82.8175 291.562C84.1475 291.562 85.0715 292.57 85.0715 293.886C85.0715 295.188 84.1475 296.168 82.8175 296.168C81.4875 296.168 80.5775 295.188 80.5775 293.886ZM84.2455 293.886C84.2455 292.962 83.6575 292.276 82.8175 292.276C81.9775 292.276 81.4035 292.962 81.4035 293.886C81.4035 294.768 81.9775 295.468 82.8175 295.468C83.6575 295.468 84.2455 294.768 84.2455 293.886ZM93.6851 296H92.5231V287.698H89.5691V286.662H96.6531V287.698H93.6851V296ZM96.1502 292.612C96.1502 290.652 97.5502 289.07 99.4822 289.07C101.526 289.07 102.73 290.666 102.73 292.696V292.962H97.2562C97.3402 294.236 98.2362 295.3 99.6922 295.3C100.462 295.3 101.246 294.992 101.778 294.446L102.282 295.132C101.61 295.804 100.7 296.168 99.5942 296.168C97.5922 296.168 96.1502 294.726 96.1502 292.612ZM99.4682 289.938C98.0262 289.938 97.3122 291.156 97.2562 292.192H101.694C101.68 291.184 101.008 289.938 99.4682 289.938ZM103.843 295.104L104.389 294.348C104.837 294.866 105.691 295.314 106.615 295.314C107.651 295.314 108.211 294.852 108.211 294.194C108.211 293.452 107.385 293.214 106.475 292.99C105.327 292.724 104.025 292.416 104.025 291.016C104.025 289.966 104.935 289.07 106.545 289.07C107.693 289.07 108.505 289.504 109.051 290.05L108.561 290.778C108.155 290.288 107.413 289.924 106.545 289.924C105.621 289.924 105.047 290.344 105.047 290.946C105.047 291.604 105.817 291.814 106.699 292.024C107.875 292.29 109.233 292.626 109.233 294.124C109.233 295.258 108.323 296.168 106.573 296.168C105.467 296.168 104.529 295.832 103.843 295.104ZM112.647 296.168C111.653 296.168 111.149 295.594 111.149 294.586V290.162H110.029V289.238H111.149V287.39H112.199V289.238H113.571V290.162H112.199V294.362C112.199 294.866 112.423 295.23 112.885 295.23C113.179 295.23 113.459 295.104 113.599 294.95L113.907 295.734C113.641 295.986 113.263 296.168 112.647 296.168ZM115.572 288.104C115.194 288.104 114.872 287.782 114.872 287.39C114.872 286.998 115.194 286.69 115.572 286.69C115.964 286.69 116.286 286.998 116.286 287.39C116.286 287.782 115.964 288.104 115.572 288.104ZM116.104 296H115.054V289.238H116.104V296ZM123.812 296H122.762V291.576C122.762 290.386 122.16 290.008 121.25 290.008C120.424 290.008 119.64 290.512 119.248 291.058V296H118.198V289.238H119.248V290.218C119.724 289.658 120.648 289.07 121.656 289.07C123.07 289.07 123.812 289.784 123.812 291.254V296ZM125.895 297.736L126.427 296.952C126.987 297.624 127.659 297.876 128.625 297.876C129.745 297.876 130.795 297.33 130.795 295.846V294.88C130.305 295.566 129.479 296.084 128.527 296.084C126.763 296.084 125.517 294.768 125.517 292.584C125.517 290.414 126.749 289.07 128.527 289.07C129.437 289.07 130.249 289.518 130.795 290.26V289.238H131.845V295.804C131.845 298.044 130.277 298.744 128.625 298.744C127.477 298.744 126.693 298.52 125.895 297.736ZM130.795 294.054V291.1C130.431 290.512 129.619 290.008 128.779 290.008C127.421 290.008 126.609 291.086 126.609 292.584C126.609 294.068 127.421 295.16 128.779 295.16C129.619 295.16 130.431 294.642 130.795 294.054Z" fill="white"/>
<path d="M48.168 268H41.756V267.076C45.116 264.43 46.936 262.876 46.936 261.266C46.936 260.076 45.956 259.558 44.99 259.558C43.87 259.558 43.002 260.034 42.456 260.734L41.742 259.992C42.456 259.054 43.674 258.522 44.99 258.522C46.544 258.522 48.126 259.404 48.126 261.266C48.126 263.17 46.194 264.906 43.59 266.964H48.168V268ZM49.6645 260.846C49.6645 259.53 50.5745 258.522 51.9045 258.522C53.2485 258.522 54.1725 259.53 54.1725 260.846C54.1725 262.148 53.2485 263.128 51.9045 263.128C50.5745 263.128 49.6645 262.148 49.6645 260.846ZM51.7785 268H51.0225L56.9865 258.662H57.7565L51.7785 268ZM53.3325 260.846C53.3325 259.922 52.7445 259.236 51.9045 259.236C51.0785 259.236 50.5045 259.922 50.5045 260.846C50.5045 261.728 51.0785 262.428 51.9045 262.428C52.7445 262.428 53.3325 261.728 53.3325 260.846ZM54.5365 265.886C54.5365 264.57 55.4465 263.562 56.7765 263.562C58.1065 263.562 59.0305 264.57 59.0305 265.886C59.0305 267.188 58.1065 268.168 56.7765 268.168C55.4465 268.168 54.5365 267.188 54.5365 265.886ZM58.2045 265.886C58.2045 264.962 57.6165 264.276 56.7765 264.276C55.9365 264.276 55.3625 264.962 55.3625 265.886C55.3625 266.768 55.9365 267.468 56.7765 267.468C57.6165 267.468 58.2045 266.768 58.2045 265.886ZM72.1661 268H70.8781L70.0521 265.928H65.3201L64.4941 268H63.2061L66.9581 258.662H68.4001L72.1661 268ZM69.7021 264.892L67.6861 259.698L65.6561 264.892H69.7021ZM74.3949 266.978V270.576H73.3449V261.238H74.3949V262.246C74.8849 261.56 75.7249 261.07 76.6769 261.07C78.4549 261.07 79.6869 262.414 79.6869 264.612C79.6869 266.796 78.4549 268.168 76.6769 268.168C75.7529 268.168 74.9409 267.734 74.3949 266.978ZM78.5809 264.612C78.5809 263.114 77.7689 262.008 76.4109 262.008C75.5849 262.008 74.7589 262.498 74.3949 263.086V266.138C74.7589 266.726 75.5849 267.23 76.4109 267.23C77.7689 267.23 78.5809 266.11 78.5809 264.612ZM82.434 266.978V270.576H81.384V261.238H82.434V262.246C82.924 261.56 83.764 261.07 84.716 261.07C86.494 261.07 87.726 262.414 87.726 264.612C87.726 266.796 86.494 268.168 84.716 268.168C83.792 268.168 82.98 267.734 82.434 266.978ZM86.62 264.612C86.62 263.114 85.808 262.008 84.45 262.008C83.624 262.008 82.798 262.498 82.434 263.086V266.138C82.798 266.726 83.624 267.23 84.45 267.23C85.808 267.23 86.62 266.11 86.62 264.612ZM90.473 268H89.423V258.662H90.473V268ZM92.1896 270.646L92.3576 269.694C92.5116 269.764 92.7636 269.806 92.9316 269.806C93.3936 269.806 93.7016 269.652 93.9396 269.092L94.3876 268.07L91.5596 261.238H92.6936L94.9476 266.782L97.1876 261.238H98.3356L94.9476 269.372C94.5416 270.352 93.8556 270.73 92.9596 270.744C92.7356 270.744 92.3856 270.702 92.1896 270.646ZM99.9489 260.104C99.5709 260.104 99.2489 259.782 99.2489 259.39C99.2489 258.998 99.5709 258.69 99.9489 258.69C100.341 258.69 100.663 258.998 100.663 259.39C100.663 259.782 100.341 260.104 99.9489 260.104ZM100.481 268H99.4309V261.238H100.481V268ZM108.189 268H107.139V263.576C107.139 262.386 106.537 262.008 105.627 262.008C104.801 262.008 104.017 262.512 103.625 263.058V268H102.575V261.238H103.625V262.218C104.101 261.658 105.025 261.07 106.033 261.07C107.447 261.07 108.189 261.784 108.189 263.254V268ZM110.272 269.736L110.804 268.952C111.364 269.624 112.036 269.876 113.002 269.876C114.122 269.876 115.172 269.33 115.172 267.846V266.88C114.682 267.566 113.856 268.084 112.904 268.084C111.14 268.084 109.894 266.768 109.894 264.584C109.894 262.414 111.126 261.07 112.904 261.07C113.814 261.07 114.626 261.518 115.172 262.26V261.238H116.222V267.804C116.222 270.044 114.654 270.744 113.002 270.744C111.854 270.744 111.07 270.52 110.272 269.736ZM115.172 266.054V263.1C114.808 262.512 113.996 262.008 113.156 262.008C111.798 262.008 110.986 263.086 110.986 264.584C110.986 266.068 111.798 267.16 113.156 267.16C113.996 267.16 114.808 266.642 115.172 266.054Z" fill="white"/>
<path d="M265.714 186.352C265.714 183.818 266.89 181.522 269.508 181.522C270.712 181.522 271.524 181.984 272.098 182.642L271.51 183.51C271.034 182.95 270.488 182.558 269.508 182.558C267.702 182.558 266.876 184.392 266.876 186.226C266.876 186.352 266.876 186.464 266.89 186.59C267.296 185.946 268.332 185.134 269.536 185.134C271.216 185.134 272.588 186.128 272.588 188.116C272.588 189.74 271.356 191.168 269.312 191.168C266.708 191.168 265.714 188.886 265.714 186.352ZM271.412 188.158C271.412 186.786 270.46 186.142 269.256 186.142C268.332 186.142 267.436 186.716 266.918 187.542C267.03 188.704 267.646 190.132 269.27 190.132C270.712 190.132 271.412 189.054 271.412 188.158ZM273.985 186.338C273.985 184.056 274.993 181.522 277.555 181.522C280.103 181.522 281.125 184.056 281.125 186.338C281.125 188.606 280.103 191.168 277.555 191.168C274.993 191.168 273.985 188.606 273.985 186.338ZM279.935 186.338C279.935 184.476 279.333 182.558 277.555 182.558C275.777 182.558 275.175 184.476 275.175 186.338C275.175 188.2 275.777 190.132 277.555 190.132C279.333 190.132 279.935 188.2 279.935 186.338ZM282.278 183.846C282.278 182.53 283.188 181.522 284.518 181.522C285.862 181.522 286.786 182.53 286.786 183.846C286.786 185.148 285.862 186.128 284.518 186.128C283.188 186.128 282.278 185.148 282.278 183.846ZM284.392 191H283.636L289.6 181.662H290.37L284.392 191ZM285.946 183.846C285.946 182.922 285.358 182.236 284.518 182.236C283.692 182.236 283.118 182.922 283.118 183.846C283.118 184.728 283.692 185.428 284.518 185.428C285.358 185.428 285.946 184.728 285.946 183.846ZM287.15 188.886C287.15 187.57 288.06 186.562 289.39 186.562C290.72 186.562 291.644 187.57 291.644 188.886C291.644 190.188 290.72 191.168 289.39 191.168C288.06 191.168 287.15 190.188 287.15 188.886ZM290.818 188.886C290.818 187.962 290.23 187.276 289.39 187.276C288.55 187.276 287.976 187.962 287.976 188.886C287.976 189.768 288.55 190.468 289.39 190.468C290.23 190.468 290.818 189.768 290.818 188.886ZM272.21 208H266.092V198.662H272.21V199.698H267.254V202.708H272.112V203.744H267.254V206.964H272.21V208ZM279.621 208H278.403L276.373 205.228L274.343 208H273.139L275.729 204.528L273.279 201.238H274.497L276.373 203.814L278.249 201.238H279.467L277.017 204.528L279.621 208ZM281.879 206.978V210.576H280.829V201.238H281.879V202.246C282.369 201.56 283.209 201.07 284.161 201.07C285.939 201.07 287.171 202.414 287.171 204.612C287.171 206.796 285.939 208.168 284.161 208.168C283.237 208.168 282.425 207.734 281.879 206.978ZM286.065 204.612C286.065 203.114 285.253 202.008 283.895 202.008C283.069 202.008 282.243 202.498 281.879 203.086V206.138C282.243 206.726 283.069 207.23 283.895 207.23C285.253 207.23 286.065 206.11 286.065 204.612ZM289.918 208H288.868V198.662H289.918V208ZM294.967 208.168C292.909 208.168 291.621 206.572 291.621 204.612C291.621 202.652 292.909 201.07 294.967 201.07C297.025 201.07 298.313 202.652 298.313 204.612C298.313 206.572 297.025 208.168 294.967 208.168ZM294.967 207.23C296.409 207.23 297.207 205.998 297.207 204.612C297.207 203.24 296.409 202.008 294.967 202.008C293.525 202.008 292.713 203.24 292.713 204.612C292.713 205.998 293.525 207.23 294.967 207.23ZM301.075 208H300.025V201.238H301.075V202.33C301.621 201.616 302.405 201.098 303.329 201.098V202.176C303.203 202.148 303.077 202.134 302.909 202.134C302.265 202.134 301.383 202.666 301.075 203.212V208ZM305.164 200.104C304.786 200.104 304.464 199.782 304.464 199.39C304.464 198.998 304.786 198.69 305.164 198.69C305.556 198.69 305.878 198.998 305.878 199.39C305.878 199.782 305.556 200.104 305.164 200.104ZM305.696 208H304.646V201.238H305.696V208ZM313.404 208H312.354V203.576C312.354 202.386 311.752 202.008 310.842 202.008C310.016 202.008 309.232 202.512 308.84 203.058V208H307.79V201.238H308.84V202.218C309.316 201.658 310.24 201.07 311.248 201.07C312.662 201.07 313.404 201.784 313.404 203.254V208ZM315.487 209.736L316.019 208.952C316.579 209.624 317.251 209.876 318.217 209.876C319.337 209.876 320.387 209.33 320.387 207.846V206.88C319.897 207.566 319.071 208.084 318.119 208.084C316.355 208.084 315.109 206.768 315.109 204.584C315.109 202.414 316.341 201.07 318.119 201.07C319.029 201.07 319.841 201.518 320.387 202.26V201.238H321.437V207.804C321.437 210.044 319.869 210.744 318.217 210.744C317.069 210.744 316.285 210.52 315.487 209.736ZM320.387 206.054V203.1C320.023 202.512 319.211 202.008 318.371 202.008C317.013 202.008 316.201 203.086 316.201 204.584C316.201 206.068 317.013 207.16 318.371 207.16C319.211 207.16 320.023 206.642 320.387 206.054Z" fill="white"/>
<rect x="11.5" y="11.5" width="341" height="341" rx="5.5" stroke="url(#paint1_radial_2691_6478)" shape-rendering="crispEdges"/>
</g>
<defs>
<filter id="filter0_d_2691_6478" x="0" y="0" width="364" height="364" filterUnits="userSpaceOnUse" color-interpolation-filters="sRGB">
<feFlood flood-opacity="0" result="BackgroundImageFix"/>
<feColorMatrix in="SourceAlpha" type="matrix" values="0 0 0 0 0 0 0 0 0 0 0 0 0 0 0 0 0 0 127 0" result="hardAlpha"/>
<feMorphology radius="1" operator="dilate" in="SourceAlpha" result="effect1_dropShadow_2691_6478"/>
<feOffset/>
<feGaussianBlur stdDeviation="5"/>
<feComposite in2="hardAlpha" operator="out"/>
<feColorMatrix type="matrix" values="0 0 0 0 0.0122396 0 0 0 0 0.139957 0 0 0 0 0.195833 0 0 0 1 0"/>
<feBlend mode="normal" in2="BackgroundImageFix" result="effect1_dropShadow_2691_6478"/>
<feBlend mode="normal" in="SourceGraphic" in2="effect1_dropShadow_2691_6478" result="shape"/>
</filter>
<radialGradient id="paint0_radial_2691_6478" cx="0" cy="0" r="1" gradientUnits="userSpaceOnUse" gradientTransform="translate(321.05 102) rotate(141.03) scale(397.507 525.824)">
<stop offset="0.0885417" stop-color="#00419C"/>
<stop offset="1"/>
</radialGradient>
<radialGradient id="paint1_radial_2691_6478" cx="0" cy="0" r="1" gradientUnits="userSpaceOnUse" gradientTransform="translate(329 42) rotate(115.37) scale(343.087)">
<stop stop-color="#1F3E78"/>
<stop offset="0.244792" stop-color="#142B56"/>
<stop offset="0.635417" stop-color="#162E5B"/>
<stop offset="1" stop-color="#06193E"/>
</radialGradient>
</defs>
</svg>
