<svg width="350" height="324" viewBox="0 0 350 324" fill="none" xmlns="http://www.w3.org/2000/svg">
<g filter="url(#filter0_d_2824_123158)">
<rect x="12" y="12" width="326" height="300" rx="5" fill="url(#paint0_radial_2824_123158)" shape-rendering="crispEdges"/>
<path d="M36.864 56H31.872L39.52 38.656H28.768V34.656H44.8V37.824L36.864 56ZM56.4775 56H51.9015V40.512L48.3815 44.128L45.7895 41.408L52.5095 34.656H56.4775V56ZM59.4258 39.712C59.4258 36.704 61.5698 34.336 64.8338 34.336C68.1298 34.336 70.2738 36.704 70.2738 39.712C70.2738 42.688 68.1298 44.96 64.8338 44.96C61.5698 44.96 59.4258 42.688 59.4258 39.712ZM65.1538 56H62.7538L76.3858 34.656H78.8178L65.1538 56ZM67.3618 39.712C67.3618 37.92 66.3058 36.864 64.8338 36.864C63.3938 36.864 62.3058 37.92 62.3058 39.712C62.3058 41.376 63.3938 42.464 64.8338 42.464C66.3058 42.464 67.3618 41.376 67.3618 39.712ZM71.1698 51.104C71.1698 48.096 73.3138 45.728 76.5778 45.728C79.8418 45.728 82.0178 48.096 82.0178 51.104C82.0178 54.08 79.8418 56.384 76.5778 56.384C73.3138 56.384 71.1698 54.08 71.1698 51.104ZM79.1378 51.104C79.1378 49.344 78.0498 48.256 76.5778 48.256C75.1058 48.256 74.0498 49.344 74.0498 51.104C74.0498 52.832 75.1058 53.888 76.5778 53.888C78.0498 53.888 79.1378 52.832 79.1378 51.104Z" fill="white"/>
<path d="M92.148 56.216C89.502 56.216 87.846 54.164 87.846 51.644C87.846 49.124 89.502 47.09 92.148 47.09C94.794 47.09 96.45 49.124 96.45 51.644C96.45 54.164 94.794 56.216 92.148 56.216ZM92.148 55.01C94.002 55.01 95.028 53.426 95.028 51.644C95.028 49.88 94.002 48.296 92.148 48.296C90.294 48.296 89.25 49.88 89.25 51.644C89.25 53.426 90.294 55.01 92.148 55.01ZM102.143 48.494H100.379V56H99.0288V48.494H97.5888V47.306H99.0288V46.64C99.0288 44.84 100.037 43.814 101.549 43.814C102.053 43.814 102.521 43.904 102.863 44.12L102.521 45.128C102.305 45.002 102.053 44.93 101.747 44.93C100.865 44.93 100.379 45.542 100.379 46.64V47.306H102.143V48.494ZM107.633 54.848L108.335 53.876C108.911 54.542 110.009 55.118 111.197 55.118C112.529 55.118 113.249 54.524 113.249 53.678C113.249 52.724 112.187 52.418 111.017 52.13C109.541 51.788 107.867 51.392 107.867 49.592C107.867 48.242 109.037 47.09 111.107 47.09C112.583 47.09 113.627 47.648 114.329 48.35L113.699 49.286C113.177 48.656 112.223 48.188 111.107 48.188C109.919 48.188 109.181 48.728 109.181 49.502C109.181 50.348 110.171 50.618 111.305 50.888C112.817 51.23 114.563 51.662 114.563 53.588C114.563 55.046 113.393 56.216 111.143 56.216C109.721 56.216 108.515 55.784 107.633 54.848ZM123.974 56H122.624V54.776C121.958 55.532 120.824 56.216 119.528 56.216C117.71 56.216 116.756 55.334 116.756 53.444V47.306H118.106V53.03C118.106 54.56 118.88 55.01 120.05 55.01C121.112 55.01 122.12 54.398 122.624 53.696V47.306H123.974V56ZM128.02 56H126.67V47.306H128.02V48.71C128.722 47.792 129.73 47.126 130.918 47.126V48.512C130.756 48.476 130.594 48.458 130.378 48.458C129.55 48.458 128.416 49.142 128.02 49.844V56ZM136.41 56H134.934L131.316 47.306H132.774L135.672 54.434L138.552 47.306H140.028L136.41 56ZM140.932 51.644C140.932 49.124 142.732 47.09 145.216 47.09C147.844 47.09 149.392 49.142 149.392 51.752V52.094H142.354C142.462 53.732 143.614 55.1 145.486 55.1C146.476 55.1 147.484 54.704 148.168 54.002L148.816 54.884C147.952 55.748 146.782 56.216 145.36 56.216C142.786 56.216 140.932 54.362 140.932 51.644ZM145.198 48.206C143.344 48.206 142.426 49.772 142.354 51.104H148.06C148.042 49.808 147.178 48.206 145.198 48.206ZM151.093 59.402L151.309 58.178C151.507 58.268 151.831 58.322 152.047 58.322C152.641 58.322 153.037 58.124 153.343 57.404L153.919 56.09L150.283 47.306H151.741L154.639 54.434L157.519 47.306H158.995L154.639 57.764C154.117 59.024 153.235 59.51 152.083 59.528C151.795 59.528 151.345 59.474 151.093 59.402ZM159.899 51.644C159.899 49.124 161.699 47.09 164.183 47.09C166.811 47.09 168.359 49.142 168.359 51.752V52.094H161.321C161.429 53.732 162.581 55.1 164.453 55.1C165.443 55.1 166.451 54.704 167.135 54.002L167.783 54.884C166.919 55.748 165.749 56.216 164.327 56.216C161.753 56.216 159.899 54.362 159.899 51.644ZM164.165 48.206C162.311 48.206 161.393 49.772 161.321 51.104H167.027C167.009 49.808 166.145 48.206 164.165 48.206ZM178.195 56H176.845V54.704C176.197 55.586 175.135 56.216 173.911 56.216C171.643 56.216 170.041 54.488 170.041 51.662C170.041 48.89 171.625 47.09 173.911 47.09C175.081 47.09 176.143 47.666 176.845 48.62V43.994H178.195V56ZM176.845 53.642V49.7C176.359 48.944 175.315 48.296 174.235 48.296C172.489 48.296 171.445 49.736 171.445 51.662C171.445 53.588 172.489 55.01 174.235 55.01C175.315 55.01 176.359 54.398 176.845 53.642ZM185.035 51.644C185.035 49.07 186.781 47.09 189.373 47.09C190.957 47.09 191.893 47.738 192.559 48.602L191.659 49.43C191.083 48.638 190.345 48.296 189.445 48.296C187.591 48.296 186.439 49.718 186.439 51.644C186.439 53.57 187.591 55.01 189.445 55.01C190.345 55.01 191.083 54.65 191.659 53.876L192.559 54.704C191.893 55.568 190.957 56.216 189.373 56.216C186.781 56.216 185.035 54.236 185.035 51.644ZM195.118 45.848C194.632 45.848 194.218 45.434 194.218 44.93C194.218 44.426 194.632 44.03 195.118 44.03C195.622 44.03 196.036 44.426 196.036 44.93C196.036 45.434 195.622 45.848 195.118 45.848ZM195.802 56H194.452V47.306H195.802V56ZM200.691 56.216C199.413 56.216 198.765 55.478 198.765 54.182V48.494H197.325V47.306H198.765V44.93H200.115V47.306H201.879V48.494H200.115V53.894C200.115 54.542 200.403 55.01 200.997 55.01C201.375 55.01 201.735 54.848 201.915 54.65L202.311 55.658C201.969 55.982 201.483 56.216 200.691 56.216ZM204.452 45.848C203.966 45.848 203.552 45.434 203.552 44.93C203.552 44.426 203.966 44.03 204.452 44.03C204.956 44.03 205.37 44.426 205.37 44.93C205.37 45.434 204.956 45.848 204.452 45.848ZM205.136 56H203.786V47.306H205.136V56ZM207.325 51.644C207.325 49.124 209.125 47.09 211.609 47.09C214.237 47.09 215.785 49.142 215.785 51.752V52.094H208.747C208.855 53.732 210.007 55.1 211.879 55.1C212.869 55.1 213.877 54.704 214.561 54.002L215.209 54.884C214.345 55.748 213.175 56.216 211.753 56.216C209.179 56.216 207.325 54.362 207.325 51.644ZM211.591 48.206C209.737 48.206 208.819 49.772 208.747 51.104H214.453C214.435 49.808 213.571 48.206 211.591 48.206ZM217.215 54.848L217.917 53.876C218.493 54.542 219.591 55.118 220.779 55.118C222.111 55.118 222.831 54.524 222.831 53.678C222.831 52.724 221.769 52.418 220.599 52.13C219.123 51.788 217.449 51.392 217.449 49.592C217.449 48.242 218.619 47.09 220.689 47.09C222.165 47.09 223.209 47.648 223.911 48.35L223.281 49.286C222.759 48.656 221.805 48.188 220.689 48.188C219.501 48.188 218.763 48.728 218.763 49.502C218.763 50.348 219.753 50.618 220.887 50.888C222.399 51.23 224.145 51.662 224.145 53.588C224.145 55.046 222.975 56.216 220.725 56.216C219.303 56.216 218.097 55.784 217.215 54.848Z" fill="white"/>
<path d="M37.04 80H35.54V78.9C34.74 79.78 33.64 80.24 32.34 80.24C30.7 80.24 28.96 79.14 28.96 77.04C28.96 74.88 30.7 73.86 32.34 73.86C33.66 73.86 34.76 74.28 35.54 75.18V73.44C35.54 72.14 34.5 71.4 33.1 71.4C31.94 71.4 31 71.82 30.14 72.74L29.44 71.7C30.48 70.62 31.72 70.1 33.3 70.1C35.34 70.1 37.04 71.02 37.04 73.36V80ZM35.54 77.96V76.14C34.96 75.34 33.94 74.94 32.88 74.94C31.48 74.94 30.5 75.82 30.5 77.06C30.5 78.28 31.48 79.16 32.88 79.16C33.94 79.16 34.96 78.76 35.54 77.96ZM41.5469 80H40.0469V70.34H41.5469V71.9C42.3269 70.88 43.4469 70.14 44.7669 70.14V71.68C44.5869 71.64 44.4069 71.62 44.1669 71.62C43.2469 71.62 41.9869 72.38 41.5469 73.16V80ZM46.0884 75.16C46.0884 72.36 48.0884 70.1 50.8484 70.1C53.7684 70.1 55.4884 72.38 55.4884 75.28V75.66H47.6684C47.7884 77.48 49.0684 79 51.1484 79C52.2484 79 53.3684 78.56 54.1284 77.78L54.8484 78.76C53.8884 79.72 52.5884 80.24 51.0084 80.24C48.1484 80.24 46.0884 78.18 46.0884 75.16ZM50.8284 71.34C48.7684 71.34 47.7484 73.08 47.6684 74.56H54.0084C53.9884 73.12 53.0284 71.34 50.8284 71.34ZM62.5142 75.16C62.5142 72.36 64.5142 70.1 67.2742 70.1C70.1942 70.1 71.9142 72.38 71.9142 75.28V75.66H64.0942C64.2142 77.48 65.4942 79 67.5742 79C68.6742 79 69.7942 78.56 70.5542 77.78L71.2742 78.76C70.3142 79.72 69.0142 80.24 67.4342 80.24C64.5742 80.24 62.5142 78.18 62.5142 75.16ZM67.2542 71.34C65.1942 71.34 64.1742 73.08 64.0942 74.56H70.4342C70.4142 73.12 69.4542 71.34 67.2542 71.34ZM75.0838 68.72C74.5438 68.72 74.0838 68.26 74.0838 67.7C74.0838 67.14 74.5438 66.7 75.0838 66.7C75.6438 66.7 76.1038 67.14 76.1038 67.7C76.1038 68.26 75.6438 68.72 75.0838 68.72ZM75.8438 80H74.3438V70.34H75.8438V80ZM81.2759 80.24C79.8559 80.24 79.1359 79.42 79.1359 77.98V71.66H77.5359V70.34H79.1359V67.7H80.6359V70.34H82.5959V71.66H80.6359V77.66C80.6359 78.38 80.9559 78.9 81.6159 78.9C82.0359 78.9 82.4359 78.72 82.6359 78.5L83.0759 79.62C82.6959 79.98 82.1559 80.24 81.2759 80.24ZM92.7548 80H91.2548V73.64C91.2548 71.94 90.3748 71.44 89.0748 71.44C87.9148 71.44 86.7948 72.16 86.2148 72.94V80H84.7148V66.66H86.2148V71.74C86.8948 70.94 88.2148 70.1 89.6748 70.1C91.6948 70.1 92.7548 71.08 92.7548 73.18V80ZM95.19 75.16C95.19 72.36 97.19 70.1 99.95 70.1C102.87 70.1 104.59 72.38 104.59 75.28V75.66H96.77C96.89 77.48 98.17 79 100.25 79C101.35 79 102.47 78.56 103.23 77.78L103.95 78.76C102.99 79.72 101.69 80.24 100.11 80.24C97.25 80.24 95.19 78.18 95.19 75.16ZM99.93 71.34C97.87 71.34 96.85 73.08 96.77 74.56H103.11C103.09 73.12 102.13 71.34 99.93 71.34ZM108.52 80H107.02V70.34H108.52V71.9C109.3 70.88 110.42 70.14 111.74 70.14V71.68C111.56 71.64 111.38 71.62 111.14 71.62C110.22 71.62 108.96 72.38 108.52 73.16V80ZM118.217 75.16C118.217 72.36 120.217 70.1 122.977 70.1C125.897 70.1 127.617 72.38 127.617 75.28V75.66H119.797C119.917 77.48 121.197 79 123.277 79C124.377 79 125.497 78.56 126.257 77.78L126.977 78.76C126.017 79.72 124.717 80.24 123.137 80.24C120.277 80.24 118.217 78.18 118.217 75.16ZM122.957 71.34C120.897 71.34 119.877 73.08 119.797 74.56H126.137C126.117 73.12 125.157 71.34 122.957 71.34ZM137.402 80H135.662L132.762 76.04L129.862 80H128.142L131.842 75.04L128.342 70.34H130.082L132.762 74.02L135.442 70.34H137.182L133.682 75.04L137.402 80ZM140.629 78.54V83.68H139.129V70.34H140.629V71.78C141.329 70.8 142.529 70.1 143.889 70.1C146.429 70.1 148.189 72.02 148.189 75.16C148.189 78.28 146.429 80.24 143.889 80.24C142.569 80.24 141.409 79.62 140.629 78.54ZM146.609 75.16C146.609 73.02 145.449 71.44 143.509 71.44C142.329 71.44 141.149 72.14 140.629 72.98V77.34C141.149 78.18 142.329 78.9 143.509 78.9C145.449 78.9 146.609 77.3 146.609 75.16ZM152.113 80H150.613V66.66H152.113V80ZM159.325 80.24C156.385 80.24 154.545 77.96 154.545 75.16C154.545 72.36 156.385 70.1 159.325 70.1C162.265 70.1 164.105 72.36 164.105 75.16C164.105 77.96 162.265 80.24 159.325 80.24ZM159.325 78.9C161.385 78.9 162.525 77.14 162.525 75.16C162.525 73.2 161.385 71.44 159.325 71.44C157.265 71.44 156.105 73.2 156.105 75.16C156.105 77.14 157.265 78.9 159.325 78.9ZM168.051 80H166.551V70.34H168.051V71.9C168.831 70.88 169.951 70.14 171.271 70.14V71.68C171.091 71.64 170.911 71.62 170.671 71.62C169.751 71.62 168.491 72.38 168.051 73.16V80ZM173.892 68.72C173.352 68.72 172.892 68.26 172.892 67.7C172.892 67.14 173.352 66.7 173.892 66.7C174.452 66.7 174.912 67.14 174.912 67.7C174.912 68.26 174.452 68.72 173.892 68.72ZM174.652 80H173.152V70.34H174.652V80ZM185.665 80H184.165V73.68C184.165 71.98 183.305 71.44 182.005 71.44C180.825 71.44 179.705 72.16 179.145 72.94V80H177.645V70.34H179.145V71.74C179.825 70.94 181.145 70.1 182.585 70.1C184.605 70.1 185.665 71.12 185.665 73.22V80ZM188.64 82.48L189.4 81.36C190.2 82.32 191.16 82.68 192.54 82.68C194.14 82.68 195.64 81.9 195.64 79.78V78.4C194.94 79.38 193.76 80.12 192.4 80.12C189.88 80.12 188.1 78.24 188.1 75.12C188.1 72.02 189.86 70.1 192.4 70.1C193.7 70.1 194.86 70.74 195.64 71.8V70.34H197.14V79.72C197.14 82.92 194.9 83.92 192.54 83.92C190.9 83.92 189.78 83.6 188.64 82.48ZM195.64 77.22V73C195.12 72.16 193.96 71.44 192.76 71.44C190.82 71.44 189.66 72.98 189.66 75.12C189.66 77.24 190.82 78.8 192.76 78.8C193.96 78.8 195.12 78.06 195.64 77.22ZM200.525 82.54L199.785 81.92C200.425 81.5 201.005 80.72 201.085 80.06C201.045 80.08 200.905 80.1 200.805 80.1C200.245 80.1 199.845 79.68 199.845 79.08C199.845 78.5 200.305 78 200.905 78C201.565 78 202.165 78.56 202.165 79.52C202.165 80.74 201.445 81.88 200.525 82.54ZM212.35 80.24C210.93 80.24 210.21 79.42 210.21 77.98V71.66H208.61V70.34H210.21V67.7H211.71V70.34H213.67V71.66H211.71V77.66C211.71 78.38 212.03 78.9 212.69 78.9C213.11 78.9 213.51 78.72 213.71 78.5L214.15 79.62C213.77 79.98 213.23 80.24 212.35 80.24ZM215.229 75.16C215.229 72.36 217.229 70.1 219.989 70.1C222.909 70.1 224.629 72.38 224.629 75.28V75.66H216.809C216.929 77.48 218.209 79 220.289 79C221.389 79 222.509 78.56 223.269 77.78L223.989 78.76C223.029 79.72 221.729 80.24 220.149 80.24C217.289 80.24 215.229 78.18 215.229 75.16ZM219.969 71.34C217.909 71.34 216.889 73.08 216.809 74.56H223.149C223.129 73.12 222.169 71.34 219.969 71.34ZM226.219 78.72L226.999 77.64C227.639 78.38 228.859 79.02 230.179 79.02C231.659 79.02 232.459 78.36 232.459 77.42C232.459 76.36 231.279 76.02 229.979 75.7C228.339 75.32 226.479 74.88 226.479 72.88C226.479 71.38 227.779 70.1 230.079 70.1C231.719 70.1 232.879 70.72 233.659 71.5L232.959 72.54C232.379 71.84 231.319 71.32 230.079 71.32C228.759 71.32 227.939 71.92 227.939 72.78C227.939 73.72 229.039 74.02 230.299 74.32C231.979 74.7 233.919 75.18 233.919 77.32C233.919 78.94 232.619 80.24 230.119 80.24C228.539 80.24 227.199 79.76 226.219 78.72ZM238.795 80.24C237.375 80.24 236.655 79.42 236.655 77.98V71.66H235.055V70.34H236.655V67.7H238.155V70.34H240.115V71.66H238.155V77.66C238.155 78.38 238.475 78.9 239.135 78.9C239.555 78.9 239.955 78.72 240.155 78.5L240.595 79.62C240.215 79.98 239.675 80.24 238.795 80.24ZM242.974 68.72C242.434 68.72 241.974 68.26 241.974 67.7C241.974 67.14 242.434 66.7 242.974 66.7C243.534 66.7 243.994 67.14 243.994 67.7C243.994 68.26 243.534 68.72 242.974 68.72ZM243.734 80H242.234V70.34H243.734V80ZM254.747 80H253.247V73.68C253.247 71.98 252.387 71.44 251.087 71.44C249.907 71.44 248.787 72.16 248.227 72.94V80H246.727V70.34H248.227V71.74C248.907 70.94 250.227 70.1 251.667 70.1C253.687 70.1 254.747 71.12 254.747 73.22V80ZM257.722 82.48L258.482 81.36C259.282 82.32 260.242 82.68 261.622 82.68C263.222 82.68 264.722 81.9 264.722 79.78V78.4C264.022 79.38 262.842 80.12 261.482 80.12C258.962 80.12 257.182 78.24 257.182 75.12C257.182 72.02 258.942 70.1 261.482 70.1C262.782 70.1 263.942 70.74 264.722 71.8V70.34H266.222V79.72C266.222 82.92 263.982 83.92 261.622 83.92C259.982 83.92 258.862 83.6 257.722 82.48ZM264.722 77.22V73C264.202 72.16 263.042 71.44 261.842 71.44C259.902 71.44 258.742 72.98 258.742 75.12C258.742 77.24 259.902 78.8 261.842 78.8C263.042 78.8 264.202 78.06 264.722 77.22ZM269.607 82.54L268.867 81.92C269.507 81.5 270.087 80.72 270.167 80.06C270.127 80.08 269.987 80.1 269.887 80.1C269.327 80.1 268.927 79.68 268.927 79.08C268.927 78.5 269.387 78 269.987 78C270.647 78 271.247 78.56 271.247 79.52C271.247 80.74 270.527 81.88 269.607 82.54ZM283.212 80.24C280.272 80.24 278.432 77.96 278.432 75.16C278.432 72.36 280.272 70.1 283.212 70.1C286.152 70.1 287.992 72.36 287.992 75.16C287.992 77.96 286.152 80.24 283.212 80.24ZM283.212 78.9C285.272 78.9 286.412 77.14 286.412 75.16C286.412 73.2 285.272 71.44 283.212 71.44C281.152 71.44 279.992 73.2 279.992 75.16C279.992 77.14 281.152 78.9 283.212 78.9ZM291.938 80H290.438V70.34H291.938V71.9C292.718 70.88 293.838 70.14 295.158 70.14V71.68C294.978 71.64 294.798 71.62 294.558 71.62C293.638 71.62 292.378 72.38 291.938 73.16V80ZM30.24 92.72C29.7 92.72 29.24 92.26 29.24 91.7C29.24 91.14 29.7 90.7 30.24 90.7C30.8 90.7 31.26 91.14 31.26 91.7C31.26 92.26 30.8 92.72 30.24 92.72ZM31 104H29.5V94.34H31V104ZM47.1522 104H45.6522V97.44C45.6522 96.22 45.1122 95.44 43.8722 95.44C42.8722 95.44 41.8122 96.16 41.3122 96.92V104H39.8122V97.44C39.8122 96.22 39.2922 95.44 38.0322 95.44C37.0522 95.44 36.0122 96.16 35.4922 96.94V104H33.9922V94.34H35.4922V95.74C35.8922 95.12 37.1922 94.1 38.6122 94.1C40.0922 94.1 40.9322 94.9 41.2122 95.9C41.7522 95.02 43.0522 94.1 44.4522 94.1C46.2122 94.1 47.1522 95.08 47.1522 97.02V104ZM51.6445 102.54V107.68H50.1445V94.34H51.6445V95.78C52.3445 94.8 53.5445 94.1 54.9045 94.1C57.4445 94.1 59.2045 96.02 59.2045 99.16C59.2045 102.28 57.4445 104.24 54.9045 104.24C53.5845 104.24 52.4245 103.62 51.6445 102.54ZM57.6245 99.16C57.6245 97.02 56.4645 95.44 54.5245 95.44C53.3445 95.44 52.1645 96.14 51.6445 96.98V101.34C52.1645 102.18 53.3445 102.9 54.5245 102.9C56.4645 102.9 57.6245 101.3 57.6245 99.16ZM63.1289 104H61.6289V90.66H63.1289V104ZM65.5611 99.16C65.5611 96.36 67.5611 94.1 70.3211 94.1C73.2411 94.1 74.9611 96.38 74.9611 99.28V99.66H67.1411C67.2611 101.48 68.5411 103 70.6211 103C71.7211 103 72.8411 102.56 73.6011 101.78L74.3211 102.76C73.3611 103.72 72.0611 104.24 70.4811 104.24C67.6211 104.24 65.5611 102.18 65.5611 99.16ZM70.3011 95.34C68.2411 95.34 67.2211 97.08 67.1411 98.56H73.4811C73.4611 97.12 72.5011 95.34 70.3011 95.34ZM90.5506 104H89.0506V97.44C89.0506 96.22 88.5106 95.44 87.2706 95.44C86.2706 95.44 85.2106 96.16 84.7106 96.92V104H83.2106V97.44C83.2106 96.22 82.6906 95.44 81.4306 95.44C80.4506 95.44 79.4106 96.16 78.8906 96.94V104H77.3906V94.34H78.8906V95.74C79.2906 95.12 80.5906 94.1 82.0106 94.1C83.4906 94.1 84.3306 94.9 84.6106 95.9C85.1506 95.02 86.4506 94.1 87.8506 94.1C89.6106 94.1 90.5506 95.08 90.5506 97.02V104ZM92.983 99.16C92.983 96.36 94.983 94.1 97.743 94.1C100.663 94.1 102.383 96.38 102.383 99.28V99.66H94.563C94.683 101.48 95.963 103 98.043 103C99.143 103 100.263 102.56 101.023 101.78L101.743 102.76C100.783 103.72 99.483 104.24 97.903 104.24C95.043 104.24 92.983 102.18 92.983 99.16ZM97.723 95.34C95.663 95.34 94.643 97.08 94.563 98.56H100.903C100.883 97.12 99.923 95.34 97.723 95.34ZM112.833 104H111.333V97.68C111.333 95.98 110.473 95.44 109.173 95.44C107.993 95.44 106.873 96.16 106.313 96.94V104H104.813V94.34H106.313V95.74C106.993 94.94 108.312 94.1 109.753 94.1C111.773 94.1 112.833 95.12 112.833 97.22V104ZM118.268 104.24C116.848 104.24 116.128 103.42 116.128 101.98V95.66H114.528V94.34H116.128V91.7H117.628V94.34H119.588V95.66H117.628V101.66C117.628 102.38 117.948 102.9 118.608 102.9C119.028 102.9 119.428 102.72 119.628 102.5L120.068 103.62C119.688 103.98 119.148 104.24 118.268 104.24ZM122.447 92.72C121.907 92.72 121.447 92.26 121.447 91.7C121.447 91.14 121.907 90.7 122.447 90.7C123.007 90.7 123.467 91.14 123.467 91.7C123.467 92.26 123.007 92.72 122.447 92.72ZM123.207 104H121.707V94.34H123.207V104ZM134.219 104H132.719V97.68C132.719 95.98 131.859 95.44 130.559 95.44C129.379 95.44 128.259 96.16 127.699 96.94V104H126.199V94.34H127.699V95.74C128.379 94.94 129.699 94.1 131.139 94.1C133.159 94.1 134.219 95.12 134.219 97.22V104ZM137.195 106.48L137.955 105.36C138.755 106.32 139.715 106.68 141.095 106.68C142.695 106.68 144.195 105.9 144.195 103.78V102.4C143.495 103.38 142.315 104.12 140.955 104.12C138.435 104.12 136.655 102.24 136.655 99.12C136.655 96.02 138.415 94.1 140.955 94.1C142.255 94.1 143.415 94.74 144.195 95.8V94.34H145.695V103.72C145.695 106.92 143.455 107.92 141.095 107.92C139.455 107.92 138.335 107.6 137.195 106.48ZM144.195 101.22V97C143.675 96.16 142.515 95.44 141.315 95.44C139.375 95.44 138.215 96.98 138.215 99.12C138.215 101.24 139.375 102.8 141.315 102.8C142.515 102.8 143.675 102.06 144.195 101.22ZM153.835 106.48L154.595 105.36C155.395 106.32 156.355 106.68 157.735 106.68C159.335 106.68 160.835 105.9 160.835 103.78V102.4C160.135 103.38 158.955 104.12 157.595 104.12C155.075 104.12 153.295 102.24 153.295 99.12C153.295 96.02 155.055 94.1 157.595 94.1C158.895 94.1 160.055 94.74 160.835 95.8V94.34H162.335V103.72C162.335 106.92 160.095 107.92 157.735 107.92C156.095 107.92 154.975 107.6 153.835 106.48ZM160.835 101.22V97C160.315 96.16 159.155 95.44 157.955 95.44C156.015 95.44 154.855 96.98 154.855 99.12C154.855 101.24 156.015 102.8 157.955 102.8C159.155 102.8 160.315 102.06 160.835 101.22ZM164.78 99.16C164.78 96.36 166.78 94.1 169.54 94.1C172.46 94.1 174.18 96.38 174.18 99.28V99.66H166.36C166.48 101.48 167.76 103 169.84 103C170.94 103 172.06 102.56 172.82 101.78L173.54 102.76C172.58 103.72 171.28 104.24 169.7 104.24C166.84 104.24 164.78 102.18 164.78 99.16ZM169.52 95.34C167.46 95.34 166.44 97.08 166.36 98.56H172.7C172.68 97.12 171.72 95.34 169.52 95.34ZM184.629 104H183.129V97.68C183.129 95.98 182.269 95.44 180.969 95.44C179.789 95.44 178.669 96.16 178.109 96.94V104H176.609V94.34H178.109V95.74C178.789 94.94 180.109 94.1 181.549 94.1C183.569 94.1 184.629 95.12 184.629 97.22V104ZM187.065 99.16C187.065 96.36 189.065 94.1 191.825 94.1C194.745 94.1 196.465 96.38 196.465 99.28V99.66H188.645C188.765 101.48 190.045 103 192.125 103C193.225 103 194.345 102.56 195.105 101.78L195.825 102.76C194.865 103.72 193.565 104.24 191.985 104.24C189.125 104.24 187.065 102.18 187.065 99.16ZM191.805 95.34C189.745 95.34 188.725 97.08 188.645 98.56H194.985C194.965 97.12 194.005 95.34 191.805 95.34ZM200.395 104H198.895V94.34H200.395V95.9C201.175 94.88 202.295 94.14 203.615 94.14V95.68C203.435 95.64 203.255 95.62 203.015 95.62C202.095 95.62 200.835 96.38 200.395 97.16V104ZM213.036 104H211.536V102.9C210.736 103.78 209.636 104.24 208.336 104.24C206.696 104.24 204.956 103.14 204.956 101.04C204.956 98.88 206.696 97.86 208.336 97.86C209.656 97.86 210.756 98.28 211.536 99.18V97.44C211.536 96.14 210.496 95.4 209.096 95.4C207.936 95.4 206.996 95.82 206.136 96.74L205.436 95.7C206.476 94.62 207.716 94.1 209.296 94.1C211.336 94.1 213.036 95.02 213.036 97.36V104ZM211.536 101.96V100.14C210.956 99.34 209.936 98.94 208.876 98.94C207.476 98.94 206.496 99.82 206.496 101.06C206.496 102.28 207.476 103.16 208.876 103.16C209.936 103.16 210.956 102.76 211.536 101.96ZM218.483 104.24C217.063 104.24 216.343 103.42 216.343 101.98V95.66H214.743V94.34H216.343V91.7H217.843V94.34H219.803V95.66H217.843V101.66C217.843 102.38 218.163 102.9 218.823 102.9C219.243 102.9 219.643 102.72 219.843 102.5L220.283 103.62C219.903 103.98 219.363 104.24 218.483 104.24ZM222.662 92.72C222.122 92.72 221.662 92.26 221.662 91.7C221.662 91.14 222.122 90.7 222.662 90.7C223.222 90.7 223.682 91.14 223.682 91.7C223.682 92.26 223.222 92.72 222.662 92.72ZM223.422 104H221.922V94.34H223.422V104ZM230.634 104H228.994L224.974 94.34H226.594L229.814 102.26L233.014 94.34H234.654L230.634 104ZM235.659 99.16C235.659 96.36 237.659 94.1 240.419 94.1C243.339 94.1 245.059 96.38 245.059 99.28V99.66H237.239C237.359 101.48 238.639 103 240.719 103C241.819 103 242.939 102.56 243.699 101.78L244.419 102.76C243.459 103.72 242.159 104.24 240.579 104.24C237.719 104.24 235.659 102.18 235.659 99.16ZM240.399 95.34C238.339 95.34 237.319 97.08 237.239 98.56H243.579C243.559 97.12 242.599 95.34 240.399 95.34ZM264.125 104H262.285L261.105 101.04H254.345L253.165 104H251.325L256.685 90.66H258.745L264.125 104ZM260.605 99.56L257.725 92.14L254.825 99.56H260.605ZM267.529 104H265.869V90.66H267.529V104Z" fill="white"/>
<path fill-rule="evenodd" clip-rule="evenodd" d="M180.918 162.124V141.001C220.216 141.22 252 173.15 252 212.5C252 251.986 219.991 284 180.512 284C165.928 284 153.344 280.276 141.446 272.394L153.662 255.902C161.552 260.937 170.924 263.854 180.977 263.854C209.065 263.854 231.834 241.081 231.834 212.989C231.834 184.897 209.065 162.124 180.977 162.124C180.958 162.124 180.938 162.124 180.918 162.124Z" fill="#0063A7"/>
<path fill-rule="evenodd" clip-rule="evenodd" d="M115.737 242.803C120.863 254.023 127.826 262.492 138.017 269.999L150.231 253.509C143.84 248.65 138.633 242.313 135.12 235.008L115.737 242.803Z" fill="#539EE9"/>
<path fill-rule="evenodd" clip-rule="evenodd" d="M131.693 225.589L111.458 231.012C112.275 234.063 113.042 236.359 114.226 239.289L133.58 231.467C132.837 229.561 132.205 227.599 131.693 225.589Z" fill="#9FDFFB"/>
<path fill-rule="evenodd" clip-rule="evenodd" d="M176.737 162.299C150.634 164.454 130.121 186.325 130.121 212.989C130.121 216.447 130.466 219.825 131.123 223.089L110.63 227.619C102.591 190.568 124.999 153.355 162.009 143.435C166.888 142.128 171.753 141.355 176.737 141.097V162.299Z" fill="white" fill-opacity="0.1"/>
<path d="M176.737 162.299L176.747 162.423L176.862 162.414V162.299H176.737ZM131.123 223.089L131.15 223.211L131.27 223.185L131.246 223.064L131.123 223.089ZM110.63 227.619L110.508 227.646L110.535 227.768L110.657 227.741L110.63 227.619ZM162.009 143.435L161.977 143.314L161.976 143.314L162.009 143.435ZM176.737 141.097H176.862V140.965L176.73 140.972L176.737 141.097ZM176.727 162.174C175.67 162.261 174.622 162.381 173.585 162.531L173.621 162.779C174.653 162.629 175.696 162.51 176.747 162.423L176.727 162.174ZM167.404 163.826C165.359 164.39 163.365 165.078 161.431 165.881L161.527 166.112C163.451 165.313 165.435 164.628 167.471 164.067L167.404 163.826ZM155.761 168.663C153.926 169.71 152.162 170.867 150.479 172.126L150.629 172.326C152.304 171.073 154.059 169.922 155.885 168.88L155.761 168.663ZM145.664 176.213C144.145 177.672 142.716 179.224 141.387 180.861L141.581 181.018C142.904 179.39 144.325 177.845 145.837 176.393L145.664 176.213ZM137.715 186C136.602 187.78 135.596 189.634 134.706 191.553L134.933 191.658C135.819 189.749 136.82 187.904 137.927 186.132L137.715 186ZM132.411 197.436C131.774 199.428 131.256 201.472 130.866 203.561L131.111 203.607C131.5 201.528 132.015 199.494 132.649 197.513L132.411 197.436ZM130.092 209.829C130.028 210.874 129.996 211.928 129.996 212.989H130.246C130.246 211.933 130.278 210.884 130.342 209.844L130.092 209.829ZM129.996 212.989C129.996 213.843 130.017 214.692 130.058 215.536L130.308 215.524C130.267 214.684 130.246 213.839 130.246 212.989H129.996ZM130.561 220.605C130.687 221.448 130.834 222.284 131.001 223.114L131.246 223.064C131.08 222.239 130.933 221.407 130.808 220.568L130.561 220.605ZM131.096 222.967L128.535 223.533L128.589 223.777L131.15 223.211L131.096 222.967ZM123.412 224.666L118.288 225.798L118.342 226.042L123.465 224.91L123.412 224.666ZM113.165 226.931L110.603 227.497L110.657 227.741L113.219 227.175L113.165 226.931ZM110.753 227.593C110.538 226.604 110.346 225.616 110.174 224.628L109.928 224.671C110.1 225.662 110.293 226.654 110.508 227.646L110.753 227.593ZM109.395 218.644C109.218 216.627 109.129 214.616 109.125 212.616L108.875 212.617C108.879 214.624 108.969 216.642 109.146 218.665L109.395 218.644ZM109.369 206.589C109.537 204.576 109.789 202.579 110.125 200.602L109.878 200.56C109.542 202.544 109.288 204.548 109.12 206.568L109.369 206.589ZM111.386 194.701C111.891 192.749 112.477 190.823 113.142 188.928L112.906 188.845C112.239 190.747 111.65 192.68 111.144 194.638L111.386 194.701ZM115.378 183.324C116.202 181.487 117.102 179.686 118.077 177.927L117.858 177.806C116.88 179.571 115.976 181.378 115.15 183.221L115.378 183.324ZM121.219 172.775C122.337 171.105 123.526 169.48 124.783 167.906L124.588 167.75C123.327 169.329 122.133 170.96 121.011 172.636L121.219 172.775ZM128.744 163.355C130.124 161.897 131.569 160.495 133.075 159.154L132.909 158.967C131.398 160.314 129.948 161.72 128.562 163.183L128.744 163.355ZM137.747 155.335C139.351 154.134 141.012 152.996 142.727 151.927L142.595 151.715C140.874 152.788 139.207 153.929 137.597 155.135L137.747 155.335ZM147.977 148.956C149.757 148.047 151.586 147.207 153.462 146.442L153.367 146.21C151.485 146.978 149.65 147.821 147.864 148.733L147.977 148.956ZM159.141 144.398C160.097 144.098 161.064 143.817 162.041 143.556L161.976 143.314C160.996 143.577 160.026 143.859 159.066 144.159L159.141 144.398ZM162.041 143.556C163.25 143.232 164.457 142.941 165.666 142.683L165.614 142.438C164.401 142.697 163.189 142.989 161.977 143.314L162.041 143.556ZM173.027 141.512C174.259 141.383 175.498 141.286 176.743 141.222L176.73 140.972C175.48 141.037 174.238 141.134 173.001 141.263L173.027 141.512ZM176.612 141.097V143.747H176.862V141.097H176.612ZM176.612 149.047V154.348H176.862V149.047H176.612ZM176.612 159.648V162.299H176.862V159.648H176.612Z" fill="white" fill-opacity="0.5"/>
<path d="M55.176 267.034L55.764 266.166C56.24 266.726 56.8 267.118 57.766 267.118C59.656 267.118 60.398 265.228 60.398 263.464C60.398 263.338 60.398 263.212 60.384 263.086C59.978 263.73 58.942 264.542 57.752 264.542C56.072 264.542 54.686 263.548 54.686 261.56C54.686 259.95 55.918 258.508 57.948 258.508C60.566 258.508 61.56 260.79 61.56 263.338C61.56 265.858 60.384 268.154 57.766 268.154C56.576 268.154 55.764 267.706 55.176 267.034ZM60.342 262.148C60.244 260.986 59.628 259.544 58.004 259.544C56.576 259.544 55.862 260.636 55.862 261.518C55.862 262.89 56.814 263.534 58.018 263.534C58.942 263.534 59.852 262.974 60.342 262.148ZM62.7055 260.846C62.7055 259.53 63.6155 258.522 64.9455 258.522C66.2895 258.522 67.2135 259.53 67.2135 260.846C67.2135 262.148 66.2895 263.128 64.9455 263.128C63.6155 263.128 62.7055 262.148 62.7055 260.846ZM64.8195 268H64.0635L70.0275 258.662H70.7975L64.8195 268ZM66.3735 260.846C66.3735 259.922 65.7855 259.236 64.9455 259.236C64.1195 259.236 63.5455 259.922 63.5455 260.846C63.5455 261.728 64.1195 262.428 64.9455 262.428C65.7855 262.428 66.3735 261.728 66.3735 260.846ZM67.5775 265.886C67.5775 264.57 68.4875 263.562 69.8175 263.562C71.1475 263.562 72.0715 264.57 72.0715 265.886C72.0715 267.188 71.1475 268.168 69.8175 268.168C68.4875 268.168 67.5775 267.188 67.5775 265.886ZM71.2455 265.886C71.2455 264.962 70.6575 264.276 69.8175 264.276C68.9775 264.276 68.4035 264.962 68.4035 265.886C68.4035 266.768 68.9775 267.468 69.8175 267.468C70.6575 267.468 71.2455 266.768 71.2455 265.886ZM80.6851 268H79.5231V259.698H76.5691V258.662H83.6531V259.698H80.6851V268ZM83.1502 264.612C83.1502 262.652 84.5502 261.07 86.4822 261.07C88.5262 261.07 89.7302 262.666 89.7302 264.696V264.962H84.2562C84.3402 266.236 85.2362 267.3 86.6922 267.3C87.4622 267.3 88.2462 266.992 88.7782 266.446L89.2822 267.132C88.6102 267.804 87.7002 268.168 86.5942 268.168C84.5922 268.168 83.1502 266.726 83.1502 264.612ZM86.4682 261.938C85.0262 261.938 84.3122 263.156 84.2562 264.192H88.6942C88.6802 263.184 88.0082 261.938 86.4682 261.938ZM90.8429 267.104L91.3889 266.348C91.8369 266.866 92.6909 267.314 93.6149 267.314C94.6509 267.314 95.2109 266.852 95.2109 266.194C95.2109 265.452 94.3849 265.214 93.4749 264.99C92.3269 264.724 91.0249 264.416 91.0249 263.016C91.0249 261.966 91.9349 261.07 93.5449 261.07C94.6929 261.07 95.5049 261.504 96.0509 262.05L95.5609 262.778C95.1549 262.288 94.4129 261.924 93.5449 261.924C92.6209 261.924 92.0469 262.344 92.0469 262.946C92.0469 263.604 92.8169 263.814 93.6989 264.024C94.8749 264.29 96.2329 264.626 96.2329 266.124C96.2329 267.258 95.3229 268.168 93.5729 268.168C92.4669 268.168 91.5289 267.832 90.8429 267.104ZM99.6467 268.168C98.6527 268.168 98.1487 267.594 98.1487 266.586V262.162H97.0287V261.238H98.1487V259.39H99.1987V261.238H100.571V262.162H99.1987V266.362C99.1987 266.866 99.4227 267.23 99.8847 267.23C100.179 267.23 100.459 267.104 100.599 266.95L100.907 267.734C100.641 267.986 100.263 268.168 99.6467 268.168ZM102.572 260.104C102.194 260.104 101.872 259.782 101.872 259.39C101.872 258.998 102.194 258.69 102.572 258.69C102.964 258.69 103.286 258.998 103.286 259.39C103.286 259.782 102.964 260.104 102.572 260.104ZM103.104 268H102.054V261.238H103.104V268ZM110.812 268H109.762V263.576C109.762 262.386 109.16 262.008 108.25 262.008C107.424 262.008 106.64 262.512 106.248 263.058V268H105.198V261.238H106.248V262.218C106.724 261.658 107.648 261.07 108.656 261.07C110.07 261.07 110.812 261.784 110.812 263.254V268ZM112.895 269.736L113.427 268.952C113.987 269.624 114.659 269.876 115.625 269.876C116.745 269.876 117.795 269.33 117.795 267.846V266.88C117.305 267.566 116.479 268.084 115.527 268.084C113.763 268.084 112.517 266.768 112.517 264.584C112.517 262.414 113.749 261.07 115.527 261.07C116.437 261.07 117.249 261.518 117.795 262.26V261.238H118.845V267.804C118.845 270.044 117.277 270.744 115.625 270.744C114.477 270.744 113.693 270.52 112.895 269.736ZM117.795 266.054V263.1C117.431 262.512 116.619 262.008 115.779 262.008C114.421 262.008 113.609 263.086 113.609 264.584C113.609 266.068 114.421 267.16 115.779 267.16C116.619 267.16 117.431 266.642 117.795 266.054Z" fill="white"/>
<path d="M35.168 240H28.756V239.076C32.116 236.43 33.936 234.876 33.936 233.266C33.936 232.076 32.956 231.558 31.99 231.558C30.87 231.558 30.002 232.034 29.456 232.734L28.742 231.992C29.456 231.054 30.674 230.522 31.99 230.522C33.544 230.522 35.126 231.404 35.126 233.266C35.126 235.17 33.194 236.906 30.59 238.964H35.168V240ZM36.6645 232.846C36.6645 231.53 37.5745 230.522 38.9045 230.522C40.2485 230.522 41.1725 231.53 41.1725 232.846C41.1725 234.148 40.2485 235.128 38.9045 235.128C37.5745 235.128 36.6645 234.148 36.6645 232.846ZM38.7785 240H38.0225L43.9865 230.662H44.7565L38.7785 240ZM40.3325 232.846C40.3325 231.922 39.7445 231.236 38.9045 231.236C38.0785 231.236 37.5045 231.922 37.5045 232.846C37.5045 233.728 38.0785 234.428 38.9045 234.428C39.7445 234.428 40.3325 233.728 40.3325 232.846ZM41.5365 237.886C41.5365 236.57 42.4465 235.562 43.7765 235.562C45.1065 235.562 46.0305 236.57 46.0305 237.886C46.0305 239.188 45.1065 240.168 43.7765 240.168C42.4465 240.168 41.5365 239.188 41.5365 237.886ZM45.2045 237.886C45.2045 236.962 44.6165 236.276 43.7765 236.276C42.9365 236.276 42.3625 236.962 42.3625 237.886C42.3625 238.768 42.9365 239.468 43.7765 239.468C44.6165 239.468 45.2045 238.768 45.2045 237.886ZM59.1661 240H57.8781L57.0521 237.928H52.3201L51.4941 240H50.2061L53.9581 230.662H55.4001L59.1661 240ZM56.7021 236.892L54.6861 231.698L52.6561 236.892H56.7021ZM61.3949 238.978V242.576H60.3449V233.238H61.3949V234.246C61.8849 233.56 62.7249 233.07 63.6769 233.07C65.4549 233.07 66.6869 234.414 66.6869 236.612C66.6869 238.796 65.4549 240.168 63.6769 240.168C62.7529 240.168 61.9409 239.734 61.3949 238.978ZM65.5809 236.612C65.5809 235.114 64.7689 234.008 63.4109 234.008C62.5849 234.008 61.7589 234.498 61.3949 235.086V238.138C61.7589 238.726 62.5849 239.23 63.4109 239.23C64.7689 239.23 65.5809 238.11 65.5809 236.612ZM69.434 238.978V242.576H68.384V233.238H69.434V234.246C69.924 233.56 70.764 233.07 71.716 233.07C73.494 233.07 74.726 234.414 74.726 236.612C74.726 238.796 73.494 240.168 71.716 240.168C70.792 240.168 69.98 239.734 69.434 238.978ZM73.62 236.612C73.62 235.114 72.808 234.008 71.45 234.008C70.624 234.008 69.798 234.498 69.434 235.086V238.138C69.798 238.726 70.624 239.23 71.45 239.23C72.808 239.23 73.62 238.11 73.62 236.612ZM77.473 240H76.423V230.662H77.473V240ZM79.1896 242.646L79.3576 241.694C79.5116 241.764 79.7636 241.806 79.9316 241.806C80.3936 241.806 80.7016 241.652 80.9396 241.092L81.3876 240.07L78.5596 233.238H79.6936L81.9476 238.782L84.1876 233.238H85.3356L81.9476 241.372C81.5416 242.352 80.8556 242.73 79.9596 242.744C79.7356 242.744 79.3856 242.702 79.1896 242.646ZM86.9489 232.104C86.5709 232.104 86.2489 231.782 86.2489 231.39C86.2489 230.998 86.5709 230.69 86.9489 230.69C87.3409 230.69 87.6629 230.998 87.6629 231.39C87.6629 231.782 87.3409 232.104 86.9489 232.104ZM87.4809 240H86.4309V233.238H87.4809V240ZM95.1894 240H94.1394V235.576C94.1394 234.386 93.5374 234.008 92.6274 234.008C91.8014 234.008 91.0174 234.512 90.6254 235.058V240H89.5754V233.238H90.6254V234.218C91.1014 233.658 92.0254 233.07 93.0334 233.07C94.4474 233.07 95.1894 233.784 95.1894 235.254V240ZM97.2723 241.736L97.8043 240.952C98.3643 241.624 99.0363 241.876 100.002 241.876C101.122 241.876 102.172 241.33 102.172 239.846V238.88C101.682 239.566 100.856 240.084 99.9043 240.084C98.1403 240.084 96.8943 238.768 96.8943 236.584C96.8943 234.414 98.1263 233.07 99.9043 233.07C100.814 233.07 101.626 233.518 102.172 234.26V233.238H103.222V239.804C103.222 242.044 101.654 242.744 100.002 242.744C98.8543 242.744 98.0703 242.52 97.2723 241.736ZM102.172 238.054V235.1C101.808 234.512 100.996 234.008 100.156 234.008C98.7983 234.008 97.9863 235.086 97.9863 236.584C97.9863 238.068 98.7983 239.16 100.156 239.16C100.996 239.16 101.808 238.642 102.172 238.054Z" fill="white"/>
<path d="M252.714 158.352C252.714 155.818 253.89 153.522 256.508 153.522C257.712 153.522 258.524 153.984 259.098 154.642L258.51 155.51C258.034 154.95 257.488 154.558 256.508 154.558C254.702 154.558 253.876 156.392 253.876 158.226C253.876 158.352 253.876 158.464 253.89 158.59C254.296 157.946 255.332 157.134 256.536 157.134C258.216 157.134 259.588 158.128 259.588 160.116C259.588 161.74 258.356 163.168 256.312 163.168C253.708 163.168 252.714 160.886 252.714 158.352ZM258.412 160.158C258.412 158.786 257.46 158.142 256.256 158.142C255.332 158.142 254.436 158.716 253.918 159.542C254.03 160.704 254.646 162.132 256.27 162.132C257.712 162.132 258.412 161.054 258.412 160.158ZM260.985 158.338C260.985 156.056 261.993 153.522 264.555 153.522C267.103 153.522 268.125 156.056 268.125 158.338C268.125 160.606 267.103 163.168 264.555 163.168C261.993 163.168 260.985 160.606 260.985 158.338ZM266.935 158.338C266.935 156.476 266.333 154.558 264.555 154.558C262.777 154.558 262.175 156.476 262.175 158.338C262.175 160.2 262.777 162.132 264.555 162.132C266.333 162.132 266.935 160.2 266.935 158.338ZM269.278 155.846C269.278 154.53 270.188 153.522 271.518 153.522C272.862 153.522 273.786 154.53 273.786 155.846C273.786 157.148 272.862 158.128 271.518 158.128C270.188 158.128 269.278 157.148 269.278 155.846ZM271.392 163H270.636L276.6 153.662H277.37L271.392 163ZM272.946 155.846C272.946 154.922 272.358 154.236 271.518 154.236C270.692 154.236 270.118 154.922 270.118 155.846C270.118 156.728 270.692 157.428 271.518 157.428C272.358 157.428 272.946 156.728 272.946 155.846ZM274.15 160.886C274.15 159.57 275.06 158.562 276.39 158.562C277.72 158.562 278.644 159.57 278.644 160.886C278.644 162.188 277.72 163.168 276.39 163.168C275.06 163.168 274.15 162.188 274.15 160.886ZM277.818 160.886C277.818 159.962 277.23 159.276 276.39 159.276C275.55 159.276 274.976 159.962 274.976 160.886C274.976 161.768 275.55 162.468 276.39 162.468C277.23 162.468 277.818 161.768 277.818 160.886ZM259.21 180H253.092V170.662H259.21V171.698H254.254V174.708H259.112V175.744H254.254V178.964H259.21V180ZM266.621 180H265.403L263.373 177.228L261.343 180H260.139L262.729 176.528L260.279 173.238H261.497L263.373 175.814L265.249 173.238H266.467L264.017 176.528L266.621 180ZM268.879 178.978V182.576H267.829V173.238H268.879V174.246C269.369 173.56 270.209 173.07 271.161 173.07C272.939 173.07 274.171 174.414 274.171 176.612C274.171 178.796 272.939 180.168 271.161 180.168C270.237 180.168 269.425 179.734 268.879 178.978ZM273.065 176.612C273.065 175.114 272.253 174.008 270.895 174.008C270.069 174.008 269.243 174.498 268.879 175.086V178.138C269.243 178.726 270.069 179.23 270.895 179.23C272.253 179.23 273.065 178.11 273.065 176.612ZM276.918 180H275.868V170.662H276.918V180ZM281.967 180.168C279.909 180.168 278.621 178.572 278.621 176.612C278.621 174.652 279.909 173.07 281.967 173.07C284.025 173.07 285.313 174.652 285.313 176.612C285.313 178.572 284.025 180.168 281.967 180.168ZM281.967 179.23C283.409 179.23 284.207 177.998 284.207 176.612C284.207 175.24 283.409 174.008 281.967 174.008C280.525 174.008 279.713 175.24 279.713 176.612C279.713 177.998 280.525 179.23 281.967 179.23ZM288.075 180H287.025V173.238H288.075V174.33C288.621 173.616 289.405 173.098 290.329 173.098V174.176C290.203 174.148 290.077 174.134 289.909 174.134C289.265 174.134 288.383 174.666 288.075 175.212V180ZM292.164 172.104C291.786 172.104 291.464 171.782 291.464 171.39C291.464 170.998 291.786 170.69 292.164 170.69C292.556 170.69 292.878 170.998 292.878 171.39C292.878 171.782 292.556 172.104 292.164 172.104ZM292.696 180H291.646V173.238H292.696V180ZM300.404 180H299.354V175.576C299.354 174.386 298.752 174.008 297.842 174.008C297.016 174.008 296.232 174.512 295.84 175.058V180H294.79V173.238H295.84V174.218C296.316 173.658 297.24 173.07 298.248 173.07C299.662 173.07 300.404 173.784 300.404 175.254V180ZM302.487 181.736L303.019 180.952C303.579 181.624 304.251 181.876 305.217 181.876C306.337 181.876 307.387 181.33 307.387 179.846V178.88C306.897 179.566 306.071 180.084 305.119 180.084C303.355 180.084 302.109 178.768 302.109 176.584C302.109 174.414 303.341 173.07 305.119 173.07C306.029 173.07 306.841 173.518 307.387 174.26V173.238H308.437V179.804C308.437 182.044 306.869 182.744 305.217 182.744C304.069 182.744 303.285 182.52 302.487 181.736ZM307.387 178.054V175.1C307.023 174.512 306.211 174.008 305.371 174.008C304.013 174.008 303.201 175.086 303.201 176.584C303.201 178.068 304.013 179.16 305.371 179.16C306.211 179.16 307.023 178.642 307.387 178.054Z" fill="white"/>
<rect x="11.5" y="11.5" width="327" height="301" rx="5.5" stroke="url(#paint1_radial_2824_123158)" shape-rendering="crispEdges"/>
</g>
<defs>
<filter id="filter0_d_2824_123158" x="0" y="0" width="350" height="324" filterUnits="userSpaceOnUse" color-interpolation-filters="sRGB">
<feFlood flood-opacity="0" result="BackgroundImageFix"/>
<feColorMatrix in="SourceAlpha" type="matrix" values="0 0 0 0 0 0 0 0 0 0 0 0 0 0 0 0 0 0 127 0" result="hardAlpha"/>
<feMorphology radius="1" operator="dilate" in="SourceAlpha" result="effect1_dropShadow_2824_123158"/>
<feOffset/>
<feGaussianBlur stdDeviation="5"/>
<feComposite in2="hardAlpha" operator="out"/>
<feColorMatrix type="matrix" values="0 0 0 0 0.0122396 0 0 0 0 0.139957 0 0 0 0 0.195833 0 0 0 1 0"/>
<feBlend mode="normal" in2="BackgroundImageFix" result="effect1_dropShadow_2824_123158"/>
<feBlend mode="normal" in="SourceGraphic" in2="effect1_dropShadow_2824_123158" result="shape"/>
</filter>
<radialGradient id="paint0_radial_2824_123158" cx="0" cy="0" r="1" gradientUnits="userSpaceOnUse" gradientTransform="translate(308.325 91.4118) rotate(143.335) scale(369.415 478.687)">
<stop offset="0.0885417" stop-color="#00419C"/>
<stop offset="1"/>
</radialGradient>
<radialGradient id="paint1_radial_2824_123158" cx="0" cy="0" r="1" gradientUnits="userSpaceOnUse" gradientTransform="translate(315.947 38.4706) rotate(117.262) scale(307.708 323.632)">
<stop stop-color="#1F3E78"/>
<stop offset="0.244792" stop-color="#142B56"/>
<stop offset="0.635417" stop-color="#162E5B"/>
<stop offset="1" stop-color="#06193E"/>
</radialGradient>
</defs>
</svg>
