<svg width="362" height="362" viewBox="0 0 362 362" fill="none" xmlns="http://www.w3.org/2000/svg">
<g filter="url(#filter0_d_2691_6476)">
<rect x="11" y="11" width="340" height="340" rx="5" fill="url(#paint0_radial_2691_6476)" shape-rendering="crispEdges"/>
<path d="M36.12 61.464C36.12 58.872 38.136 56.888 40.696 55.992C38.328 55.192 36.472 53.624 36.472 50.968C36.472 46.968 40.728 45.336 44.696 45.336C48.632 45.336 52.92 46.968 52.92 50.968C52.92 53.624 51.032 55.192 48.664 55.992C51.224 56.888 53.272 58.872 53.272 61.464C53.272 65.432 49.176 67.384 44.696 67.384C40.216 67.384 36.12 65.464 36.12 61.464ZM48.28 51.672C48.28 50.168 46.776 49.24 44.696 49.24C42.584 49.24 41.08 50.168 41.08 51.672C41.08 53.336 43.384 54.072 44.696 54.264C46.008 54.072 48.28 53.336 48.28 51.672ZM48.664 60.92C48.664 59.064 46.008 58.168 44.696 58.008C43.352 58.168 40.728 59.064 40.728 60.92C40.728 62.488 42.456 63.48 44.696 63.48C46.872 63.48 48.664 62.488 48.664 60.92ZM65.4463 67H60.8703V51.512L57.3503 55.128L54.7583 52.408L61.4783 45.656H65.4463V67ZM68.3945 50.712C68.3945 47.704 70.5385 45.336 73.8025 45.336C77.0985 45.336 79.2425 47.704 79.2425 50.712C79.2425 53.688 77.0985 55.96 73.8025 55.96C70.5385 55.96 68.3945 53.688 68.3945 50.712ZM74.1225 67H71.7225L85.3545 45.656H87.7865L74.1225 67ZM76.3305 50.712C76.3305 48.92 75.2745 47.864 73.8025 47.864C72.3625 47.864 71.2745 48.92 71.2745 50.712C71.2745 52.376 72.3625 53.464 73.8025 53.464C75.2745 53.464 76.3305 52.376 76.3305 50.712ZM80.1385 62.104C80.1385 59.096 82.2825 56.728 85.5465 56.728C88.8105 56.728 90.9865 59.096 90.9865 62.104C90.9865 65.08 88.8105 67.384 85.5465 67.384C82.2825 67.384 80.1385 65.08 80.1385 62.104ZM88.1065 62.104C88.1065 60.344 87.0185 59.256 85.5465 59.256C84.0745 59.256 83.0185 60.344 83.0185 62.104C83.0185 63.832 84.0745 64.888 85.5465 64.888C87.0185 64.888 88.1065 63.832 88.1065 62.104Z" fill="white"/>
<path d="M101.148 67.216C98.502 67.216 96.846 65.164 96.846 62.644C96.846 60.124 98.502 58.09 101.148 58.09C103.794 58.09 105.45 60.124 105.45 62.644C105.45 65.164 103.794 67.216 101.148 67.216ZM101.148 66.01C103.002 66.01 104.028 64.426 104.028 62.644C104.028 60.88 103.002 59.296 101.148 59.296C99.294 59.296 98.25 60.88 98.25 62.644C98.25 64.426 99.294 66.01 101.148 66.01ZM111.143 59.494H109.379V67H108.029V59.494H106.589V58.306H108.029V57.64C108.029 55.84 109.037 54.814 110.549 54.814C111.053 54.814 111.521 54.904 111.863 55.12L111.521 56.128C111.305 56.002 111.053 55.93 110.747 55.93C109.865 55.93 109.379 56.542 109.379 57.64V58.306H111.143V59.494ZM116.633 65.848L117.335 64.876C117.911 65.542 119.009 66.118 120.197 66.118C121.529 66.118 122.249 65.524 122.249 64.678C122.249 63.724 121.187 63.418 120.017 63.13C118.541 62.788 116.867 62.392 116.867 60.592C116.867 59.242 118.037 58.09 120.107 58.09C121.583 58.09 122.627 58.648 123.329 59.35L122.699 60.286C122.177 59.656 121.223 59.188 120.107 59.188C118.919 59.188 118.181 59.728 118.181 60.502C118.181 61.348 119.171 61.618 120.305 61.888C121.817 62.23 123.563 62.662 123.563 64.588C123.563 66.046 122.393 67.216 120.143 67.216C118.721 67.216 117.515 66.784 116.633 65.848ZM132.974 67H131.624V65.776C130.958 66.532 129.824 67.216 128.528 67.216C126.71 67.216 125.756 66.334 125.756 64.444V58.306H127.106V64.03C127.106 65.56 127.88 66.01 129.05 66.01C130.112 66.01 131.12 65.398 131.624 64.696V58.306H132.974V67ZM137.02 67H135.67V58.306H137.02V59.71C137.722 58.792 138.73 58.126 139.918 58.126V59.512C139.756 59.476 139.594 59.458 139.378 59.458C138.55 59.458 137.416 60.142 137.02 60.844V67ZM145.41 67H143.934L140.316 58.306H141.774L144.672 65.434L147.552 58.306H149.028L145.41 67ZM149.932 62.644C149.932 60.124 151.732 58.09 154.216 58.09C156.844 58.09 158.392 60.142 158.392 62.752V63.094H151.354C151.462 64.732 152.614 66.1 154.486 66.1C155.476 66.1 156.484 65.704 157.168 65.002L157.816 65.884C156.952 66.748 155.782 67.216 154.36 67.216C151.786 67.216 149.932 65.362 149.932 62.644ZM154.198 59.206C152.344 59.206 151.426 60.772 151.354 62.104H157.06C157.042 60.808 156.178 59.206 154.198 59.206ZM160.093 70.402L160.309 69.178C160.507 69.268 160.831 69.322 161.047 69.322C161.641 69.322 162.037 69.124 162.343 68.404L162.919 67.09L159.283 58.306H160.741L163.639 65.434L166.519 58.306H167.995L163.639 68.764C163.117 70.024 162.235 70.51 161.083 70.528C160.795 70.528 160.345 70.474 160.093 70.402ZM168.899 62.644C168.899 60.124 170.699 58.09 173.183 58.09C175.811 58.09 177.359 60.142 177.359 62.752V63.094H170.321C170.429 64.732 171.581 66.1 173.453 66.1C174.443 66.1 175.451 65.704 176.135 65.002L176.783 65.884C175.919 66.748 174.749 67.216 173.327 67.216C170.753 67.216 168.899 65.362 168.899 62.644ZM173.165 59.206C171.311 59.206 170.393 60.772 170.321 62.104H176.027C176.009 60.808 175.145 59.206 173.165 59.206ZM187.195 67H185.845V65.704C185.197 66.586 184.135 67.216 182.911 67.216C180.643 67.216 179.041 65.488 179.041 62.662C179.041 59.89 180.625 58.09 182.911 58.09C184.081 58.09 185.143 58.666 185.845 59.62V54.994H187.195V67ZM185.845 64.642V60.7C185.359 59.944 184.315 59.296 183.235 59.296C181.489 59.296 180.445 60.736 180.445 62.662C180.445 64.588 181.489 66.01 183.235 66.01C184.315 66.01 185.359 65.398 185.845 64.642ZM194.035 62.644C194.035 60.07 195.781 58.09 198.373 58.09C199.957 58.09 200.893 58.738 201.559 59.602L200.659 60.43C200.083 59.638 199.345 59.296 198.445 59.296C196.591 59.296 195.439 60.718 195.439 62.644C195.439 64.57 196.591 66.01 198.445 66.01C199.345 66.01 200.083 65.65 200.659 64.876L201.559 65.704C200.893 66.568 199.957 67.216 198.373 67.216C195.781 67.216 194.035 65.236 194.035 62.644ZM204.118 56.848C203.632 56.848 203.218 56.434 203.218 55.93C203.218 55.426 203.632 55.03 204.118 55.03C204.622 55.03 205.036 55.426 205.036 55.93C205.036 56.434 204.622 56.848 204.118 56.848ZM204.802 67H203.452V58.306H204.802V67ZM209.691 67.216C208.413 67.216 207.765 66.478 207.765 65.182V59.494H206.325V58.306H207.765V55.93H209.115V58.306H210.879V59.494H209.115V64.894C209.115 65.542 209.403 66.01 209.997 66.01C210.375 66.01 210.735 65.848 210.915 65.65L211.311 66.658C210.969 66.982 210.483 67.216 209.691 67.216ZM213.452 56.848C212.966 56.848 212.552 56.434 212.552 55.93C212.552 55.426 212.966 55.03 213.452 55.03C213.956 55.03 214.37 55.426 214.37 55.93C214.37 56.434 213.956 56.848 213.452 56.848ZM214.136 67H212.786V58.306H214.136V67ZM216.325 62.644C216.325 60.124 218.125 58.09 220.609 58.09C223.237 58.09 224.785 60.142 224.785 62.752V63.094H217.747C217.855 64.732 219.007 66.1 220.879 66.1C221.869 66.1 222.877 65.704 223.561 65.002L224.209 65.884C223.345 66.748 222.175 67.216 220.753 67.216C218.179 67.216 216.325 65.362 216.325 62.644ZM220.591 59.206C218.737 59.206 217.819 60.772 217.747 62.104H223.453C223.435 60.808 222.571 59.206 220.591 59.206ZM226.215 65.848L226.917 64.876C227.493 65.542 228.591 66.118 229.779 66.118C231.111 66.118 231.831 65.524 231.831 64.678C231.831 63.724 230.769 63.418 229.599 63.13C228.123 62.788 226.449 62.392 226.449 60.592C226.449 59.242 227.619 58.09 229.689 58.09C231.165 58.09 232.209 58.648 232.911 59.35L232.281 60.286C231.759 59.656 230.805 59.188 229.689 59.188C228.501 59.188 227.763 59.728 227.763 60.502C227.763 61.348 228.753 61.618 229.887 61.888C231.399 62.23 233.145 62.662 233.145 64.588C233.145 66.046 231.975 67.216 229.725 67.216C228.303 67.216 227.097 66.784 226.215 65.848Z" fill="white"/>
<path d="M46.36 91H44.86L42.34 83.24L39.82 91H38.32L35.24 81.34H36.8L39.16 89.04L41.7 81.34H42.98L45.52 89.04L47.88 81.34H49.44L46.36 91ZM58.7275 91H57.2275V89.9C56.4275 90.78 55.3275 91.24 54.0275 91.24C52.3875 91.24 50.6475 90.14 50.6475 88.04C50.6475 85.88 52.3875 84.86 54.0275 84.86C55.3475 84.86 56.4475 85.28 57.2275 86.18V84.44C57.2275 83.14 56.1875 82.4 54.7875 82.4C53.6275 82.4 52.6875 82.82 51.8275 83.74L51.1275 82.7C52.1675 81.62 53.4075 81.1 54.9875 81.1C57.0275 81.1 58.7275 82.02 58.7275 84.36V91ZM57.2275 88.96V87.14C56.6475 86.34 55.6275 85.94 54.5675 85.94C53.1675 85.94 52.1875 86.82 52.1875 88.06C52.1875 89.28 53.1675 90.16 54.5675 90.16C55.6275 90.16 56.6475 89.76 57.2275 88.96ZM69.7544 91H68.2544V84.68C68.2544 82.98 67.3944 82.44 66.0944 82.44C64.9144 82.44 63.7944 83.16 63.2344 83.94V91H61.7344V81.34H63.2344V82.74C63.9144 81.94 65.2344 81.1 66.6744 81.1C68.6944 81.1 69.7544 82.12 69.7544 84.22V91ZM75.19 91.24C73.77 91.24 73.05 90.42 73.05 88.98V82.66H71.45V81.34H73.05V78.7H74.55V81.34H76.51V82.66H74.55V88.66C74.55 89.38 74.87 89.9 75.53 89.9C75.95 89.9 76.35 89.72 76.55 89.5L76.99 90.62C76.61 90.98 76.07 91.24 75.19 91.24ZM86.2252 91.24C84.8052 91.24 84.0852 90.42 84.0852 88.98V82.66H82.4852V81.34H84.0852V78.7H85.5852V81.34H87.5452V82.66H85.5852V88.66C85.5852 89.38 85.9052 89.9 86.5652 89.9C86.9852 89.9 87.3852 89.72 87.5852 89.5L88.0252 90.62C87.6452 90.98 87.1052 91.24 86.2252 91.24ZM93.8841 91.24C90.9441 91.24 89.1041 88.96 89.1041 86.16C89.1041 83.36 90.9441 81.1 93.8841 81.1C96.8241 81.1 98.6641 83.36 98.6641 86.16C98.6641 88.96 96.8241 91.24 93.8841 91.24ZM93.8841 89.9C95.9441 89.9 97.0841 88.14 97.0841 86.16C97.0841 84.2 95.9441 82.44 93.8841 82.44C91.8241 82.44 90.6641 84.2 90.6641 86.16C90.6641 88.14 91.8241 89.9 93.8841 89.9ZM114.286 91H112.786V89.64C112.046 90.48 110.786 91.24 109.346 91.24C107.326 91.24 106.266 90.26 106.266 88.16V81.34H107.766V87.7C107.766 89.4 108.626 89.9 109.926 89.9C111.106 89.9 112.226 89.22 112.786 88.44V81.34H114.286V91ZM116.441 89.72L117.221 88.64C117.861 89.38 119.081 90.02 120.401 90.02C121.881 90.02 122.681 89.36 122.681 88.42C122.681 87.36 121.501 87.02 120.201 86.7C118.561 86.32 116.701 85.88 116.701 83.88C116.701 82.38 118.001 81.1 120.301 81.1C121.941 81.1 123.101 81.72 123.881 82.5L123.181 83.54C122.601 82.84 121.541 82.32 120.301 82.32C118.981 82.32 118.161 82.92 118.161 83.78C118.161 84.72 119.261 85.02 120.521 85.32C122.201 85.7 124.141 86.18 124.141 88.32C124.141 89.94 122.841 91.24 120.341 91.24C118.761 91.24 117.421 90.76 116.441 89.72ZM126.018 86.16C126.018 83.36 128.018 81.1 130.778 81.1C133.698 81.1 135.418 83.38 135.418 86.28V86.66H127.598C127.718 88.48 128.998 90 131.078 90C132.178 90 133.298 89.56 134.058 88.78L134.778 89.76C133.818 90.72 132.518 91.24 130.938 91.24C128.078 91.24 126.018 89.18 126.018 86.16ZM130.758 82.34C128.698 82.34 127.678 84.08 127.598 85.56H133.938C133.918 84.12 132.958 82.34 130.758 82.34ZM142.984 93.48L143.744 92.36C144.544 93.32 145.504 93.68 146.884 93.68C148.484 93.68 149.984 92.9 149.984 90.78V89.4C149.284 90.38 148.104 91.12 146.744 91.12C144.224 91.12 142.444 89.24 142.444 86.12C142.444 83.02 144.204 81.1 146.744 81.1C148.044 81.1 149.204 81.74 149.984 82.8V81.34H151.484V90.72C151.484 93.92 149.244 94.92 146.884 94.92C145.244 94.92 144.124 94.6 142.984 93.48ZM149.984 88.22V84C149.464 83.16 148.304 82.44 147.104 82.44C145.164 82.44 144.004 83.98 144.004 86.12C144.004 88.24 145.164 89.8 147.104 89.8C148.304 89.8 149.464 89.06 149.984 88.22ZM153.928 86.16C153.928 83.36 155.928 81.1 158.688 81.1C161.608 81.1 163.328 83.38 163.328 86.28V86.66H155.508C155.628 88.48 156.908 90 158.988 90C160.088 90 161.208 89.56 161.968 88.78L162.688 89.76C161.728 90.72 160.428 91.24 158.848 91.24C155.988 91.24 153.928 89.18 153.928 86.16ZM158.668 82.34C156.608 82.34 155.588 84.08 155.508 85.56H161.848C161.828 84.12 160.868 82.34 158.668 82.34ZM173.778 91H172.278V84.68C172.278 82.98 171.418 82.44 170.118 82.44C168.938 82.44 167.818 83.16 167.258 83.94V91H165.758V81.34H167.258V82.74C167.938 81.94 169.258 81.1 170.698 81.1C172.718 81.1 173.778 82.12 173.778 84.22V91ZM176.213 86.16C176.213 83.36 178.213 81.1 180.973 81.1C183.893 81.1 185.613 83.38 185.613 86.28V86.66H177.793C177.913 88.48 179.193 90 181.273 90C182.373 90 183.493 89.56 184.253 88.78L184.973 89.76C184.013 90.72 182.713 91.24 181.133 91.24C178.273 91.24 176.213 89.18 176.213 86.16ZM180.953 82.34C178.893 82.34 177.873 84.08 177.793 85.56H184.133C184.113 84.12 183.153 82.34 180.953 82.34ZM189.543 91H188.043V81.34H189.543V82.9C190.323 81.88 191.443 81.14 192.763 81.14V82.68C192.583 82.64 192.403 82.62 192.163 82.62C191.243 82.62 189.983 83.38 189.543 84.16V91ZM202.185 91H200.685V89.9C199.885 90.78 198.785 91.24 197.485 91.24C195.845 91.24 194.105 90.14 194.105 88.04C194.105 85.88 195.845 84.86 197.485 84.86C198.805 84.86 199.905 85.28 200.685 86.18V84.44C200.685 83.14 199.645 82.4 198.245 82.4C197.085 82.4 196.145 82.82 195.285 83.74L194.585 82.7C195.625 81.62 196.865 81.1 198.445 81.1C200.485 81.1 202.185 82.02 202.185 84.36V91ZM200.685 88.96V87.14C200.105 86.34 199.085 85.94 198.025 85.94C196.625 85.94 195.645 86.82 195.645 88.06C195.645 89.28 196.625 90.16 198.025 90.16C199.085 90.16 200.105 89.76 200.685 88.96ZM207.631 91.24C206.211 91.24 205.491 90.42 205.491 88.98V82.66H203.891V81.34H205.491V78.7H206.991V81.34H208.951V82.66H206.991V88.66C206.991 89.38 207.311 89.9 207.971 89.9C208.391 89.9 208.791 89.72 208.991 89.5L209.431 90.62C209.051 90.98 208.511 91.24 207.631 91.24ZM211.81 79.72C211.27 79.72 210.81 79.26 210.81 78.7C210.81 78.14 211.27 77.7 211.81 77.7C212.37 77.7 212.83 78.14 212.83 78.7C212.83 79.26 212.37 79.72 211.81 79.72ZM212.57 91H211.07V81.34H212.57V91ZM219.783 91H218.143L214.123 81.34H215.743L218.963 89.26L222.163 81.34H223.803L219.783 91ZM224.807 86.16C224.807 83.36 226.807 81.1 229.567 81.1C232.487 81.1 234.207 83.38 234.207 86.28V86.66H226.387C226.507 88.48 227.787 90 229.867 90C230.967 90 232.087 89.56 232.847 88.78L233.567 89.76C232.607 90.72 231.307 91.24 229.727 91.24C226.867 91.24 224.807 89.18 224.807 86.16ZM229.547 82.34C227.487 82.34 226.467 84.08 226.387 85.56H232.727C232.707 84.12 231.747 82.34 229.547 82.34ZM253.273 91H251.433L250.253 88.04H243.493L242.313 91H240.473L245.833 77.66H247.893L253.273 91ZM249.753 86.56L246.873 79.14L243.973 86.56H249.753ZM256.677 91H255.017V77.66H256.677V91ZM267.338 91.24C265.918 91.24 265.198 90.42 265.198 88.98V82.66H263.598V81.34H265.198V78.7H266.698V81.34H268.658V82.66H266.698V88.66C266.698 89.38 267.018 89.9 267.678 89.9C268.098 89.9 268.498 89.72 268.698 89.5L269.138 90.62C268.758 90.98 268.218 91.24 267.338 91.24ZM274.997 91.24C272.057 91.24 270.217 88.96 270.217 86.16C270.217 83.36 272.057 81.1 274.997 81.1C277.937 81.1 279.777 83.36 279.777 86.16C279.777 88.96 277.937 91.24 274.997 91.24ZM274.997 89.9C277.057 89.9 278.197 88.14 278.197 86.16C278.197 84.2 277.057 82.44 274.997 82.44C272.937 82.44 271.777 84.2 271.777 86.16C271.777 88.14 272.937 89.9 274.997 89.9ZM40.72 115.24C37.78 115.24 35.94 112.96 35.94 110.16C35.94 107.36 37.78 105.1 40.72 105.1C43.66 105.1 45.5 107.36 45.5 110.16C45.5 112.96 43.66 115.24 40.72 115.24ZM40.72 113.9C42.78 113.9 43.92 112.14 43.92 110.16C43.92 108.2 42.78 106.44 40.72 106.44C38.66 106.44 37.5 108.2 37.5 110.16C37.5 112.14 38.66 113.9 40.72 113.9ZM49.4453 113.54V118.68H47.9453V105.34H49.4453V106.78C50.1453 105.8 51.3453 105.1 52.7053 105.1C55.2453 105.1 57.0053 107.02 57.0053 110.16C57.0053 113.28 55.2453 115.24 52.7053 115.24C51.3853 115.24 50.2253 114.62 49.4453 113.54ZM55.4253 110.16C55.4253 108.02 54.2653 106.44 52.3253 106.44C51.1453 106.44 49.9653 107.14 49.4453 107.98V112.34C49.9653 113.18 51.1453 113.9 52.3253 113.9C54.2653 113.9 55.4253 112.3 55.4253 110.16ZM61.8697 115.24C60.4497 115.24 59.7297 114.42 59.7297 112.98V106.66H58.1297V105.34H59.7297V102.7H61.2297V105.34H63.1897V106.66H61.2297V112.66C61.2297 113.38 61.5497 113.9 62.2097 113.9C62.6297 113.9 63.0297 113.72 63.2297 113.5L63.6697 114.62C63.2897 114.98 62.7497 115.24 61.8697 115.24ZM66.0486 103.72C65.5086 103.72 65.0486 103.26 65.0486 102.7C65.0486 102.14 65.5086 101.7 66.0486 101.7C66.6086 101.7 67.0686 102.14 67.0686 102.7C67.0686 103.26 66.6086 103.72 66.0486 103.72ZM66.8086 115H65.3086V105.34H66.8086V115ZM82.9608 115H81.4608V108.44C81.4608 107.22 80.9208 106.44 79.6808 106.44C78.6808 106.44 77.6208 107.16 77.1208 107.92V115H75.6208V108.44C75.6208 107.22 75.1008 106.44 73.8408 106.44C72.8608 106.44 71.8208 107.16 71.3008 107.94V115H69.8008V105.34H71.3008V106.74C71.7008 106.12 73.0008 105.1 74.4208 105.1C75.9008 105.1 76.7408 105.9 77.0208 106.9C77.5608 106.02 78.8608 105.1 80.2608 105.1C82.0208 105.1 82.9608 106.08 82.9608 108.02V115ZM86.6931 103.72C86.1531 103.72 85.6931 103.26 85.6931 102.7C85.6931 102.14 86.1531 101.7 86.6931 101.7C87.2531 101.7 87.7131 102.14 87.7131 102.7C87.7131 103.26 87.2531 103.72 86.6931 103.72ZM87.4531 115H85.9531V105.34H87.4531V115ZM97.3453 115H89.9853V113.84L95.3053 106.66H89.9853V105.34H97.2653V106.48L91.9053 113.7H97.3453V115ZM99.3189 110.16C99.3189 107.36 101.319 105.1 104.079 105.1C106.999 105.1 108.719 107.38 108.719 110.28V110.66H100.899C101.019 112.48 102.299 114 104.379 114C105.479 114 106.599 113.56 107.359 112.78L108.079 113.76C107.119 114.72 105.819 115.24 104.239 115.24C101.379 115.24 99.3189 113.18 99.3189 110.16ZM104.059 106.34C101.999 106.34 100.979 108.08 100.899 109.56H107.239C107.219 108.12 106.259 106.34 104.059 106.34ZM115.745 110.16C115.745 107.3 117.685 105.1 120.565 105.1C122.325 105.1 123.365 105.82 124.105 106.78L123.105 107.7C122.465 106.82 121.645 106.44 120.645 106.44C118.585 106.44 117.305 108.02 117.305 110.16C117.305 112.3 118.585 113.9 120.645 113.9C121.645 113.9 122.465 113.5 123.105 112.64L124.105 113.56C123.365 114.52 122.325 115.24 120.565 115.24C117.685 115.24 115.745 113.04 115.745 110.16ZM126.947 103.72C126.407 103.72 125.947 103.26 125.947 102.7C125.947 102.14 126.407 101.7 126.947 101.7C127.507 101.7 127.967 102.14 127.967 102.7C127.967 103.26 127.507 103.72 126.947 103.72ZM127.707 115H126.207V105.34H127.707V115ZM133.139 115.24C131.719 115.24 130.999 114.42 130.999 112.98V106.66H129.399V105.34H130.999V102.7H132.499V105.34H134.459V106.66H132.499V112.66C132.499 113.38 132.819 113.9 133.479 113.9C133.899 113.9 134.299 113.72 134.499 113.5L134.939 114.62C134.559 114.98 134.019 115.24 133.139 115.24ZM136.038 118.78L136.278 117.42C136.498 117.52 136.858 117.58 137.098 117.58C137.758 117.58 138.198 117.36 138.538 116.56L139.178 115.1L135.138 105.34H136.758L139.978 113.26L143.178 105.34H144.818L139.978 116.96C139.398 118.36 138.418 118.9 137.138 118.92C136.818 118.92 136.318 118.86 136.038 118.78ZM150.699 113.72L151.479 112.64C152.119 113.38 153.339 114.02 154.659 114.02C156.139 114.02 156.939 113.36 156.939 112.42C156.939 111.36 155.759 111.02 154.459 110.7C152.819 110.32 150.959 109.88 150.959 107.88C150.959 106.38 152.259 105.1 154.559 105.1C156.199 105.1 157.359 105.72 158.139 106.5L157.439 107.54C156.859 106.84 155.799 106.32 154.559 106.32C153.239 106.32 152.419 106.92 152.419 107.78C152.419 108.72 153.519 109.02 154.779 109.32C156.459 109.7 158.399 110.18 158.399 112.32C158.399 113.94 157.099 115.24 154.599 115.24C153.019 115.24 151.679 114.76 150.699 113.72ZM160.276 110.16C160.276 107.36 162.276 105.1 165.036 105.1C167.956 105.1 169.676 107.38 169.676 110.28V110.66H161.856C161.976 112.48 163.256 114 165.336 114C166.436 114 167.556 113.56 168.316 112.78L169.036 113.76C168.076 114.72 166.776 115.24 165.196 115.24C162.336 115.24 160.276 113.18 160.276 110.16ZM165.016 106.34C162.956 106.34 161.936 108.08 161.856 109.56H168.196C168.176 108.12 167.216 106.34 165.016 106.34ZM173.605 115H172.105V105.34H173.605V106.9C174.385 105.88 175.505 105.14 176.825 105.14V106.68C176.645 106.64 176.465 106.62 176.225 106.62C175.305 106.62 174.045 107.38 173.605 108.16V115ZM182.927 115H181.287L177.267 105.34H178.887L182.107 113.26L185.307 105.34H186.947L182.927 115ZM189.252 103.72C188.712 103.72 188.252 103.26 188.252 102.7C188.252 102.14 188.712 101.7 189.252 101.7C189.812 101.7 190.272 102.14 190.272 102.7C190.272 103.26 189.812 103.72 189.252 103.72ZM190.012 115H188.512V105.34H190.012V115ZM192.444 110.16C192.444 107.3 194.384 105.1 197.264 105.1C199.024 105.1 200.064 105.82 200.804 106.78L199.804 107.7C199.164 106.82 198.344 106.44 197.344 106.44C195.284 106.44 194.004 108.02 194.004 110.16C194.004 112.3 195.284 113.9 197.344 113.9C198.344 113.9 199.164 113.5 199.804 112.64L200.804 113.56C200.064 114.52 199.024 115.24 197.264 115.24C194.384 115.24 192.444 113.04 192.444 110.16ZM202.346 110.16C202.346 107.36 204.346 105.1 207.106 105.1C210.026 105.1 211.746 107.38 211.746 110.28V110.66H203.926C204.046 112.48 205.326 114 207.406 114C208.506 114 209.626 113.56 210.386 112.78L211.106 113.76C210.146 114.72 208.846 115.24 207.266 115.24C204.406 115.24 202.346 113.18 202.346 110.16ZM207.086 106.34C205.026 106.34 204.006 108.08 203.926 109.56H210.266C210.246 108.12 209.286 106.34 207.086 106.34ZM227.832 115H226.332V113.56C225.612 114.54 224.432 115.24 223.072 115.24C220.552 115.24 218.772 113.32 218.772 110.18C218.772 107.1 220.532 105.1 223.072 105.1C224.372 105.1 225.552 105.74 226.332 106.8V101.66H227.832V115ZM226.332 112.38V108C225.792 107.16 224.632 106.44 223.432 106.44C221.492 106.44 220.332 108.04 220.332 110.18C220.332 112.32 221.492 113.9 223.432 113.9C224.632 113.9 225.792 113.22 226.332 112.38ZM230.276 110.16C230.276 107.36 232.276 105.1 235.036 105.1C237.956 105.1 239.676 107.38 239.676 110.28V110.66H231.856C231.976 112.48 233.256 114 235.336 114C236.436 114 237.556 113.56 238.316 112.78L239.036 113.76C238.076 114.72 236.776 115.24 235.196 115.24C232.336 115.24 230.276 113.18 230.276 110.16ZM235.016 106.34C232.956 106.34 231.936 108.08 231.856 109.56H238.196C238.176 108.12 237.216 106.34 235.016 106.34ZM243.605 115H242.105V101.66H243.605V115ZM247.338 103.72C246.798 103.72 246.338 103.26 246.338 102.7C246.338 102.14 246.798 101.7 247.338 101.7C247.898 101.7 248.358 102.14 248.358 102.7C248.358 103.26 247.898 103.72 247.338 103.72ZM248.098 115H246.598V105.34H248.098V115ZM255.31 115H253.67L249.65 105.34H251.27L254.49 113.26L257.69 105.34H259.33L255.31 115ZM260.335 110.16C260.335 107.36 262.335 105.1 265.095 105.1C268.015 105.1 269.735 107.38 269.735 110.28V110.66H261.915C262.035 112.48 263.315 114 265.395 114C266.495 114 267.615 113.56 268.375 112.78L269.095 113.76C268.135 114.72 266.835 115.24 265.255 115.24C262.395 115.24 260.335 113.18 260.335 110.16ZM265.075 106.34C263.015 106.34 261.995 108.08 261.915 109.56H268.255C268.235 108.12 267.275 106.34 265.075 106.34ZM273.664 115H272.164V105.34H273.664V106.9C274.444 105.88 275.564 105.14 276.884 105.14V106.68C276.704 106.64 276.524 106.62 276.284 106.62C275.364 106.62 274.104 107.38 273.664 108.16V115ZM278.226 118.78L278.466 117.42C278.686 117.52 279.046 117.58 279.286 117.58C279.946 117.58 280.386 117.36 280.726 116.56L281.366 115.1L277.326 105.34H278.946L282.166 113.26L285.366 105.34H287.006L282.166 116.96C281.586 118.36 280.606 118.9 279.326 118.92C279.006 118.92 278.506 118.86 278.226 118.78ZM296.167 115.24C294.747 115.24 294.027 114.42 294.027 112.98V106.66H292.427V105.34H294.027V102.7H295.527V105.34H297.487V106.66H295.527V112.66C295.527 113.38 295.847 113.9 296.507 113.9C296.927 113.9 297.327 113.72 297.527 113.5L297.967 114.62C297.587 114.98 297.047 115.24 296.167 115.24ZM303.825 115.24C300.885 115.24 299.045 112.96 299.045 110.16C299.045 107.36 300.885 105.1 303.825 105.1C306.765 105.1 308.605 107.36 308.605 110.16C308.605 112.96 306.765 115.24 303.825 115.24ZM303.825 113.9C305.885 113.9 307.025 112.14 307.025 110.16C307.025 108.2 305.885 106.44 303.825 106.44C301.765 106.44 300.605 108.2 300.605 110.16C300.605 112.14 301.765 113.9 303.825 113.9ZM35.94 134.16C35.94 131.3 37.88 129.1 40.76 129.1C42.52 129.1 43.56 129.82 44.3 130.78L43.3 131.7C42.66 130.82 41.84 130.44 40.84 130.44C38.78 130.44 37.5 132.02 37.5 134.16C37.5 136.3 38.78 137.9 40.84 137.9C41.84 137.9 42.66 137.5 43.3 136.64L44.3 137.56C43.56 138.52 42.52 139.24 40.76 139.24C37.88 139.24 35.94 137.04 35.94 134.16ZM50.6223 139.24C47.6823 139.24 45.8423 136.96 45.8423 134.16C45.8423 131.36 47.6823 129.1 50.6223 129.1C53.5623 129.1 55.4023 131.36 55.4023 134.16C55.4023 136.96 53.5623 139.24 50.6223 139.24ZM50.6223 137.9C52.6823 137.9 53.8223 136.14 53.8223 134.16C53.8223 132.2 52.6823 130.44 50.6223 130.44C48.5623 130.44 47.4023 132.2 47.4023 134.16C47.4023 136.14 48.5623 137.9 50.6223 137.9ZM65.8677 139H64.3677V132.68C64.3677 130.98 63.5077 130.44 62.2077 130.44C61.0277 130.44 59.9077 131.16 59.3477 131.94V139H57.8477V129.34H59.3477V130.74C60.0277 129.94 61.3477 129.1 62.7877 129.1C64.8077 129.1 65.8677 130.12 65.8677 132.22V139ZM68.0233 137.72L68.8033 136.64C69.4433 137.38 70.6633 138.02 71.9833 138.02C73.4633 138.02 74.2633 137.36 74.2633 136.42C74.2633 135.36 73.0833 135.02 71.7833 134.7C70.1433 134.32 68.2833 133.88 68.2833 131.88C68.2833 130.38 69.5833 129.1 71.8833 129.1C73.5233 129.1 74.6833 129.72 75.4633 130.5L74.7633 131.54C74.1833 130.84 73.1233 130.32 71.8833 130.32C70.5633 130.32 69.7433 130.92 69.7433 131.78C69.7433 132.72 70.8433 133.02 72.1033 133.32C73.7833 133.7 75.7233 134.18 75.7233 136.32C75.7233 137.94 74.4233 139.24 71.9233 139.24C70.3433 139.24 69.0033 138.76 68.0233 137.72ZM80.6002 139.24C79.1802 139.24 78.4602 138.42 78.4602 136.98V130.66H76.8602V129.34H78.4602V126.7H79.9602V129.34H81.9202V130.66H79.9602V136.66C79.9602 137.38 80.2802 137.9 80.9402 137.9C81.3602 137.9 81.7602 137.72 81.9602 137.5L82.4002 138.62C82.0202 138.98 81.4802 139.24 80.6002 139.24ZM84.7791 127.72C84.2391 127.72 83.7791 127.26 83.7791 126.7C83.7791 126.14 84.2391 125.7 84.7791 125.7C85.3391 125.7 85.7991 126.14 85.7991 126.7C85.7991 127.26 85.3391 127.72 84.7791 127.72ZM85.5391 139H84.0391V129.34H85.5391V139ZM90.9713 139.24C89.5513 139.24 88.8313 138.42 88.8313 136.98V130.66H87.2313V129.34H88.8313V126.7H90.3313V129.34H92.2913V130.66H90.3313V136.66C90.3313 137.38 90.6513 137.9 91.3113 137.9C91.7313 137.9 92.1313 137.72 92.3313 137.5L92.7713 138.62C92.3913 138.98 91.8513 139.24 90.9713 139.24ZM102.43 139H100.93V137.64C100.19 138.48 98.9302 139.24 97.4902 139.24C95.4702 139.24 94.4102 138.26 94.4102 136.16V129.34H95.9102V135.7C95.9102 137.4 96.7702 137.9 98.0702 137.9C99.2502 137.9 100.37 137.22 100.93 136.44V129.34H102.43V139ZM104.866 134.16C104.866 131.36 106.866 129.1 109.626 129.1C112.546 129.1 114.266 131.38 114.266 134.28V134.66H106.446C106.566 136.48 107.846 138 109.926 138C111.026 138 112.146 137.56 112.906 136.78L113.626 137.76C112.666 138.72 111.366 139.24 109.786 139.24C106.926 139.24 104.866 137.18 104.866 134.16ZM109.606 130.34C107.546 130.34 106.526 132.08 106.446 133.56H112.786C112.766 132.12 111.806 130.34 109.606 130.34ZM124.715 139H123.215V132.68C123.215 130.98 122.355 130.44 121.055 130.44C119.875 130.44 118.755 131.16 118.195 131.94V139H116.695V129.34H118.195V130.74C118.875 129.94 120.195 129.1 121.635 129.1C123.655 129.1 124.715 130.12 124.715 132.22V139ZM130.151 139.24C128.731 139.24 128.011 138.42 128.011 136.98V130.66H126.411V129.34H128.011V126.7H129.511V129.34H131.471V130.66H129.511V136.66C129.511 137.38 129.831 137.9 130.491 137.9C130.911 137.9 131.311 137.72 131.511 137.5L131.951 138.62C131.571 138.98 131.031 139.24 130.151 139.24ZM132.75 137.72L133.53 136.64C134.17 137.38 135.39 138.02 136.71 138.02C138.19 138.02 138.99 137.36 138.99 136.42C138.99 135.36 137.81 135.02 136.51 134.7C134.87 134.32 133.01 133.88 133.01 131.88C133.01 130.38 134.31 129.1 136.61 129.1C138.25 129.1 139.41 129.72 140.19 130.5L139.49 131.54C138.91 130.84 137.85 130.32 136.61 130.32C135.29 130.32 134.47 130.92 134.47 131.78C134.47 132.72 135.57 133.02 136.83 133.32C138.51 133.7 140.45 134.18 140.45 136.32C140.45 137.94 139.15 139.24 136.65 139.24C135.07 139.24 133.73 138.76 132.75 137.72Z" fill="white"/>
<g clip-path="url(#clip0_2691_6476)">
<path d="M39 185C41.2091 185 43 183.209 43 181C43 178.791 41.2091 177 39 177C36.7909 177 35 178.791 35 181C35 183.209 36.7909 185 39 185Z" fill="#66ABE0"/>
<path d="M52.5238 185C54.7329 185 56.5238 183.209 56.5238 181C56.5238 178.791 54.7329 177 52.5238 177C50.3147 177 48.5238 178.791 48.5238 181C48.5238 183.209 50.3147 185 52.5238 185Z" fill="#66ABE0"/>
<path d="M66.0476 185C68.2567 185 70.0476 183.209 70.0476 181C70.0476 178.791 68.2567 177 66.0476 177C63.8385 177 62.0476 178.791 62.0476 181C62.0476 183.209 63.8385 185 66.0476 185Z" fill="#66ABE0"/>
<path d="M79.5714 185C81.7806 185 83.5714 183.209 83.5714 181C83.5714 178.791 81.7806 177 79.5714 177C77.3623 177 75.5714 178.791 75.5714 181C75.5714 183.209 77.3623 185 79.5714 185Z" fill="#66ABE0"/>
<path d="M93.0952 185C95.3044 185 97.0952 183.209 97.0952 181C97.0952 178.791 95.3044 177 93.0952 177C90.8861 177 89.0952 178.791 89.0952 181C89.0952 183.209 90.8861 185 93.0952 185Z" fill="#66ABE0"/>
<path d="M106.619 185C108.828 185 110.619 183.209 110.619 181C110.619 178.791 108.828 177 106.619 177C104.41 177 102.619 178.791 102.619 181C102.619 183.209 104.41 185 106.619 185Z" fill="#66ABE0"/>
<path d="M120.143 185C122.352 185 124.143 183.209 124.143 181C124.143 178.791 122.352 177 120.143 177C117.934 177 116.143 178.791 116.143 181C116.143 183.209 117.934 185 120.143 185Z" fill="#66ABE0"/>
<path d="M133.667 185C135.876 185 137.667 183.209 137.667 181C137.667 178.791 135.876 177 133.667 177C131.458 177 129.667 178.791 129.667 181C129.667 183.209 131.458 185 133.667 185Z" fill="#66ABE0"/>
<path d="M147.19 185C149.4 185 151.19 183.209 151.19 181C151.19 178.791 149.4 177 147.19 177C144.981 177 143.19 178.791 143.19 181C143.19 183.209 144.981 185 147.19 185Z" fill="#66ABE0"/>
<path d="M160.714 185C162.923 185 164.714 183.209 164.714 181C164.714 178.791 162.923 177 160.714 177C158.505 177 156.714 178.791 156.714 181C156.714 183.209 158.505 185 160.714 185Z" fill="#66ABE0"/>
<path d="M174.238 185C176.447 185 178.238 183.209 178.238 181C178.238 178.791 176.447 177 174.238 177C172.029 177 170.238 178.791 170.238 181C170.238 183.209 172.029 185 174.238 185Z" fill="#66ABE0"/>
<path d="M187.762 185C189.971 185 191.762 183.209 191.762 181C191.762 178.791 189.971 177 187.762 177C185.553 177 183.762 178.791 183.762 181C183.762 183.209 185.553 185 187.762 185Z" fill="#66ABE0"/>
<path d="M201.286 185C203.495 185 205.286 183.209 205.286 181C205.286 178.791 203.495 177 201.286 177C199.077 177 197.286 178.791 197.286 181C197.286 183.209 199.077 185 201.286 185Z" fill="#66ABE0"/>
<path d="M214.81 185C217.019 185 218.81 183.209 218.81 181C218.81 178.791 217.019 177 214.81 177C212.6 177 210.81 178.791 210.81 181C210.81 183.209 212.6 185 214.81 185Z" fill="#66ABE0"/>
<path d="M228.333 185C230.542 185 232.333 183.209 232.333 181C232.333 178.791 230.542 177 228.333 177C226.124 177 224.333 178.791 224.333 181C224.333 183.209 226.124 185 228.333 185Z" fill="#66ABE0"/>
<path d="M241.857 185C244.066 185 245.857 183.209 245.857 181C245.857 178.791 244.066 177 241.857 177C239.648 177 237.857 178.791 237.857 181C237.857 183.209 239.648 185 241.857 185Z" fill="#66ABE0"/>
<path d="M255.381 185C257.59 185 259.381 183.209 259.381 181C259.381 178.791 257.59 177 255.381 177C253.172 177 251.381 178.791 251.381 181C251.381 183.209 253.172 185 255.381 185Z" fill="#66ABE0"/>
<path d="M268.905 185C271.114 185 272.905 183.209 272.905 181C272.905 178.791 271.114 177 268.905 177C266.696 177 264.905 178.791 264.905 181C264.905 183.209 266.696 185 268.905 185Z" fill="#66ABE0"/>
<path d="M282.429 185C284.638 185 286.429 183.209 286.429 181C286.429 178.791 284.638 177 282.429 177C280.219 177 278.429 178.791 278.429 181C278.429 183.209 280.219 185 282.429 185Z" fill="#B8B8B8" fill-opacity="0.6"/>
<path d="M295.952 185C298.161 185 299.952 183.209 299.952 181C299.952 178.791 298.161 177 295.952 177C293.743 177 291.952 178.791 291.952 181C291.952 183.209 293.743 185 295.952 185Z" fill="#B8B8B8" fill-opacity="0.6"/>
<path d="M309.476 185C311.685 185 313.476 183.209 313.476 181C313.476 178.791 311.685 177 309.476 177C307.267 177 305.476 178.791 305.476 181C305.476 183.209 307.267 185 309.476 185Z" fill="#B8B8B8" fill-opacity="0.6"/>
<path d="M323 185C325.209 185 327 183.209 327 181C327 178.791 325.209 177 323 177C320.791 177 319 178.791 319 181C319 183.209 320.791 185 323 185Z" fill="#B8B8B8" fill-opacity="0.6"/>
<path d="M39 199C41.2091 199 43 197.209 43 195C43 192.791 41.2091 191 39 191C36.7909 191 35 192.791 35 195C35 197.209 36.7909 199 39 199Z" fill="#66ABE0"/>
<path d="M52.5238 199C54.7329 199 56.5238 197.209 56.5238 195C56.5238 192.791 54.7329 191 52.5238 191C50.3147 191 48.5238 192.791 48.5238 195C48.5238 197.209 50.3147 199 52.5238 199Z" fill="#66ABE0"/>
<path d="M66.0476 199C68.2567 199 70.0476 197.209 70.0476 195C70.0476 192.791 68.2567 191 66.0476 191C63.8385 191 62.0476 192.791 62.0476 195C62.0476 197.209 63.8385 199 66.0476 199Z" fill="#66ABE0"/>
<path d="M79.5714 199C81.7806 199 83.5714 197.209 83.5714 195C83.5714 192.791 81.7806 191 79.5714 191C77.3623 191 75.5714 192.791 75.5714 195C75.5714 197.209 77.3623 199 79.5714 199Z" fill="#66ABE0"/>
<path d="M93.0952 199C95.3044 199 97.0952 197.209 97.0952 195C97.0952 192.791 95.3044 191 93.0952 191C90.8861 191 89.0952 192.791 89.0952 195C89.0952 197.209 90.8861 199 93.0952 199Z" fill="#66ABE0"/>
<path d="M106.619 199C108.828 199 110.619 197.209 110.619 195C110.619 192.791 108.828 191 106.619 191C104.41 191 102.619 192.791 102.619 195C102.619 197.209 104.41 199 106.619 199Z" fill="#66ABE0"/>
<path d="M120.143 199C122.352 199 124.143 197.209 124.143 195C124.143 192.791 122.352 191 120.143 191C117.934 191 116.143 192.791 116.143 195C116.143 197.209 117.934 199 120.143 199Z" fill="#66ABE0"/>
<path d="M133.667 199C135.876 199 137.667 197.209 137.667 195C137.667 192.791 135.876 191 133.667 191C131.458 191 129.667 192.791 129.667 195C129.667 197.209 131.458 199 133.667 199Z" fill="#66ABE0"/>
<path d="M147.19 199C149.4 199 151.19 197.209 151.19 195C151.19 192.791 149.4 191 147.19 191C144.981 191 143.19 192.791 143.19 195C143.19 197.209 144.981 199 147.19 199Z" fill="#66ABE0"/>
<path d="M160.714 199C162.923 199 164.714 197.209 164.714 195C164.714 192.791 162.923 191 160.714 191C158.505 191 156.714 192.791 156.714 195C156.714 197.209 158.505 199 160.714 199Z" fill="#66ABE0"/>
<path d="M174.238 199C176.447 199 178.238 197.209 178.238 195C178.238 192.791 176.447 191 174.238 191C172.029 191 170.238 192.791 170.238 195C170.238 197.209 172.029 199 174.238 199Z" fill="#66ABE0"/>
<path d="M187.762 199C189.971 199 191.762 197.209 191.762 195C191.762 192.791 189.971 191 187.762 191C185.553 191 183.762 192.791 183.762 195C183.762 197.209 185.553 199 187.762 199Z" fill="#66ABE0"/>
<path d="M201.286 199C203.495 199 205.286 197.209 205.286 195C205.286 192.791 203.495 191 201.286 191C199.077 191 197.286 192.791 197.286 195C197.286 197.209 199.077 199 201.286 199Z" fill="#66ABE0"/>
<path d="M214.81 199C217.019 199 218.81 197.209 218.81 195C218.81 192.791 217.019 191 214.81 191C212.6 191 210.81 192.791 210.81 195C210.81 197.209 212.6 199 214.81 199Z" fill="#66ABE0"/>
<path d="M228.333 199C230.542 199 232.333 197.209 232.333 195C232.333 192.791 230.542 191 228.333 191C226.124 191 224.333 192.791 224.333 195C224.333 197.209 226.124 199 228.333 199Z" fill="#66ABE0"/>
<path d="M241.857 199C244.066 199 245.857 197.209 245.857 195C245.857 192.791 244.066 191 241.857 191C239.648 191 237.857 192.791 237.857 195C237.857 197.209 239.648 199 241.857 199Z" fill="#66ABE0"/>
<path d="M255.381 199C257.59 199 259.381 197.209 259.381 195C259.381 192.791 257.59 191 255.381 191C253.172 191 251.381 192.791 251.381 195C251.381 197.209 253.172 199 255.381 199Z" fill="#66ABE0"/>
<path d="M268.905 199C271.114 199 272.905 197.209 272.905 195C272.905 192.791 271.114 191 268.905 191C266.696 191 264.905 192.791 264.905 195C264.905 197.209 266.696 199 268.905 199Z" fill="#66ABE0"/>
<path d="M282.429 199C284.638 199 286.429 197.209 286.429 195C286.429 192.791 284.638 191 282.429 191C280.219 191 278.429 192.791 278.429 195C278.429 197.209 280.219 199 282.429 199Z" fill="#B8B8B8" fill-opacity="0.6"/>
<path d="M295.952 199C298.161 199 299.952 197.209 299.952 195C299.952 192.791 298.161 191 295.952 191C293.743 191 291.952 192.791 291.952 195C291.952 197.209 293.743 199 295.952 199Z" fill="#B8B8B8" fill-opacity="0.6"/>
<path d="M309.476 199C311.685 199 313.476 197.209 313.476 195C313.476 192.791 311.685 191 309.476 191C307.267 191 305.476 192.791 305.476 195C305.476 197.209 307.267 199 309.476 199Z" fill="#B8B8B8" fill-opacity="0.6"/>
<path d="M323 199C325.209 199 327 197.209 327 195C327 192.791 325.209 191 323 191C320.791 191 319 192.791 319 195C319 197.209 320.791 199 323 199Z" fill="#B8B8B8" fill-opacity="0.6"/>
<path d="M39 213C41.2091 213 43 211.209 43 209C43 206.791 41.2091 205 39 205C36.7909 205 35 206.791 35 209C35 211.209 36.7909 213 39 213Z" fill="#66ABE0"/>
<path d="M52.5238 213C54.7329 213 56.5238 211.209 56.5238 209C56.5238 206.791 54.7329 205 52.5238 205C50.3147 205 48.5238 206.791 48.5238 209C48.5238 211.209 50.3147 213 52.5238 213Z" fill="#66ABE0"/>
<path d="M66.0476 213C68.2567 213 70.0476 211.209 70.0476 209C70.0476 206.791 68.2567 205 66.0476 205C63.8385 205 62.0476 206.791 62.0476 209C62.0476 211.209 63.8385 213 66.0476 213Z" fill="#66ABE0"/>
<path d="M79.5714 213C81.7806 213 83.5714 211.209 83.5714 209C83.5714 206.791 81.7806 205 79.5714 205C77.3623 205 75.5714 206.791 75.5714 209C75.5714 211.209 77.3623 213 79.5714 213Z" fill="#66ABE0"/>
<path d="M93.0952 213C95.3044 213 97.0952 211.209 97.0952 209C97.0952 206.791 95.3044 205 93.0952 205C90.8861 205 89.0952 206.791 89.0952 209C89.0952 211.209 90.8861 213 93.0952 213Z" fill="#66ABE0"/>
<path d="M106.619 213C108.828 213 110.619 211.209 110.619 209C110.619 206.791 108.828 205 106.619 205C104.41 205 102.619 206.791 102.619 209C102.619 211.209 104.41 213 106.619 213Z" fill="#66ABE0"/>
<path d="M120.143 213C122.352 213 124.143 211.209 124.143 209C124.143 206.791 122.352 205 120.143 205C117.934 205 116.143 206.791 116.143 209C116.143 211.209 117.934 213 120.143 213Z" fill="#66ABE0"/>
<path d="M133.667 213C135.876 213 137.667 211.209 137.667 209C137.667 206.791 135.876 205 133.667 205C131.458 205 129.667 206.791 129.667 209C129.667 211.209 131.458 213 133.667 213Z" fill="#66ABE0"/>
<path d="M147.19 213C149.4 213 151.19 211.209 151.19 209C151.19 206.791 149.4 205 147.19 205C144.981 205 143.19 206.791 143.19 209C143.19 211.209 144.981 213 147.19 213Z" fill="#66ABE0"/>
<path d="M160.714 213C162.923 213 164.714 211.209 164.714 209C164.714 206.791 162.923 205 160.714 205C158.505 205 156.714 206.791 156.714 209C156.714 211.209 158.505 213 160.714 213Z" fill="#66ABE0"/>
<path d="M174.238 213C176.447 213 178.238 211.209 178.238 209C178.238 206.791 176.447 205 174.238 205C172.029 205 170.238 206.791 170.238 209C170.238 211.209 172.029 213 174.238 213Z" fill="#66ABE0"/>
<path d="M187.762 213C189.971 213 191.762 211.209 191.762 209C191.762 206.791 189.971 205 187.762 205C185.553 205 183.762 206.791 183.762 209C183.762 211.209 185.553 213 187.762 213Z" fill="#66ABE0"/>
<path d="M201.286 213C203.495 213 205.286 211.209 205.286 209C205.286 206.791 203.495 205 201.286 205C199.077 205 197.286 206.791 197.286 209C197.286 211.209 199.077 213 201.286 213Z" fill="#66ABE0"/>
<path d="M214.81 213C217.019 213 218.81 211.209 218.81 209C218.81 206.791 217.019 205 214.81 205C212.6 205 210.81 206.791 210.81 209C210.81 211.209 212.6 213 214.81 213Z" fill="#66ABE0"/>
<path d="M228.333 213C230.542 213 232.333 211.209 232.333 209C232.333 206.791 230.542 205 228.333 205C226.124 205 224.333 206.791 224.333 209C224.333 211.209 226.124 213 228.333 213Z" fill="#66ABE0"/>
<path d="M241.857 213C244.066 213 245.857 211.209 245.857 209C245.857 206.791 244.066 205 241.857 205C239.648 205 237.857 206.791 237.857 209C237.857 211.209 239.648 213 241.857 213Z" fill="#66ABE0"/>
<path d="M255.381 213C257.59 213 259.381 211.209 259.381 209C259.381 206.791 257.59 205 255.381 205C253.172 205 251.381 206.791 251.381 209C251.381 211.209 253.172 213 255.381 213Z" fill="#66ABE0"/>
<path d="M268.905 213C271.114 213 272.905 211.209 272.905 209C272.905 206.791 271.114 205 268.905 205C266.696 205 264.905 206.791 264.905 209C264.905 211.209 266.696 213 268.905 213Z" fill="#66ABE0"/>
<path d="M282.429 213C284.638 213 286.429 211.209 286.429 209C286.429 206.791 284.638 205 282.429 205C280.219 205 278.429 206.791 278.429 209C278.429 211.209 280.219 213 282.429 213Z" fill="#B8B8B8" fill-opacity="0.6"/>
<path d="M295.952 213C298.161 213 299.952 211.209 299.952 209C299.952 206.791 298.161 205 295.952 205C293.743 205 291.952 206.791 291.952 209C291.952 211.209 293.743 213 295.952 213Z" fill="#B8B8B8" fill-opacity="0.6"/>
<path d="M309.476 213C311.685 213 313.476 211.209 313.476 209C313.476 206.791 311.685 205 309.476 205C307.267 205 305.476 206.791 305.476 209C305.476 211.209 307.267 213 309.476 213Z" fill="#B8B8B8" fill-opacity="0.6"/>
<path d="M323 213C325.209 213 327 211.209 327 209C327 206.791 325.209 205 323 205C320.791 205 319 206.791 319 209C319 211.209 320.791 213 323 213Z" fill="#B8B8B8" fill-opacity="0.6"/>
<path d="M39 227C41.2091 227 43 225.209 43 223C43 220.791 41.2091 219 39 219C36.7909 219 35 220.791 35 223C35 225.209 36.7909 227 39 227Z" fill="#66ABE0"/>
<path d="M52.5238 227C54.7329 227 56.5238 225.209 56.5238 223C56.5238 220.791 54.7329 219 52.5238 219C50.3147 219 48.5238 220.791 48.5238 223C48.5238 225.209 50.3147 227 52.5238 227Z" fill="#66ABE0"/>
<path d="M66.0476 227C68.2567 227 70.0476 225.209 70.0476 223C70.0476 220.791 68.2567 219 66.0476 219C63.8385 219 62.0476 220.791 62.0476 223C62.0476 225.209 63.8385 227 66.0476 227Z" fill="#66ABE0"/>
<path d="M79.5714 227C81.7806 227 83.5714 225.209 83.5714 223C83.5714 220.791 81.7806 219 79.5714 219C77.3623 219 75.5714 220.791 75.5714 223C75.5714 225.209 77.3623 227 79.5714 227Z" fill="#66ABE0"/>
<path d="M93.0952 227C95.3044 227 97.0952 225.209 97.0952 223C97.0952 220.791 95.3044 219 93.0952 219C90.8861 219 89.0952 220.791 89.0952 223C89.0952 225.209 90.8861 227 93.0952 227Z" fill="#66ABE0"/>
<path d="M106.619 227C108.828 227 110.619 225.209 110.619 223C110.619 220.791 108.828 219 106.619 219C104.41 219 102.619 220.791 102.619 223C102.619 225.209 104.41 227 106.619 227Z" fill="#66ABE0"/>
<path d="M120.143 227C122.352 227 124.143 225.209 124.143 223C124.143 220.791 122.352 219 120.143 219C117.934 219 116.143 220.791 116.143 223C116.143 225.209 117.934 227 120.143 227Z" fill="#66ABE0"/>
<path d="M133.667 227C135.876 227 137.667 225.209 137.667 223C137.667 220.791 135.876 219 133.667 219C131.458 219 129.667 220.791 129.667 223C129.667 225.209 131.458 227 133.667 227Z" fill="#66ABE0"/>
<path d="M147.19 227C149.4 227 151.19 225.209 151.19 223C151.19 220.791 149.4 219 147.19 219C144.981 219 143.19 220.791 143.19 223C143.19 225.209 144.981 227 147.19 227Z" fill="#66ABE0"/>
<path d="M160.714 227C162.923 227 164.714 225.209 164.714 223C164.714 220.791 162.923 219 160.714 219C158.505 219 156.714 220.791 156.714 223C156.714 225.209 158.505 227 160.714 227Z" fill="#66ABE0"/>
<path d="M174.238 227C176.447 227 178.238 225.209 178.238 223C178.238 220.791 176.447 219 174.238 219C172.029 219 170.238 220.791 170.238 223C170.238 225.209 172.029 227 174.238 227Z" fill="#66ABE0"/>
<path d="M187.762 227C189.971 227 191.762 225.209 191.762 223C191.762 220.791 189.971 219 187.762 219C185.553 219 183.762 220.791 183.762 223C183.762 225.209 185.553 227 187.762 227Z" fill="#66ABE0"/>
<path d="M201.286 227C203.495 227 205.286 225.209 205.286 223C205.286 220.791 203.495 219 201.286 219C199.077 219 197.286 220.791 197.286 223C197.286 225.209 199.077 227 201.286 227Z" fill="#66ABE0"/>
<path d="M214.81 227C217.019 227 218.81 225.209 218.81 223C218.81 220.791 217.019 219 214.81 219C212.6 219 210.81 220.791 210.81 223C210.81 225.209 212.6 227 214.81 227Z" fill="#66ABE0"/>
<path d="M228.333 227C230.542 227 232.333 225.209 232.333 223C232.333 220.791 230.542 219 228.333 219C226.124 219 224.333 220.791 224.333 223C224.333 225.209 226.124 227 228.333 227Z" fill="#66ABE0"/>
<path d="M241.857 227C244.066 227 245.857 225.209 245.857 223C245.857 220.791 244.066 219 241.857 219C239.648 219 237.857 220.791 237.857 223C237.857 225.209 239.648 227 241.857 227Z" fill="#66ABE0"/>
<path d="M255.381 227C257.59 227 259.381 225.209 259.381 223C259.381 220.791 257.59 219 255.381 219C253.172 219 251.381 220.791 251.381 223C251.381 225.209 253.172 227 255.381 227Z" fill="#66ABE0"/>
<path d="M268.905 227C271.114 227 272.905 225.209 272.905 223C272.905 220.791 271.114 219 268.905 219C266.696 219 264.905 220.791 264.905 223C264.905 225.209 266.696 227 268.905 227Z" fill="#66ABE0"/>
<path d="M282.429 227C284.638 227 286.429 225.209 286.429 223C286.429 220.791 284.638 219 282.429 219C280.219 219 278.429 220.791 278.429 223C278.429 225.209 280.219 227 282.429 227Z" fill="#B8B8B8" fill-opacity="0.6"/>
<path d="M295.952 227C298.161 227 299.952 225.209 299.952 223C299.952 220.791 298.161 219 295.952 219C293.743 219 291.952 220.791 291.952 223C291.952 225.209 293.743 227 295.952 227Z" fill="#B8B8B8" fill-opacity="0.6"/>
<path d="M309.476 227C311.685 227 313.476 225.209 313.476 223C313.476 220.791 311.685 219 309.476 219C307.267 219 305.476 220.791 305.476 223C305.476 225.209 307.267 227 309.476 227Z" fill="#B8B8B8" fill-opacity="0.6"/>
<path d="M323 227C325.209 227 327 225.209 327 223C327 220.791 325.209 219 323 219C320.791 219 319 220.791 319 223C319 225.209 320.791 227 323 227Z" fill="#B8B8B8" fill-opacity="0.6"/>
<path d="M39 241C41.2091 241 43 239.209 43 237C43 234.791 41.2091 233 39 233C36.7909 233 35 234.791 35 237C35 239.209 36.7909 241 39 241Z" fill="#66ABE0"/>
<path d="M52.5238 241C54.7329 241 56.5238 239.209 56.5238 237C56.5238 234.791 54.7329 233 52.5238 233C50.3147 233 48.5238 234.791 48.5238 237C48.5238 239.209 50.3147 241 52.5238 241Z" fill="#66ABE0"/>
<path d="M66.0476 241C68.2567 241 70.0476 239.209 70.0476 237C70.0476 234.791 68.2567 233 66.0476 233C63.8385 233 62.0476 234.791 62.0476 237C62.0476 239.209 63.8385 241 66.0476 241Z" fill="#66ABE0"/>
<path d="M79.5714 241C81.7806 241 83.5714 239.209 83.5714 237C83.5714 234.791 81.7806 233 79.5714 233C77.3623 233 75.5714 234.791 75.5714 237C75.5714 239.209 77.3623 241 79.5714 241Z" fill="#66ABE0"/>
<path d="M93.0952 241C95.3044 241 97.0952 239.209 97.0952 237C97.0952 234.791 95.3044 233 93.0952 233C90.8861 233 89.0952 234.791 89.0952 237C89.0952 239.209 90.8861 241 93.0952 241Z" fill="#66ABE0"/>
<path d="M106.619 241C108.828 241 110.619 239.209 110.619 237C110.619 234.791 108.828 233 106.619 233C104.41 233 102.619 234.791 102.619 237C102.619 239.209 104.41 241 106.619 241Z" fill="#66ABE0"/>
<path d="M120.143 241C122.352 241 124.143 239.209 124.143 237C124.143 234.791 122.352 233 120.143 233C117.934 233 116.143 234.791 116.143 237C116.143 239.209 117.934 241 120.143 241Z" fill="#66ABE0"/>
<path d="M133.667 241C135.876 241 137.667 239.209 137.667 237C137.667 234.791 135.876 233 133.667 233C131.458 233 129.667 234.791 129.667 237C129.667 239.209 131.458 241 133.667 241Z" fill="#66ABE0"/>
<path d="M147.19 241C149.4 241 151.19 239.209 151.19 237C151.19 234.791 149.4 233 147.19 233C144.981 233 143.19 234.791 143.19 237C143.19 239.209 144.981 241 147.19 241Z" fill="#66ABE0"/>
<path d="M160.714 241C162.923 241 164.714 239.209 164.714 237C164.714 234.791 162.923 233 160.714 233C158.505 233 156.714 234.791 156.714 237C156.714 239.209 158.505 241 160.714 241Z" fill="#66ABE0"/>
<path d="M174.238 241C176.447 241 178.238 239.209 178.238 237C178.238 234.791 176.447 233 174.238 233C172.029 233 170.238 234.791 170.238 237C170.238 239.209 172.029 241 174.238 241Z" fill="#66ABE0"/>
<path d="M187.762 241C189.971 241 191.762 239.209 191.762 237C191.762 234.791 189.971 233 187.762 233C185.553 233 183.762 234.791 183.762 237C183.762 239.209 185.553 241 187.762 241Z" fill="#66ABE0"/>
<path d="M201.286 241C203.495 241 205.286 239.209 205.286 237C205.286 234.791 203.495 233 201.286 233C199.077 233 197.286 234.791 197.286 237C197.286 239.209 199.077 241 201.286 241Z" fill="#66ABE0"/>
<path d="M214.81 241C217.019 241 218.81 239.209 218.81 237C218.81 234.791 217.019 233 214.81 233C212.6 233 210.81 234.791 210.81 237C210.81 239.209 212.6 241 214.81 241Z" fill="#66ABE0"/>
<path d="M228.333 241C230.542 241 232.333 239.209 232.333 237C232.333 234.791 230.542 233 228.333 233C226.124 233 224.333 234.791 224.333 237C224.333 239.209 226.124 241 228.333 241Z" fill="#66ABE0"/>
<path d="M241.857 241C244.066 241 245.857 239.209 245.857 237C245.857 234.791 244.066 233 241.857 233C239.648 233 237.857 234.791 237.857 237C237.857 239.209 239.648 241 241.857 241Z" fill="#66ABE0"/>
<path d="M255.381 241C257.59 241 259.381 239.209 259.381 237C259.381 234.791 257.59 233 255.381 233C253.172 233 251.381 234.791 251.381 237C251.381 239.209 253.172 241 255.381 241Z" fill="#66ABE0"/>
<path d="M268.905 241C271.114 241 272.905 239.209 272.905 237C272.905 234.791 271.114 233 268.905 233C266.696 233 264.905 234.791 264.905 237C264.905 239.209 266.696 241 268.905 241Z" fill="#66ABE0"/>
<path d="M282.429 241C284.638 241 286.429 239.209 286.429 237C286.429 234.791 284.638 233 282.429 233C280.219 233 278.429 234.791 278.429 237C278.429 239.209 280.219 241 282.429 241Z" fill="#B8B8B8" fill-opacity="0.6"/>
<path d="M295.952 241C298.161 241 299.952 239.209 299.952 237C299.952 234.791 298.161 233 295.952 233C293.743 233 291.952 234.791 291.952 237C291.952 239.209 293.743 241 295.952 241Z" fill="#B8B8B8" fill-opacity="0.6"/>
<path d="M309.476 241C311.685 241 313.476 239.209 313.476 237C313.476 234.791 311.685 233 309.476 233C307.267 233 305.476 234.791 305.476 237C305.476 239.209 307.267 241 309.476 241Z" fill="#B8B8B8" fill-opacity="0.6"/>
<path d="M323 241C325.209 241 327 239.209 327 237C327 234.791 325.209 233 323 233C320.791 233 319 234.791 319 237C319 239.209 320.791 241 323 241Z" fill="#B8B8B8" fill-opacity="0.6"/>
<path d="M39 255C41.2091 255 43 253.209 43 251C43 248.791 41.2091 247 39 247C36.7909 247 35 248.791 35 251C35 253.209 36.7909 255 39 255Z" fill="#66ABE0"/>
<path d="M52.5238 255C54.7329 255 56.5238 253.209 56.5238 251C56.5238 248.791 54.7329 247 52.5238 247C50.3147 247 48.5238 248.791 48.5238 251C48.5238 253.209 50.3147 255 52.5238 255Z" fill="#66ABE0"/>
<path d="M66.0476 255C68.2567 255 70.0476 253.209 70.0476 251C70.0476 248.791 68.2567 247 66.0476 247C63.8385 247 62.0476 248.791 62.0476 251C62.0476 253.209 63.8385 255 66.0476 255Z" fill="#66ABE0"/>
<path d="M79.5714 255C81.7806 255 83.5714 253.209 83.5714 251C83.5714 248.791 81.7806 247 79.5714 247C77.3623 247 75.5714 248.791 75.5714 251C75.5714 253.209 77.3623 255 79.5714 255Z" fill="#66ABE0"/>
<path d="M93.0952 255C95.3044 255 97.0952 253.209 97.0952 251C97.0952 248.791 95.3044 247 93.0952 247C90.8861 247 89.0952 248.791 89.0952 251C89.0952 253.209 90.8861 255 93.0952 255Z" fill="#66ABE0"/>
<path d="M106.619 255C108.828 255 110.619 253.209 110.619 251C110.619 248.791 108.828 247 106.619 247C104.41 247 102.619 248.791 102.619 251C102.619 253.209 104.41 255 106.619 255Z" fill="#66ABE0"/>
<path d="M120.143 255C122.352 255 124.143 253.209 124.143 251C124.143 248.791 122.352 247 120.143 247C117.934 247 116.143 248.791 116.143 251C116.143 253.209 117.934 255 120.143 255Z" fill="#66ABE0"/>
<path d="M133.667 255C135.876 255 137.667 253.209 137.667 251C137.667 248.791 135.876 247 133.667 247C131.458 247 129.667 248.791 129.667 251C129.667 253.209 131.458 255 133.667 255Z" fill="#66ABE0"/>
<path d="M147.19 255C149.4 255 151.19 253.209 151.19 251C151.19 248.791 149.4 247 147.19 247C144.981 247 143.19 248.791 143.19 251C143.19 253.209 144.981 255 147.19 255Z" fill="#66ABE0"/>
<path d="M160.714 255C162.923 255 164.714 253.209 164.714 251C164.714 248.791 162.923 247 160.714 247C158.505 247 156.714 248.791 156.714 251C156.714 253.209 158.505 255 160.714 255Z" fill="#66ABE0"/>
<path d="M174.238 255C176.447 255 178.238 253.209 178.238 251C178.238 248.791 176.447 247 174.238 247C172.029 247 170.238 248.791 170.238 251C170.238 253.209 172.029 255 174.238 255Z" fill="#66ABE0"/>
<path d="M187.762 255C189.971 255 191.762 253.209 191.762 251C191.762 248.791 189.971 247 187.762 247C185.553 247 183.762 248.791 183.762 251C183.762 253.209 185.553 255 187.762 255Z" fill="#66ABE0"/>
<path d="M201.286 255C203.495 255 205.286 253.209 205.286 251C205.286 248.791 203.495 247 201.286 247C199.077 247 197.286 248.791 197.286 251C197.286 253.209 199.077 255 201.286 255Z" fill="#66ABE0"/>
<path d="M214.81 255C217.019 255 218.81 253.209 218.81 251C218.81 248.791 217.019 247 214.81 247C212.6 247 210.81 248.791 210.81 251C210.81 253.209 212.6 255 214.81 255Z" fill="#66ABE0"/>
<path d="M228.333 255C230.542 255 232.333 253.209 232.333 251C232.333 248.791 230.542 247 228.333 247C226.124 247 224.333 248.791 224.333 251C224.333 253.209 226.124 255 228.333 255Z" fill="#66ABE0"/>
<path d="M241.857 255C244.066 255 245.857 253.209 245.857 251C245.857 248.791 244.066 247 241.857 247C239.648 247 237.857 248.791 237.857 251C237.857 253.209 239.648 255 241.857 255Z" fill="#66ABE0"/>
<path d="M255.381 255C257.59 255 259.381 253.209 259.381 251C259.381 248.791 257.59 247 255.381 247C253.172 247 251.381 248.791 251.381 251C251.381 253.209 253.172 255 255.381 255Z" fill="#66ABE0"/>
<path d="M268.905 255C271.114 255 272.905 253.209 272.905 251C272.905 248.791 271.114 247 268.905 247C266.696 247 264.905 248.791 264.905 251C264.905 253.209 266.696 255 268.905 255Z" fill="#66ABE0"/>
<path d="M282.429 255C284.638 255 286.429 253.209 286.429 251C286.429 248.791 284.638 247 282.429 247C280.219 247 278.429 248.791 278.429 251C278.429 253.209 280.219 255 282.429 255Z" fill="#B8B8B8" fill-opacity="0.6"/>
<path d="M295.952 255C298.161 255 299.952 253.209 299.952 251C299.952 248.791 298.161 247 295.952 247C293.743 247 291.952 248.791 291.952 251C291.952 253.209 293.743 255 295.952 255Z" fill="#B8B8B8" fill-opacity="0.6"/>
<path d="M309.476 255C311.685 255 313.476 253.209 313.476 251C313.476 248.791 311.685 247 309.476 247C307.267 247 305.476 248.791 305.476 251C305.476 253.209 307.267 255 309.476 255Z" fill="#B8B8B8" fill-opacity="0.6"/>
<path d="M323 255C325.209 255 327 253.209 327 251C327 248.791 325.209 247 323 247C320.791 247 319 248.791 319 251C319 253.209 320.791 255 323 255Z" fill="#B8B8B8" fill-opacity="0.6"/>
<path d="M39 269C41.2091 269 43 267.209 43 265C43 262.791 41.2091 261 39 261C36.7909 261 35 262.791 35 265C35 267.209 36.7909 269 39 269Z" fill="#66ABE0"/>
<path d="M52.5238 269C54.7329 269 56.5238 267.209 56.5238 265C56.5238 262.791 54.7329 261 52.5238 261C50.3147 261 48.5238 262.791 48.5238 265C48.5238 267.209 50.3147 269 52.5238 269Z" fill="#66ABE0"/>
<path d="M66.0476 269C68.2567 269 70.0476 267.209 70.0476 265C70.0476 262.791 68.2567 261 66.0476 261C63.8385 261 62.0476 262.791 62.0476 265C62.0476 267.209 63.8385 269 66.0476 269Z" fill="#66ABE0"/>
<path d="M79.5714 269C81.7806 269 83.5714 267.209 83.5714 265C83.5714 262.791 81.7806 261 79.5714 261C77.3623 261 75.5714 262.791 75.5714 265C75.5714 267.209 77.3623 269 79.5714 269Z" fill="#66ABE0"/>
<path d="M93.0952 269C95.3044 269 97.0952 267.209 97.0952 265C97.0952 262.791 95.3044 261 93.0952 261C90.8861 261 89.0952 262.791 89.0952 265C89.0952 267.209 90.8861 269 93.0952 269Z" fill="#66ABE0"/>
<path d="M106.619 269C108.828 269 110.619 267.209 110.619 265C110.619 262.791 108.828 261 106.619 261C104.41 261 102.619 262.791 102.619 265C102.619 267.209 104.41 269 106.619 269Z" fill="#66ABE0"/>
<path d="M120.143 269C122.352 269 124.143 267.209 124.143 265C124.143 262.791 122.352 261 120.143 261C117.934 261 116.143 262.791 116.143 265C116.143 267.209 117.934 269 120.143 269Z" fill="#66ABE0"/>
<path d="M133.667 269C135.876 269 137.667 267.209 137.667 265C137.667 262.791 135.876 261 133.667 261C131.458 261 129.667 262.791 129.667 265C129.667 267.209 131.458 269 133.667 269Z" fill="#66ABE0"/>
<path d="M147.19 269C149.4 269 151.19 267.209 151.19 265C151.19 262.791 149.4 261 147.19 261C144.981 261 143.19 262.791 143.19 265C143.19 267.209 144.981 269 147.19 269Z" fill="#66ABE0"/>
<path d="M160.714 269C162.923 269 164.714 267.209 164.714 265C164.714 262.791 162.923 261 160.714 261C158.505 261 156.714 262.791 156.714 265C156.714 267.209 158.505 269 160.714 269Z" fill="#66ABE0"/>
<path d="M174.238 269C176.447 269 178.238 267.209 178.238 265C178.238 262.791 176.447 261 174.238 261C172.029 261 170.238 262.791 170.238 265C170.238 267.209 172.029 269 174.238 269Z" fill="#66ABE0"/>
<path d="M187.762 269C189.971 269 191.762 267.209 191.762 265C191.762 262.791 189.971 261 187.762 261C185.553 261 183.762 262.791 183.762 265C183.762 267.209 185.553 269 187.762 269Z" fill="#66ABE0"/>
<path d="M201.286 269C203.495 269 205.286 267.209 205.286 265C205.286 262.791 203.495 261 201.286 261C199.077 261 197.286 262.791 197.286 265C197.286 267.209 199.077 269 201.286 269Z" fill="#66ABE0"/>
<path d="M214.81 269C217.019 269 218.81 267.209 218.81 265C218.81 262.791 217.019 261 214.81 261C212.6 261 210.81 262.791 210.81 265C210.81 267.209 212.6 269 214.81 269Z" fill="#66ABE0"/>
<path d="M228.333 269C230.542 269 232.333 267.209 232.333 265C232.333 262.791 230.542 261 228.333 261C226.124 261 224.333 262.791 224.333 265C224.333 267.209 226.124 269 228.333 269Z" fill="#66ABE0"/>
<path d="M241.857 269C244.066 269 245.857 267.209 245.857 265C245.857 262.791 244.066 261 241.857 261C239.648 261 237.857 262.791 237.857 265C237.857 267.209 239.648 269 241.857 269Z" fill="#66ABE0"/>
<path d="M255.381 269C257.59 269 259.381 267.209 259.381 265C259.381 262.791 257.59 261 255.381 261C253.172 261 251.381 262.791 251.381 265C251.381 267.209 253.172 269 255.381 269Z" fill="#66ABE0"/>
<path d="M268.905 269C271.114 269 272.905 267.209 272.905 265C272.905 262.791 271.114 261 268.905 261C266.696 261 264.905 262.791 264.905 265C264.905 267.209 266.696 269 268.905 269Z" fill="#66ABE0"/>
<path d="M282.429 269C284.638 269 286.429 267.209 286.429 265C286.429 262.791 284.638 261 282.429 261C280.219 261 278.429 262.791 278.429 265C278.429 267.209 280.219 269 282.429 269Z" fill="#B8B8B8" fill-opacity="0.6"/>
<path d="M295.952 269C298.161 269 299.952 267.209 299.952 265C299.952 262.791 298.161 261 295.952 261C293.743 261 291.952 262.791 291.952 265C291.952 267.209 293.743 269 295.952 269Z" fill="#B8B8B8" fill-opacity="0.6"/>
<path d="M309.476 269C311.685 269 313.476 267.209 313.476 265C313.476 262.791 311.685 261 309.476 261C307.267 261 305.476 262.791 305.476 265C305.476 267.209 307.267 269 309.476 269Z" fill="#B8B8B8" fill-opacity="0.6"/>
<path d="M323 269C325.209 269 327 267.209 327 265C327 262.791 325.209 261 323 261C320.791 261 319 262.791 319 265C319 267.209 320.791 269 323 269Z" fill="#B8B8B8" fill-opacity="0.6"/>
<path d="M39 283C41.2091 283 43 281.209 43 279C43 276.791 41.2091 275 39 275C36.7909 275 35 276.791 35 279C35 281.209 36.7909 283 39 283Z" fill="#66ABE0"/>
<path d="M52.5238 283C54.7329 283 56.5238 281.209 56.5238 279C56.5238 276.791 54.7329 275 52.5238 275C50.3147 275 48.5238 276.791 48.5238 279C48.5238 281.209 50.3147 283 52.5238 283Z" fill="#66ABE0"/>
<path d="M66.0476 283C68.2567 283 70.0476 281.209 70.0476 279C70.0476 276.791 68.2567 275 66.0476 275C63.8385 275 62.0476 276.791 62.0476 279C62.0476 281.209 63.8385 283 66.0476 283Z" fill="#66ABE0"/>
<path d="M79.5714 283C81.7806 283 83.5714 281.209 83.5714 279C83.5714 276.791 81.7806 275 79.5714 275C77.3623 275 75.5714 276.791 75.5714 279C75.5714 281.209 77.3623 283 79.5714 283Z" fill="#66ABE0"/>
<path d="M93.0952 283C95.3044 283 97.0952 281.209 97.0952 279C97.0952 276.791 95.3044 275 93.0952 275C90.8861 275 89.0952 276.791 89.0952 279C89.0952 281.209 90.8861 283 93.0952 283Z" fill="#66ABE0"/>
<path d="M106.619 283C108.828 283 110.619 281.209 110.619 279C110.619 276.791 108.828 275 106.619 275C104.41 275 102.619 276.791 102.619 279C102.619 281.209 104.41 283 106.619 283Z" fill="#66ABE0"/>
<path d="M120.143 283C122.352 283 124.143 281.209 124.143 279C124.143 276.791 122.352 275 120.143 275C117.934 275 116.143 276.791 116.143 279C116.143 281.209 117.934 283 120.143 283Z" fill="#66ABE0"/>
<path d="M133.667 283C135.876 283 137.667 281.209 137.667 279C137.667 276.791 135.876 275 133.667 275C131.458 275 129.667 276.791 129.667 279C129.667 281.209 131.458 283 133.667 283Z" fill="#66ABE0"/>
<path d="M147.19 283C149.4 283 151.19 281.209 151.19 279C151.19 276.791 149.4 275 147.19 275C144.981 275 143.19 276.791 143.19 279C143.19 281.209 144.981 283 147.19 283Z" fill="#66ABE0"/>
<path d="M160.714 283C162.923 283 164.714 281.209 164.714 279C164.714 276.791 162.923 275 160.714 275C158.505 275 156.714 276.791 156.714 279C156.714 281.209 158.505 283 160.714 283Z" fill="#66ABE0"/>
<path d="M174.238 283C176.447 283 178.238 281.209 178.238 279C178.238 276.791 176.447 275 174.238 275C172.029 275 170.238 276.791 170.238 279C170.238 281.209 172.029 283 174.238 283Z" fill="#66ABE0"/>
<path d="M187.762 283C189.971 283 191.762 281.209 191.762 279C191.762 276.791 189.971 275 187.762 275C185.553 275 183.762 276.791 183.762 279C183.762 281.209 185.553 283 187.762 283Z" fill="#66ABE0"/>
<path d="M201.286 283C203.495 283 205.286 281.209 205.286 279C205.286 276.791 203.495 275 201.286 275C199.077 275 197.286 276.791 197.286 279C197.286 281.209 199.077 283 201.286 283Z" fill="#66ABE0"/>
<path d="M214.81 283C217.019 283 218.81 281.209 218.81 279C218.81 276.791 217.019 275 214.81 275C212.6 275 210.81 276.791 210.81 279C210.81 281.209 212.6 283 214.81 283Z" fill="#66ABE0"/>
<path d="M228.333 283C230.542 283 232.333 281.209 232.333 279C232.333 276.791 230.542 275 228.333 275C226.124 275 224.333 276.791 224.333 279C224.333 281.209 226.124 283 228.333 283Z" fill="#66ABE0"/>
<path d="M241.857 283C244.066 283 245.857 281.209 245.857 279C245.857 276.791 244.066 275 241.857 275C239.648 275 237.857 276.791 237.857 279C237.857 281.209 239.648 283 241.857 283Z" fill="#66ABE0"/>
<path d="M255.381 283C257.59 283 259.381 281.209 259.381 279C259.381 276.791 257.59 275 255.381 275C253.172 275 251.381 276.791 251.381 279C251.381 281.209 253.172 283 255.381 283Z" fill="#66ABE0"/>
<path d="M268.905 283C271.114 283 272.905 281.209 272.905 279C272.905 276.791 271.114 275 268.905 275C266.696 275 264.905 276.791 264.905 279C264.905 281.209 266.696 283 268.905 283Z" fill="#66ABE0"/>
<path d="M282.429 283C284.638 283 286.429 281.209 286.429 279C286.429 276.791 284.638 275 282.429 275C280.219 275 278.429 276.791 278.429 279C278.429 281.209 280.219 283 282.429 283Z" fill="#B8B8B8" fill-opacity="0.6"/>
<path d="M295.952 283C298.161 283 299.952 281.209 299.952 279C299.952 276.791 298.161 275 295.952 275C293.743 275 291.952 276.791 291.952 279C291.952 281.209 293.743 283 295.952 283Z" fill="#B8B8B8" fill-opacity="0.6"/>
<path d="M309.476 283C311.685 283 313.476 281.209 313.476 279C313.476 276.791 311.685 275 309.476 275C307.267 275 305.476 276.791 305.476 279C305.476 281.209 307.267 283 309.476 283Z" fill="#B8B8B8" fill-opacity="0.6"/>
<path d="M323 283C325.209 283 327 281.209 327 279C327 276.791 325.209 275 323 275C320.791 275 319 276.791 319 279C319 281.209 320.791 283 323 283Z" fill="#B8B8B8" fill-opacity="0.6"/>
<path d="M39 297C41.2091 297 43 295.209 43 293C43 290.791 41.2091 289 39 289C36.7909 289 35 290.791 35 293C35 295.209 36.7909 297 39 297Z" fill="#66ABE0"/>
<path d="M52.5238 297C54.7329 297 56.5238 295.209 56.5238 293C56.5238 290.791 54.7329 289 52.5238 289C50.3147 289 48.5238 290.791 48.5238 293C48.5238 295.209 50.3147 297 52.5238 297Z" fill="#66ABE0"/>
<path d="M66.0476 297C68.2567 297 70.0476 295.209 70.0476 293C70.0476 290.791 68.2567 289 66.0476 289C63.8385 289 62.0476 290.791 62.0476 293C62.0476 295.209 63.8385 297 66.0476 297Z" fill="#66ABE0"/>
<path d="M79.5714 297C81.7806 297 83.5714 295.209 83.5714 293C83.5714 290.791 81.7806 289 79.5714 289C77.3623 289 75.5714 290.791 75.5714 293C75.5714 295.209 77.3623 297 79.5714 297Z" fill="#66ABE0"/>
<path d="M93.0952 297C95.3044 297 97.0952 295.209 97.0952 293C97.0952 290.791 95.3044 289 93.0952 289C90.8861 289 89.0952 290.791 89.0952 293C89.0952 295.209 90.8861 297 93.0952 297Z" fill="#66ABE0"/>
<path d="M106.619 297C108.828 297 110.619 295.209 110.619 293C110.619 290.791 108.828 289 106.619 289C104.41 289 102.619 290.791 102.619 293C102.619 295.209 104.41 297 106.619 297Z" fill="#66ABE0"/>
<path d="M120.143 297C122.352 297 124.143 295.209 124.143 293C124.143 290.791 122.352 289 120.143 289C117.934 289 116.143 290.791 116.143 293C116.143 295.209 117.934 297 120.143 297Z" fill="#66ABE0"/>
<path d="M133.667 297C135.876 297 137.667 295.209 137.667 293C137.667 290.791 135.876 289 133.667 289C131.458 289 129.667 290.791 129.667 293C129.667 295.209 131.458 297 133.667 297Z" fill="#66ABE0"/>
<path d="M147.19 297C149.4 297 151.19 295.209 151.19 293C151.19 290.791 149.4 289 147.19 289C144.981 289 143.19 290.791 143.19 293C143.19 295.209 144.981 297 147.19 297Z" fill="#66ABE0"/>
<path d="M160.714 297C162.923 297 164.714 295.209 164.714 293C164.714 290.791 162.923 289 160.714 289C158.505 289 156.714 290.791 156.714 293C156.714 295.209 158.505 297 160.714 297Z" fill="#66ABE0"/>
<path d="M174.238 297C176.447 297 178.238 295.209 178.238 293C178.238 290.791 176.447 289 174.238 289C172.029 289 170.238 290.791 170.238 293C170.238 295.209 172.029 297 174.238 297Z" fill="#66ABE0"/>
<path d="M187.762 297C189.971 297 191.762 295.209 191.762 293C191.762 290.791 189.971 289 187.762 289C185.553 289 183.762 290.791 183.762 293C183.762 295.209 185.553 297 187.762 297Z" fill="#66ABE0"/>
<path d="M201.286 297C203.495 297 205.286 295.209 205.286 293C205.286 290.791 203.495 289 201.286 289C199.077 289 197.286 290.791 197.286 293C197.286 295.209 199.077 297 201.286 297Z" fill="#66ABE0"/>
<path d="M214.81 297C217.019 297 218.81 295.209 218.81 293C218.81 290.791 217.019 289 214.81 289C212.6 289 210.81 290.791 210.81 293C210.81 295.209 212.6 297 214.81 297Z" fill="#66ABE0"/>
<path d="M228.333 297C230.542 297 232.333 295.209 232.333 293C232.333 290.791 230.542 289 228.333 289C226.124 289 224.333 290.791 224.333 293C224.333 295.209 226.124 297 228.333 297Z" fill="#66ABE0"/>
<path d="M241.857 297C244.066 297 245.857 295.209 245.857 293C245.857 290.791 244.066 289 241.857 289C239.648 289 237.857 290.791 237.857 293C237.857 295.209 239.648 297 241.857 297Z" fill="#66ABE0"/>
<path d="M255.381 297C257.59 297 259.381 295.209 259.381 293C259.381 290.791 257.59 289 255.381 289C253.172 289 251.381 290.791 251.381 293C251.381 295.209 253.172 297 255.381 297Z" fill="#66ABE0"/>
<path d="M268.905 297C271.114 297 272.905 295.209 272.905 293C272.905 290.791 271.114 289 268.905 289C266.696 289 264.905 290.791 264.905 293C264.905 295.209 266.696 297 268.905 297Z" fill="#66ABE0"/>
<path d="M282.429 297C284.638 297 286.429 295.209 286.429 293C286.429 290.791 284.638 289 282.429 289C280.219 289 278.429 290.791 278.429 293C278.429 295.209 280.219 297 282.429 297Z" fill="#66ABE0"/>
<path d="M295.952 297C298.161 297 299.952 295.209 299.952 293C299.952 290.791 298.161 289 295.952 289C293.743 289 291.952 290.791 291.952 293C291.952 295.209 293.743 297 295.952 297Z" fill="#B8B8B8" fill-opacity="0.6"/>
<path d="M309.476 297C311.685 297 313.476 295.209 313.476 293C313.476 290.791 311.685 289 309.476 289C307.267 289 305.476 290.791 305.476 293C305.476 295.209 307.267 297 309.476 297Z" fill="#B8B8B8" fill-opacity="0.6"/>
<path d="M323 297C325.209 297 327 295.209 327 293C327 290.791 325.209 289 323 289C320.791 289 319 290.791 319 293C319 295.209 320.791 297 323 297Z" fill="#B8B8B8" fill-opacity="0.6"/>
<path d="M39 311C41.2091 311 43 309.209 43 307C43 304.791 41.2091 303 39 303C36.7909 303 35 304.791 35 307C35 309.209 36.7909 311 39 311Z" fill="#66ABE0"/>
<path d="M52.5238 311C54.7329 311 56.5238 309.209 56.5238 307C56.5238 304.791 54.7329 303 52.5238 303C50.3147 303 48.5238 304.791 48.5238 307C48.5238 309.209 50.3147 311 52.5238 311Z" fill="#66ABE0"/>
<path d="M66.0476 311C68.2567 311 70.0476 309.209 70.0476 307C70.0476 304.791 68.2567 303 66.0476 303C63.8385 303 62.0476 304.791 62.0476 307C62.0476 309.209 63.8385 311 66.0476 311Z" fill="#66ABE0"/>
<path d="M79.5714 311C81.7806 311 83.5714 309.209 83.5714 307C83.5714 304.791 81.7806 303 79.5714 303C77.3623 303 75.5714 304.791 75.5714 307C75.5714 309.209 77.3623 311 79.5714 311Z" fill="#66ABE0"/>
<path d="M93.0952 311C95.3044 311 97.0952 309.209 97.0952 307C97.0952 304.791 95.3044 303 93.0952 303C90.8861 303 89.0952 304.791 89.0952 307C89.0952 309.209 90.8861 311 93.0952 311Z" fill="#66ABE0"/>
<path d="M106.619 311C108.828 311 110.619 309.209 110.619 307C110.619 304.791 108.828 303 106.619 303C104.41 303 102.619 304.791 102.619 307C102.619 309.209 104.41 311 106.619 311Z" fill="#66ABE0"/>
<path d="M120.143 311C122.352 311 124.143 309.209 124.143 307C124.143 304.791 122.352 303 120.143 303C117.934 303 116.143 304.791 116.143 307C116.143 309.209 117.934 311 120.143 311Z" fill="#66ABE0"/>
<path d="M133.667 311C135.876 311 137.667 309.209 137.667 307C137.667 304.791 135.876 303 133.667 303C131.458 303 129.667 304.791 129.667 307C129.667 309.209 131.458 311 133.667 311Z" fill="#66ABE0"/>
<path d="M147.19 311C149.4 311 151.19 309.209 151.19 307C151.19 304.791 149.4 303 147.19 303C144.981 303 143.19 304.791 143.19 307C143.19 309.209 144.981 311 147.19 311Z" fill="#66ABE0"/>
<path d="M160.714 311C162.923 311 164.714 309.209 164.714 307C164.714 304.791 162.923 303 160.714 303C158.505 303 156.714 304.791 156.714 307C156.714 309.209 158.505 311 160.714 311Z" fill="#66ABE0"/>
<path d="M174.238 311C176.447 311 178.238 309.209 178.238 307C178.238 304.791 176.447 303 174.238 303C172.029 303 170.238 304.791 170.238 307C170.238 309.209 172.029 311 174.238 311Z" fill="#66ABE0"/>
<path d="M187.762 311C189.971 311 191.762 309.209 191.762 307C191.762 304.791 189.971 303 187.762 303C185.553 303 183.762 304.791 183.762 307C183.762 309.209 185.553 311 187.762 311Z" fill="#66ABE0"/>
<path d="M201.286 311C203.495 311 205.286 309.209 205.286 307C205.286 304.791 203.495 303 201.286 303C199.077 303 197.286 304.791 197.286 307C197.286 309.209 199.077 311 201.286 311Z" fill="#66ABE0"/>
<path d="M214.81 311C217.019 311 218.81 309.209 218.81 307C218.81 304.791 217.019 303 214.81 303C212.6 303 210.81 304.791 210.81 307C210.81 309.209 212.6 311 214.81 311Z" fill="#66ABE0"/>
<path d="M228.333 311C230.542 311 232.333 309.209 232.333 307C232.333 304.791 230.542 303 228.333 303C226.124 303 224.333 304.791 224.333 307C224.333 309.209 226.124 311 228.333 311Z" fill="#66ABE0"/>
<path d="M241.857 311C244.066 311 245.857 309.209 245.857 307C245.857 304.791 244.066 303 241.857 303C239.648 303 237.857 304.791 237.857 307C237.857 309.209 239.648 311 241.857 311Z" fill="#66ABE0"/>
<path d="M255.381 311C257.59 311 259.381 309.209 259.381 307C259.381 304.791 257.59 303 255.381 303C253.172 303 251.381 304.791 251.381 307C251.381 309.209 253.172 311 255.381 311Z" fill="#66ABE0"/>
<path d="M268.905 311C271.114 311 272.905 309.209 272.905 307C272.905 304.791 271.114 303 268.905 303C266.696 303 264.905 304.791 264.905 307C264.905 309.209 266.696 311 268.905 311Z" fill="#66ABE0"/>
<path d="M282.429 311C284.638 311 286.429 309.209 286.429 307C286.429 304.791 284.638 303 282.429 303C280.219 303 278.429 304.791 278.429 307C278.429 309.209 280.219 311 282.429 311Z" fill="#66ABE0"/>
<path d="M295.952 311C298.161 311 299.952 309.209 299.952 307C299.952 304.791 298.161 303 295.952 303C293.743 303 291.952 304.791 291.952 307C291.952 309.209 293.743 311 295.952 311Z" fill="#B8B8B8" fill-opacity="0.6"/>
<path d="M309.476 311C311.685 311 313.476 309.209 313.476 307C313.476 304.791 311.685 303 309.476 303C307.267 303 305.476 304.791 305.476 307C305.476 309.209 307.267 311 309.476 311Z" fill="#B8B8B8" fill-opacity="0.6"/>
<path d="M323 311C325.209 311 327 309.209 327 307C327 304.791 325.209 303 323 303C320.791 303 319 304.791 319 307C319 309.209 320.791 311 323 311Z" fill="#B8B8B8" fill-opacity="0.6"/>
</g>
<rect x="11.5" y="11.5" width="339" height="339" rx="4.5" stroke="url(#paint1_radial_2691_6476)" shape-rendering="crispEdges"/>
</g>
<defs>
<filter id="filter0_d_2691_6476" x="0" y="0" width="362" height="362" filterUnits="userSpaceOnUse" color-interpolation-filters="sRGB">
<feFlood flood-opacity="0" result="BackgroundImageFix"/>
<feColorMatrix in="SourceAlpha" type="matrix" values="0 0 0 0 0 0 0 0 0 0 0 0 0 0 0 0 0 0 127 0" result="hardAlpha"/>
<feMorphology radius="1" operator="dilate" in="SourceAlpha" result="effect1_dropShadow_2691_6476"/>
<feOffset/>
<feGaussianBlur stdDeviation="5"/>
<feComposite in2="hardAlpha" operator="out"/>
<feColorMatrix type="matrix" values="0 0 0 0 0.0117647 0 0 0 0 0.141176 0 0 0 0 0.196078 0 0 0 1 0"/>
<feBlend mode="normal" in2="BackgroundImageFix" result="effect1_dropShadow_2691_6476"/>
<feBlend mode="normal" in="SourceGraphic" in2="effect1_dropShadow_2691_6476" result="shape"/>
</filter>
<radialGradient id="paint0_radial_2691_6476" cx="0" cy="0" r="1" gradientUnits="userSpaceOnUse" gradientTransform="translate(188.5 42) rotate(80.8085) scale(313.019 414.063)">
<stop offset="0.0885417" stop-color="#00419C"/>
<stop offset="1"/>
</radialGradient>
<radialGradient id="paint1_radial_2691_6476" cx="0" cy="0" r="1" gradientUnits="userSpaceOnUse" gradientTransform="translate(328 41) rotate(115.37) scale(343.087)">
<stop stop-color="#1F3E78"/>
<stop offset="0.244792" stop-color="#142B56"/>
<stop offset="0.635417" stop-color="#162E5B"/>
<stop offset="1" stop-color="#06193E"/>
</radialGradient>
<clipPath id="clip0_2691_6476">
<rect width="292" height="134" fill="white" transform="translate(35 177)"/>
</clipPath>
</defs>
</svg>
