<svg width="362" height="362" viewBox="0 0 362 362" fill="none" xmlns="http://www.w3.org/2000/svg">
<g filter="url(#filter0_d_2691_6477)">
<rect x="11" y="11" width="340" height="340" rx="5" fill="url(#paint0_radial_2691_6477)" shape-rendering="crispEdges"/>
<path d="M52.568 67H36.504V63.416C45.24 56.984 47.8 54.776 47.8 52.152C47.8 50.296 46.104 49.368 44.312 49.368C41.912 49.368 40.056 50.328 38.616 51.832L36.024 48.824C38.104 46.424 41.272 45.336 44.248 45.336C48.792 45.336 52.408 47.896 52.408 52.152C52.408 55.8 49.4 58.968 43.672 63H52.568V67ZM54.8275 63.96L57.1955 60.984C58.6675 62.52 61.0035 63.416 63.0835 63.416C65.6755 63.416 67.1155 62.296 67.1155 60.664C67.1155 58.936 65.8035 58.136 62.8275 58.136C61.9315 58.136 60.4915 58.136 60.1715 58.168V54.2C60.5555 54.232 61.9955 54.232 62.8275 54.232C65.1955 54.232 66.7635 53.464 66.7635 51.864C66.7635 50.168 65.0355 49.304 62.7955 49.304C60.7155 49.304 58.8595 50.104 57.3555 51.544L55.1155 48.728C56.8435 46.776 59.5315 45.336 63.2755 45.336C68.2675 45.336 71.3395 47.576 71.3395 51.128C71.3395 53.816 69.0355 55.576 66.6675 55.992C68.8435 56.216 71.6595 57.912 71.6595 61.112C71.6595 64.792 68.3635 67.384 63.2435 67.384C59.3075 67.384 56.3955 65.88 54.8275 63.96ZM73.8008 50.712C73.8008 47.704 75.9448 45.336 79.2088 45.336C82.5048 45.336 84.6488 47.704 84.6488 50.712C84.6488 53.688 82.5048 55.96 79.2088 55.96C75.9448 55.96 73.8008 53.688 73.8008 50.712ZM79.5288 67H77.1288L90.7608 45.656H93.1928L79.5288 67ZM81.7368 50.712C81.7368 48.92 80.6808 47.864 79.2088 47.864C77.7688 47.864 76.6808 48.92 76.6808 50.712C76.6808 52.376 77.7688 53.464 79.2088 53.464C80.6808 53.464 81.7368 52.376 81.7368 50.712ZM85.5448 62.104C85.5448 59.096 87.6888 56.728 90.9528 56.728C94.2168 56.728 96.3928 59.096 96.3928 62.104C96.3928 65.08 94.2168 67.384 90.9528 67.384C87.6888 67.384 85.5448 65.08 85.5448 62.104ZM93.5128 62.104C93.5128 60.344 92.4248 59.256 90.9528 59.256C89.4808 59.256 88.4248 60.344 88.4248 62.104C88.4248 63.832 89.4808 64.888 90.9528 64.888C92.4248 64.888 93.5128 63.832 93.5128 62.104Z" fill="white"/>
<path d="M107.148 67.216C104.502 67.216 102.846 65.164 102.846 62.644C102.846 60.124 104.502 58.09 107.148 58.09C109.794 58.09 111.45 60.124 111.45 62.644C111.45 65.164 109.794 67.216 107.148 67.216ZM107.148 66.01C109.002 66.01 110.028 64.426 110.028 62.644C110.028 60.88 109.002 59.296 107.148 59.296C105.294 59.296 104.25 60.88 104.25 62.644C104.25 64.426 105.294 66.01 107.148 66.01ZM117.143 59.494H115.379V67H114.029V59.494H112.589V58.306H114.029V57.64C114.029 55.84 115.037 54.814 116.549 54.814C117.053 54.814 117.521 54.904 117.863 55.12L117.521 56.128C117.305 56.002 117.053 55.93 116.747 55.93C115.865 55.93 115.379 56.542 115.379 57.64V58.306H117.143V59.494ZM122.633 65.848L123.335 64.876C123.911 65.542 125.009 66.118 126.197 66.118C127.529 66.118 128.249 65.524 128.249 64.678C128.249 63.724 127.187 63.418 126.017 63.13C124.541 62.788 122.867 62.392 122.867 60.592C122.867 59.242 124.037 58.09 126.107 58.09C127.583 58.09 128.627 58.648 129.329 59.35L128.699 60.286C128.177 59.656 127.223 59.188 126.107 59.188C124.919 59.188 124.181 59.728 124.181 60.502C124.181 61.348 125.171 61.618 126.305 61.888C127.817 62.23 129.563 62.662 129.563 64.588C129.563 66.046 128.393 67.216 126.143 67.216C124.721 67.216 123.515 66.784 122.633 65.848ZM138.974 67H137.624V65.776C136.958 66.532 135.824 67.216 134.528 67.216C132.71 67.216 131.756 66.334 131.756 64.444V58.306H133.106V64.03C133.106 65.56 133.88 66.01 135.05 66.01C136.112 66.01 137.12 65.398 137.624 64.696V58.306H138.974V67ZM143.02 67H141.67V58.306H143.02V59.71C143.722 58.792 144.73 58.126 145.918 58.126V59.512C145.756 59.476 145.594 59.458 145.378 59.458C144.55 59.458 143.416 60.142 143.02 60.844V67ZM151.41 67H149.934L146.316 58.306H147.774L150.672 65.434L153.552 58.306H155.028L151.41 67ZM155.932 62.644C155.932 60.124 157.732 58.09 160.216 58.09C162.844 58.09 164.392 60.142 164.392 62.752V63.094H157.354C157.462 64.732 158.614 66.1 160.486 66.1C161.476 66.1 162.484 65.704 163.168 65.002L163.816 65.884C162.952 66.748 161.782 67.216 160.36 67.216C157.786 67.216 155.932 65.362 155.932 62.644ZM160.198 59.206C158.344 59.206 157.426 60.772 157.354 62.104H163.06C163.042 60.808 162.178 59.206 160.198 59.206ZM166.093 70.402L166.309 69.178C166.507 69.268 166.831 69.322 167.047 69.322C167.641 69.322 168.037 69.124 168.343 68.404L168.919 67.09L165.283 58.306H166.741L169.639 65.434L172.519 58.306H173.995L169.639 68.764C169.117 70.024 168.235 70.51 167.083 70.528C166.795 70.528 166.345 70.474 166.093 70.402ZM174.899 62.644C174.899 60.124 176.699 58.09 179.183 58.09C181.811 58.09 183.359 60.142 183.359 62.752V63.094H176.321C176.429 64.732 177.581 66.1 179.453 66.1C180.443 66.1 181.451 65.704 182.135 65.002L182.783 65.884C181.919 66.748 180.749 67.216 179.327 67.216C176.753 67.216 174.899 65.362 174.899 62.644ZM179.165 59.206C177.311 59.206 176.393 60.772 176.321 62.104H182.027C182.009 60.808 181.145 59.206 179.165 59.206ZM193.195 67H191.845V65.704C191.197 66.586 190.135 67.216 188.911 67.216C186.643 67.216 185.041 65.488 185.041 62.662C185.041 59.89 186.625 58.09 188.911 58.09C190.081 58.09 191.143 58.666 191.845 59.62V54.994H193.195V67ZM191.845 64.642V60.7C191.359 59.944 190.315 59.296 189.235 59.296C187.489 59.296 186.445 60.736 186.445 62.662C186.445 64.588 187.489 66.01 189.235 66.01C190.315 66.01 191.359 65.398 191.845 64.642ZM200.035 62.644C200.035 60.07 201.781 58.09 204.373 58.09C205.957 58.09 206.893 58.738 207.559 59.602L206.659 60.43C206.083 59.638 205.345 59.296 204.445 59.296C202.591 59.296 201.439 60.718 201.439 62.644C201.439 64.57 202.591 66.01 204.445 66.01C205.345 66.01 206.083 65.65 206.659 64.876L207.559 65.704C206.893 66.568 205.957 67.216 204.373 67.216C201.781 67.216 200.035 65.236 200.035 62.644ZM210.118 56.848C209.632 56.848 209.218 56.434 209.218 55.93C209.218 55.426 209.632 55.03 210.118 55.03C210.622 55.03 211.036 55.426 211.036 55.93C211.036 56.434 210.622 56.848 210.118 56.848ZM210.802 67H209.452V58.306H210.802V67ZM215.691 67.216C214.413 67.216 213.765 66.478 213.765 65.182V59.494H212.325V58.306H213.765V55.93H215.115V58.306H216.879V59.494H215.115V64.894C215.115 65.542 215.403 66.01 215.997 66.01C216.375 66.01 216.735 65.848 216.915 65.65L217.311 66.658C216.969 66.982 216.483 67.216 215.691 67.216ZM219.452 56.848C218.966 56.848 218.552 56.434 218.552 55.93C218.552 55.426 218.966 55.03 219.452 55.03C219.956 55.03 220.37 55.426 220.37 55.93C220.37 56.434 219.956 56.848 219.452 56.848ZM220.136 67H218.786V58.306H220.136V67ZM222.325 62.644C222.325 60.124 224.125 58.09 226.609 58.09C229.237 58.09 230.785 60.142 230.785 62.752V63.094H223.747C223.855 64.732 225.007 66.1 226.879 66.1C227.869 66.1 228.877 65.704 229.561 65.002L230.209 65.884C229.345 66.748 228.175 67.216 226.753 67.216C224.179 67.216 222.325 65.362 222.325 62.644ZM226.591 59.206C224.737 59.206 223.819 60.772 223.747 62.104H229.453C229.435 60.808 228.571 59.206 226.591 59.206ZM232.215 65.848L232.917 64.876C233.493 65.542 234.591 66.118 235.779 66.118C237.111 66.118 237.831 65.524 237.831 64.678C237.831 63.724 236.769 63.418 235.599 63.13C234.123 62.788 232.449 62.392 232.449 60.592C232.449 59.242 233.619 58.09 235.689 58.09C237.165 58.09 238.209 58.648 238.911 59.35L238.281 60.286C237.759 59.656 236.805 59.188 235.689 59.188C234.501 59.188 233.763 59.728 233.763 60.502C233.763 61.348 234.753 61.618 235.887 61.888C237.399 62.23 239.145 62.662 239.145 64.588C239.145 66.046 237.975 67.216 235.725 67.216C234.303 67.216 233.097 66.784 232.215 65.848Z" fill="white"/>
<path d="M44.54 91H43.04V84.64C43.04 82.94 42.16 82.44 40.86 82.44C39.7 82.44 38.58 83.16 38 83.94V91H36.5V77.66H38V82.74C38.68 81.94 40 81.1 41.46 81.1C43.48 81.1 44.54 82.08 44.54 84.18V91ZM55.0752 91H53.5752V89.9C52.7752 90.78 51.6752 91.24 50.3752 91.24C48.7352 91.24 46.9952 90.14 46.9952 88.04C46.9952 85.88 48.7352 84.86 50.3752 84.86C51.6952 84.86 52.7952 85.28 53.5752 86.18V84.44C53.5752 83.14 52.5352 82.4 51.1352 82.4C49.9752 82.4 49.0352 82.82 48.1752 83.74L47.4752 82.7C48.5152 81.62 49.7552 81.1 51.3352 81.1C53.3752 81.1 55.0752 82.02 55.0752 84.36V91ZM53.5752 88.96V87.14C52.9952 86.34 51.9752 85.94 50.9152 85.94C49.5152 85.94 48.5352 86.82 48.5352 88.06C48.5352 89.28 49.5152 90.16 50.9152 90.16C51.9752 90.16 52.9952 89.76 53.5752 88.96ZM62.302 91H60.662L56.642 81.34H58.262L61.482 89.26L64.682 81.34H66.322L62.302 91ZM67.3267 86.16C67.3267 83.36 69.3267 81.1 72.0867 81.1C75.0067 81.1 76.7267 83.38 76.7267 86.28V86.66H68.9067C69.0267 88.48 70.3067 90 72.3867 90C73.4867 90 74.6067 89.56 75.3667 88.78L76.0867 89.76C75.1267 90.72 73.8267 91.24 72.2467 91.24C69.3867 91.24 67.3267 89.18 67.3267 86.16ZM72.0667 82.34C70.0067 82.34 68.9867 84.08 68.9067 85.56H75.2467C75.2267 84.12 74.2667 82.34 72.0667 82.34ZM91.8525 91H90.3525V89.9C89.5525 90.78 88.4525 91.24 87.1525 91.24C85.5125 91.24 83.7725 90.14 83.7725 88.04C83.7725 85.88 85.5125 84.86 87.1525 84.86C88.4725 84.86 89.5725 85.28 90.3525 86.18V84.44C90.3525 83.14 89.3125 82.4 87.9125 82.4C86.7525 82.4 85.8125 82.82 84.9525 83.74L84.2525 82.7C85.2925 81.62 86.5325 81.1 88.1125 81.1C90.1525 81.1 91.8525 82.02 91.8525 84.36V91ZM90.3525 88.96V87.14C89.7725 86.34 88.7525 85.94 87.6925 85.94C86.2925 85.94 85.3125 86.82 85.3125 88.06C85.3125 89.28 86.2925 90.16 87.6925 90.16C88.7525 90.16 89.7725 89.76 90.3525 88.96ZM108.516 91H107.016V89.56C106.296 90.54 105.116 91.24 103.756 91.24C101.236 91.24 99.4556 89.32 99.4556 86.18C99.4556 83.1 101.216 81.1 103.756 81.1C105.056 81.1 106.236 81.74 107.016 82.8V77.66H108.516V91ZM107.016 88.38V84C106.476 83.16 105.316 82.44 104.116 82.44C102.176 82.44 101.016 84.04 101.016 86.18C101.016 88.32 102.176 89.9 104.116 89.9C105.316 89.9 106.476 89.22 107.016 88.38ZM110.96 86.16C110.96 83.36 112.96 81.1 115.72 81.1C118.64 81.1 120.36 83.38 120.36 86.28V86.66H112.54C112.66 88.48 113.94 90 116.02 90C117.12 90 118.24 89.56 119 88.78L119.72 89.76C118.76 90.72 117.46 91.24 115.88 91.24C113.02 91.24 110.96 89.18 110.96 86.16ZM115.7 82.34C113.64 82.34 112.62 84.08 112.54 85.56H118.88C118.86 84.12 117.9 82.34 115.7 82.34ZM121.949 89.72L122.729 88.64C123.369 89.38 124.589 90.02 125.909 90.02C127.389 90.02 128.189 89.36 128.189 88.42C128.189 87.36 127.009 87.02 125.709 86.7C124.069 86.32 122.209 85.88 122.209 83.88C122.209 82.38 123.509 81.1 125.809 81.1C127.449 81.1 128.609 81.72 129.389 82.5L128.689 83.54C128.109 82.84 127.049 82.32 125.809 82.32C124.489 82.32 123.669 82.92 123.669 83.78C123.669 84.72 124.769 85.02 126.029 85.32C127.709 85.7 129.649 86.18 129.649 88.32C129.649 89.94 128.349 91.24 125.849 91.24C124.269 91.24 122.929 90.76 121.949 89.72ZM132.826 79.72C132.286 79.72 131.826 79.26 131.826 78.7C131.826 78.14 132.286 77.7 132.826 77.7C133.386 77.7 133.846 78.14 133.846 78.7C133.846 79.26 133.386 79.72 132.826 79.72ZM133.586 91H132.086V81.34H133.586V91ZM136.558 93.48L137.318 92.36C138.118 93.32 139.078 93.68 140.458 93.68C142.058 93.68 143.558 92.9 143.558 90.78V89.4C142.858 90.38 141.678 91.12 140.318 91.12C137.798 91.12 136.018 89.24 136.018 86.12C136.018 83.02 137.778 81.1 140.318 81.1C141.618 81.1 142.778 81.74 143.558 82.8V81.34H145.058V90.72C145.058 93.92 142.818 94.92 140.458 94.92C138.818 94.92 137.698 94.6 136.558 93.48ZM143.558 88.22V84C143.038 83.16 141.878 82.44 140.678 82.44C138.738 82.44 137.578 83.98 137.578 86.12C137.578 88.24 138.738 89.8 140.678 89.8C141.878 89.8 143.038 89.06 143.558 88.22ZM156.083 91H154.583V84.68C154.583 82.98 153.723 82.44 152.423 82.44C151.243 82.44 150.123 83.16 149.563 83.94V91H148.063V81.34H149.563V82.74C150.243 81.94 151.562 81.1 153.003 81.1C155.023 81.1 156.083 82.12 156.083 84.22V91ZM166.618 91H165.118V89.9C164.318 90.78 163.218 91.24 161.918 91.24C160.278 91.24 158.538 90.14 158.538 88.04C158.538 85.88 160.278 84.86 161.918 84.86C163.238 84.86 164.338 85.28 165.118 86.18V84.44C165.118 83.14 164.078 82.4 162.678 82.4C161.518 82.4 160.578 82.82 159.718 83.74L159.018 82.7C160.058 81.62 161.298 81.1 162.878 81.1C164.918 81.1 166.618 82.02 166.618 84.36V91ZM165.118 88.96V87.14C164.538 86.34 163.518 85.94 162.458 85.94C161.058 85.94 160.078 86.82 160.078 88.06C160.078 89.28 161.058 90.16 162.458 90.16C163.518 90.16 164.538 89.76 165.118 88.96ZM172.065 91.24C170.645 91.24 169.925 90.42 169.925 88.98V82.66H168.325V81.34H169.925V78.7H171.425V81.34H173.385V82.66H171.425V88.66C171.425 89.38 171.745 89.9 172.405 89.9C172.825 89.9 173.225 89.72 173.425 89.5L173.865 90.62C173.485 90.98 172.945 91.24 172.065 91.24ZM174.944 86.16C174.944 83.36 176.944 81.1 179.704 81.1C182.624 81.1 184.344 83.38 184.344 86.28V86.66H176.524C176.644 88.48 177.924 90 180.004 90C181.104 90 182.224 89.56 182.984 88.78L183.704 89.76C182.744 90.72 181.444 91.24 179.864 91.24C177.004 91.24 174.944 89.18 174.944 86.16ZM179.684 82.34C177.624 82.34 176.604 84.08 176.524 85.56H182.864C182.844 84.12 181.884 82.34 179.684 82.34ZM195.273 91H193.773V89.56C193.053 90.54 191.873 91.24 190.513 91.24C187.993 91.24 186.213 89.32 186.213 86.18C186.213 83.1 187.973 81.1 190.513 81.1C191.813 81.1 192.993 81.74 193.773 82.8V77.66H195.273V91ZM193.773 88.38V84C193.233 83.16 192.073 82.44 190.873 82.44C188.933 82.44 187.773 84.04 187.773 86.18C187.773 88.32 188.933 89.9 190.873 89.9C192.073 89.9 193.233 89.22 193.773 88.38ZM36.48 117.48L37.24 116.36C38.04 117.32 39 117.68 40.38 117.68C41.98 117.68 43.48 116.9 43.48 114.78V113.4C42.78 114.38 41.6 115.12 40.24 115.12C37.72 115.12 35.94 113.24 35.94 110.12C35.94 107.02 37.7 105.1 40.24 105.1C41.54 105.1 42.7 105.74 43.48 106.8V105.34H44.98V114.72C44.98 117.92 42.74 118.92 40.38 118.92C38.74 118.92 37.62 118.6 36.48 117.48ZM43.48 112.22V108C42.96 107.16 41.8 106.44 40.6 106.44C38.66 106.44 37.5 107.98 37.5 110.12C37.5 112.24 38.66 113.8 40.6 113.8C41.8 113.8 42.96 113.06 43.48 112.22ZM47.4244 110.16C47.4244 107.36 49.4244 105.1 52.1844 105.1C55.1044 105.1 56.8244 107.38 56.8244 110.28V110.66H49.0044C49.1244 112.48 50.4044 114 52.4844 114C53.5844 114 54.7044 113.56 55.4644 112.78L56.1844 113.76C55.2244 114.72 53.9244 115.24 52.3444 115.24C49.4844 115.24 47.4244 113.18 47.4244 110.16ZM52.1644 106.34C50.1044 106.34 49.0844 108.08 49.0044 109.56H55.3444C55.3244 108.12 54.3644 106.34 52.1644 106.34ZM67.2739 115H65.7739V108.68C65.7739 106.98 64.9139 106.44 63.6139 106.44C62.4339 106.44 61.3139 107.16 60.7539 107.94V115H59.2539V105.34H60.7539V106.74C61.4339 105.94 62.7539 105.1 64.1939 105.1C66.2139 105.1 67.2739 106.12 67.2739 108.22V115ZM69.7095 110.16C69.7095 107.36 71.7095 105.1 74.4695 105.1C77.3895 105.1 79.1095 107.38 79.1095 110.28V110.66H71.2895C71.4095 112.48 72.6895 114 74.7695 114C75.8695 114 76.9895 113.56 77.7495 112.78L78.4695 113.76C77.5095 114.72 76.2095 115.24 74.6295 115.24C71.7695 115.24 69.7095 113.18 69.7095 110.16ZM74.4495 106.34C72.3895 106.34 71.3695 108.08 71.2895 109.56H77.6295C77.6095 108.12 76.6495 106.34 74.4495 106.34ZM83.0391 115H81.5391V105.34H83.0391V106.9C83.8191 105.88 84.9391 105.14 86.2591 105.14V106.68C86.0791 106.64 85.8991 106.62 85.6591 106.62C84.7391 106.62 83.4791 107.38 83.0391 108.16V115ZM95.6806 115H94.1806V113.9C93.3806 114.78 92.2806 115.24 90.9806 115.24C89.3406 115.24 87.6006 114.14 87.6006 112.04C87.6006 109.88 89.3406 108.86 90.9806 108.86C92.3006 108.86 93.4006 109.28 94.1806 110.18V108.44C94.1806 107.14 93.1406 106.4 91.7406 106.4C90.5806 106.4 89.6406 106.82 88.7806 107.74L88.0806 106.7C89.1206 105.62 90.3606 105.1 91.9406 105.1C93.9806 105.1 95.6806 106.02 95.6806 108.36V115ZM94.1806 112.96V111.14C93.6006 110.34 92.5806 109.94 91.5206 109.94C90.1206 109.94 89.1406 110.82 89.1406 112.06C89.1406 113.28 90.1206 114.16 91.5206 114.16C92.5806 114.16 93.6006 113.76 94.1806 112.96ZM101.128 115.24C99.7075 115.24 98.9875 114.42 98.9875 112.98V106.66H97.3875V105.34H98.9875V102.7H100.488V105.34H102.448V106.66H100.488V112.66C100.488 113.38 100.808 113.9 101.468 113.9C101.888 113.9 102.288 113.72 102.488 113.5L102.928 114.62C102.548 114.98 102.008 115.24 101.128 115.24ZM105.306 103.72C104.766 103.72 104.306 103.26 104.306 102.7C104.306 102.14 104.766 101.7 105.306 101.7C105.866 101.7 106.326 102.14 106.326 102.7C106.326 103.26 105.866 103.72 105.306 103.72ZM106.066 115H104.566V105.34H106.066V115ZM113.279 115H111.639L107.619 105.34H109.239L112.459 113.26L115.659 105.34H117.299L113.279 115ZM118.303 110.16C118.303 107.36 120.303 105.1 123.063 105.1C125.983 105.1 127.703 107.38 127.703 110.28V110.66H119.883C120.003 112.48 121.283 114 123.363 114C124.463 114 125.583 113.56 126.343 112.78L127.063 113.76C126.103 114.72 124.803 115.24 123.223 115.24C120.363 115.24 118.303 113.18 118.303 110.16ZM123.043 106.34C120.983 106.34 119.963 108.08 119.883 109.56H126.223C126.203 108.12 125.243 106.34 123.043 106.34ZM146.769 115H144.929L143.749 112.04H136.989L135.809 115H133.969L139.329 101.66H141.389L146.769 115ZM143.249 110.56L140.369 103.14L137.469 110.56H143.249ZM150.173 115H148.513V101.66H150.173V115ZM159.895 115H158.395V101.66H159.895V115ZM162.327 110.16C162.327 107.36 164.327 105.1 167.087 105.1C170.007 105.1 171.727 107.38 171.727 110.28V110.66H163.907C164.027 112.48 165.307 114 167.387 114C168.487 114 169.607 113.56 170.367 112.78L171.087 113.76C170.127 114.72 168.827 115.24 167.247 115.24C164.387 115.24 162.327 113.18 162.327 110.16ZM167.067 106.34C165.007 106.34 163.987 108.08 163.907 109.56H170.247C170.227 108.12 169.267 106.34 167.067 106.34ZM181.696 115H180.196V113.9C179.396 114.78 178.296 115.24 176.996 115.24C175.356 115.24 173.616 114.14 173.616 112.04C173.616 109.88 175.356 108.86 176.996 108.86C178.316 108.86 179.416 109.28 180.196 110.18V108.44C180.196 107.14 179.156 106.4 177.756 106.4C176.596 106.4 175.656 106.82 174.796 107.74L174.096 106.7C175.136 105.62 176.376 105.1 177.956 105.1C179.996 105.1 181.696 106.02 181.696 108.36V115ZM180.196 112.96V111.14C179.616 110.34 178.596 109.94 177.536 109.94C176.136 109.94 175.156 110.82 175.156 112.06C175.156 113.28 176.136 114.16 177.536 114.16C178.596 114.16 179.616 113.76 180.196 112.96ZM193.203 115H191.703V113.56C190.983 114.54 189.803 115.24 188.443 115.24C185.923 115.24 184.143 113.32 184.143 110.18C184.143 107.1 185.903 105.1 188.443 105.1C189.743 105.1 190.923 105.74 191.703 106.8V101.66H193.203V115ZM191.703 112.38V108C191.163 107.16 190.003 106.44 188.803 106.44C186.863 106.44 185.703 108.04 185.703 110.18C185.703 112.32 186.863 113.9 188.803 113.9C190.003 113.9 191.163 113.22 191.703 112.38Z" fill="white"/>
<g clip-path="url(#clip0_2691_6477)">
<path d="M39 185C41.2091 185 43 183.209 43 181C43 178.791 41.2091 177 39 177C36.7909 177 35 178.791 35 181C35 183.209 36.7909 185 39 185Z" fill="#7FD3C5"/>
<path d="M52.5238 185C54.7329 185 56.5238 183.209 56.5238 181C56.5238 178.791 54.7329 177 52.5238 177C50.3147 177 48.5238 178.791 48.5238 181C48.5238 183.209 50.3147 185 52.5238 185Z" fill="#7FD3C5"/>
<path d="M66.0476 185C68.2568 185 70.0476 183.209 70.0476 181C70.0476 178.791 68.2568 177 66.0476 177C63.8385 177 62.0476 178.791 62.0476 181C62.0476 183.209 63.8385 185 66.0476 185Z" fill="#7FD3C5"/>
<path d="M79.5714 185C81.7806 185 83.5714 183.209 83.5714 181C83.5714 178.791 81.7806 177 79.5714 177C77.3623 177 75.5714 178.791 75.5714 181C75.5714 183.209 77.3623 185 79.5714 185Z" fill="#7FD3C5"/>
<path d="M93.0952 185C95.3044 185 97.0952 183.209 97.0952 181C97.0952 178.791 95.3044 177 93.0952 177C90.8861 177 89.0952 178.791 89.0952 181C89.0952 183.209 90.8861 185 93.0952 185Z" fill="#7D7D7D" fill-opacity="0.8"/>
<path d="M106.619 185C108.828 185 110.619 183.209 110.619 181C110.619 178.791 108.828 177 106.619 177C104.41 177 102.619 178.791 102.619 181C102.619 183.209 104.41 185 106.619 185Z" fill="#7D7D7D" fill-opacity="0.8"/>
<path d="M120.143 185C122.352 185 124.143 183.209 124.143 181C124.143 178.791 122.352 177 120.143 177C117.934 177 116.143 178.791 116.143 181C116.143 183.209 117.934 185 120.143 185Z" fill="#7D7D7D" fill-opacity="0.8"/>
<path d="M133.667 185C135.876 185 137.667 183.209 137.667 181C137.667 178.791 135.876 177 133.667 177C131.458 177 129.667 178.791 129.667 181C129.667 183.209 131.458 185 133.667 185Z" fill="#7D7D7D" fill-opacity="0.8"/>
<path d="M147.19 185C149.4 185 151.19 183.209 151.19 181C151.19 178.791 149.4 177 147.19 177C144.981 177 143.19 178.791 143.19 181C143.19 183.209 144.981 185 147.19 185Z" fill="#7D7D7D" fill-opacity="0.8"/>
<path d="M160.714 185C162.923 185 164.714 183.209 164.714 181C164.714 178.791 162.923 177 160.714 177C158.505 177 156.714 178.791 156.714 181C156.714 183.209 158.505 185 160.714 185Z" fill="#7D7D7D" fill-opacity="0.8"/>
<path d="M174.238 185C176.447 185 178.238 183.209 178.238 181C178.238 178.791 176.447 177 174.238 177C172.029 177 170.238 178.791 170.238 181C170.238 183.209 172.029 185 174.238 185Z" fill="#7D7D7D" fill-opacity="0.8"/>
<path d="M187.762 185C189.971 185 191.762 183.209 191.762 181C191.762 178.791 189.971 177 187.762 177C185.553 177 183.762 178.791 183.762 181C183.762 183.209 185.553 185 187.762 185Z" fill="#7D7D7D" fill-opacity="0.8"/>
<path d="M201.286 185C203.495 185 205.286 183.209 205.286 181C205.286 178.791 203.495 177 201.286 177C199.077 177 197.286 178.791 197.286 181C197.286 183.209 199.077 185 201.286 185Z" fill="#7D7D7D" fill-opacity="0.8"/>
<path d="M214.81 185C217.019 185 218.81 183.209 218.81 181C218.81 178.791 217.019 177 214.81 177C212.6 177 210.81 178.791 210.81 181C210.81 183.209 212.6 185 214.81 185Z" fill="#7D7D7D" fill-opacity="0.8"/>
<path d="M228.333 185C230.542 185 232.333 183.209 232.333 181C232.333 178.791 230.542 177 228.333 177C226.124 177 224.333 178.791 224.333 181C224.333 183.209 226.124 185 228.333 185Z" fill="#7D7D7D" fill-opacity="0.8"/>
<path d="M241.857 185C244.066 185 245.857 183.209 245.857 181C245.857 178.791 244.066 177 241.857 177C239.648 177 237.857 178.791 237.857 181C237.857 183.209 239.648 185 241.857 185Z" fill="#7D7D7D" fill-opacity="0.8"/>
<path d="M255.381 185C257.59 185 259.381 183.209 259.381 181C259.381 178.791 257.59 177 255.381 177C253.172 177 251.381 178.791 251.381 181C251.381 183.209 253.172 185 255.381 185Z" fill="#7D7D7D" fill-opacity="0.8"/>
<path d="M268.905 185C271.114 185 272.905 183.209 272.905 181C272.905 178.791 271.114 177 268.905 177C266.696 177 264.905 178.791 264.905 181C264.905 183.209 266.696 185 268.905 185Z" fill="#7D7D7D" fill-opacity="0.8"/>
<path d="M282.429 185C284.638 185 286.429 183.209 286.429 181C286.429 178.791 284.638 177 282.429 177C280.219 177 278.429 178.791 278.429 181C278.429 183.209 280.219 185 282.429 185Z" fill="#7D7D7D" fill-opacity="0.8"/>
<path d="M295.952 185C298.161 185 299.952 183.209 299.952 181C299.952 178.791 298.161 177 295.952 177C293.743 177 291.952 178.791 291.952 181C291.952 183.209 293.743 185 295.952 185Z" fill="#7D7D7D" fill-opacity="0.8"/>
<path d="M309.476 185C311.685 185 313.476 183.209 313.476 181C313.476 178.791 311.685 177 309.476 177C307.267 177 305.476 178.791 305.476 181C305.476 183.209 307.267 185 309.476 185Z" fill="#7D7D7D" fill-opacity="0.8"/>
<path d="M323 185C325.209 185 327 183.209 327 181C327 178.791 325.209 177 323 177C320.791 177 319 178.791 319 181C319 183.209 320.791 185 323 185Z" fill="#7D7D7D" fill-opacity="0.8"/>
<path d="M39 199C41.2091 199 43 197.209 43 195C43 192.791 41.2091 191 39 191C36.7909 191 35 192.791 35 195C35 197.209 36.7909 199 39 199Z" fill="#7FD3C5"/>
<path d="M52.5238 199C54.7329 199 56.5238 197.209 56.5238 195C56.5238 192.791 54.7329 191 52.5238 191C50.3147 191 48.5238 192.791 48.5238 195C48.5238 197.209 50.3147 199 52.5238 199Z" fill="#7FD3C5"/>
<path d="M66.0476 199C68.2568 199 70.0476 197.209 70.0476 195C70.0476 192.791 68.2568 191 66.0476 191C63.8385 191 62.0476 192.791 62.0476 195C62.0476 197.209 63.8385 199 66.0476 199Z" fill="#7FD3C5"/>
<path d="M79.5714 199C81.7806 199 83.5714 197.209 83.5714 195C83.5714 192.791 81.7806 191 79.5714 191C77.3623 191 75.5714 192.791 75.5714 195C75.5714 197.209 77.3623 199 79.5714 199Z" fill="#7FD3C5"/>
<path d="M93.0952 199C95.3044 199 97.0952 197.209 97.0952 195C97.0952 192.791 95.3044 191 93.0952 191C90.8861 191 89.0952 192.791 89.0952 195C89.0952 197.209 90.8861 199 93.0952 199Z" fill="#7D7D7D" fill-opacity="0.8"/>
<path d="M106.619 199C108.828 199 110.619 197.209 110.619 195C110.619 192.791 108.828 191 106.619 191C104.41 191 102.619 192.791 102.619 195C102.619 197.209 104.41 199 106.619 199Z" fill="#7D7D7D" fill-opacity="0.8"/>
<path d="M120.143 199C122.352 199 124.143 197.209 124.143 195C124.143 192.791 122.352 191 120.143 191C117.934 191 116.143 192.791 116.143 195C116.143 197.209 117.934 199 120.143 199Z" fill="#7D7D7D" fill-opacity="0.8"/>
<path d="M133.667 199C135.876 199 137.667 197.209 137.667 195C137.667 192.791 135.876 191 133.667 191C131.458 191 129.667 192.791 129.667 195C129.667 197.209 131.458 199 133.667 199Z" fill="#7D7D7D" fill-opacity="0.8"/>
<path d="M147.19 199C149.4 199 151.19 197.209 151.19 195C151.19 192.791 149.4 191 147.19 191C144.981 191 143.19 192.791 143.19 195C143.19 197.209 144.981 199 147.19 199Z" fill="#7D7D7D" fill-opacity="0.8"/>
<path d="M160.714 199C162.923 199 164.714 197.209 164.714 195C164.714 192.791 162.923 191 160.714 191C158.505 191 156.714 192.791 156.714 195C156.714 197.209 158.505 199 160.714 199Z" fill="#7D7D7D" fill-opacity="0.8"/>
<path d="M174.238 199C176.447 199 178.238 197.209 178.238 195C178.238 192.791 176.447 191 174.238 191C172.029 191 170.238 192.791 170.238 195C170.238 197.209 172.029 199 174.238 199Z" fill="#7D7D7D" fill-opacity="0.8"/>
<path d="M187.762 199C189.971 199 191.762 197.209 191.762 195C191.762 192.791 189.971 191 187.762 191C185.553 191 183.762 192.791 183.762 195C183.762 197.209 185.553 199 187.762 199Z" fill="#7D7D7D" fill-opacity="0.8"/>
<path d="M201.286 199C203.495 199 205.286 197.209 205.286 195C205.286 192.791 203.495 191 201.286 191C199.077 191 197.286 192.791 197.286 195C197.286 197.209 199.077 199 201.286 199Z" fill="#7D7D7D" fill-opacity="0.8"/>
<path d="M214.81 199C217.019 199 218.81 197.209 218.81 195C218.81 192.791 217.019 191 214.81 191C212.6 191 210.81 192.791 210.81 195C210.81 197.209 212.6 199 214.81 199Z" fill="#7D7D7D" fill-opacity="0.8"/>
<path d="M228.333 199C230.542 199 232.333 197.209 232.333 195C232.333 192.791 230.542 191 228.333 191C226.124 191 224.333 192.791 224.333 195C224.333 197.209 226.124 199 228.333 199Z" fill="#7D7D7D" fill-opacity="0.8"/>
<path d="M241.857 199C244.066 199 245.857 197.209 245.857 195C245.857 192.791 244.066 191 241.857 191C239.648 191 237.857 192.791 237.857 195C237.857 197.209 239.648 199 241.857 199Z" fill="#7D7D7D" fill-opacity="0.8"/>
<path d="M255.381 199C257.59 199 259.381 197.209 259.381 195C259.381 192.791 257.59 191 255.381 191C253.172 191 251.381 192.791 251.381 195C251.381 197.209 253.172 199 255.381 199Z" fill="#7D7D7D" fill-opacity="0.8"/>
<path d="M268.905 199C271.114 199 272.905 197.209 272.905 195C272.905 192.791 271.114 191 268.905 191C266.696 191 264.905 192.791 264.905 195C264.905 197.209 266.696 199 268.905 199Z" fill="#7D7D7D" fill-opacity="0.8"/>
<path d="M282.429 199C284.638 199 286.429 197.209 286.429 195C286.429 192.791 284.638 191 282.429 191C280.219 191 278.429 192.791 278.429 195C278.429 197.209 280.219 199 282.429 199Z" fill="#7D7D7D" fill-opacity="0.8"/>
<path d="M295.952 199C298.161 199 299.952 197.209 299.952 195C299.952 192.791 298.161 191 295.952 191C293.743 191 291.952 192.791 291.952 195C291.952 197.209 293.743 199 295.952 199Z" fill="#7D7D7D" fill-opacity="0.8"/>
<path d="M309.476 199C311.685 199 313.476 197.209 313.476 195C313.476 192.791 311.685 191 309.476 191C307.267 191 305.476 192.791 305.476 195C305.476 197.209 307.267 199 309.476 199Z" fill="#7D7D7D" fill-opacity="0.8"/>
<path d="M323 199C325.209 199 327 197.209 327 195C327 192.791 325.209 191 323 191C320.791 191 319 192.791 319 195C319 197.209 320.791 199 323 199Z" fill="#7D7D7D" fill-opacity="0.8"/>
<path d="M39 213C41.2091 213 43 211.209 43 209C43 206.791 41.2091 205 39 205C36.7909 205 35 206.791 35 209C35 211.209 36.7909 213 39 213Z" fill="#7FD3C5"/>
<path d="M52.5238 213C54.7329 213 56.5238 211.209 56.5238 209C56.5238 206.791 54.7329 205 52.5238 205C50.3147 205 48.5238 206.791 48.5238 209C48.5238 211.209 50.3147 213 52.5238 213Z" fill="#7FD3C5"/>
<path d="M66.0476 213C68.2568 213 70.0476 211.209 70.0476 209C70.0476 206.791 68.2568 205 66.0476 205C63.8385 205 62.0476 206.791 62.0476 209C62.0476 211.209 63.8385 213 66.0476 213Z" fill="#7FD3C5"/>
<path d="M79.5714 213C81.7806 213 83.5714 211.209 83.5714 209C83.5714 206.791 81.7806 205 79.5714 205C77.3623 205 75.5714 206.791 75.5714 209C75.5714 211.209 77.3623 213 79.5714 213Z" fill="#7FD3C5"/>
<path d="M93.0952 213C95.3044 213 97.0952 211.209 97.0952 209C97.0952 206.791 95.3044 205 93.0952 205C90.8861 205 89.0952 206.791 89.0952 209C89.0952 211.209 90.8861 213 93.0952 213Z" fill="#7D7D7D" fill-opacity="0.8"/>
<path d="M106.619 213C108.828 213 110.619 211.209 110.619 209C110.619 206.791 108.828 205 106.619 205C104.41 205 102.619 206.791 102.619 209C102.619 211.209 104.41 213 106.619 213Z" fill="#7D7D7D" fill-opacity="0.8"/>
<path d="M120.143 213C122.352 213 124.143 211.209 124.143 209C124.143 206.791 122.352 205 120.143 205C117.934 205 116.143 206.791 116.143 209C116.143 211.209 117.934 213 120.143 213Z" fill="#7D7D7D" fill-opacity="0.8"/>
<path d="M133.667 213C135.876 213 137.667 211.209 137.667 209C137.667 206.791 135.876 205 133.667 205C131.458 205 129.667 206.791 129.667 209C129.667 211.209 131.458 213 133.667 213Z" fill="#7D7D7D" fill-opacity="0.8"/>
<path d="M147.19 213C149.4 213 151.19 211.209 151.19 209C151.19 206.791 149.4 205 147.19 205C144.981 205 143.19 206.791 143.19 209C143.19 211.209 144.981 213 147.19 213Z" fill="#7D7D7D" fill-opacity="0.8"/>
<path d="M160.714 213C162.923 213 164.714 211.209 164.714 209C164.714 206.791 162.923 205 160.714 205C158.505 205 156.714 206.791 156.714 209C156.714 211.209 158.505 213 160.714 213Z" fill="#7D7D7D" fill-opacity="0.8"/>
<path d="M174.238 213C176.447 213 178.238 211.209 178.238 209C178.238 206.791 176.447 205 174.238 205C172.029 205 170.238 206.791 170.238 209C170.238 211.209 172.029 213 174.238 213Z" fill="#7D7D7D" fill-opacity="0.8"/>
<path d="M187.762 213C189.971 213 191.762 211.209 191.762 209C191.762 206.791 189.971 205 187.762 205C185.553 205 183.762 206.791 183.762 209C183.762 211.209 185.553 213 187.762 213Z" fill="#7D7D7D" fill-opacity="0.8"/>
<path d="M201.286 213C203.495 213 205.286 211.209 205.286 209C205.286 206.791 203.495 205 201.286 205C199.077 205 197.286 206.791 197.286 209C197.286 211.209 199.077 213 201.286 213Z" fill="#7D7D7D" fill-opacity="0.8"/>
<path d="M214.81 213C217.019 213 218.81 211.209 218.81 209C218.81 206.791 217.019 205 214.81 205C212.6 205 210.81 206.791 210.81 209C210.81 211.209 212.6 213 214.81 213Z" fill="#7D7D7D" fill-opacity="0.8"/>
<path d="M228.333 213C230.542 213 232.333 211.209 232.333 209C232.333 206.791 230.542 205 228.333 205C226.124 205 224.333 206.791 224.333 209C224.333 211.209 226.124 213 228.333 213Z" fill="#7D7D7D" fill-opacity="0.8"/>
<path d="M241.857 213C244.066 213 245.857 211.209 245.857 209C245.857 206.791 244.066 205 241.857 205C239.648 205 237.857 206.791 237.857 209C237.857 211.209 239.648 213 241.857 213Z" fill="#7D7D7D" fill-opacity="0.8"/>
<path d="M255.381 213C257.59 213 259.381 211.209 259.381 209C259.381 206.791 257.59 205 255.381 205C253.172 205 251.381 206.791 251.381 209C251.381 211.209 253.172 213 255.381 213Z" fill="#7D7D7D" fill-opacity="0.8"/>
<path d="M268.905 213C271.114 213 272.905 211.209 272.905 209C272.905 206.791 271.114 205 268.905 205C266.696 205 264.905 206.791 264.905 209C264.905 211.209 266.696 213 268.905 213Z" fill="#7D7D7D" fill-opacity="0.8"/>
<path d="M282.429 213C284.638 213 286.429 211.209 286.429 209C286.429 206.791 284.638 205 282.429 205C280.219 205 278.429 206.791 278.429 209C278.429 211.209 280.219 213 282.429 213Z" fill="#7D7D7D" fill-opacity="0.8"/>
<path d="M295.952 213C298.161 213 299.952 211.209 299.952 209C299.952 206.791 298.161 205 295.952 205C293.743 205 291.952 206.791 291.952 209C291.952 211.209 293.743 213 295.952 213Z" fill="#7D7D7D" fill-opacity="0.8"/>
<path d="M309.476 213C311.685 213 313.476 211.209 313.476 209C313.476 206.791 311.685 205 309.476 205C307.267 205 305.476 206.791 305.476 209C305.476 211.209 307.267 213 309.476 213Z" fill="#7D7D7D" fill-opacity="0.8"/>
<path d="M323 213C325.209 213 327 211.209 327 209C327 206.791 325.209 205 323 205C320.791 205 319 206.791 319 209C319 211.209 320.791 213 323 213Z" fill="#7D7D7D" fill-opacity="0.8"/>
<path d="M39 227C41.2091 227 43 225.209 43 223C43 220.791 41.2091 219 39 219C36.7909 219 35 220.791 35 223C35 225.209 36.7909 227 39 227Z" fill="#7FD3C5"/>
<path d="M52.5238 227C54.7329 227 56.5238 225.209 56.5238 223C56.5238 220.791 54.7329 219 52.5238 219C50.3147 219 48.5238 220.791 48.5238 223C48.5238 225.209 50.3147 227 52.5238 227Z" fill="#7FD3C5"/>
<path d="M66.0476 227C68.2568 227 70.0476 225.209 70.0476 223C70.0476 220.791 68.2568 219 66.0476 219C63.8385 219 62.0476 220.791 62.0476 223C62.0476 225.209 63.8385 227 66.0476 227Z" fill="#7FD3C5"/>
<path d="M79.5714 227C81.7806 227 83.5714 225.209 83.5714 223C83.5714 220.791 81.7806 219 79.5714 219C77.3623 219 75.5714 220.791 75.5714 223C75.5714 225.209 77.3623 227 79.5714 227Z" fill="#7FD3C5"/>
<path d="M93.0952 227C95.3044 227 97.0952 225.209 97.0952 223C97.0952 220.791 95.3044 219 93.0952 219C90.8861 219 89.0952 220.791 89.0952 223C89.0952 225.209 90.8861 227 93.0952 227Z" fill="#7D7D7D" fill-opacity="0.8"/>
<path d="M106.619 227C108.828 227 110.619 225.209 110.619 223C110.619 220.791 108.828 219 106.619 219C104.41 219 102.619 220.791 102.619 223C102.619 225.209 104.41 227 106.619 227Z" fill="#7D7D7D" fill-opacity="0.8"/>
<path d="M120.143 227C122.352 227 124.143 225.209 124.143 223C124.143 220.791 122.352 219 120.143 219C117.934 219 116.143 220.791 116.143 223C116.143 225.209 117.934 227 120.143 227Z" fill="#7D7D7D" fill-opacity="0.8"/>
<path d="M133.667 227C135.876 227 137.667 225.209 137.667 223C137.667 220.791 135.876 219 133.667 219C131.458 219 129.667 220.791 129.667 223C129.667 225.209 131.458 227 133.667 227Z" fill="#7D7D7D" fill-opacity="0.8"/>
<path d="M147.19 227C149.4 227 151.19 225.209 151.19 223C151.19 220.791 149.4 219 147.19 219C144.981 219 143.19 220.791 143.19 223C143.19 225.209 144.981 227 147.19 227Z" fill="#7D7D7D" fill-opacity="0.8"/>
<path d="M160.714 227C162.923 227 164.714 225.209 164.714 223C164.714 220.791 162.923 219 160.714 219C158.505 219 156.714 220.791 156.714 223C156.714 225.209 158.505 227 160.714 227Z" fill="#7D7D7D" fill-opacity="0.8"/>
<path d="M174.238 227C176.447 227 178.238 225.209 178.238 223C178.238 220.791 176.447 219 174.238 219C172.029 219 170.238 220.791 170.238 223C170.238 225.209 172.029 227 174.238 227Z" fill="#7D7D7D" fill-opacity="0.8"/>
<path d="M187.762 227C189.971 227 191.762 225.209 191.762 223C191.762 220.791 189.971 219 187.762 219C185.553 219 183.762 220.791 183.762 223C183.762 225.209 185.553 227 187.762 227Z" fill="#7D7D7D" fill-opacity="0.8"/>
<path d="M201.286 227C203.495 227 205.286 225.209 205.286 223C205.286 220.791 203.495 219 201.286 219C199.077 219 197.286 220.791 197.286 223C197.286 225.209 199.077 227 201.286 227Z" fill="#7D7D7D" fill-opacity="0.8"/>
<path d="M214.81 227C217.019 227 218.81 225.209 218.81 223C218.81 220.791 217.019 219 214.81 219C212.6 219 210.81 220.791 210.81 223C210.81 225.209 212.6 227 214.81 227Z" fill="#7D7D7D" fill-opacity="0.8"/>
<path d="M228.333 227C230.542 227 232.333 225.209 232.333 223C232.333 220.791 230.542 219 228.333 219C226.124 219 224.333 220.791 224.333 223C224.333 225.209 226.124 227 228.333 227Z" fill="#7D7D7D" fill-opacity="0.8"/>
<path d="M241.857 227C244.066 227 245.857 225.209 245.857 223C245.857 220.791 244.066 219 241.857 219C239.648 219 237.857 220.791 237.857 223C237.857 225.209 239.648 227 241.857 227Z" fill="#7D7D7D" fill-opacity="0.8"/>
<path d="M255.381 227C257.59 227 259.381 225.209 259.381 223C259.381 220.791 257.59 219 255.381 219C253.172 219 251.381 220.791 251.381 223C251.381 225.209 253.172 227 255.381 227Z" fill="#7D7D7D" fill-opacity="0.8"/>
<path d="M268.905 227C271.114 227 272.905 225.209 272.905 223C272.905 220.791 271.114 219 268.905 219C266.696 219 264.905 220.791 264.905 223C264.905 225.209 266.696 227 268.905 227Z" fill="#7D7D7D" fill-opacity="0.8"/>
<path d="M282.429 227C284.638 227 286.429 225.209 286.429 223C286.429 220.791 284.638 219 282.429 219C280.219 219 278.429 220.791 278.429 223C278.429 225.209 280.219 227 282.429 227Z" fill="#7D7D7D" fill-opacity="0.8"/>
<path d="M295.952 227C298.161 227 299.952 225.209 299.952 223C299.952 220.791 298.161 219 295.952 219C293.743 219 291.952 220.791 291.952 223C291.952 225.209 293.743 227 295.952 227Z" fill="#7D7D7D" fill-opacity="0.8"/>
<path d="M309.476 227C311.685 227 313.476 225.209 313.476 223C313.476 220.791 311.685 219 309.476 219C307.267 219 305.476 220.791 305.476 223C305.476 225.209 307.267 227 309.476 227Z" fill="#7D7D7D" fill-opacity="0.8"/>
<path d="M323 227C325.209 227 327 225.209 327 223C327 220.791 325.209 219 323 219C320.791 219 319 220.791 319 223C319 225.209 320.791 227 323 227Z" fill="#7D7D7D" fill-opacity="0.8"/>
<path d="M39 241C41.2091 241 43 239.209 43 237C43 234.791 41.2091 233 39 233C36.7909 233 35 234.791 35 237C35 239.209 36.7909 241 39 241Z" fill="#7FD3C5"/>
<path d="M52.5238 241C54.7329 241 56.5238 239.209 56.5238 237C56.5238 234.791 54.7329 233 52.5238 233C50.3147 233 48.5238 234.791 48.5238 237C48.5238 239.209 50.3147 241 52.5238 241Z" fill="#7FD3C5"/>
<path d="M66.0476 241C68.2568 241 70.0476 239.209 70.0476 237C70.0476 234.791 68.2568 233 66.0476 233C63.8385 233 62.0476 234.791 62.0476 237C62.0476 239.209 63.8385 241 66.0476 241Z" fill="#7FD3C5"/>
<path d="M79.5714 241C81.7806 241 83.5714 239.209 83.5714 237C83.5714 234.791 81.7806 233 79.5714 233C77.3623 233 75.5714 234.791 75.5714 237C75.5714 239.209 77.3623 241 79.5714 241Z" fill="#7FD3C5"/>
<path d="M93.0952 241C95.3044 241 97.0952 239.209 97.0952 237C97.0952 234.791 95.3044 233 93.0952 233C90.8861 233 89.0952 234.791 89.0952 237C89.0952 239.209 90.8861 241 93.0952 241Z" fill="#7FD3C5"/>
<path d="M106.619 241C108.828 241 110.619 239.209 110.619 237C110.619 234.791 108.828 233 106.619 233C104.41 233 102.619 234.791 102.619 237C102.619 239.209 104.41 241 106.619 241Z" fill="#7D7D7D" fill-opacity="0.8"/>
<path d="M120.143 241C122.352 241 124.143 239.209 124.143 237C124.143 234.791 122.352 233 120.143 233C117.934 233 116.143 234.791 116.143 237C116.143 239.209 117.934 241 120.143 241Z" fill="#7D7D7D" fill-opacity="0.8"/>
<path d="M133.667 241C135.876 241 137.667 239.209 137.667 237C137.667 234.791 135.876 233 133.667 233C131.458 233 129.667 234.791 129.667 237C129.667 239.209 131.458 241 133.667 241Z" fill="#7D7D7D" fill-opacity="0.8"/>
<path d="M147.19 241C149.4 241 151.19 239.209 151.19 237C151.19 234.791 149.4 233 147.19 233C144.981 233 143.19 234.791 143.19 237C143.19 239.209 144.981 241 147.19 241Z" fill="#7D7D7D" fill-opacity="0.8"/>
<path d="M160.714 241C162.923 241 164.714 239.209 164.714 237C164.714 234.791 162.923 233 160.714 233C158.505 233 156.714 234.791 156.714 237C156.714 239.209 158.505 241 160.714 241Z" fill="#7D7D7D" fill-opacity="0.8"/>
<path d="M174.238 241C176.447 241 178.238 239.209 178.238 237C178.238 234.791 176.447 233 174.238 233C172.029 233 170.238 234.791 170.238 237C170.238 239.209 172.029 241 174.238 241Z" fill="#7D7D7D" fill-opacity="0.8"/>
<path d="M187.762 241C189.971 241 191.762 239.209 191.762 237C191.762 234.791 189.971 233 187.762 233C185.553 233 183.762 234.791 183.762 237C183.762 239.209 185.553 241 187.762 241Z" fill="#7D7D7D" fill-opacity="0.8"/>
<path d="M201.286 241C203.495 241 205.286 239.209 205.286 237C205.286 234.791 203.495 233 201.286 233C199.077 233 197.286 234.791 197.286 237C197.286 239.209 199.077 241 201.286 241Z" fill="#7D7D7D" fill-opacity="0.8"/>
<path d="M214.81 241C217.019 241 218.81 239.209 218.81 237C218.81 234.791 217.019 233 214.81 233C212.6 233 210.81 234.791 210.81 237C210.81 239.209 212.6 241 214.81 241Z" fill="#7D7D7D" fill-opacity="0.8"/>
<path d="M228.333 241C230.542 241 232.333 239.209 232.333 237C232.333 234.791 230.542 233 228.333 233C226.124 233 224.333 234.791 224.333 237C224.333 239.209 226.124 241 228.333 241Z" fill="#7D7D7D" fill-opacity="0.8"/>
<path d="M241.857 241C244.066 241 245.857 239.209 245.857 237C245.857 234.791 244.066 233 241.857 233C239.648 233 237.857 234.791 237.857 237C237.857 239.209 239.648 241 241.857 241Z" fill="#7D7D7D" fill-opacity="0.8"/>
<path d="M255.381 241C257.59 241 259.381 239.209 259.381 237C259.381 234.791 257.59 233 255.381 233C253.172 233 251.381 234.791 251.381 237C251.381 239.209 253.172 241 255.381 241Z" fill="#7D7D7D" fill-opacity="0.8"/>
<path d="M268.905 241C271.114 241 272.905 239.209 272.905 237C272.905 234.791 271.114 233 268.905 233C266.696 233 264.905 234.791 264.905 237C264.905 239.209 266.696 241 268.905 241Z" fill="#7D7D7D" fill-opacity="0.8"/>
<path d="M282.429 241C284.638 241 286.429 239.209 286.429 237C286.429 234.791 284.638 233 282.429 233C280.219 233 278.429 234.791 278.429 237C278.429 239.209 280.219 241 282.429 241Z" fill="#7D7D7D" fill-opacity="0.8"/>
<path d="M295.952 241C298.161 241 299.952 239.209 299.952 237C299.952 234.791 298.161 233 295.952 233C293.743 233 291.952 234.791 291.952 237C291.952 239.209 293.743 241 295.952 241Z" fill="#7D7D7D" fill-opacity="0.8"/>
<path d="M309.476 241C311.685 241 313.476 239.209 313.476 237C313.476 234.791 311.685 233 309.476 233C307.267 233 305.476 234.791 305.476 237C305.476 239.209 307.267 241 309.476 241Z" fill="#7D7D7D" fill-opacity="0.8"/>
<path d="M323 241C325.209 241 327 239.209 327 237C327 234.791 325.209 233 323 233C320.791 233 319 234.791 319 237C319 239.209 320.791 241 323 241Z" fill="#7D7D7D" fill-opacity="0.8"/>
<path d="M39 255C41.2091 255 43 253.209 43 251C43 248.791 41.2091 247 39 247C36.7909 247 35 248.791 35 251C35 253.209 36.7909 255 39 255Z" fill="#7FD3C5"/>
<path d="M52.5238 255C54.7329 255 56.5238 253.209 56.5238 251C56.5238 248.791 54.7329 247 52.5238 247C50.3147 247 48.5238 248.791 48.5238 251C48.5238 253.209 50.3147 255 52.5238 255Z" fill="#7FD3C5"/>
<path d="M66.0476 255C68.2568 255 70.0476 253.209 70.0476 251C70.0476 248.791 68.2568 247 66.0476 247C63.8385 247 62.0476 248.791 62.0476 251C62.0476 253.209 63.8385 255 66.0476 255Z" fill="#7FD3C5"/>
<path d="M79.5714 255C81.7806 255 83.5714 253.209 83.5714 251C83.5714 248.791 81.7806 247 79.5714 247C77.3623 247 75.5714 248.791 75.5714 251C75.5714 253.209 77.3623 255 79.5714 255Z" fill="#7FD3C5"/>
<path d="M93.0952 255C95.3044 255 97.0952 253.209 97.0952 251C97.0952 248.791 95.3044 247 93.0952 247C90.8861 247 89.0952 248.791 89.0952 251C89.0952 253.209 90.8861 255 93.0952 255Z" fill="#7FD3C5"/>
<path d="M106.619 255C108.828 255 110.619 253.209 110.619 251C110.619 248.791 108.828 247 106.619 247C104.41 247 102.619 248.791 102.619 251C102.619 253.209 104.41 255 106.619 255Z" fill="#7D7D7D" fill-opacity="0.8"/>
<path d="M120.143 255C122.352 255 124.143 253.209 124.143 251C124.143 248.791 122.352 247 120.143 247C117.934 247 116.143 248.791 116.143 251C116.143 253.209 117.934 255 120.143 255Z" fill="#7D7D7D" fill-opacity="0.8"/>
<path d="M133.667 255C135.876 255 137.667 253.209 137.667 251C137.667 248.791 135.876 247 133.667 247C131.458 247 129.667 248.791 129.667 251C129.667 253.209 131.458 255 133.667 255Z" fill="#7D7D7D" fill-opacity="0.8"/>
<path d="M147.19 255C149.4 255 151.19 253.209 151.19 251C151.19 248.791 149.4 247 147.19 247C144.981 247 143.19 248.791 143.19 251C143.19 253.209 144.981 255 147.19 255Z" fill="#7D7D7D" fill-opacity="0.8"/>
<path d="M160.714 255C162.923 255 164.714 253.209 164.714 251C164.714 248.791 162.923 247 160.714 247C158.505 247 156.714 248.791 156.714 251C156.714 253.209 158.505 255 160.714 255Z" fill="#7D7D7D" fill-opacity="0.8"/>
<path d="M174.238 255C176.447 255 178.238 253.209 178.238 251C178.238 248.791 176.447 247 174.238 247C172.029 247 170.238 248.791 170.238 251C170.238 253.209 172.029 255 174.238 255Z" fill="#7D7D7D" fill-opacity="0.8"/>
<path d="M187.762 255C189.971 255 191.762 253.209 191.762 251C191.762 248.791 189.971 247 187.762 247C185.553 247 183.762 248.791 183.762 251C183.762 253.209 185.553 255 187.762 255Z" fill="#7D7D7D" fill-opacity="0.8"/>
<path d="M201.286 255C203.495 255 205.286 253.209 205.286 251C205.286 248.791 203.495 247 201.286 247C199.077 247 197.286 248.791 197.286 251C197.286 253.209 199.077 255 201.286 255Z" fill="#7D7D7D" fill-opacity="0.8"/>
<path d="M214.81 255C217.019 255 218.81 253.209 218.81 251C218.81 248.791 217.019 247 214.81 247C212.6 247 210.81 248.791 210.81 251C210.81 253.209 212.6 255 214.81 255Z" fill="#7D7D7D" fill-opacity="0.8"/>
<path d="M228.333 255C230.542 255 232.333 253.209 232.333 251C232.333 248.791 230.542 247 228.333 247C226.124 247 224.333 248.791 224.333 251C224.333 253.209 226.124 255 228.333 255Z" fill="#7D7D7D" fill-opacity="0.8"/>
<path d="M241.857 255C244.066 255 245.857 253.209 245.857 251C245.857 248.791 244.066 247 241.857 247C239.648 247 237.857 248.791 237.857 251C237.857 253.209 239.648 255 241.857 255Z" fill="#7D7D7D" fill-opacity="0.8"/>
<path d="M255.381 255C257.59 255 259.381 253.209 259.381 251C259.381 248.791 257.59 247 255.381 247C253.172 247 251.381 248.791 251.381 251C251.381 253.209 253.172 255 255.381 255Z" fill="#7D7D7D" fill-opacity="0.8"/>
<path d="M268.905 255C271.114 255 272.905 253.209 272.905 251C272.905 248.791 271.114 247 268.905 247C266.696 247 264.905 248.791 264.905 251C264.905 253.209 266.696 255 268.905 255Z" fill="#7D7D7D" fill-opacity="0.8"/>
<path d="M282.429 255C284.638 255 286.429 253.209 286.429 251C286.429 248.791 284.638 247 282.429 247C280.219 247 278.429 248.791 278.429 251C278.429 253.209 280.219 255 282.429 255Z" fill="#7D7D7D" fill-opacity="0.8"/>
<path d="M295.952 255C298.161 255 299.952 253.209 299.952 251C299.952 248.791 298.161 247 295.952 247C293.743 247 291.952 248.791 291.952 251C291.952 253.209 293.743 255 295.952 255Z" fill="#7D7D7D" fill-opacity="0.8"/>
<path d="M309.476 255C311.685 255 313.476 253.209 313.476 251C313.476 248.791 311.685 247 309.476 247C307.267 247 305.476 248.791 305.476 251C305.476 253.209 307.267 255 309.476 255Z" fill="#7D7D7D" fill-opacity="0.8"/>
<path d="M323 255C325.209 255 327 253.209 327 251C327 248.791 325.209 247 323 247C320.791 247 319 248.791 319 251C319 253.209 320.791 255 323 255Z" fill="#7D7D7D" fill-opacity="0.8"/>
<path d="M39 269C41.2091 269 43 267.209 43 265C43 262.791 41.2091 261 39 261C36.7909 261 35 262.791 35 265C35 267.209 36.7909 269 39 269Z" fill="#7FD3C5"/>
<path d="M52.5238 269C54.7329 269 56.5238 267.209 56.5238 265C56.5238 262.791 54.7329 261 52.5238 261C50.3147 261 48.5238 262.791 48.5238 265C48.5238 267.209 50.3147 269 52.5238 269Z" fill="#7FD3C5"/>
<path d="M66.0476 269C68.2568 269 70.0476 267.209 70.0476 265C70.0476 262.791 68.2568 261 66.0476 261C63.8385 261 62.0476 262.791 62.0476 265C62.0476 267.209 63.8385 269 66.0476 269Z" fill="#7FD3C5"/>
<path d="M79.5714 269C81.7806 269 83.5714 267.209 83.5714 265C83.5714 262.791 81.7806 261 79.5714 261C77.3623 261 75.5714 262.791 75.5714 265C75.5714 267.209 77.3623 269 79.5714 269Z" fill="#7FD3C5"/>
<path d="M93.0952 269C95.3044 269 97.0952 267.209 97.0952 265C97.0952 262.791 95.3044 261 93.0952 261C90.8861 261 89.0952 262.791 89.0952 265C89.0952 267.209 90.8861 269 93.0952 269Z" fill="#7FD3C5"/>
<path d="M106.619 269C108.828 269 110.619 267.209 110.619 265C110.619 262.791 108.828 261 106.619 261C104.41 261 102.619 262.791 102.619 265C102.619 267.209 104.41 269 106.619 269Z" fill="#7D7D7D" fill-opacity="0.8"/>
<path d="M120.143 269C122.352 269 124.143 267.209 124.143 265C124.143 262.791 122.352 261 120.143 261C117.934 261 116.143 262.791 116.143 265C116.143 267.209 117.934 269 120.143 269Z" fill="#7D7D7D" fill-opacity="0.8"/>
<path d="M133.667 269C135.876 269 137.667 267.209 137.667 265C137.667 262.791 135.876 261 133.667 261C131.458 261 129.667 262.791 129.667 265C129.667 267.209 131.458 269 133.667 269Z" fill="#7D7D7D" fill-opacity="0.8"/>
<path d="M147.19 269C149.4 269 151.19 267.209 151.19 265C151.19 262.791 149.4 261 147.19 261C144.981 261 143.19 262.791 143.19 265C143.19 267.209 144.981 269 147.19 269Z" fill="#7D7D7D" fill-opacity="0.8"/>
<path d="M160.714 269C162.923 269 164.714 267.209 164.714 265C164.714 262.791 162.923 261 160.714 261C158.505 261 156.714 262.791 156.714 265C156.714 267.209 158.505 269 160.714 269Z" fill="#7D7D7D" fill-opacity="0.8"/>
<path d="M174.238 269C176.447 269 178.238 267.209 178.238 265C178.238 262.791 176.447 261 174.238 261C172.029 261 170.238 262.791 170.238 265C170.238 267.209 172.029 269 174.238 269Z" fill="#7D7D7D" fill-opacity="0.8"/>
<path d="M187.762 269C189.971 269 191.762 267.209 191.762 265C191.762 262.791 189.971 261 187.762 261C185.553 261 183.762 262.791 183.762 265C183.762 267.209 185.553 269 187.762 269Z" fill="#7D7D7D" fill-opacity="0.8"/>
<path d="M201.286 269C203.495 269 205.286 267.209 205.286 265C205.286 262.791 203.495 261 201.286 261C199.077 261 197.286 262.791 197.286 265C197.286 267.209 199.077 269 201.286 269Z" fill="#7D7D7D" fill-opacity="0.8"/>
<path d="M214.81 269C217.019 269 218.81 267.209 218.81 265C218.81 262.791 217.019 261 214.81 261C212.6 261 210.81 262.791 210.81 265C210.81 267.209 212.6 269 214.81 269Z" fill="#7D7D7D" fill-opacity="0.8"/>
<path d="M228.333 269C230.542 269 232.333 267.209 232.333 265C232.333 262.791 230.542 261 228.333 261C226.124 261 224.333 262.791 224.333 265C224.333 267.209 226.124 269 228.333 269Z" fill="#7D7D7D" fill-opacity="0.8"/>
<path d="M241.857 269C244.066 269 245.857 267.209 245.857 265C245.857 262.791 244.066 261 241.857 261C239.648 261 237.857 262.791 237.857 265C237.857 267.209 239.648 269 241.857 269Z" fill="#7D7D7D" fill-opacity="0.8"/>
<path d="M255.381 269C257.59 269 259.381 267.209 259.381 265C259.381 262.791 257.59 261 255.381 261C253.172 261 251.381 262.791 251.381 265C251.381 267.209 253.172 269 255.381 269Z" fill="#7D7D7D" fill-opacity="0.8"/>
<path d="M268.905 269C271.114 269 272.905 267.209 272.905 265C272.905 262.791 271.114 261 268.905 261C266.696 261 264.905 262.791 264.905 265C264.905 267.209 266.696 269 268.905 269Z" fill="#7D7D7D" fill-opacity="0.8"/>
<path d="M282.429 269C284.638 269 286.429 267.209 286.429 265C286.429 262.791 284.638 261 282.429 261C280.219 261 278.429 262.791 278.429 265C278.429 267.209 280.219 269 282.429 269Z" fill="#7D7D7D" fill-opacity="0.8"/>
<path d="M295.952 269C298.161 269 299.952 267.209 299.952 265C299.952 262.791 298.161 261 295.952 261C293.743 261 291.952 262.791 291.952 265C291.952 267.209 293.743 269 295.952 269Z" fill="#7D7D7D" fill-opacity="0.8"/>
<path d="M309.476 269C311.685 269 313.476 267.209 313.476 265C313.476 262.791 311.685 261 309.476 261C307.267 261 305.476 262.791 305.476 265C305.476 267.209 307.267 269 309.476 269Z" fill="#7D7D7D" fill-opacity="0.8"/>
<path d="M323 269C325.209 269 327 267.209 327 265C327 262.791 325.209 261 323 261C320.791 261 319 262.791 319 265C319 267.209 320.791 269 323 269Z" fill="#7D7D7D" fill-opacity="0.8"/>
<path d="M39 283C41.2091 283 43 281.209 43 279C43 276.791 41.2091 275 39 275C36.7909 275 35 276.791 35 279C35 281.209 36.7909 283 39 283Z" fill="#7FD3C5"/>
<path d="M52.5238 283C54.7329 283 56.5238 281.209 56.5238 279C56.5238 276.791 54.7329 275 52.5238 275C50.3147 275 48.5238 276.791 48.5238 279C48.5238 281.209 50.3147 283 52.5238 283Z" fill="#7FD3C5"/>
<path d="M66.0476 283C68.2568 283 70.0476 281.209 70.0476 279C70.0476 276.791 68.2568 275 66.0476 275C63.8385 275 62.0476 276.791 62.0476 279C62.0476 281.209 63.8385 283 66.0476 283Z" fill="#7FD3C5"/>
<path d="M79.5714 283C81.7806 283 83.5714 281.209 83.5714 279C83.5714 276.791 81.7806 275 79.5714 275C77.3623 275 75.5714 276.791 75.5714 279C75.5714 281.209 77.3623 283 79.5714 283Z" fill="#7FD3C5"/>
<path d="M93.0952 283C95.3044 283 97.0952 281.209 97.0952 279C97.0952 276.791 95.3044 275 93.0952 275C90.8861 275 89.0952 276.791 89.0952 279C89.0952 281.209 90.8861 283 93.0952 283Z" fill="#7FD3C5"/>
<path d="M106.619 283C108.828 283 110.619 281.209 110.619 279C110.619 276.791 108.828 275 106.619 275C104.41 275 102.619 276.791 102.619 279C102.619 281.209 104.41 283 106.619 283Z" fill="#7D7D7D" fill-opacity="0.8"/>
<path d="M120.143 283C122.352 283 124.143 281.209 124.143 279C124.143 276.791 122.352 275 120.143 275C117.934 275 116.143 276.791 116.143 279C116.143 281.209 117.934 283 120.143 283Z" fill="#7D7D7D" fill-opacity="0.8"/>
<path d="M133.667 283C135.876 283 137.667 281.209 137.667 279C137.667 276.791 135.876 275 133.667 275C131.458 275 129.667 276.791 129.667 279C129.667 281.209 131.458 283 133.667 283Z" fill="#7D7D7D" fill-opacity="0.8"/>
<path d="M147.19 283C149.4 283 151.19 281.209 151.19 279C151.19 276.791 149.4 275 147.19 275C144.981 275 143.19 276.791 143.19 279C143.19 281.209 144.981 283 147.19 283Z" fill="#7D7D7D" fill-opacity="0.8"/>
<path d="M160.714 283C162.923 283 164.714 281.209 164.714 279C164.714 276.791 162.923 275 160.714 275C158.505 275 156.714 276.791 156.714 279C156.714 281.209 158.505 283 160.714 283Z" fill="#7D7D7D" fill-opacity="0.8"/>
<path d="M174.238 283C176.447 283 178.238 281.209 178.238 279C178.238 276.791 176.447 275 174.238 275C172.029 275 170.238 276.791 170.238 279C170.238 281.209 172.029 283 174.238 283Z" fill="#7D7D7D" fill-opacity="0.8"/>
<path d="M187.762 283C189.971 283 191.762 281.209 191.762 279C191.762 276.791 189.971 275 187.762 275C185.553 275 183.762 276.791 183.762 279C183.762 281.209 185.553 283 187.762 283Z" fill="#7D7D7D" fill-opacity="0.8"/>
<path d="M201.286 283C203.495 283 205.286 281.209 205.286 279C205.286 276.791 203.495 275 201.286 275C199.077 275 197.286 276.791 197.286 279C197.286 281.209 199.077 283 201.286 283Z" fill="#7D7D7D" fill-opacity="0.8"/>
<path d="M214.81 283C217.019 283 218.81 281.209 218.81 279C218.81 276.791 217.019 275 214.81 275C212.6 275 210.81 276.791 210.81 279C210.81 281.209 212.6 283 214.81 283Z" fill="#7D7D7D" fill-opacity="0.8"/>
<path d="M228.333 283C230.542 283 232.333 281.209 232.333 279C232.333 276.791 230.542 275 228.333 275C226.124 275 224.333 276.791 224.333 279C224.333 281.209 226.124 283 228.333 283Z" fill="#7D7D7D" fill-opacity="0.8"/>
<path d="M241.857 283C244.066 283 245.857 281.209 245.857 279C245.857 276.791 244.066 275 241.857 275C239.648 275 237.857 276.791 237.857 279C237.857 281.209 239.648 283 241.857 283Z" fill="#7D7D7D" fill-opacity="0.8"/>
<path d="M255.381 283C257.59 283 259.381 281.209 259.381 279C259.381 276.791 257.59 275 255.381 275C253.172 275 251.381 276.791 251.381 279C251.381 281.209 253.172 283 255.381 283Z" fill="#7D7D7D" fill-opacity="0.8"/>
<path d="M268.905 283C271.114 283 272.905 281.209 272.905 279C272.905 276.791 271.114 275 268.905 275C266.696 275 264.905 276.791 264.905 279C264.905 281.209 266.696 283 268.905 283Z" fill="#7D7D7D" fill-opacity="0.8"/>
<path d="M282.429 283C284.638 283 286.429 281.209 286.429 279C286.429 276.791 284.638 275 282.429 275C280.219 275 278.429 276.791 278.429 279C278.429 281.209 280.219 283 282.429 283Z" fill="#7D7D7D" fill-opacity="0.8"/>
<path d="M295.952 283C298.161 283 299.952 281.209 299.952 279C299.952 276.791 298.161 275 295.952 275C293.743 275 291.952 276.791 291.952 279C291.952 281.209 293.743 283 295.952 283Z" fill="#7D7D7D" fill-opacity="0.8"/>
<path d="M309.476 283C311.685 283 313.476 281.209 313.476 279C313.476 276.791 311.685 275 309.476 275C307.267 275 305.476 276.791 305.476 279C305.476 281.209 307.267 283 309.476 283Z" fill="#7D7D7D" fill-opacity="0.8"/>
<path d="M323 283C325.209 283 327 281.209 327 279C327 276.791 325.209 275 323 275C320.791 275 319 276.791 319 279C319 281.209 320.791 283 323 283Z" fill="#7D7D7D" fill-opacity="0.8"/>
<path d="M39 297C41.2091 297 43 295.209 43 293C43 290.791 41.2091 289 39 289C36.7909 289 35 290.791 35 293C35 295.209 36.7909 297 39 297Z" fill="#7FD3C5"/>
<path d="M52.5238 297C54.7329 297 56.5238 295.209 56.5238 293C56.5238 290.791 54.7329 289 52.5238 289C50.3147 289 48.5238 290.791 48.5238 293C48.5238 295.209 50.3147 297 52.5238 297Z" fill="#7FD3C5"/>
<path d="M66.0476 297C68.2568 297 70.0476 295.209 70.0476 293C70.0476 290.791 68.2568 289 66.0476 289C63.8385 289 62.0476 290.791 62.0476 293C62.0476 295.209 63.8385 297 66.0476 297Z" fill="#7FD3C5"/>
<path d="M79.5714 297C81.7806 297 83.5714 295.209 83.5714 293C83.5714 290.791 81.7806 289 79.5714 289C77.3623 289 75.5714 290.791 75.5714 293C75.5714 295.209 77.3623 297 79.5714 297Z" fill="#7FD3C5"/>
<path d="M93.0952 297C95.3044 297 97.0952 295.209 97.0952 293C97.0952 290.791 95.3044 289 93.0952 289C90.8861 289 89.0952 290.791 89.0952 293C89.0952 295.209 90.8861 297 93.0952 297Z" fill="#7FD3C5"/>
<path d="M106.619 297C108.828 297 110.619 295.209 110.619 293C110.619 290.791 108.828 289 106.619 289C104.41 289 102.619 290.791 102.619 293C102.619 295.209 104.41 297 106.619 297Z" fill="#7D7D7D" fill-opacity="0.8"/>
<path d="M120.143 297C122.352 297 124.143 295.209 124.143 293C124.143 290.791 122.352 289 120.143 289C117.934 289 116.143 290.791 116.143 293C116.143 295.209 117.934 297 120.143 297Z" fill="#7D7D7D" fill-opacity="0.8"/>
<path d="M133.667 297C135.876 297 137.667 295.209 137.667 293C137.667 290.791 135.876 289 133.667 289C131.458 289 129.667 290.791 129.667 293C129.667 295.209 131.458 297 133.667 297Z" fill="#7D7D7D" fill-opacity="0.8"/>
<path d="M147.19 297C149.4 297 151.19 295.209 151.19 293C151.19 290.791 149.4 289 147.19 289C144.981 289 143.19 290.791 143.19 293C143.19 295.209 144.981 297 147.19 297Z" fill="#7D7D7D" fill-opacity="0.8"/>
<path d="M160.714 297C162.923 297 164.714 295.209 164.714 293C164.714 290.791 162.923 289 160.714 289C158.505 289 156.714 290.791 156.714 293C156.714 295.209 158.505 297 160.714 297Z" fill="#7D7D7D" fill-opacity="0.8"/>
<path d="M174.238 297C176.447 297 178.238 295.209 178.238 293C178.238 290.791 176.447 289 174.238 289C172.029 289 170.238 290.791 170.238 293C170.238 295.209 172.029 297 174.238 297Z" fill="#7D7D7D" fill-opacity="0.8"/>
<path d="M187.762 297C189.971 297 191.762 295.209 191.762 293C191.762 290.791 189.971 289 187.762 289C185.553 289 183.762 290.791 183.762 293C183.762 295.209 185.553 297 187.762 297Z" fill="#7D7D7D" fill-opacity="0.8"/>
<path d="M201.286 297C203.495 297 205.286 295.209 205.286 293C205.286 290.791 203.495 289 201.286 289C199.077 289 197.286 290.791 197.286 293C197.286 295.209 199.077 297 201.286 297Z" fill="#7D7D7D" fill-opacity="0.8"/>
<path d="M214.81 297C217.019 297 218.81 295.209 218.81 293C218.81 290.791 217.019 289 214.81 289C212.6 289 210.81 290.791 210.81 293C210.81 295.209 212.6 297 214.81 297Z" fill="#7D7D7D" fill-opacity="0.8"/>
<path d="M228.333 297C230.542 297 232.333 295.209 232.333 293C232.333 290.791 230.542 289 228.333 289C226.124 289 224.333 290.791 224.333 293C224.333 295.209 226.124 297 228.333 297Z" fill="#7D7D7D" fill-opacity="0.8"/>
<path d="M241.857 297C244.066 297 245.857 295.209 245.857 293C245.857 290.791 244.066 289 241.857 289C239.648 289 237.857 290.791 237.857 293C237.857 295.209 239.648 297 241.857 297Z" fill="#7D7D7D" fill-opacity="0.8"/>
<path d="M255.381 297C257.59 297 259.381 295.209 259.381 293C259.381 290.791 257.59 289 255.381 289C253.172 289 251.381 290.791 251.381 293C251.381 295.209 253.172 297 255.381 297Z" fill="#7D7D7D" fill-opacity="0.8"/>
<path d="M268.905 297C271.114 297 272.905 295.209 272.905 293C272.905 290.791 271.114 289 268.905 289C266.696 289 264.905 290.791 264.905 293C264.905 295.209 266.696 297 268.905 297Z" fill="#7D7D7D" fill-opacity="0.8"/>
<path d="M282.429 297C284.638 297 286.429 295.209 286.429 293C286.429 290.791 284.638 289 282.429 289C280.219 289 278.429 290.791 278.429 293C278.429 295.209 280.219 297 282.429 297Z" fill="#7D7D7D" fill-opacity="0.8"/>
<path d="M295.952 297C298.161 297 299.952 295.209 299.952 293C299.952 290.791 298.161 289 295.952 289C293.743 289 291.952 290.791 291.952 293C291.952 295.209 293.743 297 295.952 297Z" fill="#7D7D7D" fill-opacity="0.8"/>
<path d="M309.476 297C311.685 297 313.476 295.209 313.476 293C313.476 290.791 311.685 289 309.476 289C307.267 289 305.476 290.791 305.476 293C305.476 295.209 307.267 297 309.476 297Z" fill="#7D7D7D" fill-opacity="0.8"/>
<path d="M323 297C325.209 297 327 295.209 327 293C327 290.791 325.209 289 323 289C320.791 289 319 290.791 319 293C319 295.209 320.791 297 323 297Z" fill="#7D7D7D" fill-opacity="0.8"/>
<path d="M39 311C41.2091 311 43 309.209 43 307C43 304.791 41.2091 303 39 303C36.7909 303 35 304.791 35 307C35 309.209 36.7909 311 39 311Z" fill="#7FD3C5"/>
<path d="M52.5238 311C54.7329 311 56.5238 309.209 56.5238 307C56.5238 304.791 54.7329 303 52.5238 303C50.3147 303 48.5238 304.791 48.5238 307C48.5238 309.209 50.3147 311 52.5238 311Z" fill="#7FD3C5"/>
<path d="M66.0476 311C68.2568 311 70.0476 309.209 70.0476 307C70.0476 304.791 68.2568 303 66.0476 303C63.8385 303 62.0476 304.791 62.0476 307C62.0476 309.209 63.8385 311 66.0476 311Z" fill="#7FD3C5"/>
<path d="M79.5714 311C81.7806 311 83.5714 309.209 83.5714 307C83.5714 304.791 81.7806 303 79.5714 303C77.3623 303 75.5714 304.791 75.5714 307C75.5714 309.209 77.3623 311 79.5714 311Z" fill="#7FD3C5"/>
<path d="M93.0952 311C95.3044 311 97.0952 309.209 97.0952 307C97.0952 304.791 95.3044 303 93.0952 303C90.8861 303 89.0952 304.791 89.0952 307C89.0952 309.209 90.8861 311 93.0952 311Z" fill="#7FD3C5"/>
<path d="M106.619 311C108.828 311 110.619 309.209 110.619 307C110.619 304.791 108.828 303 106.619 303C104.41 303 102.619 304.791 102.619 307C102.619 309.209 104.41 311 106.619 311Z" fill="#7D7D7D" fill-opacity="0.8"/>
<path d="M120.143 311C122.352 311 124.143 309.209 124.143 307C124.143 304.791 122.352 303 120.143 303C117.934 303 116.143 304.791 116.143 307C116.143 309.209 117.934 311 120.143 311Z" fill="#7D7D7D" fill-opacity="0.8"/>
<path d="M133.667 311C135.876 311 137.667 309.209 137.667 307C137.667 304.791 135.876 303 133.667 303C131.458 303 129.667 304.791 129.667 307C129.667 309.209 131.458 311 133.667 311Z" fill="#7D7D7D" fill-opacity="0.8"/>
<path d="M147.19 311C149.4 311 151.19 309.209 151.19 307C151.19 304.791 149.4 303 147.19 303C144.981 303 143.19 304.791 143.19 307C143.19 309.209 144.981 311 147.19 311Z" fill="#7D7D7D" fill-opacity="0.8"/>
<path d="M160.714 311C162.923 311 164.714 309.209 164.714 307C164.714 304.791 162.923 303 160.714 303C158.505 303 156.714 304.791 156.714 307C156.714 309.209 158.505 311 160.714 311Z" fill="#7D7D7D" fill-opacity="0.8"/>
<path d="M174.238 311C176.447 311 178.238 309.209 178.238 307C178.238 304.791 176.447 303 174.238 303C172.029 303 170.238 304.791 170.238 307C170.238 309.209 172.029 311 174.238 311Z" fill="#7D7D7D" fill-opacity="0.8"/>
<path d="M187.762 311C189.971 311 191.762 309.209 191.762 307C191.762 304.791 189.971 303 187.762 303C185.553 303 183.762 304.791 183.762 307C183.762 309.209 185.553 311 187.762 311Z" fill="#7D7D7D" fill-opacity="0.8"/>
<path d="M201.286 311C203.495 311 205.286 309.209 205.286 307C205.286 304.791 203.495 303 201.286 303C199.077 303 197.286 304.791 197.286 307C197.286 309.209 199.077 311 201.286 311Z" fill="#7D7D7D" fill-opacity="0.8"/>
<path d="M214.81 311C217.019 311 218.81 309.209 218.81 307C218.81 304.791 217.019 303 214.81 303C212.6 303 210.81 304.791 210.81 307C210.81 309.209 212.6 311 214.81 311Z" fill="#7D7D7D" fill-opacity="0.8"/>
<path d="M228.333 311C230.542 311 232.333 309.209 232.333 307C232.333 304.791 230.542 303 228.333 303C226.124 303 224.333 304.791 224.333 307C224.333 309.209 226.124 311 228.333 311Z" fill="#7D7D7D" fill-opacity="0.8"/>
<path d="M241.857 311C244.066 311 245.857 309.209 245.857 307C245.857 304.791 244.066 303 241.857 303C239.648 303 237.857 304.791 237.857 307C237.857 309.209 239.648 311 241.857 311Z" fill="#7D7D7D" fill-opacity="0.8"/>
<path d="M255.381 311C257.59 311 259.381 309.209 259.381 307C259.381 304.791 257.59 303 255.381 303C253.172 303 251.381 304.791 251.381 307C251.381 309.209 253.172 311 255.381 311Z" fill="#7D7D7D" fill-opacity="0.8"/>
<path d="M268.905 311C271.114 311 272.905 309.209 272.905 307C272.905 304.791 271.114 303 268.905 303C266.696 303 264.905 304.791 264.905 307C264.905 309.209 266.696 311 268.905 311Z" fill="#7D7D7D" fill-opacity="0.8"/>
<path d="M282.429 311C284.638 311 286.429 309.209 286.429 307C286.429 304.791 284.638 303 282.429 303C280.219 303 278.429 304.791 278.429 307C278.429 309.209 280.219 311 282.429 311Z" fill="#7D7D7D" fill-opacity="0.8"/>
<path d="M295.952 311C298.161 311 299.952 309.209 299.952 307C299.952 304.791 298.161 303 295.952 303C293.743 303 291.952 304.791 291.952 307C291.952 309.209 293.743 311 295.952 311Z" fill="#7D7D7D" fill-opacity="0.8"/>
<path d="M309.476 311C311.685 311 313.476 309.209 313.476 307C313.476 304.791 311.685 303 309.476 303C307.267 303 305.476 304.791 305.476 307C305.476 309.209 307.267 311 309.476 311Z" fill="#7D7D7D" fill-opacity="0.8"/>
<path d="M323 311C325.209 311 327 309.209 327 307C327 304.791 325.209 303 323 303C320.791 303 319 304.791 319 307C319 309.209 320.791 311 323 311Z" fill="#7D7D7D" fill-opacity="0.8"/>
</g>
<rect x="11.5" y="11.5" width="339" height="339" rx="4.5" stroke="url(#paint1_radial_2691_6477)" shape-rendering="crispEdges"/>
</g>
<defs>
<filter id="filter0_d_2691_6477" x="0" y="0" width="362" height="362" filterUnits="userSpaceOnUse" color-interpolation-filters="sRGB">
<feFlood flood-opacity="0" result="BackgroundImageFix"/>
<feColorMatrix in="SourceAlpha" type="matrix" values="0 0 0 0 0 0 0 0 0 0 0 0 0 0 0 0 0 0 127 0" result="hardAlpha"/>
<feMorphology radius="1" operator="dilate" in="SourceAlpha" result="effect1_dropShadow_2691_6477"/>
<feOffset/>
<feGaussianBlur stdDeviation="5"/>
<feComposite in2="hardAlpha" operator="out"/>
<feColorMatrix type="matrix" values="0 0 0 0 0.0117647 0 0 0 0 0.141176 0 0 0 0 0.196078 0 0 0 1 0"/>
<feBlend mode="normal" in2="BackgroundImageFix" result="effect1_dropShadow_2691_6477"/>
<feBlend mode="normal" in="SourceGraphic" in2="effect1_dropShadow_2691_6477" result="shape"/>
</filter>
<radialGradient id="paint0_radial_2691_6477" cx="0" cy="0" r="1" gradientUnits="userSpaceOnUse" gradientTransform="translate(106.5 58) rotate(66.584) scale(345.995 457.683)">
<stop offset="0.0885417" stop-color="#00419C"/>
<stop offset="1"/>
</radialGradient>
<radialGradient id="paint1_radial_2691_6477" cx="0" cy="0" r="1" gradientUnits="userSpaceOnUse" gradientTransform="translate(328 41) rotate(115.37) scale(343.087)">
<stop stop-color="#1F3E78"/>
<stop offset="0.244792" stop-color="#142B56"/>
<stop offset="0.635417" stop-color="#162E5B"/>
<stop offset="1" stop-color="#06193E"/>
</radialGradient>
<clipPath id="clip0_2691_6477">
<rect width="292" height="134" fill="white" transform="translate(35 177)"/>
</clipPath>
</defs>
</svg>
