<svg width="348" height="322" viewBox="0 0 348 322" fill="none" xmlns="http://www.w3.org/2000/svg">
<g filter="url(#filter0_d_2824_123436)">
<rect x="11" y="11" width="326" height="300" rx="5" fill="url(#paint0_radial_2824_123436)" shape-rendering="crispEdges"/>
<path d="M28.12 49.464C28.12 46.872 30.136 44.888 32.696 43.992C30.328 43.192 28.472 41.624 28.472 38.968C28.472 34.968 32.728 33.336 36.696 33.336C40.632 33.336 44.92 34.968 44.92 38.968C44.92 41.624 43.032 43.192 40.664 43.992C43.224 44.888 45.272 46.872 45.272 49.464C45.272 53.432 41.176 55.384 36.696 55.384C32.216 55.384 28.12 53.464 28.12 49.464ZM40.28 39.672C40.28 38.168 38.776 37.24 36.696 37.24C34.584 37.24 33.08 38.168 33.08 39.672C33.08 41.336 35.384 42.072 36.696 42.264C38.008 42.072 40.28 41.336 40.28 39.672ZM40.664 48.92C40.664 47.064 38.008 46.168 36.696 46.008C35.352 46.168 32.728 47.064 32.728 48.92C32.728 50.488 34.456 51.48 36.696 51.48C38.872 51.48 40.664 50.488 40.664 48.92ZM57.4463 55H52.8703V39.512L49.3503 43.128L46.7583 40.408L53.4783 33.656H57.4463V55ZM60.3945 38.712C60.3945 35.704 62.5385 33.336 65.8025 33.336C69.0985 33.336 71.2425 35.704 71.2425 38.712C71.2425 41.688 69.0985 43.96 65.8025 43.96C62.5385 43.96 60.3945 41.688 60.3945 38.712ZM66.1225 55H63.7225L77.3545 33.656H79.7865L66.1225 55ZM68.3305 38.712C68.3305 36.92 67.2745 35.864 65.8025 35.864C64.3625 35.864 63.2745 36.92 63.2745 38.712C63.2745 40.376 64.3625 41.464 65.8025 41.464C67.2745 41.464 68.3305 40.376 68.3305 38.712ZM72.1385 50.104C72.1385 47.096 74.2825 44.728 77.5465 44.728C80.8105 44.728 82.9865 47.096 82.9865 50.104C82.9865 53.08 80.8105 55.384 77.5465 55.384C74.2825 55.384 72.1385 53.08 72.1385 50.104ZM80.1065 50.104C80.1065 48.344 79.0185 47.256 77.5465 47.256C76.0745 47.256 75.0185 48.344 75.0185 50.104C75.0185 51.832 76.0745 52.888 77.5465 52.888C79.0185 52.888 80.1065 51.832 80.1065 50.104Z" fill="white"/>
<path d="M93.148 55.216C90.502 55.216 88.846 53.164 88.846 50.644C88.846 48.124 90.502 46.09 93.148 46.09C95.794 46.09 97.45 48.124 97.45 50.644C97.45 53.164 95.794 55.216 93.148 55.216ZM93.148 54.01C95.002 54.01 96.028 52.426 96.028 50.644C96.028 48.88 95.002 47.296 93.148 47.296C91.294 47.296 90.25 48.88 90.25 50.644C90.25 52.426 91.294 54.01 93.148 54.01ZM103.143 47.494H101.379V55H100.029V47.494H98.5888V46.306H100.029V45.64C100.029 43.84 101.037 42.814 102.549 42.814C103.053 42.814 103.521 42.904 103.863 43.12L103.521 44.128C103.305 44.002 103.053 43.93 102.747 43.93C101.865 43.93 101.379 44.542 101.379 45.64V46.306H103.143V47.494ZM108.633 53.848L109.335 52.876C109.911 53.542 111.009 54.118 112.197 54.118C113.529 54.118 114.249 53.524 114.249 52.678C114.249 51.724 113.187 51.418 112.017 51.13C110.541 50.788 108.867 50.392 108.867 48.592C108.867 47.242 110.037 46.09 112.107 46.09C113.583 46.09 114.627 46.648 115.329 47.35L114.699 48.286C114.177 47.656 113.223 47.188 112.107 47.188C110.919 47.188 110.181 47.728 110.181 48.502C110.181 49.348 111.171 49.618 112.305 49.888C113.817 50.23 115.563 50.662 115.563 52.588C115.563 54.046 114.393 55.216 112.143 55.216C110.721 55.216 109.515 54.784 108.633 53.848ZM124.974 55H123.624V53.776C122.958 54.532 121.824 55.216 120.528 55.216C118.71 55.216 117.756 54.334 117.756 52.444V46.306H119.106V52.03C119.106 53.56 119.88 54.01 121.05 54.01C122.112 54.01 123.12 53.398 123.624 52.696V46.306H124.974V55ZM129.02 55H127.67V46.306H129.02V47.71C129.722 46.792 130.73 46.126 131.918 46.126V47.512C131.756 47.476 131.594 47.458 131.378 47.458C130.55 47.458 129.416 48.142 129.02 48.844V55ZM137.41 55H135.934L132.316 46.306H133.774L136.672 53.434L139.552 46.306H141.028L137.41 55ZM141.932 50.644C141.932 48.124 143.732 46.09 146.216 46.09C148.844 46.09 150.392 48.142 150.392 50.752V51.094H143.354C143.462 52.732 144.614 54.1 146.486 54.1C147.476 54.1 148.484 53.704 149.168 53.002L149.816 53.884C148.952 54.748 147.782 55.216 146.36 55.216C143.786 55.216 141.932 53.362 141.932 50.644ZM146.198 47.206C144.344 47.206 143.426 48.772 143.354 50.104H149.06C149.042 48.808 148.178 47.206 146.198 47.206ZM152.093 58.402L152.309 57.178C152.507 57.268 152.831 57.322 153.047 57.322C153.641 57.322 154.037 57.124 154.343 56.404L154.919 55.09L151.283 46.306H152.741L155.639 53.434L158.519 46.306H159.995L155.639 56.764C155.117 58.024 154.235 58.51 153.083 58.528C152.795 58.528 152.345 58.474 152.093 58.402ZM160.899 50.644C160.899 48.124 162.699 46.09 165.183 46.09C167.811 46.09 169.359 48.142 169.359 50.752V51.094H162.321C162.429 52.732 163.581 54.1 165.453 54.1C166.443 54.1 167.451 53.704 168.135 53.002L168.783 53.884C167.919 54.748 166.749 55.216 165.327 55.216C162.753 55.216 160.899 53.362 160.899 50.644ZM165.165 47.206C163.311 47.206 162.393 48.772 162.321 50.104H168.027C168.009 48.808 167.145 47.206 165.165 47.206ZM179.195 55H177.845V53.704C177.197 54.586 176.135 55.216 174.911 55.216C172.643 55.216 171.041 53.488 171.041 50.662C171.041 47.89 172.625 46.09 174.911 46.09C176.081 46.09 177.143 46.666 177.845 47.62V42.994H179.195V55ZM177.845 52.642V48.7C177.359 47.944 176.315 47.296 175.235 47.296C173.489 47.296 172.445 48.736 172.445 50.662C172.445 52.588 173.489 54.01 175.235 54.01C176.315 54.01 177.359 53.398 177.845 52.642ZM186.035 50.644C186.035 48.07 187.781 46.09 190.373 46.09C191.957 46.09 192.893 46.738 193.559 47.602L192.659 48.43C192.083 47.638 191.345 47.296 190.445 47.296C188.591 47.296 187.439 48.718 187.439 50.644C187.439 52.57 188.591 54.01 190.445 54.01C191.345 54.01 192.083 53.65 192.659 52.876L193.559 53.704C192.893 54.568 191.957 55.216 190.373 55.216C187.781 55.216 186.035 53.236 186.035 50.644ZM196.118 44.848C195.632 44.848 195.218 44.434 195.218 43.93C195.218 43.426 195.632 43.03 196.118 43.03C196.622 43.03 197.036 43.426 197.036 43.93C197.036 44.434 196.622 44.848 196.118 44.848ZM196.802 55H195.452V46.306H196.802V55ZM201.691 55.216C200.413 55.216 199.765 54.478 199.765 53.182V47.494H198.325V46.306H199.765V43.93H201.115V46.306H202.879V47.494H201.115V52.894C201.115 53.542 201.403 54.01 201.997 54.01C202.375 54.01 202.735 53.848 202.915 53.65L203.311 54.658C202.969 54.982 202.483 55.216 201.691 55.216ZM205.452 44.848C204.966 44.848 204.552 44.434 204.552 43.93C204.552 43.426 204.966 43.03 205.452 43.03C205.956 43.03 206.37 43.426 206.37 43.93C206.37 44.434 205.956 44.848 205.452 44.848ZM206.136 55H204.786V46.306H206.136V55ZM208.325 50.644C208.325 48.124 210.125 46.09 212.609 46.09C215.237 46.09 216.785 48.142 216.785 50.752V51.094H209.747C209.855 52.732 211.007 54.1 212.879 54.1C213.869 54.1 214.877 53.704 215.561 53.002L216.209 53.884C215.345 54.748 214.175 55.216 212.753 55.216C210.179 55.216 208.325 53.362 208.325 50.644ZM212.591 47.206C210.737 47.206 209.819 48.772 209.747 50.104H215.453C215.435 48.808 214.571 47.206 212.591 47.206ZM218.215 53.848L218.917 52.876C219.493 53.542 220.591 54.118 221.779 54.118C223.111 54.118 223.831 53.524 223.831 52.678C223.831 51.724 222.769 51.418 221.599 51.13C220.123 50.788 218.449 50.392 218.449 48.592C218.449 47.242 219.619 46.09 221.689 46.09C223.165 46.09 224.209 46.648 224.911 47.35L224.281 48.286C223.759 47.656 222.805 47.188 221.689 47.188C220.501 47.188 219.763 47.728 219.763 48.502C219.763 49.348 220.753 49.618 221.887 49.888C223.399 50.23 225.145 50.662 225.145 52.588C225.145 54.046 223.975 55.216 221.725 55.216C220.303 55.216 219.097 54.784 218.215 53.848Z" fill="white"/>
<path d="M38.36 79H36.86L34.34 71.24L31.82 79H30.32L27.24 69.34H28.8L31.16 77.04L33.7 69.34H34.98L37.52 77.04L39.88 69.34H41.44L38.36 79ZM50.7275 79H49.2275V77.9C48.4275 78.78 47.3275 79.24 46.0275 79.24C44.3875 79.24 42.6475 78.14 42.6475 76.04C42.6475 73.88 44.3875 72.86 46.0275 72.86C47.3475 72.86 48.4475 73.28 49.2275 74.18V72.44C49.2275 71.14 48.1875 70.4 46.7875 70.4C45.6275 70.4 44.6875 70.82 43.8275 71.74L43.1275 70.7C44.1675 69.62 45.4075 69.1 46.9875 69.1C49.0275 69.1 50.7275 70.02 50.7275 72.36V79ZM49.2275 76.96V75.14C48.6475 74.34 47.6275 73.94 46.5675 73.94C45.1675 73.94 44.1875 74.82 44.1875 76.06C44.1875 77.28 45.1675 78.16 46.5675 78.16C47.6275 78.16 48.6475 77.76 49.2275 76.96ZM61.7544 79H60.2544V72.68C60.2544 70.98 59.3944 70.44 58.0944 70.44C56.9144 70.44 55.7944 71.16 55.2344 71.94V79H53.7344V69.34H55.2344V70.74C55.9144 69.94 57.2344 69.1 58.6744 69.1C60.6944 69.1 61.7544 70.12 61.7544 72.22V79ZM67.19 79.24C65.77 79.24 65.05 78.42 65.05 76.98V70.66H63.45V69.34H65.05V66.7H66.55V69.34H68.51V70.66H66.55V76.66C66.55 77.38 66.87 77.9 67.53 77.9C67.95 77.9 68.35 77.72 68.55 77.5L68.99 78.62C68.61 78.98 68.07 79.24 67.19 79.24ZM78.2252 79.24C76.8052 79.24 76.0852 78.42 76.0852 76.98V70.66H74.4852V69.34H76.0852V66.7H77.5852V69.34H79.5452V70.66H77.5852V76.66C77.5852 77.38 77.9052 77.9 78.5652 77.9C78.9852 77.9 79.3852 77.72 79.5852 77.5L80.0252 78.62C79.6452 78.98 79.1052 79.24 78.2252 79.24ZM85.8841 79.24C82.9441 79.24 81.1041 76.96 81.1041 74.16C81.1041 71.36 82.9441 69.1 85.8841 69.1C88.8241 69.1 90.6641 71.36 90.6641 74.16C90.6641 76.96 88.8241 79.24 85.8841 79.24ZM85.8841 77.9C87.9441 77.9 89.0841 76.14 89.0841 74.16C89.0841 72.2 87.9441 70.44 85.8841 70.44C83.8241 70.44 82.6641 72.2 82.6641 74.16C82.6641 76.14 83.8241 77.9 85.8841 77.9ZM106.286 79H104.786V77.64C104.046 78.48 102.786 79.24 101.346 79.24C99.3256 79.24 98.2656 78.26 98.2656 76.16V69.34H99.7656V75.7C99.7656 77.4 100.626 77.9 101.926 77.9C103.106 77.9 104.226 77.22 104.786 76.44V69.34H106.286V79ZM108.441 77.72L109.221 76.64C109.861 77.38 111.081 78.02 112.401 78.02C113.881 78.02 114.681 77.36 114.681 76.42C114.681 75.36 113.501 75.02 112.201 74.7C110.561 74.32 108.701 73.88 108.701 71.88C108.701 70.38 110.001 69.1 112.301 69.1C113.941 69.1 115.101 69.72 115.881 70.5L115.181 71.54C114.601 70.84 113.541 70.32 112.301 70.32C110.981 70.32 110.161 70.92 110.161 71.78C110.161 72.72 111.261 73.02 112.521 73.32C114.201 73.7 116.141 74.18 116.141 76.32C116.141 77.94 114.841 79.24 112.341 79.24C110.761 79.24 109.421 78.76 108.441 77.72ZM118.018 74.16C118.018 71.36 120.018 69.1 122.778 69.1C125.698 69.1 127.418 71.38 127.418 74.28V74.66H119.598C119.718 76.48 120.998 78 123.078 78C124.178 78 125.298 77.56 126.058 76.78L126.778 77.76C125.818 78.72 124.518 79.24 122.938 79.24C120.078 79.24 118.018 77.18 118.018 74.16ZM122.758 70.34C120.698 70.34 119.678 72.08 119.598 73.56H125.938C125.918 72.12 124.958 70.34 122.758 70.34ZM134.984 81.48L135.744 80.36C136.544 81.32 137.504 81.68 138.884 81.68C140.484 81.68 141.984 80.9 141.984 78.78V77.4C141.284 78.38 140.104 79.12 138.744 79.12C136.224 79.12 134.444 77.24 134.444 74.12C134.444 71.02 136.204 69.1 138.744 69.1C140.044 69.1 141.204 69.74 141.984 70.8V69.34H143.484V78.72C143.484 81.92 141.244 82.92 138.884 82.92C137.244 82.92 136.124 82.6 134.984 81.48ZM141.984 76.22V72C141.464 71.16 140.304 70.44 139.104 70.44C137.164 70.44 136.004 71.98 136.004 74.12C136.004 76.24 137.164 77.8 139.104 77.8C140.304 77.8 141.464 77.06 141.984 76.22ZM145.928 74.16C145.928 71.36 147.928 69.1 150.688 69.1C153.608 69.1 155.328 71.38 155.328 74.28V74.66H147.508C147.628 76.48 148.908 78 150.988 78C152.088 78 153.208 77.56 153.968 76.78L154.688 77.76C153.728 78.72 152.428 79.24 150.848 79.24C147.988 79.24 145.928 77.18 145.928 74.16ZM150.668 70.34C148.608 70.34 147.588 72.08 147.508 73.56H153.848C153.828 72.12 152.868 70.34 150.668 70.34ZM165.778 79H164.278V72.68C164.278 70.98 163.418 70.44 162.118 70.44C160.938 70.44 159.818 71.16 159.258 71.94V79H157.758V69.34H159.258V70.74C159.938 69.94 161.258 69.1 162.698 69.1C164.718 69.1 165.778 70.12 165.778 72.22V79ZM168.213 74.16C168.213 71.36 170.213 69.1 172.973 69.1C175.893 69.1 177.613 71.38 177.613 74.28V74.66H169.793C169.913 76.48 171.193 78 173.273 78C174.373 78 175.493 77.56 176.253 76.78L176.973 77.76C176.013 78.72 174.713 79.24 173.133 79.24C170.273 79.24 168.213 77.18 168.213 74.16ZM172.953 70.34C170.893 70.34 169.873 72.08 169.793 73.56H176.133C176.113 72.12 175.153 70.34 172.953 70.34ZM181.543 79H180.043V69.34H181.543V70.9C182.323 69.88 183.443 69.14 184.763 69.14V70.68C184.583 70.64 184.403 70.62 184.163 70.62C183.243 70.62 181.983 71.38 181.543 72.16V79ZM194.185 79H192.685V77.9C191.885 78.78 190.785 79.24 189.485 79.24C187.845 79.24 186.105 78.14 186.105 76.04C186.105 73.88 187.845 72.86 189.485 72.86C190.805 72.86 191.905 73.28 192.685 74.18V72.44C192.685 71.14 191.645 70.4 190.245 70.4C189.085 70.4 188.145 70.82 187.285 71.74L186.585 70.7C187.625 69.62 188.865 69.1 190.445 69.1C192.485 69.1 194.185 70.02 194.185 72.36V79ZM192.685 76.96V75.14C192.105 74.34 191.085 73.94 190.025 73.94C188.625 73.94 187.645 74.82 187.645 76.06C187.645 77.28 188.625 78.16 190.025 78.16C191.085 78.16 192.105 77.76 192.685 76.96ZM199.631 79.24C198.211 79.24 197.491 78.42 197.491 76.98V70.66H195.891V69.34H197.491V66.7H198.991V69.34H200.951V70.66H198.991V76.66C198.991 77.38 199.311 77.9 199.971 77.9C200.391 77.9 200.791 77.72 200.991 77.5L201.431 78.62C201.051 78.98 200.511 79.24 199.631 79.24ZM203.81 67.72C203.27 67.72 202.81 67.26 202.81 66.7C202.81 66.14 203.27 65.7 203.81 65.7C204.37 65.7 204.83 66.14 204.83 66.7C204.83 67.26 204.37 67.72 203.81 67.72ZM204.57 79H203.07V69.34H204.57V79ZM211.783 79H210.143L206.123 69.34H207.743L210.963 77.26L214.163 69.34H215.803L211.783 79ZM216.807 74.16C216.807 71.36 218.807 69.1 221.567 69.1C224.487 69.1 226.207 71.38 226.207 74.28V74.66H218.387C218.507 76.48 219.787 78 221.867 78C222.967 78 224.087 77.56 224.847 76.78L225.567 77.76C224.607 78.72 223.307 79.24 221.727 79.24C218.867 79.24 216.807 77.18 216.807 74.16ZM221.547 70.34C219.487 70.34 218.467 72.08 218.387 73.56H224.727C224.707 72.12 223.747 70.34 221.547 70.34ZM245.273 79H243.433L242.253 76.04H235.493L234.313 79H232.473L237.833 65.66H239.893L245.273 79ZM241.753 74.56L238.873 67.14L235.973 74.56H241.753ZM248.677 79H247.017V65.66H248.677V79ZM259.338 79.24C257.918 79.24 257.198 78.42 257.198 76.98V70.66H255.598V69.34H257.198V66.7H258.698V69.34H260.658V70.66H258.698V76.66C258.698 77.38 259.018 77.9 259.678 77.9C260.098 77.9 260.498 77.72 260.698 77.5L261.138 78.62C260.758 78.98 260.218 79.24 259.338 79.24ZM266.997 79.24C264.057 79.24 262.217 76.96 262.217 74.16C262.217 71.36 264.057 69.1 266.997 69.1C269.937 69.1 271.777 71.36 271.777 74.16C271.777 76.96 269.937 79.24 266.997 79.24ZM266.997 77.9C269.057 77.9 270.197 76.14 270.197 74.16C270.197 72.2 269.057 70.44 266.997 70.44C264.937 70.44 263.777 72.2 263.777 74.16C263.777 76.14 264.937 77.9 266.997 77.9ZM32.72 103.24C29.78 103.24 27.94 100.96 27.94 98.16C27.94 95.36 29.78 93.1 32.72 93.1C35.66 93.1 37.5 95.36 37.5 98.16C37.5 100.96 35.66 103.24 32.72 103.24ZM32.72 101.9C34.78 101.9 35.92 100.14 35.92 98.16C35.92 96.2 34.78 94.44 32.72 94.44C30.66 94.44 29.5 96.2 29.5 98.16C29.5 100.14 30.66 101.9 32.72 101.9ZM41.4453 101.54V106.68H39.9453V93.34H41.4453V94.78C42.1453 93.8 43.3453 93.1 44.7053 93.1C47.2453 93.1 49.0053 95.02 49.0053 98.16C49.0053 101.28 47.2453 103.24 44.7053 103.24C43.3853 103.24 42.2253 102.62 41.4453 101.54ZM47.4253 98.16C47.4253 96.02 46.2653 94.44 44.3253 94.44C43.1453 94.44 41.9653 95.14 41.4453 95.98V100.34C41.9653 101.18 43.1453 101.9 44.3253 101.9C46.2653 101.9 47.4253 100.3 47.4253 98.16ZM53.8697 103.24C52.4497 103.24 51.7297 102.42 51.7297 100.98V94.66H50.1297V93.34H51.7297V90.7H53.2297V93.34H55.1897V94.66H53.2297V100.66C53.2297 101.38 53.5497 101.9 54.2097 101.9C54.6297 101.9 55.0297 101.72 55.2297 101.5L55.6697 102.62C55.2897 102.98 54.7497 103.24 53.8697 103.24ZM58.0486 91.72C57.5086 91.72 57.0486 91.26 57.0486 90.7C57.0486 90.14 57.5086 89.7 58.0486 89.7C58.6086 89.7 59.0686 90.14 59.0686 90.7C59.0686 91.26 58.6086 91.72 58.0486 91.72ZM58.8086 103H57.3086V93.34H58.8086V103ZM74.9608 103H73.4608V96.44C73.4608 95.22 72.9208 94.44 71.6808 94.44C70.6808 94.44 69.6208 95.16 69.1208 95.92V103H67.6208V96.44C67.6208 95.22 67.1008 94.44 65.8408 94.44C64.8608 94.44 63.8208 95.16 63.3008 95.94V103H61.8008V93.34H63.3008V94.74C63.7008 94.12 65.0008 93.1 66.4208 93.1C67.9008 93.1 68.7408 93.9 69.0208 94.9C69.5608 94.02 70.8608 93.1 72.2608 93.1C74.0208 93.1 74.9608 94.08 74.9608 96.02V103ZM78.6931 91.72C78.1531 91.72 77.6931 91.26 77.6931 90.7C77.6931 90.14 78.1531 89.7 78.6931 89.7C79.2531 89.7 79.7131 90.14 79.7131 90.7C79.7131 91.26 79.2531 91.72 78.6931 91.72ZM79.4531 103H77.9531V93.34H79.4531V103ZM89.3453 103H81.9853V101.84L87.3053 94.66H81.9853V93.34H89.2653V94.48L83.9053 101.7H89.3453V103ZM91.3189 98.16C91.3189 95.36 93.3189 93.1 96.0789 93.1C98.9989 93.1 100.719 95.38 100.719 98.28V98.66H92.8989C93.0189 100.48 94.2989 102 96.3789 102C97.4789 102 98.5989 101.56 99.3589 100.78L100.079 101.76C99.1189 102.72 97.8189 103.24 96.2389 103.24C93.3789 103.24 91.3189 101.18 91.3189 98.16ZM96.0589 94.34C93.9989 94.34 92.9789 96.08 92.8989 97.56H99.2389C99.2189 96.12 98.2589 94.34 96.0589 94.34ZM107.745 98.16C107.745 95.3 109.685 93.1 112.565 93.1C114.325 93.1 115.365 93.82 116.105 94.78L115.105 95.7C114.465 94.82 113.645 94.44 112.645 94.44C110.585 94.44 109.305 96.02 109.305 98.16C109.305 100.3 110.585 101.9 112.645 101.9C113.645 101.9 114.465 101.5 115.105 100.64L116.105 101.56C115.365 102.52 114.325 103.24 112.565 103.24C109.685 103.24 107.745 101.04 107.745 98.16ZM118.947 91.72C118.407 91.72 117.947 91.26 117.947 90.7C117.947 90.14 118.407 89.7 118.947 89.7C119.507 89.7 119.967 90.14 119.967 90.7C119.967 91.26 119.507 91.72 118.947 91.72ZM119.707 103H118.207V93.34H119.707V103ZM125.139 103.24C123.719 103.24 122.999 102.42 122.999 100.98V94.66H121.399V93.34H122.999V90.7H124.499V93.34H126.459V94.66H124.499V100.66C124.499 101.38 124.819 101.9 125.479 101.9C125.899 101.9 126.299 101.72 126.499 101.5L126.939 102.62C126.559 102.98 126.019 103.24 125.139 103.24ZM128.038 106.78L128.278 105.42C128.498 105.52 128.858 105.58 129.098 105.58C129.758 105.58 130.198 105.36 130.538 104.56L131.178 103.1L127.138 93.34H128.758L131.978 101.26L135.178 93.34H136.818L131.978 104.96C131.398 106.36 130.418 106.9 129.138 106.92C128.818 106.92 128.318 106.86 128.038 106.78ZM142.699 101.72L143.479 100.64C144.119 101.38 145.339 102.02 146.659 102.02C148.139 102.02 148.939 101.36 148.939 100.42C148.939 99.36 147.759 99.02 146.459 98.7C144.819 98.32 142.959 97.88 142.959 95.88C142.959 94.38 144.259 93.1 146.559 93.1C148.199 93.1 149.359 93.72 150.139 94.5L149.439 95.54C148.859 94.84 147.799 94.32 146.559 94.32C145.239 94.32 144.419 94.92 144.419 95.78C144.419 96.72 145.519 97.02 146.779 97.32C148.459 97.7 150.399 98.18 150.399 100.32C150.399 101.94 149.099 103.24 146.599 103.24C145.019 103.24 143.679 102.76 142.699 101.72ZM152.276 98.16C152.276 95.36 154.276 93.1 157.036 93.1C159.956 93.1 161.676 95.38 161.676 98.28V98.66H153.856C153.976 100.48 155.256 102 157.336 102C158.436 102 159.556 101.56 160.316 100.78L161.036 101.76C160.076 102.72 158.776 103.24 157.196 103.24C154.336 103.24 152.276 101.18 152.276 98.16ZM157.016 94.34C154.956 94.34 153.936 96.08 153.856 97.56H160.196C160.176 96.12 159.216 94.34 157.016 94.34ZM165.605 103H164.105V93.34H165.605V94.9C166.385 93.88 167.505 93.14 168.825 93.14V94.68C168.645 94.64 168.465 94.62 168.225 94.62C167.305 94.62 166.045 95.38 165.605 96.16V103ZM174.927 103H173.287L169.267 93.34H170.887L174.107 101.26L177.307 93.34H178.947L174.927 103ZM181.252 91.72C180.712 91.72 180.252 91.26 180.252 90.7C180.252 90.14 180.712 89.7 181.252 89.7C181.812 89.7 182.272 90.14 182.272 90.7C182.272 91.26 181.812 91.72 181.252 91.72ZM182.012 103H180.512V93.34H182.012V103ZM184.444 98.16C184.444 95.3 186.384 93.1 189.264 93.1C191.024 93.1 192.064 93.82 192.804 94.78L191.804 95.7C191.164 94.82 190.344 94.44 189.344 94.44C187.284 94.44 186.004 96.02 186.004 98.16C186.004 100.3 187.284 101.9 189.344 101.9C190.344 101.9 191.164 101.5 191.804 100.64L192.804 101.56C192.064 102.52 191.024 103.24 189.264 103.24C186.384 103.24 184.444 101.04 184.444 98.16ZM194.346 98.16C194.346 95.36 196.346 93.1 199.106 93.1C202.026 93.1 203.746 95.38 203.746 98.28V98.66H195.926C196.046 100.48 197.326 102 199.406 102C200.506 102 201.626 101.56 202.386 100.78L203.106 101.76C202.146 102.72 200.846 103.24 199.266 103.24C196.406 103.24 194.346 101.18 194.346 98.16ZM199.086 94.34C197.026 94.34 196.006 96.08 195.926 97.56H202.266C202.246 96.12 201.286 94.34 199.086 94.34ZM219.832 103H218.332V101.56C217.612 102.54 216.432 103.24 215.072 103.24C212.552 103.24 210.772 101.32 210.772 98.18C210.772 95.1 212.532 93.1 215.072 93.1C216.372 93.1 217.552 93.74 218.332 94.8V89.66H219.832V103ZM218.332 100.38V96C217.792 95.16 216.632 94.44 215.432 94.44C213.492 94.44 212.332 96.04 212.332 98.18C212.332 100.32 213.492 101.9 215.432 101.9C216.632 101.9 217.792 101.22 218.332 100.38ZM222.276 98.16C222.276 95.36 224.276 93.1 227.036 93.1C229.956 93.1 231.676 95.38 231.676 98.28V98.66H223.856C223.976 100.48 225.256 102 227.336 102C228.436 102 229.556 101.56 230.316 100.78L231.036 101.76C230.076 102.72 228.776 103.24 227.196 103.24C224.336 103.24 222.276 101.18 222.276 98.16ZM227.016 94.34C224.956 94.34 223.936 96.08 223.856 97.56H230.196C230.176 96.12 229.216 94.34 227.016 94.34ZM235.605 103H234.105V89.66H235.605V103ZM239.338 91.72C238.798 91.72 238.338 91.26 238.338 90.7C238.338 90.14 238.798 89.7 239.338 89.7C239.898 89.7 240.358 90.14 240.358 90.7C240.358 91.26 239.898 91.72 239.338 91.72ZM240.098 103H238.598V93.34H240.098V103ZM247.31 103H245.67L241.65 93.34H243.27L246.49 101.26L249.69 93.34H251.33L247.31 103ZM252.335 98.16C252.335 95.36 254.335 93.1 257.095 93.1C260.015 93.1 261.735 95.38 261.735 98.28V98.66H253.915C254.035 100.48 255.315 102 257.395 102C258.495 102 259.615 101.56 260.375 100.78L261.095 101.76C260.135 102.72 258.835 103.24 257.255 103.24C254.395 103.24 252.335 101.18 252.335 98.16ZM257.075 94.34C255.015 94.34 253.995 96.08 253.915 97.56H260.255C260.235 96.12 259.275 94.34 257.075 94.34ZM265.664 103H264.164V93.34H265.664V94.9C266.444 93.88 267.564 93.14 268.884 93.14V94.68C268.704 94.64 268.524 94.62 268.284 94.62C267.364 94.62 266.104 95.38 265.664 96.16V103ZM270.226 106.78L270.466 105.42C270.686 105.52 271.046 105.58 271.286 105.58C271.946 105.58 272.386 105.36 272.726 104.56L273.366 103.1L269.326 93.34H270.946L274.166 101.26L277.366 93.34H279.006L274.166 104.96C273.586 106.36 272.606 106.9 271.326 106.92C271.006 106.92 270.506 106.86 270.226 106.78ZM288.167 103.24C286.747 103.24 286.027 102.42 286.027 100.98V94.66H284.427V93.34H286.027V90.7H287.527V93.34H289.487V94.66H287.527V100.66C287.527 101.38 287.847 101.9 288.507 101.9C288.927 101.9 289.327 101.72 289.527 101.5L289.967 102.62C289.587 102.98 289.047 103.24 288.167 103.24ZM295.825 103.24C292.885 103.24 291.045 100.96 291.045 98.16C291.045 95.36 292.885 93.1 295.825 93.1C298.765 93.1 300.605 95.36 300.605 98.16C300.605 100.96 298.765 103.24 295.825 103.24ZM295.825 101.9C297.885 101.9 299.025 100.14 299.025 98.16C299.025 96.2 297.885 94.44 295.825 94.44C293.765 94.44 292.605 96.2 292.605 98.16C292.605 100.14 293.765 101.9 295.825 101.9ZM27.94 122.16C27.94 119.3 29.88 117.1 32.76 117.1C34.52 117.1 35.56 117.82 36.3 118.78L35.3 119.7C34.66 118.82 33.84 118.44 32.84 118.44C30.78 118.44 29.5 120.02 29.5 122.16C29.5 124.3 30.78 125.9 32.84 125.9C33.84 125.9 34.66 125.5 35.3 124.64L36.3 125.56C35.56 126.52 34.52 127.24 32.76 127.24C29.88 127.24 27.94 125.04 27.94 122.16ZM42.6223 127.24C39.6823 127.24 37.8423 124.96 37.8423 122.16C37.8423 119.36 39.6823 117.1 42.6223 117.1C45.5623 117.1 47.4023 119.36 47.4023 122.16C47.4023 124.96 45.5623 127.24 42.6223 127.24ZM42.6223 125.9C44.6823 125.9 45.8223 124.14 45.8223 122.16C45.8223 120.2 44.6823 118.44 42.6223 118.44C40.5623 118.44 39.4023 120.2 39.4023 122.16C39.4023 124.14 40.5623 125.9 42.6223 125.9ZM57.8677 127H56.3677V120.68C56.3677 118.98 55.5077 118.44 54.2077 118.44C53.0277 118.44 51.9077 119.16 51.3477 119.94V127H49.8477V117.34H51.3477V118.74C52.0277 117.94 53.3477 117.1 54.7877 117.1C56.8077 117.1 57.8677 118.12 57.8677 120.22V127ZM60.0233 125.72L60.8033 124.64C61.4433 125.38 62.6633 126.02 63.9833 126.02C65.4633 126.02 66.2633 125.36 66.2633 124.42C66.2633 123.36 65.0833 123.02 63.7833 122.7C62.1433 122.32 60.2833 121.88 60.2833 119.88C60.2833 118.38 61.5833 117.1 63.8833 117.1C65.5233 117.1 66.6833 117.72 67.4633 118.5L66.7633 119.54C66.1833 118.84 65.1233 118.32 63.8833 118.32C62.5633 118.32 61.7433 118.92 61.7433 119.78C61.7433 120.72 62.8433 121.02 64.1033 121.32C65.7833 121.7 67.7233 122.18 67.7233 124.32C67.7233 125.94 66.4233 127.24 63.9233 127.24C62.3433 127.24 61.0033 126.76 60.0233 125.72ZM72.6002 127.24C71.1802 127.24 70.4602 126.42 70.4602 124.98V118.66H68.8602V117.34H70.4602V114.7H71.9602V117.34H73.9202V118.66H71.9602V124.66C71.9602 125.38 72.2802 125.9 72.9402 125.9C73.3602 125.9 73.7602 125.72 73.9602 125.5L74.4002 126.62C74.0202 126.98 73.4802 127.24 72.6002 127.24ZM76.7791 115.72C76.2391 115.72 75.7791 115.26 75.7791 114.7C75.7791 114.14 76.2391 113.7 76.7791 113.7C77.3391 113.7 77.7991 114.14 77.7991 114.7C77.7991 115.26 77.3391 115.72 76.7791 115.72ZM77.5391 127H76.0391V117.34H77.5391V127ZM82.9713 127.24C81.5513 127.24 80.8313 126.42 80.8313 124.98V118.66H79.2313V117.34H80.8313V114.7H82.3313V117.34H84.2913V118.66H82.3313V124.66C82.3313 125.38 82.6513 125.9 83.3113 125.9C83.7313 125.9 84.1313 125.72 84.3313 125.5L84.7713 126.62C84.3913 126.98 83.8513 127.24 82.9713 127.24ZM94.4302 127H92.9302V125.64C92.1902 126.48 90.9302 127.24 89.4902 127.24C87.4702 127.24 86.4102 126.26 86.4102 124.16V117.34H87.9102V123.7C87.9102 125.4 88.7702 125.9 90.0702 125.9C91.2502 125.9 92.3702 125.22 92.9302 124.44V117.34H94.4302V127ZM96.8658 122.16C96.8658 119.36 98.8658 117.1 101.626 117.1C104.546 117.1 106.266 119.38 106.266 122.28V122.66H98.4458C98.5658 124.48 99.8458 126 101.926 126C103.026 126 104.146 125.56 104.906 124.78L105.626 125.76C104.666 126.72 103.366 127.24 101.786 127.24C98.9258 127.24 96.8658 125.18 96.8658 122.16ZM101.606 118.34C99.5458 118.34 98.5258 120.08 98.4458 121.56H104.786C104.766 120.12 103.806 118.34 101.606 118.34ZM116.715 127H115.215V120.68C115.215 118.98 114.355 118.44 113.055 118.44C111.875 118.44 110.755 119.16 110.195 119.94V127H108.695V117.34H110.195V118.74C110.875 117.94 112.195 117.1 113.635 117.1C115.655 117.1 116.715 118.12 116.715 120.22V127ZM122.151 127.24C120.731 127.24 120.011 126.42 120.011 124.98V118.66H118.411V117.34H120.011V114.7H121.511V117.34H123.471V118.66H121.511V124.66C121.511 125.38 121.831 125.9 122.491 125.9C122.911 125.9 123.311 125.72 123.511 125.5L123.951 126.62C123.571 126.98 123.031 127.24 122.151 127.24ZM124.75 125.72L125.53 124.64C126.17 125.38 127.39 126.02 128.71 126.02C130.19 126.02 130.99 125.36 130.99 124.42C130.99 123.36 129.81 123.02 128.51 122.7C126.87 122.32 125.01 121.88 125.01 119.88C125.01 118.38 126.31 117.1 128.61 117.1C130.25 117.1 131.41 117.72 132.19 118.5L131.49 119.54C130.91 118.84 129.85 118.32 128.61 118.32C127.29 118.32 126.47 118.92 126.47 119.78C126.47 120.72 127.57 121.02 128.83 121.32C130.51 121.7 132.45 122.18 132.45 124.32C132.45 125.94 131.15 127.24 128.65 127.24C127.07 127.24 125.73 126.76 124.75 125.72Z" fill="white"/>
<g clip-path="url(#clip0_2824_123436)">
<path d="M31 157C33.2091 157 35 155.209 35 153C35 150.791 33.2091 149 31 149C28.7909 149 27 150.791 27 153C27 155.209 28.7909 157 31 157Z" fill="#66ABE0"/>
<path d="M44.619 157C46.8282 157 48.619 155.209 48.619 153C48.619 150.791 46.8282 149 44.619 149C42.4099 149 40.619 150.791 40.619 153C40.619 155.209 42.4099 157 44.619 157Z" fill="#66ABE0"/>
<path d="M58.2381 157C60.4472 157 62.2381 155.209 62.2381 153C62.2381 150.791 60.4472 149 58.2381 149C56.029 149 54.2381 150.791 54.2381 153C54.2381 155.209 56.029 157 58.2381 157Z" fill="#66ABE0"/>
<path d="M71.8571 157C74.0663 157 75.8571 155.209 75.8571 153C75.8571 150.791 74.0663 149 71.8571 149C69.648 149 67.8571 150.791 67.8571 153C67.8571 155.209 69.648 157 71.8571 157Z" fill="#66ABE0"/>
<path d="M85.4762 157C87.6853 157 89.4762 155.209 89.4762 153C89.4762 150.791 87.6853 149 85.4762 149C83.2671 149 81.4762 150.791 81.4762 153C81.4762 155.209 83.2671 157 85.4762 157Z" fill="#66ABE0"/>
<path d="M99.0952 157C101.304 157 103.095 155.209 103.095 153C103.095 150.791 101.304 149 99.0952 149C96.8861 149 95.0952 150.791 95.0952 153C95.0952 155.209 96.8861 157 99.0952 157Z" fill="#66ABE0"/>
<path d="M112.714 157C114.923 157 116.714 155.209 116.714 153C116.714 150.791 114.923 149 112.714 149C110.505 149 108.714 150.791 108.714 153C108.714 155.209 110.505 157 112.714 157Z" fill="#66ABE0"/>
<path d="M126.333 157C128.542 157 130.333 155.209 130.333 153C130.333 150.791 128.542 149 126.333 149C124.124 149 122.333 150.791 122.333 153C122.333 155.209 124.124 157 126.333 157Z" fill="#66ABE0"/>
<path d="M139.952 157C142.162 157 143.952 155.209 143.952 153C143.952 150.791 142.162 149 139.952 149C137.743 149 135.952 150.791 135.952 153C135.952 155.209 137.743 157 139.952 157Z" fill="#66ABE0"/>
<path d="M153.571 157C155.781 157 157.571 155.209 157.571 153C157.571 150.791 155.781 149 153.571 149C151.362 149 149.571 150.791 149.571 153C149.571 155.209 151.362 157 153.571 157Z" fill="#66ABE0"/>
<path d="M167.19 157C169.4 157 171.19 155.209 171.19 153C171.19 150.791 169.4 149 167.19 149C164.981 149 163.19 150.791 163.19 153C163.19 155.209 164.981 157 167.19 157Z" fill="#66ABE0"/>
<path d="M180.81 157C183.019 157 184.81 155.209 184.81 153C184.81 150.791 183.019 149 180.81 149C178.6 149 176.81 150.791 176.81 153C176.81 155.209 178.6 157 180.81 157Z" fill="#66ABE0"/>
<path d="M194.429 157C196.638 157 198.429 155.209 198.429 153C198.429 150.791 196.638 149 194.429 149C192.219 149 190.429 150.791 190.429 153C190.429 155.209 192.219 157 194.429 157Z" fill="#66ABE0"/>
<path d="M208.048 157C210.257 157 212.048 155.209 212.048 153C212.048 150.791 210.257 149 208.048 149C205.838 149 204.048 150.791 204.048 153C204.048 155.209 205.838 157 208.048 157Z" fill="#66ABE0"/>
<path d="M221.667 157C223.876 157 225.667 155.209 225.667 153C225.667 150.791 223.876 149 221.667 149C219.458 149 217.667 150.791 217.667 153C217.667 155.209 219.458 157 221.667 157Z" fill="#66ABE0"/>
<path d="M235.286 157C237.495 157 239.286 155.209 239.286 153C239.286 150.791 237.495 149 235.286 149C233.077 149 231.286 150.791 231.286 153C231.286 155.209 233.077 157 235.286 157Z" fill="#66ABE0"/>
<path d="M248.905 157C251.114 157 252.905 155.209 252.905 153C252.905 150.791 251.114 149 248.905 149C246.696 149 244.905 150.791 244.905 153C244.905 155.209 246.696 157 248.905 157Z" fill="#66ABE0"/>
<path d="M262.524 157C264.733 157 266.524 155.209 266.524 153C266.524 150.791 264.733 149 262.524 149C260.315 149 258.524 150.791 258.524 153C258.524 155.209 260.315 157 262.524 157Z" fill="#66ABE0"/>
<path d="M276.143 157C278.352 157 280.143 155.209 280.143 153C280.143 150.791 278.352 149 276.143 149C273.934 149 272.143 150.791 272.143 153C272.143 155.209 273.934 157 276.143 157Z" fill="#B8B8B8" fill-opacity="0.6"/>
<path d="M289.762 157C291.971 157 293.762 155.209 293.762 153C293.762 150.791 291.971 149 289.762 149C287.553 149 285.762 150.791 285.762 153C285.762 155.209 287.553 157 289.762 157Z" fill="#B8B8B8" fill-opacity="0.6"/>
<path d="M303.381 157C305.59 157 307.381 155.209 307.381 153C307.381 150.791 305.59 149 303.381 149C301.172 149 299.381 150.791 299.381 153C299.381 155.209 301.172 157 303.381 157Z" fill="#B8B8B8" fill-opacity="0.6"/>
<path d="M317 157C319.209 157 321 155.209 321 153C321 150.791 319.209 149 317 149C314.791 149 313 150.791 313 153C313 155.209 314.791 157 317 157Z" fill="#B8B8B8" fill-opacity="0.6"/>
<path d="M31 171C33.2091 171 35 169.209 35 167C35 164.791 33.2091 163 31 163C28.7909 163 27 164.791 27 167C27 169.209 28.7909 171 31 171Z" fill="#66ABE0"/>
<path d="M44.619 171C46.8282 171 48.619 169.209 48.619 167C48.619 164.791 46.8282 163 44.619 163C42.4099 163 40.619 164.791 40.619 167C40.619 169.209 42.4099 171 44.619 171Z" fill="#66ABE0"/>
<path d="M58.2381 171C60.4472 171 62.2381 169.209 62.2381 167C62.2381 164.791 60.4472 163 58.2381 163C56.029 163 54.2381 164.791 54.2381 167C54.2381 169.209 56.029 171 58.2381 171Z" fill="#66ABE0"/>
<path d="M71.8571 171C74.0663 171 75.8571 169.209 75.8571 167C75.8571 164.791 74.0663 163 71.8571 163C69.648 163 67.8571 164.791 67.8571 167C67.8571 169.209 69.648 171 71.8571 171Z" fill="#66ABE0"/>
<path d="M85.4762 171C87.6853 171 89.4762 169.209 89.4762 167C89.4762 164.791 87.6853 163 85.4762 163C83.2671 163 81.4762 164.791 81.4762 167C81.4762 169.209 83.2671 171 85.4762 171Z" fill="#66ABE0"/>
<path d="M99.0952 171C101.304 171 103.095 169.209 103.095 167C103.095 164.791 101.304 163 99.0952 163C96.8861 163 95.0952 164.791 95.0952 167C95.0952 169.209 96.8861 171 99.0952 171Z" fill="#66ABE0"/>
<path d="M112.714 171C114.923 171 116.714 169.209 116.714 167C116.714 164.791 114.923 163 112.714 163C110.505 163 108.714 164.791 108.714 167C108.714 169.209 110.505 171 112.714 171Z" fill="#66ABE0"/>
<path d="M126.333 171C128.542 171 130.333 169.209 130.333 167C130.333 164.791 128.542 163 126.333 163C124.124 163 122.333 164.791 122.333 167C122.333 169.209 124.124 171 126.333 171Z" fill="#66ABE0"/>
<path d="M139.952 171C142.162 171 143.952 169.209 143.952 167C143.952 164.791 142.162 163 139.952 163C137.743 163 135.952 164.791 135.952 167C135.952 169.209 137.743 171 139.952 171Z" fill="#66ABE0"/>
<path d="M153.571 171C155.781 171 157.571 169.209 157.571 167C157.571 164.791 155.781 163 153.571 163C151.362 163 149.571 164.791 149.571 167C149.571 169.209 151.362 171 153.571 171Z" fill="#66ABE0"/>
<path d="M167.19 171C169.4 171 171.19 169.209 171.19 167C171.19 164.791 169.4 163 167.19 163C164.981 163 163.19 164.791 163.19 167C163.19 169.209 164.981 171 167.19 171Z" fill="#66ABE0"/>
<path d="M180.81 171C183.019 171 184.81 169.209 184.81 167C184.81 164.791 183.019 163 180.81 163C178.6 163 176.81 164.791 176.81 167C176.81 169.209 178.6 171 180.81 171Z" fill="#66ABE0"/>
<path d="M194.429 171C196.638 171 198.429 169.209 198.429 167C198.429 164.791 196.638 163 194.429 163C192.219 163 190.429 164.791 190.429 167C190.429 169.209 192.219 171 194.429 171Z" fill="#66ABE0"/>
<path d="M208.048 171C210.257 171 212.048 169.209 212.048 167C212.048 164.791 210.257 163 208.048 163C205.838 163 204.048 164.791 204.048 167C204.048 169.209 205.838 171 208.048 171Z" fill="#66ABE0"/>
<path d="M221.667 171C223.876 171 225.667 169.209 225.667 167C225.667 164.791 223.876 163 221.667 163C219.458 163 217.667 164.791 217.667 167C217.667 169.209 219.458 171 221.667 171Z" fill="#66ABE0"/>
<path d="M235.286 171C237.495 171 239.286 169.209 239.286 167C239.286 164.791 237.495 163 235.286 163C233.077 163 231.286 164.791 231.286 167C231.286 169.209 233.077 171 235.286 171Z" fill="#66ABE0"/>
<path d="M248.905 171C251.114 171 252.905 169.209 252.905 167C252.905 164.791 251.114 163 248.905 163C246.696 163 244.905 164.791 244.905 167C244.905 169.209 246.696 171 248.905 171Z" fill="#66ABE0"/>
<path d="M262.524 171C264.733 171 266.524 169.209 266.524 167C266.524 164.791 264.733 163 262.524 163C260.315 163 258.524 164.791 258.524 167C258.524 169.209 260.315 171 262.524 171Z" fill="#66ABE0"/>
<path d="M276.143 171C278.352 171 280.143 169.209 280.143 167C280.143 164.791 278.352 163 276.143 163C273.934 163 272.143 164.791 272.143 167C272.143 169.209 273.934 171 276.143 171Z" fill="#B8B8B8" fill-opacity="0.6"/>
<path d="M289.762 171C291.971 171 293.762 169.209 293.762 167C293.762 164.791 291.971 163 289.762 163C287.553 163 285.762 164.791 285.762 167C285.762 169.209 287.553 171 289.762 171Z" fill="#B8B8B8" fill-opacity="0.6"/>
<path d="M303.381 171C305.59 171 307.381 169.209 307.381 167C307.381 164.791 305.59 163 303.381 163C301.172 163 299.381 164.791 299.381 167C299.381 169.209 301.172 171 303.381 171Z" fill="#B8B8B8" fill-opacity="0.6"/>
<path d="M317 171C319.209 171 321 169.209 321 167C321 164.791 319.209 163 317 163C314.791 163 313 164.791 313 167C313 169.209 314.791 171 317 171Z" fill="#B8B8B8" fill-opacity="0.6"/>
<path d="M31 185C33.2091 185 35 183.209 35 181C35 178.791 33.2091 177 31 177C28.7909 177 27 178.791 27 181C27 183.209 28.7909 185 31 185Z" fill="#66ABE0"/>
<path d="M44.619 185C46.8282 185 48.619 183.209 48.619 181C48.619 178.791 46.8282 177 44.619 177C42.4099 177 40.619 178.791 40.619 181C40.619 183.209 42.4099 185 44.619 185Z" fill="#66ABE0"/>
<path d="M58.2381 185C60.4472 185 62.2381 183.209 62.2381 181C62.2381 178.791 60.4472 177 58.2381 177C56.029 177 54.2381 178.791 54.2381 181C54.2381 183.209 56.029 185 58.2381 185Z" fill="#66ABE0"/>
<path d="M71.8571 185C74.0663 185 75.8571 183.209 75.8571 181C75.8571 178.791 74.0663 177 71.8571 177C69.648 177 67.8571 178.791 67.8571 181C67.8571 183.209 69.648 185 71.8571 185Z" fill="#66ABE0"/>
<path d="M85.4762 185C87.6853 185 89.4762 183.209 89.4762 181C89.4762 178.791 87.6853 177 85.4762 177C83.2671 177 81.4762 178.791 81.4762 181C81.4762 183.209 83.2671 185 85.4762 185Z" fill="#66ABE0"/>
<path d="M99.0952 185C101.304 185 103.095 183.209 103.095 181C103.095 178.791 101.304 177 99.0952 177C96.8861 177 95.0952 178.791 95.0952 181C95.0952 183.209 96.8861 185 99.0952 185Z" fill="#66ABE0"/>
<path d="M112.714 185C114.923 185 116.714 183.209 116.714 181C116.714 178.791 114.923 177 112.714 177C110.505 177 108.714 178.791 108.714 181C108.714 183.209 110.505 185 112.714 185Z" fill="#66ABE0"/>
<path d="M126.333 185C128.542 185 130.333 183.209 130.333 181C130.333 178.791 128.542 177 126.333 177C124.124 177 122.333 178.791 122.333 181C122.333 183.209 124.124 185 126.333 185Z" fill="#66ABE0"/>
<path d="M139.952 185C142.162 185 143.952 183.209 143.952 181C143.952 178.791 142.162 177 139.952 177C137.743 177 135.952 178.791 135.952 181C135.952 183.209 137.743 185 139.952 185Z" fill="#66ABE0"/>
<path d="M153.571 185C155.781 185 157.571 183.209 157.571 181C157.571 178.791 155.781 177 153.571 177C151.362 177 149.571 178.791 149.571 181C149.571 183.209 151.362 185 153.571 185Z" fill="#66ABE0"/>
<path d="M167.19 185C169.4 185 171.19 183.209 171.19 181C171.19 178.791 169.4 177 167.19 177C164.981 177 163.19 178.791 163.19 181C163.19 183.209 164.981 185 167.19 185Z" fill="#66ABE0"/>
<path d="M180.81 185C183.019 185 184.81 183.209 184.81 181C184.81 178.791 183.019 177 180.81 177C178.6 177 176.81 178.791 176.81 181C176.81 183.209 178.6 185 180.81 185Z" fill="#66ABE0"/>
<path d="M194.429 185C196.638 185 198.429 183.209 198.429 181C198.429 178.791 196.638 177 194.429 177C192.219 177 190.429 178.791 190.429 181C190.429 183.209 192.219 185 194.429 185Z" fill="#66ABE0"/>
<path d="M208.048 185C210.257 185 212.048 183.209 212.048 181C212.048 178.791 210.257 177 208.048 177C205.838 177 204.048 178.791 204.048 181C204.048 183.209 205.838 185 208.048 185Z" fill="#66ABE0"/>
<path d="M221.667 185C223.876 185 225.667 183.209 225.667 181C225.667 178.791 223.876 177 221.667 177C219.458 177 217.667 178.791 217.667 181C217.667 183.209 219.458 185 221.667 185Z" fill="#66ABE0"/>
<path d="M235.286 185C237.495 185 239.286 183.209 239.286 181C239.286 178.791 237.495 177 235.286 177C233.077 177 231.286 178.791 231.286 181C231.286 183.209 233.077 185 235.286 185Z" fill="#66ABE0"/>
<path d="M248.905 185C251.114 185 252.905 183.209 252.905 181C252.905 178.791 251.114 177 248.905 177C246.696 177 244.905 178.791 244.905 181C244.905 183.209 246.696 185 248.905 185Z" fill="#66ABE0"/>
<path d="M262.524 185C264.733 185 266.524 183.209 266.524 181C266.524 178.791 264.733 177 262.524 177C260.315 177 258.524 178.791 258.524 181C258.524 183.209 260.315 185 262.524 185Z" fill="#66ABE0"/>
<path d="M276.143 185C278.352 185 280.143 183.209 280.143 181C280.143 178.791 278.352 177 276.143 177C273.934 177 272.143 178.791 272.143 181C272.143 183.209 273.934 185 276.143 185Z" fill="#B8B8B8" fill-opacity="0.6"/>
<path d="M289.762 185C291.971 185 293.762 183.209 293.762 181C293.762 178.791 291.971 177 289.762 177C287.553 177 285.762 178.791 285.762 181C285.762 183.209 287.553 185 289.762 185Z" fill="#B8B8B8" fill-opacity="0.6"/>
<path d="M303.381 185C305.59 185 307.381 183.209 307.381 181C307.381 178.791 305.59 177 303.381 177C301.172 177 299.381 178.791 299.381 181C299.381 183.209 301.172 185 303.381 185Z" fill="#B8B8B8" fill-opacity="0.6"/>
<path d="M317 185C319.209 185 321 183.209 321 181C321 178.791 319.209 177 317 177C314.791 177 313 178.791 313 181C313 183.209 314.791 185 317 185Z" fill="#B8B8B8" fill-opacity="0.6"/>
<path d="M31 199C33.2091 199 35 197.209 35 195C35 192.791 33.2091 191 31 191C28.7909 191 27 192.791 27 195C27 197.209 28.7909 199 31 199Z" fill="#66ABE0"/>
<path d="M44.619 199C46.8282 199 48.619 197.209 48.619 195C48.619 192.791 46.8282 191 44.619 191C42.4099 191 40.619 192.791 40.619 195C40.619 197.209 42.4099 199 44.619 199Z" fill="#66ABE0"/>
<path d="M58.2381 199C60.4472 199 62.2381 197.209 62.2381 195C62.2381 192.791 60.4472 191 58.2381 191C56.029 191 54.2381 192.791 54.2381 195C54.2381 197.209 56.029 199 58.2381 199Z" fill="#66ABE0"/>
<path d="M71.8571 199C74.0663 199 75.8571 197.209 75.8571 195C75.8571 192.791 74.0663 191 71.8571 191C69.648 191 67.8571 192.791 67.8571 195C67.8571 197.209 69.648 199 71.8571 199Z" fill="#66ABE0"/>
<path d="M85.4762 199C87.6853 199 89.4762 197.209 89.4762 195C89.4762 192.791 87.6853 191 85.4762 191C83.2671 191 81.4762 192.791 81.4762 195C81.4762 197.209 83.2671 199 85.4762 199Z" fill="#66ABE0"/>
<path d="M99.0952 199C101.304 199 103.095 197.209 103.095 195C103.095 192.791 101.304 191 99.0952 191C96.8861 191 95.0952 192.791 95.0952 195C95.0952 197.209 96.8861 199 99.0952 199Z" fill="#66ABE0"/>
<path d="M112.714 199C114.923 199 116.714 197.209 116.714 195C116.714 192.791 114.923 191 112.714 191C110.505 191 108.714 192.791 108.714 195C108.714 197.209 110.505 199 112.714 199Z" fill="#66ABE0"/>
<path d="M126.333 199C128.542 199 130.333 197.209 130.333 195C130.333 192.791 128.542 191 126.333 191C124.124 191 122.333 192.791 122.333 195C122.333 197.209 124.124 199 126.333 199Z" fill="#66ABE0"/>
<path d="M139.952 199C142.162 199 143.952 197.209 143.952 195C143.952 192.791 142.162 191 139.952 191C137.743 191 135.952 192.791 135.952 195C135.952 197.209 137.743 199 139.952 199Z" fill="#66ABE0"/>
<path d="M153.571 199C155.781 199 157.571 197.209 157.571 195C157.571 192.791 155.781 191 153.571 191C151.362 191 149.571 192.791 149.571 195C149.571 197.209 151.362 199 153.571 199Z" fill="#66ABE0"/>
<path d="M167.19 199C169.4 199 171.19 197.209 171.19 195C171.19 192.791 169.4 191 167.19 191C164.981 191 163.19 192.791 163.19 195C163.19 197.209 164.981 199 167.19 199Z" fill="#66ABE0"/>
<path d="M180.81 199C183.019 199 184.81 197.209 184.81 195C184.81 192.791 183.019 191 180.81 191C178.6 191 176.81 192.791 176.81 195C176.81 197.209 178.6 199 180.81 199Z" fill="#66ABE0"/>
<path d="M194.429 199C196.638 199 198.429 197.209 198.429 195C198.429 192.791 196.638 191 194.429 191C192.219 191 190.429 192.791 190.429 195C190.429 197.209 192.219 199 194.429 199Z" fill="#66ABE0"/>
<path d="M208.048 199C210.257 199 212.048 197.209 212.048 195C212.048 192.791 210.257 191 208.048 191C205.838 191 204.048 192.791 204.048 195C204.048 197.209 205.838 199 208.048 199Z" fill="#66ABE0"/>
<path d="M221.667 199C223.876 199 225.667 197.209 225.667 195C225.667 192.791 223.876 191 221.667 191C219.458 191 217.667 192.791 217.667 195C217.667 197.209 219.458 199 221.667 199Z" fill="#66ABE0"/>
<path d="M235.286 199C237.495 199 239.286 197.209 239.286 195C239.286 192.791 237.495 191 235.286 191C233.077 191 231.286 192.791 231.286 195C231.286 197.209 233.077 199 235.286 199Z" fill="#66ABE0"/>
<path d="M248.905 199C251.114 199 252.905 197.209 252.905 195C252.905 192.791 251.114 191 248.905 191C246.696 191 244.905 192.791 244.905 195C244.905 197.209 246.696 199 248.905 199Z" fill="#66ABE0"/>
<path d="M262.524 199C264.733 199 266.524 197.209 266.524 195C266.524 192.791 264.733 191 262.524 191C260.315 191 258.524 192.791 258.524 195C258.524 197.209 260.315 199 262.524 199Z" fill="#66ABE0"/>
<path d="M276.143 199C278.352 199 280.143 197.209 280.143 195C280.143 192.791 278.352 191 276.143 191C273.934 191 272.143 192.791 272.143 195C272.143 197.209 273.934 199 276.143 199Z" fill="#B8B8B8" fill-opacity="0.6"/>
<path d="M289.762 199C291.971 199 293.762 197.209 293.762 195C293.762 192.791 291.971 191 289.762 191C287.553 191 285.762 192.791 285.762 195C285.762 197.209 287.553 199 289.762 199Z" fill="#B8B8B8" fill-opacity="0.6"/>
<path d="M303.381 199C305.59 199 307.381 197.209 307.381 195C307.381 192.791 305.59 191 303.381 191C301.172 191 299.381 192.791 299.381 195C299.381 197.209 301.172 199 303.381 199Z" fill="#B8B8B8" fill-opacity="0.6"/>
<path d="M317 199C319.209 199 321 197.209 321 195C321 192.791 319.209 191 317 191C314.791 191 313 192.791 313 195C313 197.209 314.791 199 317 199Z" fill="#B8B8B8" fill-opacity="0.6"/>
<path d="M31 213C33.2091 213 35 211.209 35 209C35 206.791 33.2091 205 31 205C28.7909 205 27 206.791 27 209C27 211.209 28.7909 213 31 213Z" fill="#66ABE0"/>
<path d="M44.619 213C46.8282 213 48.619 211.209 48.619 209C48.619 206.791 46.8282 205 44.619 205C42.4099 205 40.619 206.791 40.619 209C40.619 211.209 42.4099 213 44.619 213Z" fill="#66ABE0"/>
<path d="M58.2381 213C60.4472 213 62.2381 211.209 62.2381 209C62.2381 206.791 60.4472 205 58.2381 205C56.029 205 54.2381 206.791 54.2381 209C54.2381 211.209 56.029 213 58.2381 213Z" fill="#66ABE0"/>
<path d="M71.8571 213C74.0663 213 75.8571 211.209 75.8571 209C75.8571 206.791 74.0663 205 71.8571 205C69.648 205 67.8571 206.791 67.8571 209C67.8571 211.209 69.648 213 71.8571 213Z" fill="#66ABE0"/>
<path d="M85.4762 213C87.6853 213 89.4762 211.209 89.4762 209C89.4762 206.791 87.6853 205 85.4762 205C83.2671 205 81.4762 206.791 81.4762 209C81.4762 211.209 83.2671 213 85.4762 213Z" fill="#66ABE0"/>
<path d="M99.0952 213C101.304 213 103.095 211.209 103.095 209C103.095 206.791 101.304 205 99.0952 205C96.8861 205 95.0952 206.791 95.0952 209C95.0952 211.209 96.8861 213 99.0952 213Z" fill="#66ABE0"/>
<path d="M112.714 213C114.923 213 116.714 211.209 116.714 209C116.714 206.791 114.923 205 112.714 205C110.505 205 108.714 206.791 108.714 209C108.714 211.209 110.505 213 112.714 213Z" fill="#66ABE0"/>
<path d="M126.333 213C128.542 213 130.333 211.209 130.333 209C130.333 206.791 128.542 205 126.333 205C124.124 205 122.333 206.791 122.333 209C122.333 211.209 124.124 213 126.333 213Z" fill="#66ABE0"/>
<path d="M139.952 213C142.162 213 143.952 211.209 143.952 209C143.952 206.791 142.162 205 139.952 205C137.743 205 135.952 206.791 135.952 209C135.952 211.209 137.743 213 139.952 213Z" fill="#66ABE0"/>
<path d="M153.571 213C155.781 213 157.571 211.209 157.571 209C157.571 206.791 155.781 205 153.571 205C151.362 205 149.571 206.791 149.571 209C149.571 211.209 151.362 213 153.571 213Z" fill="#66ABE0"/>
<path d="M167.19 213C169.4 213 171.19 211.209 171.19 209C171.19 206.791 169.4 205 167.19 205C164.981 205 163.19 206.791 163.19 209C163.19 211.209 164.981 213 167.19 213Z" fill="#66ABE0"/>
<path d="M180.81 213C183.019 213 184.81 211.209 184.81 209C184.81 206.791 183.019 205 180.81 205C178.6 205 176.81 206.791 176.81 209C176.81 211.209 178.6 213 180.81 213Z" fill="#66ABE0"/>
<path d="M194.429 213C196.638 213 198.429 211.209 198.429 209C198.429 206.791 196.638 205 194.429 205C192.219 205 190.429 206.791 190.429 209C190.429 211.209 192.219 213 194.429 213Z" fill="#66ABE0"/>
<path d="M208.048 213C210.257 213 212.048 211.209 212.048 209C212.048 206.791 210.257 205 208.048 205C205.838 205 204.048 206.791 204.048 209C204.048 211.209 205.838 213 208.048 213Z" fill="#66ABE0"/>
<path d="M221.667 213C223.876 213 225.667 211.209 225.667 209C225.667 206.791 223.876 205 221.667 205C219.458 205 217.667 206.791 217.667 209C217.667 211.209 219.458 213 221.667 213Z" fill="#66ABE0"/>
<path d="M235.286 213C237.495 213 239.286 211.209 239.286 209C239.286 206.791 237.495 205 235.286 205C233.077 205 231.286 206.791 231.286 209C231.286 211.209 233.077 213 235.286 213Z" fill="#66ABE0"/>
<path d="M248.905 213C251.114 213 252.905 211.209 252.905 209C252.905 206.791 251.114 205 248.905 205C246.696 205 244.905 206.791 244.905 209C244.905 211.209 246.696 213 248.905 213Z" fill="#66ABE0"/>
<path d="M262.524 213C264.733 213 266.524 211.209 266.524 209C266.524 206.791 264.733 205 262.524 205C260.315 205 258.524 206.791 258.524 209C258.524 211.209 260.315 213 262.524 213Z" fill="#66ABE0"/>
<path d="M276.143 213C278.352 213 280.143 211.209 280.143 209C280.143 206.791 278.352 205 276.143 205C273.934 205 272.143 206.791 272.143 209C272.143 211.209 273.934 213 276.143 213Z" fill="#B8B8B8" fill-opacity="0.6"/>
<path d="M289.762 213C291.971 213 293.762 211.209 293.762 209C293.762 206.791 291.971 205 289.762 205C287.553 205 285.762 206.791 285.762 209C285.762 211.209 287.553 213 289.762 213Z" fill="#B8B8B8" fill-opacity="0.6"/>
<path d="M303.381 213C305.59 213 307.381 211.209 307.381 209C307.381 206.791 305.59 205 303.381 205C301.172 205 299.381 206.791 299.381 209C299.381 211.209 301.172 213 303.381 213Z" fill="#B8B8B8" fill-opacity="0.6"/>
<path d="M317 213C319.209 213 321 211.209 321 209C321 206.791 319.209 205 317 205C314.791 205 313 206.791 313 209C313 211.209 314.791 213 317 213Z" fill="#B8B8B8" fill-opacity="0.6"/>
<path d="M31 227C33.2091 227 35 225.209 35 223C35 220.791 33.2091 219 31 219C28.7909 219 27 220.791 27 223C27 225.209 28.7909 227 31 227Z" fill="#66ABE0"/>
<path d="M44.619 227C46.8282 227 48.619 225.209 48.619 223C48.619 220.791 46.8282 219 44.619 219C42.4099 219 40.619 220.791 40.619 223C40.619 225.209 42.4099 227 44.619 227Z" fill="#66ABE0"/>
<path d="M58.2381 227C60.4472 227 62.2381 225.209 62.2381 223C62.2381 220.791 60.4472 219 58.2381 219C56.029 219 54.2381 220.791 54.2381 223C54.2381 225.209 56.029 227 58.2381 227Z" fill="#66ABE0"/>
<path d="M71.8571 227C74.0663 227 75.8571 225.209 75.8571 223C75.8571 220.791 74.0663 219 71.8571 219C69.648 219 67.8571 220.791 67.8571 223C67.8571 225.209 69.648 227 71.8571 227Z" fill="#66ABE0"/>
<path d="M85.4762 227C87.6853 227 89.4762 225.209 89.4762 223C89.4762 220.791 87.6853 219 85.4762 219C83.2671 219 81.4762 220.791 81.4762 223C81.4762 225.209 83.2671 227 85.4762 227Z" fill="#66ABE0"/>
<path d="M99.0952 227C101.304 227 103.095 225.209 103.095 223C103.095 220.791 101.304 219 99.0952 219C96.8861 219 95.0952 220.791 95.0952 223C95.0952 225.209 96.8861 227 99.0952 227Z" fill="#66ABE0"/>
<path d="M112.714 227C114.923 227 116.714 225.209 116.714 223C116.714 220.791 114.923 219 112.714 219C110.505 219 108.714 220.791 108.714 223C108.714 225.209 110.505 227 112.714 227Z" fill="#66ABE0"/>
<path d="M126.333 227C128.542 227 130.333 225.209 130.333 223C130.333 220.791 128.542 219 126.333 219C124.124 219 122.333 220.791 122.333 223C122.333 225.209 124.124 227 126.333 227Z" fill="#66ABE0"/>
<path d="M139.952 227C142.162 227 143.952 225.209 143.952 223C143.952 220.791 142.162 219 139.952 219C137.743 219 135.952 220.791 135.952 223C135.952 225.209 137.743 227 139.952 227Z" fill="#66ABE0"/>
<path d="M153.571 227C155.781 227 157.571 225.209 157.571 223C157.571 220.791 155.781 219 153.571 219C151.362 219 149.571 220.791 149.571 223C149.571 225.209 151.362 227 153.571 227Z" fill="#66ABE0"/>
<path d="M167.19 227C169.4 227 171.19 225.209 171.19 223C171.19 220.791 169.4 219 167.19 219C164.981 219 163.19 220.791 163.19 223C163.19 225.209 164.981 227 167.19 227Z" fill="#66ABE0"/>
<path d="M180.81 227C183.019 227 184.81 225.209 184.81 223C184.81 220.791 183.019 219 180.81 219C178.6 219 176.81 220.791 176.81 223C176.81 225.209 178.6 227 180.81 227Z" fill="#66ABE0"/>
<path d="M194.429 227C196.638 227 198.429 225.209 198.429 223C198.429 220.791 196.638 219 194.429 219C192.219 219 190.429 220.791 190.429 223C190.429 225.209 192.219 227 194.429 227Z" fill="#66ABE0"/>
<path d="M208.048 227C210.257 227 212.048 225.209 212.048 223C212.048 220.791 210.257 219 208.048 219C205.838 219 204.048 220.791 204.048 223C204.048 225.209 205.838 227 208.048 227Z" fill="#66ABE0"/>
<path d="M221.667 227C223.876 227 225.667 225.209 225.667 223C225.667 220.791 223.876 219 221.667 219C219.458 219 217.667 220.791 217.667 223C217.667 225.209 219.458 227 221.667 227Z" fill="#66ABE0"/>
<path d="M235.286 227C237.495 227 239.286 225.209 239.286 223C239.286 220.791 237.495 219 235.286 219C233.077 219 231.286 220.791 231.286 223C231.286 225.209 233.077 227 235.286 227Z" fill="#66ABE0"/>
<path d="M248.905 227C251.114 227 252.905 225.209 252.905 223C252.905 220.791 251.114 219 248.905 219C246.696 219 244.905 220.791 244.905 223C244.905 225.209 246.696 227 248.905 227Z" fill="#66ABE0"/>
<path d="M262.524 227C264.733 227 266.524 225.209 266.524 223C266.524 220.791 264.733 219 262.524 219C260.315 219 258.524 220.791 258.524 223C258.524 225.209 260.315 227 262.524 227Z" fill="#66ABE0"/>
<path d="M276.143 227C278.352 227 280.143 225.209 280.143 223C280.143 220.791 278.352 219 276.143 219C273.934 219 272.143 220.791 272.143 223C272.143 225.209 273.934 227 276.143 227Z" fill="#B8B8B8" fill-opacity="0.6"/>
<path d="M289.762 227C291.971 227 293.762 225.209 293.762 223C293.762 220.791 291.971 219 289.762 219C287.553 219 285.762 220.791 285.762 223C285.762 225.209 287.553 227 289.762 227Z" fill="#B8B8B8" fill-opacity="0.6"/>
<path d="M303.381 227C305.59 227 307.381 225.209 307.381 223C307.381 220.791 305.59 219 303.381 219C301.172 219 299.381 220.791 299.381 223C299.381 225.209 301.172 227 303.381 227Z" fill="#B8B8B8" fill-opacity="0.6"/>
<path d="M317 227C319.209 227 321 225.209 321 223C321 220.791 319.209 219 317 219C314.791 219 313 220.791 313 223C313 225.209 314.791 227 317 227Z" fill="#B8B8B8" fill-opacity="0.6"/>
<path d="M31 241C33.2091 241 35 239.209 35 237C35 234.791 33.2091 233 31 233C28.7909 233 27 234.791 27 237C27 239.209 28.7909 241 31 241Z" fill="#66ABE0"/>
<path d="M44.619 241C46.8282 241 48.619 239.209 48.619 237C48.619 234.791 46.8282 233 44.619 233C42.4099 233 40.619 234.791 40.619 237C40.619 239.209 42.4099 241 44.619 241Z" fill="#66ABE0"/>
<path d="M58.2381 241C60.4472 241 62.2381 239.209 62.2381 237C62.2381 234.791 60.4472 233 58.2381 233C56.029 233 54.2381 234.791 54.2381 237C54.2381 239.209 56.029 241 58.2381 241Z" fill="#66ABE0"/>
<path d="M71.8571 241C74.0663 241 75.8571 239.209 75.8571 237C75.8571 234.791 74.0663 233 71.8571 233C69.648 233 67.8571 234.791 67.8571 237C67.8571 239.209 69.648 241 71.8571 241Z" fill="#66ABE0"/>
<path d="M85.4762 241C87.6853 241 89.4762 239.209 89.4762 237C89.4762 234.791 87.6853 233 85.4762 233C83.2671 233 81.4762 234.791 81.4762 237C81.4762 239.209 83.2671 241 85.4762 241Z" fill="#66ABE0"/>
<path d="M99.0952 241C101.304 241 103.095 239.209 103.095 237C103.095 234.791 101.304 233 99.0952 233C96.8861 233 95.0952 234.791 95.0952 237C95.0952 239.209 96.8861 241 99.0952 241Z" fill="#66ABE0"/>
<path d="M112.714 241C114.923 241 116.714 239.209 116.714 237C116.714 234.791 114.923 233 112.714 233C110.505 233 108.714 234.791 108.714 237C108.714 239.209 110.505 241 112.714 241Z" fill="#66ABE0"/>
<path d="M126.333 241C128.542 241 130.333 239.209 130.333 237C130.333 234.791 128.542 233 126.333 233C124.124 233 122.333 234.791 122.333 237C122.333 239.209 124.124 241 126.333 241Z" fill="#66ABE0"/>
<path d="M139.952 241C142.162 241 143.952 239.209 143.952 237C143.952 234.791 142.162 233 139.952 233C137.743 233 135.952 234.791 135.952 237C135.952 239.209 137.743 241 139.952 241Z" fill="#66ABE0"/>
<path d="M153.571 241C155.781 241 157.571 239.209 157.571 237C157.571 234.791 155.781 233 153.571 233C151.362 233 149.571 234.791 149.571 237C149.571 239.209 151.362 241 153.571 241Z" fill="#66ABE0"/>
<path d="M167.19 241C169.4 241 171.19 239.209 171.19 237C171.19 234.791 169.4 233 167.19 233C164.981 233 163.19 234.791 163.19 237C163.19 239.209 164.981 241 167.19 241Z" fill="#66ABE0"/>
<path d="M180.81 241C183.019 241 184.81 239.209 184.81 237C184.81 234.791 183.019 233 180.81 233C178.6 233 176.81 234.791 176.81 237C176.81 239.209 178.6 241 180.81 241Z" fill="#66ABE0"/>
<path d="M194.429 241C196.638 241 198.429 239.209 198.429 237C198.429 234.791 196.638 233 194.429 233C192.219 233 190.429 234.791 190.429 237C190.429 239.209 192.219 241 194.429 241Z" fill="#66ABE0"/>
<path d="M208.048 241C210.257 241 212.048 239.209 212.048 237C212.048 234.791 210.257 233 208.048 233C205.838 233 204.048 234.791 204.048 237C204.048 239.209 205.838 241 208.048 241Z" fill="#66ABE0"/>
<path d="M221.667 241C223.876 241 225.667 239.209 225.667 237C225.667 234.791 223.876 233 221.667 233C219.458 233 217.667 234.791 217.667 237C217.667 239.209 219.458 241 221.667 241Z" fill="#66ABE0"/>
<path d="M235.286 241C237.495 241 239.286 239.209 239.286 237C239.286 234.791 237.495 233 235.286 233C233.077 233 231.286 234.791 231.286 237C231.286 239.209 233.077 241 235.286 241Z" fill="#66ABE0"/>
<path d="M248.905 241C251.114 241 252.905 239.209 252.905 237C252.905 234.791 251.114 233 248.905 233C246.696 233 244.905 234.791 244.905 237C244.905 239.209 246.696 241 248.905 241Z" fill="#66ABE0"/>
<path d="M262.524 241C264.733 241 266.524 239.209 266.524 237C266.524 234.791 264.733 233 262.524 233C260.315 233 258.524 234.791 258.524 237C258.524 239.209 260.315 241 262.524 241Z" fill="#66ABE0"/>
<path d="M276.143 241C278.352 241 280.143 239.209 280.143 237C280.143 234.791 278.352 233 276.143 233C273.934 233 272.143 234.791 272.143 237C272.143 239.209 273.934 241 276.143 241Z" fill="#B8B8B8" fill-opacity="0.6"/>
<path d="M289.762 241C291.971 241 293.762 239.209 293.762 237C293.762 234.791 291.971 233 289.762 233C287.553 233 285.762 234.791 285.762 237C285.762 239.209 287.553 241 289.762 241Z" fill="#B8B8B8" fill-opacity="0.6"/>
<path d="M303.381 241C305.59 241 307.381 239.209 307.381 237C307.381 234.791 305.59 233 303.381 233C301.172 233 299.381 234.791 299.381 237C299.381 239.209 301.172 241 303.381 241Z" fill="#B8B8B8" fill-opacity="0.6"/>
<path d="M317 241C319.209 241 321 239.209 321 237C321 234.791 319.209 233 317 233C314.791 233 313 234.791 313 237C313 239.209 314.791 241 317 241Z" fill="#B8B8B8" fill-opacity="0.6"/>
<path d="M31 255C33.2091 255 35 253.209 35 251C35 248.791 33.2091 247 31 247C28.7909 247 27 248.791 27 251C27 253.209 28.7909 255 31 255Z" fill="#66ABE0"/>
<path d="M44.619 255C46.8282 255 48.619 253.209 48.619 251C48.619 248.791 46.8282 247 44.619 247C42.4099 247 40.619 248.791 40.619 251C40.619 253.209 42.4099 255 44.619 255Z" fill="#66ABE0"/>
<path d="M58.2381 255C60.4472 255 62.2381 253.209 62.2381 251C62.2381 248.791 60.4472 247 58.2381 247C56.029 247 54.2381 248.791 54.2381 251C54.2381 253.209 56.029 255 58.2381 255Z" fill="#66ABE0"/>
<path d="M71.8571 255C74.0663 255 75.8571 253.209 75.8571 251C75.8571 248.791 74.0663 247 71.8571 247C69.648 247 67.8571 248.791 67.8571 251C67.8571 253.209 69.648 255 71.8571 255Z" fill="#66ABE0"/>
<path d="M85.4762 255C87.6853 255 89.4762 253.209 89.4762 251C89.4762 248.791 87.6853 247 85.4762 247C83.2671 247 81.4762 248.791 81.4762 251C81.4762 253.209 83.2671 255 85.4762 255Z" fill="#66ABE0"/>
<path d="M99.0952 255C101.304 255 103.095 253.209 103.095 251C103.095 248.791 101.304 247 99.0952 247C96.8861 247 95.0952 248.791 95.0952 251C95.0952 253.209 96.8861 255 99.0952 255Z" fill="#66ABE0"/>
<path d="M112.714 255C114.923 255 116.714 253.209 116.714 251C116.714 248.791 114.923 247 112.714 247C110.505 247 108.714 248.791 108.714 251C108.714 253.209 110.505 255 112.714 255Z" fill="#66ABE0"/>
<path d="M126.333 255C128.542 255 130.333 253.209 130.333 251C130.333 248.791 128.542 247 126.333 247C124.124 247 122.333 248.791 122.333 251C122.333 253.209 124.124 255 126.333 255Z" fill="#66ABE0"/>
<path d="M139.952 255C142.162 255 143.952 253.209 143.952 251C143.952 248.791 142.162 247 139.952 247C137.743 247 135.952 248.791 135.952 251C135.952 253.209 137.743 255 139.952 255Z" fill="#66ABE0"/>
<path d="M153.571 255C155.781 255 157.571 253.209 157.571 251C157.571 248.791 155.781 247 153.571 247C151.362 247 149.571 248.791 149.571 251C149.571 253.209 151.362 255 153.571 255Z" fill="#66ABE0"/>
<path d="M167.19 255C169.4 255 171.19 253.209 171.19 251C171.19 248.791 169.4 247 167.19 247C164.981 247 163.19 248.791 163.19 251C163.19 253.209 164.981 255 167.19 255Z" fill="#66ABE0"/>
<path d="M180.81 255C183.019 255 184.81 253.209 184.81 251C184.81 248.791 183.019 247 180.81 247C178.6 247 176.81 248.791 176.81 251C176.81 253.209 178.6 255 180.81 255Z" fill="#66ABE0"/>
<path d="M194.429 255C196.638 255 198.429 253.209 198.429 251C198.429 248.791 196.638 247 194.429 247C192.219 247 190.429 248.791 190.429 251C190.429 253.209 192.219 255 194.429 255Z" fill="#66ABE0"/>
<path d="M208.048 255C210.257 255 212.048 253.209 212.048 251C212.048 248.791 210.257 247 208.048 247C205.838 247 204.048 248.791 204.048 251C204.048 253.209 205.838 255 208.048 255Z" fill="#66ABE0"/>
<path d="M221.667 255C223.876 255 225.667 253.209 225.667 251C225.667 248.791 223.876 247 221.667 247C219.458 247 217.667 248.791 217.667 251C217.667 253.209 219.458 255 221.667 255Z" fill="#66ABE0"/>
<path d="M235.286 255C237.495 255 239.286 253.209 239.286 251C239.286 248.791 237.495 247 235.286 247C233.077 247 231.286 248.791 231.286 251C231.286 253.209 233.077 255 235.286 255Z" fill="#66ABE0"/>
<path d="M248.905 255C251.114 255 252.905 253.209 252.905 251C252.905 248.791 251.114 247 248.905 247C246.696 247 244.905 248.791 244.905 251C244.905 253.209 246.696 255 248.905 255Z" fill="#66ABE0"/>
<path d="M262.524 255C264.733 255 266.524 253.209 266.524 251C266.524 248.791 264.733 247 262.524 247C260.315 247 258.524 248.791 258.524 251C258.524 253.209 260.315 255 262.524 255Z" fill="#66ABE0"/>
<path d="M276.143 255C278.352 255 280.143 253.209 280.143 251C280.143 248.791 278.352 247 276.143 247C273.934 247 272.143 248.791 272.143 251C272.143 253.209 273.934 255 276.143 255Z" fill="#B8B8B8" fill-opacity="0.6"/>
<path d="M289.762 255C291.971 255 293.762 253.209 293.762 251C293.762 248.791 291.971 247 289.762 247C287.553 247 285.762 248.791 285.762 251C285.762 253.209 287.553 255 289.762 255Z" fill="#B8B8B8" fill-opacity="0.6"/>
<path d="M303.381 255C305.59 255 307.381 253.209 307.381 251C307.381 248.791 305.59 247 303.381 247C301.172 247 299.381 248.791 299.381 251C299.381 253.209 301.172 255 303.381 255Z" fill="#B8B8B8" fill-opacity="0.6"/>
<path d="M317 255C319.209 255 321 253.209 321 251C321 248.791 319.209 247 317 247C314.791 247 313 248.791 313 251C313 253.209 314.791 255 317 255Z" fill="#B8B8B8" fill-opacity="0.6"/>
<path d="M31 269C33.2091 269 35 267.209 35 265C35 262.791 33.2091 261 31 261C28.7909 261 27 262.791 27 265C27 267.209 28.7909 269 31 269Z" fill="#66ABE0"/>
<path d="M44.619 269C46.8282 269 48.619 267.209 48.619 265C48.619 262.791 46.8282 261 44.619 261C42.4099 261 40.619 262.791 40.619 265C40.619 267.209 42.4099 269 44.619 269Z" fill="#66ABE0"/>
<path d="M58.2381 269C60.4472 269 62.2381 267.209 62.2381 265C62.2381 262.791 60.4472 261 58.2381 261C56.029 261 54.2381 262.791 54.2381 265C54.2381 267.209 56.029 269 58.2381 269Z" fill="#66ABE0"/>
<path d="M71.8571 269C74.0663 269 75.8571 267.209 75.8571 265C75.8571 262.791 74.0663 261 71.8571 261C69.648 261 67.8571 262.791 67.8571 265C67.8571 267.209 69.648 269 71.8571 269Z" fill="#66ABE0"/>
<path d="M85.4762 269C87.6853 269 89.4762 267.209 89.4762 265C89.4762 262.791 87.6853 261 85.4762 261C83.2671 261 81.4762 262.791 81.4762 265C81.4762 267.209 83.2671 269 85.4762 269Z" fill="#66ABE0"/>
<path d="M99.0952 269C101.304 269 103.095 267.209 103.095 265C103.095 262.791 101.304 261 99.0952 261C96.8861 261 95.0952 262.791 95.0952 265C95.0952 267.209 96.8861 269 99.0952 269Z" fill="#66ABE0"/>
<path d="M112.714 269C114.923 269 116.714 267.209 116.714 265C116.714 262.791 114.923 261 112.714 261C110.505 261 108.714 262.791 108.714 265C108.714 267.209 110.505 269 112.714 269Z" fill="#66ABE0"/>
<path d="M126.333 269C128.542 269 130.333 267.209 130.333 265C130.333 262.791 128.542 261 126.333 261C124.124 261 122.333 262.791 122.333 265C122.333 267.209 124.124 269 126.333 269Z" fill="#66ABE0"/>
<path d="M139.952 269C142.162 269 143.952 267.209 143.952 265C143.952 262.791 142.162 261 139.952 261C137.743 261 135.952 262.791 135.952 265C135.952 267.209 137.743 269 139.952 269Z" fill="#66ABE0"/>
<path d="M153.571 269C155.781 269 157.571 267.209 157.571 265C157.571 262.791 155.781 261 153.571 261C151.362 261 149.571 262.791 149.571 265C149.571 267.209 151.362 269 153.571 269Z" fill="#66ABE0"/>
<path d="M167.19 269C169.4 269 171.19 267.209 171.19 265C171.19 262.791 169.4 261 167.19 261C164.981 261 163.19 262.791 163.19 265C163.19 267.209 164.981 269 167.19 269Z" fill="#66ABE0"/>
<path d="M180.81 269C183.019 269 184.81 267.209 184.81 265C184.81 262.791 183.019 261 180.81 261C178.6 261 176.81 262.791 176.81 265C176.81 267.209 178.6 269 180.81 269Z" fill="#66ABE0"/>
<path d="M194.429 269C196.638 269 198.429 267.209 198.429 265C198.429 262.791 196.638 261 194.429 261C192.219 261 190.429 262.791 190.429 265C190.429 267.209 192.219 269 194.429 269Z" fill="#66ABE0"/>
<path d="M208.048 269C210.257 269 212.048 267.209 212.048 265C212.048 262.791 210.257 261 208.048 261C205.838 261 204.048 262.791 204.048 265C204.048 267.209 205.838 269 208.048 269Z" fill="#66ABE0"/>
<path d="M221.667 269C223.876 269 225.667 267.209 225.667 265C225.667 262.791 223.876 261 221.667 261C219.458 261 217.667 262.791 217.667 265C217.667 267.209 219.458 269 221.667 269Z" fill="#66ABE0"/>
<path d="M235.286 269C237.495 269 239.286 267.209 239.286 265C239.286 262.791 237.495 261 235.286 261C233.077 261 231.286 262.791 231.286 265C231.286 267.209 233.077 269 235.286 269Z" fill="#66ABE0"/>
<path d="M248.905 269C251.114 269 252.905 267.209 252.905 265C252.905 262.791 251.114 261 248.905 261C246.696 261 244.905 262.791 244.905 265C244.905 267.209 246.696 269 248.905 269Z" fill="#66ABE0"/>
<path d="M262.524 269C264.733 269 266.524 267.209 266.524 265C266.524 262.791 264.733 261 262.524 261C260.315 261 258.524 262.791 258.524 265C258.524 267.209 260.315 269 262.524 269Z" fill="#66ABE0"/>
<path d="M276.143 269C278.352 269 280.143 267.209 280.143 265C280.143 262.791 278.352 261 276.143 261C273.934 261 272.143 262.791 272.143 265C272.143 267.209 273.934 269 276.143 269Z" fill="#66ABE0"/>
<path d="M289.762 269C291.971 269 293.762 267.209 293.762 265C293.762 262.791 291.971 261 289.762 261C287.553 261 285.762 262.791 285.762 265C285.762 267.209 287.553 269 289.762 269Z" fill="#B8B8B8" fill-opacity="0.6"/>
<path d="M303.381 269C305.59 269 307.381 267.209 307.381 265C307.381 262.791 305.59 261 303.381 261C301.172 261 299.381 262.791 299.381 265C299.381 267.209 301.172 269 303.381 269Z" fill="#B8B8B8" fill-opacity="0.6"/>
<path d="M317 269C319.209 269 321 267.209 321 265C321 262.791 319.209 261 317 261C314.791 261 313 262.791 313 265C313 267.209 314.791 269 317 269Z" fill="#B8B8B8" fill-opacity="0.6"/>
<path d="M31 283C33.2091 283 35 281.209 35 279C35 276.791 33.2091 275 31 275C28.7909 275 27 276.791 27 279C27 281.209 28.7909 283 31 283Z" fill="#66ABE0"/>
<path d="M44.619 283C46.8282 283 48.619 281.209 48.619 279C48.619 276.791 46.8282 275 44.619 275C42.4099 275 40.619 276.791 40.619 279C40.619 281.209 42.4099 283 44.619 283Z" fill="#66ABE0"/>
<path d="M58.2381 283C60.4472 283 62.2381 281.209 62.2381 279C62.2381 276.791 60.4472 275 58.2381 275C56.029 275 54.2381 276.791 54.2381 279C54.2381 281.209 56.029 283 58.2381 283Z" fill="#66ABE0"/>
<path d="M71.8571 283C74.0663 283 75.8571 281.209 75.8571 279C75.8571 276.791 74.0663 275 71.8571 275C69.648 275 67.8571 276.791 67.8571 279C67.8571 281.209 69.648 283 71.8571 283Z" fill="#66ABE0"/>
<path d="M85.4762 283C87.6853 283 89.4762 281.209 89.4762 279C89.4762 276.791 87.6853 275 85.4762 275C83.2671 275 81.4762 276.791 81.4762 279C81.4762 281.209 83.2671 283 85.4762 283Z" fill="#66ABE0"/>
<path d="M99.0952 283C101.304 283 103.095 281.209 103.095 279C103.095 276.791 101.304 275 99.0952 275C96.8861 275 95.0952 276.791 95.0952 279C95.0952 281.209 96.8861 283 99.0952 283Z" fill="#66ABE0"/>
<path d="M112.714 283C114.923 283 116.714 281.209 116.714 279C116.714 276.791 114.923 275 112.714 275C110.505 275 108.714 276.791 108.714 279C108.714 281.209 110.505 283 112.714 283Z" fill="#66ABE0"/>
<path d="M126.333 283C128.542 283 130.333 281.209 130.333 279C130.333 276.791 128.542 275 126.333 275C124.124 275 122.333 276.791 122.333 279C122.333 281.209 124.124 283 126.333 283Z" fill="#66ABE0"/>
<path d="M139.952 283C142.162 283 143.952 281.209 143.952 279C143.952 276.791 142.162 275 139.952 275C137.743 275 135.952 276.791 135.952 279C135.952 281.209 137.743 283 139.952 283Z" fill="#66ABE0"/>
<path d="M153.571 283C155.781 283 157.571 281.209 157.571 279C157.571 276.791 155.781 275 153.571 275C151.362 275 149.571 276.791 149.571 279C149.571 281.209 151.362 283 153.571 283Z" fill="#66ABE0"/>
<path d="M167.19 283C169.4 283 171.19 281.209 171.19 279C171.19 276.791 169.4 275 167.19 275C164.981 275 163.19 276.791 163.19 279C163.19 281.209 164.981 283 167.19 283Z" fill="#66ABE0"/>
<path d="M180.81 283C183.019 283 184.81 281.209 184.81 279C184.81 276.791 183.019 275 180.81 275C178.6 275 176.81 276.791 176.81 279C176.81 281.209 178.6 283 180.81 283Z" fill="#66ABE0"/>
<path d="M194.429 283C196.638 283 198.429 281.209 198.429 279C198.429 276.791 196.638 275 194.429 275C192.219 275 190.429 276.791 190.429 279C190.429 281.209 192.219 283 194.429 283Z" fill="#66ABE0"/>
<path d="M208.048 283C210.257 283 212.048 281.209 212.048 279C212.048 276.791 210.257 275 208.048 275C205.838 275 204.048 276.791 204.048 279C204.048 281.209 205.838 283 208.048 283Z" fill="#66ABE0"/>
<path d="M221.667 283C223.876 283 225.667 281.209 225.667 279C225.667 276.791 223.876 275 221.667 275C219.458 275 217.667 276.791 217.667 279C217.667 281.209 219.458 283 221.667 283Z" fill="#66ABE0"/>
<path d="M235.286 283C237.495 283 239.286 281.209 239.286 279C239.286 276.791 237.495 275 235.286 275C233.077 275 231.286 276.791 231.286 279C231.286 281.209 233.077 283 235.286 283Z" fill="#66ABE0"/>
<path d="M248.905 283C251.114 283 252.905 281.209 252.905 279C252.905 276.791 251.114 275 248.905 275C246.696 275 244.905 276.791 244.905 279C244.905 281.209 246.696 283 248.905 283Z" fill="#66ABE0"/>
<path d="M262.524 283C264.733 283 266.524 281.209 266.524 279C266.524 276.791 264.733 275 262.524 275C260.315 275 258.524 276.791 258.524 279C258.524 281.209 260.315 283 262.524 283Z" fill="#66ABE0"/>
<path d="M276.143 283C278.352 283 280.143 281.209 280.143 279C280.143 276.791 278.352 275 276.143 275C273.934 275 272.143 276.791 272.143 279C272.143 281.209 273.934 283 276.143 283Z" fill="#66ABE0"/>
<path d="M289.762 283C291.971 283 293.762 281.209 293.762 279C293.762 276.791 291.971 275 289.762 275C287.553 275 285.762 276.791 285.762 279C285.762 281.209 287.553 283 289.762 283Z" fill="#B8B8B8" fill-opacity="0.6"/>
<path d="M303.381 283C305.59 283 307.381 281.209 307.381 279C307.381 276.791 305.59 275 303.381 275C301.172 275 299.381 276.791 299.381 279C299.381 281.209 301.172 283 303.381 283Z" fill="#B8B8B8" fill-opacity="0.6"/>
<path d="M317 283C319.209 283 321 281.209 321 279C321 276.791 319.209 275 317 275C314.791 275 313 276.791 313 279C313 281.209 314.791 283 317 283Z" fill="#B8B8B8" fill-opacity="0.6"/>
</g>
<rect x="11.5" y="11.5" width="325" height="299" rx="4.5" stroke="url(#paint1_radial_2824_123436)" shape-rendering="crispEdges"/>
</g>
<defs>
<filter id="filter0_d_2824_123436" x="0" y="0" width="348" height="322" filterUnits="userSpaceOnUse" color-interpolation-filters="sRGB">
<feFlood flood-opacity="0" result="BackgroundImageFix"/>
<feColorMatrix in="SourceAlpha" type="matrix" values="0 0 0 0 0 0 0 0 0 0 0 0 0 0 0 0 0 0 127 0" result="hardAlpha"/>
<feMorphology radius="1" operator="dilate" in="SourceAlpha" result="effect1_dropShadow_2824_123436"/>
<feOffset/>
<feGaussianBlur stdDeviation="5"/>
<feComposite in2="hardAlpha" operator="out"/>
<feColorMatrix type="matrix" values="0 0 0 0 0.0117647 0 0 0 0 0.141176 0 0 0 0 0.196078 0 0 0 1 0"/>
<feBlend mode="normal" in2="BackgroundImageFix" result="effect1_dropShadow_2824_123436"/>
<feBlend mode="normal" in="SourceGraphic" in2="effect1_dropShadow_2824_123436" result="shape"/>
</filter>
<radialGradient id="paint0_radial_2824_123436" cx="0" cy="0" r="1" gradientUnits="userSpaceOnUse" gradientTransform="translate(181.191 38.3529) rotate(80.0273) scale(276.83 396.1)">
<stop offset="0.0885417" stop-color="#00419C"/>
<stop offset="1"/>
</radialGradient>
<radialGradient id="paint1_radial_2824_123436" cx="0" cy="0" r="1" gradientUnits="userSpaceOnUse" gradientTransform="translate(314.947 37.4706) rotate(117.262) scale(307.708 323.632)">
<stop stop-color="#1F3E78"/>
<stop offset="0.244792" stop-color="#142B56"/>
<stop offset="0.635417" stop-color="#162E5B"/>
<stop offset="1" stop-color="#06193E"/>
</radialGradient>
<clipPath id="clip0_2824_123436">
<rect width="294" height="134" fill="white" transform="translate(27 149)"/>
</clipPath>
</defs>
</svg>
