<svg width="348" height="322" viewBox="0 0 348 322" fill="none" xmlns="http://www.w3.org/2000/svg">
<g filter="url(#filter0_d_2824_123199)">
<rect x="11" y="11" width="326" height="300" rx="5" fill="url(#paint0_radial_2824_123199)" shape-rendering="crispEdges"/>
<path d="M44.568 55H28.504V51.416C37.24 44.984 39.8 42.776 39.8 40.152C39.8 38.296 38.104 37.368 36.312 37.368C33.912 37.368 32.056 38.328 30.616 39.832L28.024 36.824C30.104 34.424 33.272 33.336 36.248 33.336C40.792 33.336 44.408 35.896 44.408 40.152C44.408 43.8 41.4 46.968 35.672 51H44.568V55ZM46.8275 51.96L49.1955 48.984C50.6675 50.52 53.0035 51.416 55.0835 51.416C57.6755 51.416 59.1155 50.296 59.1155 48.664C59.1155 46.936 57.8035 46.136 54.8275 46.136C53.9315 46.136 52.4915 46.136 52.1715 46.168V42.2C52.5555 42.232 53.9955 42.232 54.8275 42.232C57.1955 42.232 58.7635 41.464 58.7635 39.864C58.7635 38.168 57.0355 37.304 54.7955 37.304C52.7155 37.304 50.8595 38.104 49.3555 39.544L47.1155 36.728C48.8435 34.776 51.5315 33.336 55.2755 33.336C60.2675 33.336 63.3395 35.576 63.3395 39.128C63.3395 41.816 61.0355 43.576 58.6675 43.992C60.8435 44.216 63.6595 45.912 63.6595 49.112C63.6595 52.792 60.3635 55.384 55.2435 55.384C51.3075 55.384 48.3955 53.88 46.8275 51.96ZM65.8008 38.712C65.8008 35.704 67.9448 33.336 71.2088 33.336C74.5048 33.336 76.6488 35.704 76.6488 38.712C76.6488 41.688 74.5048 43.96 71.2088 43.96C67.9448 43.96 65.8008 41.688 65.8008 38.712ZM71.5288 55H69.1288L82.7608 33.656H85.1928L71.5288 55ZM73.7368 38.712C73.7368 36.92 72.6808 35.864 71.2088 35.864C69.7688 35.864 68.6808 36.92 68.6808 38.712C68.6808 40.376 69.7688 41.464 71.2088 41.464C72.6808 41.464 73.7368 40.376 73.7368 38.712ZM77.5448 50.104C77.5448 47.096 79.6888 44.728 82.9528 44.728C86.2168 44.728 88.3928 47.096 88.3928 50.104C88.3928 53.08 86.2168 55.384 82.9528 55.384C79.6888 55.384 77.5448 53.08 77.5448 50.104ZM85.5128 50.104C85.5128 48.344 84.4248 47.256 82.9528 47.256C81.4808 47.256 80.4248 48.344 80.4248 50.104C80.4248 51.832 81.4808 52.888 82.9528 52.888C84.4248 52.888 85.5128 51.832 85.5128 50.104Z" fill="white"/>
<path d="M99.148 55.216C96.502 55.216 94.846 53.164 94.846 50.644C94.846 48.124 96.502 46.09 99.148 46.09C101.794 46.09 103.45 48.124 103.45 50.644C103.45 53.164 101.794 55.216 99.148 55.216ZM99.148 54.01C101.002 54.01 102.028 52.426 102.028 50.644C102.028 48.88 101.002 47.296 99.148 47.296C97.294 47.296 96.25 48.88 96.25 50.644C96.25 52.426 97.294 54.01 99.148 54.01ZM109.143 47.494H107.379V55H106.029V47.494H104.589V46.306H106.029V45.64C106.029 43.84 107.037 42.814 108.549 42.814C109.053 42.814 109.521 42.904 109.863 43.12L109.521 44.128C109.305 44.002 109.053 43.93 108.747 43.93C107.865 43.93 107.379 44.542 107.379 45.64V46.306H109.143V47.494ZM114.633 53.848L115.335 52.876C115.911 53.542 117.009 54.118 118.197 54.118C119.529 54.118 120.249 53.524 120.249 52.678C120.249 51.724 119.187 51.418 118.017 51.13C116.541 50.788 114.867 50.392 114.867 48.592C114.867 47.242 116.037 46.09 118.107 46.09C119.583 46.09 120.627 46.648 121.329 47.35L120.699 48.286C120.177 47.656 119.223 47.188 118.107 47.188C116.919 47.188 116.181 47.728 116.181 48.502C116.181 49.348 117.171 49.618 118.305 49.888C119.817 50.23 121.563 50.662 121.563 52.588C121.563 54.046 120.393 55.216 118.143 55.216C116.721 55.216 115.515 54.784 114.633 53.848ZM130.974 55H129.624V53.776C128.958 54.532 127.824 55.216 126.528 55.216C124.71 55.216 123.756 54.334 123.756 52.444V46.306H125.106V52.03C125.106 53.56 125.88 54.01 127.05 54.01C128.112 54.01 129.12 53.398 129.624 52.696V46.306H130.974V55ZM135.02 55H133.67V46.306H135.02V47.71C135.722 46.792 136.73 46.126 137.918 46.126V47.512C137.756 47.476 137.594 47.458 137.378 47.458C136.55 47.458 135.416 48.142 135.02 48.844V55ZM143.41 55H141.934L138.316 46.306H139.774L142.672 53.434L145.552 46.306H147.028L143.41 55ZM147.932 50.644C147.932 48.124 149.732 46.09 152.216 46.09C154.844 46.09 156.392 48.142 156.392 50.752V51.094H149.354C149.462 52.732 150.614 54.1 152.486 54.1C153.476 54.1 154.484 53.704 155.168 53.002L155.816 53.884C154.952 54.748 153.782 55.216 152.36 55.216C149.786 55.216 147.932 53.362 147.932 50.644ZM152.198 47.206C150.344 47.206 149.426 48.772 149.354 50.104H155.06C155.042 48.808 154.178 47.206 152.198 47.206ZM158.093 58.402L158.309 57.178C158.507 57.268 158.831 57.322 159.047 57.322C159.641 57.322 160.037 57.124 160.343 56.404L160.919 55.09L157.283 46.306H158.741L161.639 53.434L164.519 46.306H165.995L161.639 56.764C161.117 58.024 160.235 58.51 159.083 58.528C158.795 58.528 158.345 58.474 158.093 58.402ZM166.899 50.644C166.899 48.124 168.699 46.09 171.183 46.09C173.811 46.09 175.359 48.142 175.359 50.752V51.094H168.321C168.429 52.732 169.581 54.1 171.453 54.1C172.443 54.1 173.451 53.704 174.135 53.002L174.783 53.884C173.919 54.748 172.749 55.216 171.327 55.216C168.753 55.216 166.899 53.362 166.899 50.644ZM171.165 47.206C169.311 47.206 168.393 48.772 168.321 50.104H174.027C174.009 48.808 173.145 47.206 171.165 47.206ZM185.195 55H183.845V53.704C183.197 54.586 182.135 55.216 180.911 55.216C178.643 55.216 177.041 53.488 177.041 50.662C177.041 47.89 178.625 46.09 180.911 46.09C182.081 46.09 183.143 46.666 183.845 47.62V42.994H185.195V55ZM183.845 52.642V48.7C183.359 47.944 182.315 47.296 181.235 47.296C179.489 47.296 178.445 48.736 178.445 50.662C178.445 52.588 179.489 54.01 181.235 54.01C182.315 54.01 183.359 53.398 183.845 52.642ZM192.035 50.644C192.035 48.07 193.781 46.09 196.373 46.09C197.957 46.09 198.893 46.738 199.559 47.602L198.659 48.43C198.083 47.638 197.345 47.296 196.445 47.296C194.591 47.296 193.439 48.718 193.439 50.644C193.439 52.57 194.591 54.01 196.445 54.01C197.345 54.01 198.083 53.65 198.659 52.876L199.559 53.704C198.893 54.568 197.957 55.216 196.373 55.216C193.781 55.216 192.035 53.236 192.035 50.644ZM202.118 44.848C201.632 44.848 201.218 44.434 201.218 43.93C201.218 43.426 201.632 43.03 202.118 43.03C202.622 43.03 203.036 43.426 203.036 43.93C203.036 44.434 202.622 44.848 202.118 44.848ZM202.802 55H201.452V46.306H202.802V55ZM207.691 55.216C206.413 55.216 205.765 54.478 205.765 53.182V47.494H204.325V46.306H205.765V43.93H207.115V46.306H208.879V47.494H207.115V52.894C207.115 53.542 207.403 54.01 207.997 54.01C208.375 54.01 208.735 53.848 208.915 53.65L209.311 54.658C208.969 54.982 208.483 55.216 207.691 55.216ZM211.452 44.848C210.966 44.848 210.552 44.434 210.552 43.93C210.552 43.426 210.966 43.03 211.452 43.03C211.956 43.03 212.37 43.426 212.37 43.93C212.37 44.434 211.956 44.848 211.452 44.848ZM212.136 55H210.786V46.306H212.136V55ZM214.325 50.644C214.325 48.124 216.125 46.09 218.609 46.09C221.237 46.09 222.785 48.142 222.785 50.752V51.094H215.747C215.855 52.732 217.007 54.1 218.879 54.1C219.869 54.1 220.877 53.704 221.561 53.002L222.209 53.884C221.345 54.748 220.175 55.216 218.753 55.216C216.179 55.216 214.325 53.362 214.325 50.644ZM218.591 47.206C216.737 47.206 215.819 48.772 215.747 50.104H221.453C221.435 48.808 220.571 47.206 218.591 47.206ZM224.215 53.848L224.917 52.876C225.493 53.542 226.591 54.118 227.779 54.118C229.111 54.118 229.831 53.524 229.831 52.678C229.831 51.724 228.769 51.418 227.599 51.13C226.123 50.788 224.449 50.392 224.449 48.592C224.449 47.242 225.619 46.09 227.689 46.09C229.165 46.09 230.209 46.648 230.911 47.35L230.281 48.286C229.759 47.656 228.805 47.188 227.689 47.188C226.501 47.188 225.763 47.728 225.763 48.502C225.763 49.348 226.753 49.618 227.887 49.888C229.399 50.23 231.145 50.662 231.145 52.588C231.145 54.046 229.975 55.216 227.725 55.216C226.303 55.216 225.097 54.784 224.215 53.848Z" fill="white"/>
<path d="M36.54 79H35.04V72.64C35.04 70.94 34.16 70.44 32.86 70.44C31.7 70.44 30.58 71.16 30 71.94V79H28.5V65.66H30V70.74C30.68 69.94 32 69.1 33.46 69.1C35.48 69.1 36.54 70.08 36.54 72.18V79ZM47.0752 79H45.5752V77.9C44.7752 78.78 43.6752 79.24 42.3752 79.24C40.7352 79.24 38.9952 78.14 38.9952 76.04C38.9952 73.88 40.7352 72.86 42.3752 72.86C43.6952 72.86 44.7952 73.28 45.5752 74.18V72.44C45.5752 71.14 44.5352 70.4 43.1352 70.4C41.9752 70.4 41.0352 70.82 40.1752 71.74L39.4752 70.7C40.5152 69.62 41.7552 69.1 43.3352 69.1C45.3752 69.1 47.0752 70.02 47.0752 72.36V79ZM45.5752 76.96V75.14C44.9952 74.34 43.9752 73.94 42.9152 73.94C41.5152 73.94 40.5352 74.82 40.5352 76.06C40.5352 77.28 41.5152 78.16 42.9152 78.16C43.9752 78.16 44.9952 77.76 45.5752 76.96ZM54.302 79H52.662L48.642 69.34H50.262L53.482 77.26L56.682 69.34H58.322L54.302 79ZM59.3267 74.16C59.3267 71.36 61.3267 69.1 64.0867 69.1C67.0067 69.1 68.7267 71.38 68.7267 74.28V74.66H60.9067C61.0267 76.48 62.3067 78 64.3867 78C65.4867 78 66.6067 77.56 67.3667 76.78L68.0867 77.76C67.1267 78.72 65.8267 79.24 64.2467 79.24C61.3867 79.24 59.3267 77.18 59.3267 74.16ZM64.0667 70.34C62.0067 70.34 60.9867 72.08 60.9067 73.56H67.2467C67.2267 72.12 66.2667 70.34 64.0667 70.34ZM83.8525 79H82.3525V77.9C81.5525 78.78 80.4525 79.24 79.1525 79.24C77.5125 79.24 75.7725 78.14 75.7725 76.04C75.7725 73.88 77.5125 72.86 79.1525 72.86C80.4725 72.86 81.5725 73.28 82.3525 74.18V72.44C82.3525 71.14 81.3125 70.4 79.9125 70.4C78.7525 70.4 77.8125 70.82 76.9525 71.74L76.2525 70.7C77.2925 69.62 78.5325 69.1 80.1125 69.1C82.1525 69.1 83.8525 70.02 83.8525 72.36V79ZM82.3525 76.96V75.14C81.7725 74.34 80.7525 73.94 79.6925 73.94C78.2925 73.94 77.3125 74.82 77.3125 76.06C77.3125 77.28 78.2925 78.16 79.6925 78.16C80.7525 78.16 81.7725 77.76 82.3525 76.96ZM100.516 79H99.0156V77.56C98.2956 78.54 97.1156 79.24 95.7556 79.24C93.2356 79.24 91.4556 77.32 91.4556 74.18C91.4556 71.1 93.2156 69.1 95.7556 69.1C97.0556 69.1 98.2356 69.74 99.0156 70.8V65.66H100.516V79ZM99.0156 76.38V72C98.4756 71.16 97.3156 70.44 96.1156 70.44C94.1756 70.44 93.0156 72.04 93.0156 74.18C93.0156 76.32 94.1756 77.9 96.1156 77.9C97.3156 77.9 98.4756 77.22 99.0156 76.38ZM102.96 74.16C102.96 71.36 104.96 69.1 107.72 69.1C110.64 69.1 112.36 71.38 112.36 74.28V74.66H104.54C104.66 76.48 105.94 78 108.02 78C109.12 78 110.24 77.56 111 76.78L111.72 77.76C110.76 78.72 109.46 79.24 107.88 79.24C105.02 79.24 102.96 77.18 102.96 74.16ZM107.7 70.34C105.64 70.34 104.62 72.08 104.54 73.56H110.88C110.86 72.12 109.9 70.34 107.7 70.34ZM113.949 77.72L114.729 76.64C115.369 77.38 116.589 78.02 117.909 78.02C119.389 78.02 120.189 77.36 120.189 76.42C120.189 75.36 119.009 75.02 117.709 74.7C116.069 74.32 114.209 73.88 114.209 71.88C114.209 70.38 115.509 69.1 117.809 69.1C119.449 69.1 120.609 69.72 121.389 70.5L120.689 71.54C120.109 70.84 119.049 70.32 117.809 70.32C116.489 70.32 115.669 70.92 115.669 71.78C115.669 72.72 116.769 73.02 118.029 73.32C119.709 73.7 121.649 74.18 121.649 76.32C121.649 77.94 120.349 79.24 117.849 79.24C116.269 79.24 114.929 78.76 113.949 77.72ZM124.826 67.72C124.286 67.72 123.826 67.26 123.826 66.7C123.826 66.14 124.286 65.7 124.826 65.7C125.386 65.7 125.846 66.14 125.846 66.7C125.846 67.26 125.386 67.72 124.826 67.72ZM125.586 79H124.086V69.34H125.586V79ZM128.558 81.48L129.318 80.36C130.118 81.32 131.078 81.68 132.458 81.68C134.058 81.68 135.558 80.9 135.558 78.78V77.4C134.858 78.38 133.678 79.12 132.318 79.12C129.798 79.12 128.018 77.24 128.018 74.12C128.018 71.02 129.778 69.1 132.318 69.1C133.618 69.1 134.778 69.74 135.558 70.8V69.34H137.058V78.72C137.058 81.92 134.818 82.92 132.458 82.92C130.818 82.92 129.698 82.6 128.558 81.48ZM135.558 76.22V72C135.038 71.16 133.878 70.44 132.678 70.44C130.738 70.44 129.578 71.98 129.578 74.12C129.578 76.24 130.738 77.8 132.678 77.8C133.878 77.8 135.038 77.06 135.558 76.22ZM148.083 79H146.583V72.68C146.583 70.98 145.723 70.44 144.423 70.44C143.243 70.44 142.123 71.16 141.563 71.94V79H140.063V69.34H141.563V70.74C142.243 69.94 143.562 69.1 145.003 69.1C147.023 69.1 148.083 70.12 148.083 72.22V79ZM158.618 79H157.118V77.9C156.318 78.78 155.218 79.24 153.918 79.24C152.278 79.24 150.538 78.14 150.538 76.04C150.538 73.88 152.278 72.86 153.918 72.86C155.238 72.86 156.338 73.28 157.118 74.18V72.44C157.118 71.14 156.078 70.4 154.678 70.4C153.518 70.4 152.578 70.82 151.718 71.74L151.018 70.7C152.058 69.62 153.298 69.1 154.878 69.1C156.918 69.1 158.618 70.02 158.618 72.36V79ZM157.118 76.96V75.14C156.538 74.34 155.518 73.94 154.458 73.94C153.058 73.94 152.078 74.82 152.078 76.06C152.078 77.28 153.058 78.16 154.458 78.16C155.518 78.16 156.538 77.76 157.118 76.96ZM164.065 79.24C162.645 79.24 161.925 78.42 161.925 76.98V70.66H160.325V69.34H161.925V66.7H163.425V69.34H165.385V70.66H163.425V76.66C163.425 77.38 163.745 77.9 164.405 77.9C164.825 77.9 165.225 77.72 165.425 77.5L165.865 78.62C165.485 78.98 164.945 79.24 164.065 79.24ZM166.944 74.16C166.944 71.36 168.944 69.1 171.704 69.1C174.624 69.1 176.344 71.38 176.344 74.28V74.66H168.524C168.644 76.48 169.924 78 172.004 78C173.104 78 174.224 77.56 174.984 76.78L175.704 77.76C174.744 78.72 173.444 79.24 171.864 79.24C169.004 79.24 166.944 77.18 166.944 74.16ZM171.684 70.34C169.624 70.34 168.604 72.08 168.524 73.56H174.864C174.844 72.12 173.884 70.34 171.684 70.34ZM187.273 79H185.773V77.56C185.053 78.54 183.873 79.24 182.513 79.24C179.993 79.24 178.213 77.32 178.213 74.18C178.213 71.1 179.973 69.1 182.513 69.1C183.813 69.1 184.993 69.74 185.773 70.8V65.66H187.273V79ZM185.773 76.38V72C185.233 71.16 184.073 70.44 182.873 70.44C180.933 70.44 179.773 72.04 179.773 74.18C179.773 76.32 180.933 77.9 182.873 77.9C184.073 77.9 185.233 77.22 185.773 76.38ZM28.48 105.48L29.24 104.36C30.04 105.32 31 105.68 32.38 105.68C33.98 105.68 35.48 104.9 35.48 102.78V101.4C34.78 102.38 33.6 103.12 32.24 103.12C29.72 103.12 27.94 101.24 27.94 98.12C27.94 95.02 29.7 93.1 32.24 93.1C33.54 93.1 34.7 93.74 35.48 94.8V93.34H36.98V102.72C36.98 105.92 34.74 106.92 32.38 106.92C30.74 106.92 29.62 106.6 28.48 105.48ZM35.48 100.22V96C34.96 95.16 33.8 94.44 32.6 94.44C30.66 94.44 29.5 95.98 29.5 98.12C29.5 100.24 30.66 101.8 32.6 101.8C33.8 101.8 34.96 101.06 35.48 100.22ZM39.4244 98.16C39.4244 95.36 41.4244 93.1 44.1844 93.1C47.1044 93.1 48.8244 95.38 48.8244 98.28V98.66H41.0044C41.1244 100.48 42.4044 102 44.4844 102C45.5844 102 46.7044 101.56 47.4644 100.78L48.1844 101.76C47.2244 102.72 45.9244 103.24 44.3444 103.24C41.4844 103.24 39.4244 101.18 39.4244 98.16ZM44.1644 94.34C42.1044 94.34 41.0844 96.08 41.0044 97.56H47.3444C47.3244 96.12 46.3644 94.34 44.1644 94.34ZM59.2739 103H57.7739V96.68C57.7739 94.98 56.9139 94.44 55.6139 94.44C54.4339 94.44 53.3139 95.16 52.7539 95.94V103H51.2539V93.34H52.7539V94.74C53.4339 93.94 54.7539 93.1 56.1939 93.1C58.2139 93.1 59.2739 94.12 59.2739 96.22V103ZM61.7095 98.16C61.7095 95.36 63.7095 93.1 66.4695 93.1C69.3895 93.1 71.1095 95.38 71.1095 98.28V98.66H63.2895C63.4095 100.48 64.6895 102 66.7695 102C67.8695 102 68.9895 101.56 69.7495 100.78L70.4695 101.76C69.5095 102.72 68.2095 103.24 66.6295 103.24C63.7695 103.24 61.7095 101.18 61.7095 98.16ZM66.4495 94.34C64.3895 94.34 63.3695 96.08 63.2895 97.56H69.6295C69.6095 96.12 68.6495 94.34 66.4495 94.34ZM75.0391 103H73.5391V93.34H75.0391V94.9C75.8191 93.88 76.9391 93.14 78.2591 93.14V94.68C78.0791 94.64 77.8991 94.62 77.6591 94.62C76.7391 94.62 75.4791 95.38 75.0391 96.16V103ZM87.6806 103H86.1806V101.9C85.3806 102.78 84.2806 103.24 82.9806 103.24C81.3406 103.24 79.6006 102.14 79.6006 100.04C79.6006 97.88 81.3406 96.86 82.9806 96.86C84.3006 96.86 85.4006 97.28 86.1806 98.18V96.44C86.1806 95.14 85.1406 94.4 83.7406 94.4C82.5806 94.4 81.6406 94.82 80.7806 95.74L80.0806 94.7C81.1206 93.62 82.3606 93.1 83.9406 93.1C85.9806 93.1 87.6806 94.02 87.6806 96.36V103ZM86.1806 100.96V99.14C85.6006 98.34 84.5806 97.94 83.5206 97.94C82.1206 97.94 81.1406 98.82 81.1406 100.06C81.1406 101.28 82.1206 102.16 83.5206 102.16C84.5806 102.16 85.6006 101.76 86.1806 100.96ZM93.1275 103.24C91.7075 103.24 90.9875 102.42 90.9875 100.98V94.66H89.3875V93.34H90.9875V90.7H92.4875V93.34H94.4475V94.66H92.4875V100.66C92.4875 101.38 92.8075 101.9 93.4675 101.9C93.8875 101.9 94.2875 101.72 94.4875 101.5L94.9275 102.62C94.5475 102.98 94.0075 103.24 93.1275 103.24ZM97.3064 91.72C96.7664 91.72 96.3064 91.26 96.3064 90.7C96.3064 90.14 96.7664 89.7 97.3064 89.7C97.8664 89.7 98.3264 90.14 98.3264 90.7C98.3264 91.26 97.8664 91.72 97.3064 91.72ZM98.0664 103H96.5664V93.34H98.0664V103ZM105.279 103H103.639L99.6186 93.34H101.239L104.459 101.26L107.659 93.34H109.299L105.279 103ZM110.303 98.16C110.303 95.36 112.303 93.1 115.063 93.1C117.983 93.1 119.703 95.38 119.703 98.28V98.66H111.883C112.003 100.48 113.283 102 115.363 102C116.463 102 117.583 101.56 118.343 100.78L119.063 101.76C118.103 102.72 116.803 103.24 115.223 103.24C112.363 103.24 110.303 101.18 110.303 98.16ZM115.043 94.34C112.983 94.34 111.963 96.08 111.883 97.56H118.223C118.203 96.12 117.243 94.34 115.043 94.34ZM138.769 103H136.929L135.749 100.04H128.989L127.809 103H125.969L131.329 89.66H133.389L138.769 103ZM135.249 98.56L132.369 91.14L129.469 98.56H135.249ZM142.173 103H140.513V89.66H142.173V103ZM151.895 103H150.395V89.66H151.895V103ZM154.327 98.16C154.327 95.36 156.327 93.1 159.087 93.1C162.007 93.1 163.727 95.38 163.727 98.28V98.66H155.907C156.027 100.48 157.307 102 159.387 102C160.487 102 161.607 101.56 162.367 100.78L163.087 101.76C162.127 102.72 160.827 103.24 159.247 103.24C156.387 103.24 154.327 101.18 154.327 98.16ZM159.067 94.34C157.007 94.34 155.987 96.08 155.907 97.56H162.247C162.227 96.12 161.267 94.34 159.067 94.34ZM173.696 103H172.196V101.9C171.396 102.78 170.296 103.24 168.996 103.24C167.356 103.24 165.616 102.14 165.616 100.04C165.616 97.88 167.356 96.86 168.996 96.86C170.316 96.86 171.416 97.28 172.196 98.18V96.44C172.196 95.14 171.156 94.4 169.756 94.4C168.596 94.4 167.656 94.82 166.796 95.74L166.096 94.7C167.136 93.62 168.376 93.1 169.956 93.1C171.996 93.1 173.696 94.02 173.696 96.36V103ZM172.196 100.96V99.14C171.616 98.34 170.596 97.94 169.536 97.94C168.136 97.94 167.156 98.82 167.156 100.06C167.156 101.28 168.136 102.16 169.536 102.16C170.596 102.16 171.616 101.76 172.196 100.96ZM185.203 103H183.703V101.56C182.983 102.54 181.803 103.24 180.443 103.24C177.923 103.24 176.143 101.32 176.143 98.18C176.143 95.1 177.903 93.1 180.443 93.1C181.743 93.1 182.923 93.74 183.703 94.8V89.66H185.203V103ZM183.703 100.38V96C183.163 95.16 182.003 94.44 180.803 94.44C178.863 94.44 177.703 96.04 177.703 98.18C177.703 100.32 178.863 101.9 180.803 101.9C182.003 101.9 183.163 101.22 183.703 100.38Z" fill="white"/>
<g clip-path="url(#clip0_2824_123199)">
<path d="M31 157C33.2091 157 35 155.209 35 153C35 150.791 33.2091 149 31 149C28.7909 149 27 150.791 27 153C27 155.209 28.7909 157 31 157Z" fill="#7FD3C5"/>
<path d="M44.619 157C46.8282 157 48.619 155.209 48.619 153C48.619 150.791 46.8282 149 44.619 149C42.4099 149 40.619 150.791 40.619 153C40.619 155.209 42.4099 157 44.619 157Z" fill="#7FD3C5"/>
<path d="M58.2381 157C60.4472 157 62.2381 155.209 62.2381 153C62.2381 150.791 60.4472 149 58.2381 149C56.029 149 54.2381 150.791 54.2381 153C54.2381 155.209 56.029 157 58.2381 157Z" fill="#7FD3C5"/>
<path d="M71.8571 157C74.0663 157 75.8571 155.209 75.8571 153C75.8571 150.791 74.0663 149 71.8571 149C69.648 149 67.8571 150.791 67.8571 153C67.8571 155.209 69.648 157 71.8571 157Z" fill="#7FD3C5"/>
<path d="M85.4762 157C87.6853 157 89.4762 155.209 89.4762 153C89.4762 150.791 87.6853 149 85.4762 149C83.2671 149 81.4762 150.791 81.4762 153C81.4762 155.209 83.2671 157 85.4762 157Z" fill="#7D7D7D" fill-opacity="0.8"/>
<path d="M99.0952 157C101.304 157 103.095 155.209 103.095 153C103.095 150.791 101.304 149 99.0952 149C96.8861 149 95.0952 150.791 95.0952 153C95.0952 155.209 96.8861 157 99.0952 157Z" fill="#7D7D7D" fill-opacity="0.8"/>
<path d="M112.714 157C114.923 157 116.714 155.209 116.714 153C116.714 150.791 114.923 149 112.714 149C110.505 149 108.714 150.791 108.714 153C108.714 155.209 110.505 157 112.714 157Z" fill="#7D7D7D" fill-opacity="0.8"/>
<path d="M126.333 157C128.542 157 130.333 155.209 130.333 153C130.333 150.791 128.542 149 126.333 149C124.124 149 122.333 150.791 122.333 153C122.333 155.209 124.124 157 126.333 157Z" fill="#7D7D7D" fill-opacity="0.8"/>
<path d="M139.952 157C142.162 157 143.952 155.209 143.952 153C143.952 150.791 142.162 149 139.952 149C137.743 149 135.952 150.791 135.952 153C135.952 155.209 137.743 157 139.952 157Z" fill="#7D7D7D" fill-opacity="0.8"/>
<path d="M153.571 157C155.781 157 157.571 155.209 157.571 153C157.571 150.791 155.781 149 153.571 149C151.362 149 149.571 150.791 149.571 153C149.571 155.209 151.362 157 153.571 157Z" fill="#7D7D7D" fill-opacity="0.8"/>
<path d="M167.19 157C169.4 157 171.19 155.209 171.19 153C171.19 150.791 169.4 149 167.19 149C164.981 149 163.19 150.791 163.19 153C163.19 155.209 164.981 157 167.19 157Z" fill="#7D7D7D" fill-opacity="0.8"/>
<path d="M180.81 157C183.019 157 184.81 155.209 184.81 153C184.81 150.791 183.019 149 180.81 149C178.6 149 176.81 150.791 176.81 153C176.81 155.209 178.6 157 180.81 157Z" fill="#7D7D7D" fill-opacity="0.8"/>
<path d="M194.429 157C196.638 157 198.429 155.209 198.429 153C198.429 150.791 196.638 149 194.429 149C192.219 149 190.429 150.791 190.429 153C190.429 155.209 192.219 157 194.429 157Z" fill="#7D7D7D" fill-opacity="0.8"/>
<path d="M208.048 157C210.257 157 212.048 155.209 212.048 153C212.048 150.791 210.257 149 208.048 149C205.838 149 204.048 150.791 204.048 153C204.048 155.209 205.838 157 208.048 157Z" fill="#7D7D7D" fill-opacity="0.8"/>
<path d="M221.667 157C223.876 157 225.667 155.209 225.667 153C225.667 150.791 223.876 149 221.667 149C219.458 149 217.667 150.791 217.667 153C217.667 155.209 219.458 157 221.667 157Z" fill="#7D7D7D" fill-opacity="0.8"/>
<path d="M235.286 157C237.495 157 239.286 155.209 239.286 153C239.286 150.791 237.495 149 235.286 149C233.077 149 231.286 150.791 231.286 153C231.286 155.209 233.077 157 235.286 157Z" fill="#7D7D7D" fill-opacity="0.8"/>
<path d="M248.905 157C251.114 157 252.905 155.209 252.905 153C252.905 150.791 251.114 149 248.905 149C246.696 149 244.905 150.791 244.905 153C244.905 155.209 246.696 157 248.905 157Z" fill="#7D7D7D" fill-opacity="0.8"/>
<path d="M262.524 157C264.733 157 266.524 155.209 266.524 153C266.524 150.791 264.733 149 262.524 149C260.315 149 258.524 150.791 258.524 153C258.524 155.209 260.315 157 262.524 157Z" fill="#7D7D7D" fill-opacity="0.8"/>
<path d="M276.143 157C278.352 157 280.143 155.209 280.143 153C280.143 150.791 278.352 149 276.143 149C273.934 149 272.143 150.791 272.143 153C272.143 155.209 273.934 157 276.143 157Z" fill="#7D7D7D" fill-opacity="0.8"/>
<path d="M289.762 157C291.971 157 293.762 155.209 293.762 153C293.762 150.791 291.971 149 289.762 149C287.553 149 285.762 150.791 285.762 153C285.762 155.209 287.553 157 289.762 157Z" fill="#7D7D7D" fill-opacity="0.8"/>
<path d="M303.381 157C305.59 157 307.381 155.209 307.381 153C307.381 150.791 305.59 149 303.381 149C301.172 149 299.381 150.791 299.381 153C299.381 155.209 301.172 157 303.381 157Z" fill="#7D7D7D" fill-opacity="0.8"/>
<path d="M317 157C319.209 157 321 155.209 321 153C321 150.791 319.209 149 317 149C314.791 149 313 150.791 313 153C313 155.209 314.791 157 317 157Z" fill="#7D7D7D" fill-opacity="0.8"/>
<path d="M31 171C33.2091 171 35 169.209 35 167C35 164.791 33.2091 163 31 163C28.7909 163 27 164.791 27 167C27 169.209 28.7909 171 31 171Z" fill="#7FD3C5"/>
<path d="M44.619 171C46.8282 171 48.619 169.209 48.619 167C48.619 164.791 46.8282 163 44.619 163C42.4099 163 40.619 164.791 40.619 167C40.619 169.209 42.4099 171 44.619 171Z" fill="#7FD3C5"/>
<path d="M58.2381 171C60.4472 171 62.2381 169.209 62.2381 167C62.2381 164.791 60.4472 163 58.2381 163C56.029 163 54.2381 164.791 54.2381 167C54.2381 169.209 56.029 171 58.2381 171Z" fill="#7FD3C5"/>
<path d="M71.8571 171C74.0663 171 75.8571 169.209 75.8571 167C75.8571 164.791 74.0663 163 71.8571 163C69.648 163 67.8571 164.791 67.8571 167C67.8571 169.209 69.648 171 71.8571 171Z" fill="#7FD3C5"/>
<path d="M85.4762 171C87.6853 171 89.4762 169.209 89.4762 167C89.4762 164.791 87.6853 163 85.4762 163C83.2671 163 81.4762 164.791 81.4762 167C81.4762 169.209 83.2671 171 85.4762 171Z" fill="#7D7D7D" fill-opacity="0.8"/>
<path d="M99.0952 171C101.304 171 103.095 169.209 103.095 167C103.095 164.791 101.304 163 99.0952 163C96.8861 163 95.0952 164.791 95.0952 167C95.0952 169.209 96.8861 171 99.0952 171Z" fill="#7D7D7D" fill-opacity="0.8"/>
<path d="M112.714 171C114.923 171 116.714 169.209 116.714 167C116.714 164.791 114.923 163 112.714 163C110.505 163 108.714 164.791 108.714 167C108.714 169.209 110.505 171 112.714 171Z" fill="#7D7D7D" fill-opacity="0.8"/>
<path d="M126.333 171C128.542 171 130.333 169.209 130.333 167C130.333 164.791 128.542 163 126.333 163C124.124 163 122.333 164.791 122.333 167C122.333 169.209 124.124 171 126.333 171Z" fill="#7D7D7D" fill-opacity="0.8"/>
<path d="M139.952 171C142.162 171 143.952 169.209 143.952 167C143.952 164.791 142.162 163 139.952 163C137.743 163 135.952 164.791 135.952 167C135.952 169.209 137.743 171 139.952 171Z" fill="#7D7D7D" fill-opacity="0.8"/>
<path d="M153.571 171C155.781 171 157.571 169.209 157.571 167C157.571 164.791 155.781 163 153.571 163C151.362 163 149.571 164.791 149.571 167C149.571 169.209 151.362 171 153.571 171Z" fill="#7D7D7D" fill-opacity="0.8"/>
<path d="M167.19 171C169.4 171 171.19 169.209 171.19 167C171.19 164.791 169.4 163 167.19 163C164.981 163 163.19 164.791 163.19 167C163.19 169.209 164.981 171 167.19 171Z" fill="#7D7D7D" fill-opacity="0.8"/>
<path d="M180.81 171C183.019 171 184.81 169.209 184.81 167C184.81 164.791 183.019 163 180.81 163C178.6 163 176.81 164.791 176.81 167C176.81 169.209 178.6 171 180.81 171Z" fill="#7D7D7D" fill-opacity="0.8"/>
<path d="M194.429 171C196.638 171 198.429 169.209 198.429 167C198.429 164.791 196.638 163 194.429 163C192.219 163 190.429 164.791 190.429 167C190.429 169.209 192.219 171 194.429 171Z" fill="#7D7D7D" fill-opacity="0.8"/>
<path d="M208.048 171C210.257 171 212.048 169.209 212.048 167C212.048 164.791 210.257 163 208.048 163C205.838 163 204.048 164.791 204.048 167C204.048 169.209 205.838 171 208.048 171Z" fill="#7D7D7D" fill-opacity="0.8"/>
<path d="M221.667 171C223.876 171 225.667 169.209 225.667 167C225.667 164.791 223.876 163 221.667 163C219.458 163 217.667 164.791 217.667 167C217.667 169.209 219.458 171 221.667 171Z" fill="#7D7D7D" fill-opacity="0.8"/>
<path d="M235.286 171C237.495 171 239.286 169.209 239.286 167C239.286 164.791 237.495 163 235.286 163C233.077 163 231.286 164.791 231.286 167C231.286 169.209 233.077 171 235.286 171Z" fill="#7D7D7D" fill-opacity="0.8"/>
<path d="M248.905 171C251.114 171 252.905 169.209 252.905 167C252.905 164.791 251.114 163 248.905 163C246.696 163 244.905 164.791 244.905 167C244.905 169.209 246.696 171 248.905 171Z" fill="#7D7D7D" fill-opacity="0.8"/>
<path d="M262.524 171C264.733 171 266.524 169.209 266.524 167C266.524 164.791 264.733 163 262.524 163C260.315 163 258.524 164.791 258.524 167C258.524 169.209 260.315 171 262.524 171Z" fill="#7D7D7D" fill-opacity="0.8"/>
<path d="M276.143 171C278.352 171 280.143 169.209 280.143 167C280.143 164.791 278.352 163 276.143 163C273.934 163 272.143 164.791 272.143 167C272.143 169.209 273.934 171 276.143 171Z" fill="#7D7D7D" fill-opacity="0.8"/>
<path d="M289.762 171C291.971 171 293.762 169.209 293.762 167C293.762 164.791 291.971 163 289.762 163C287.553 163 285.762 164.791 285.762 167C285.762 169.209 287.553 171 289.762 171Z" fill="#7D7D7D" fill-opacity="0.8"/>
<path d="M303.381 171C305.59 171 307.381 169.209 307.381 167C307.381 164.791 305.59 163 303.381 163C301.172 163 299.381 164.791 299.381 167C299.381 169.209 301.172 171 303.381 171Z" fill="#7D7D7D" fill-opacity="0.8"/>
<path d="M317 171C319.209 171 321 169.209 321 167C321 164.791 319.209 163 317 163C314.791 163 313 164.791 313 167C313 169.209 314.791 171 317 171Z" fill="#7D7D7D" fill-opacity="0.8"/>
<path d="M31 185C33.2091 185 35 183.209 35 181C35 178.791 33.2091 177 31 177C28.7909 177 27 178.791 27 181C27 183.209 28.7909 185 31 185Z" fill="#7FD3C5"/>
<path d="M44.619 185C46.8282 185 48.619 183.209 48.619 181C48.619 178.791 46.8282 177 44.619 177C42.4099 177 40.619 178.791 40.619 181C40.619 183.209 42.4099 185 44.619 185Z" fill="#7FD3C5"/>
<path d="M58.2381 185C60.4472 185 62.2381 183.209 62.2381 181C62.2381 178.791 60.4472 177 58.2381 177C56.029 177 54.2381 178.791 54.2381 181C54.2381 183.209 56.029 185 58.2381 185Z" fill="#7FD3C5"/>
<path d="M71.8571 185C74.0663 185 75.8571 183.209 75.8571 181C75.8571 178.791 74.0663 177 71.8571 177C69.648 177 67.8571 178.791 67.8571 181C67.8571 183.209 69.648 185 71.8571 185Z" fill="#7FD3C5"/>
<path d="M85.4762 185C87.6853 185 89.4762 183.209 89.4762 181C89.4762 178.791 87.6853 177 85.4762 177C83.2671 177 81.4762 178.791 81.4762 181C81.4762 183.209 83.2671 185 85.4762 185Z" fill="#7D7D7D" fill-opacity="0.8"/>
<path d="M99.0952 185C101.304 185 103.095 183.209 103.095 181C103.095 178.791 101.304 177 99.0952 177C96.8861 177 95.0952 178.791 95.0952 181C95.0952 183.209 96.8861 185 99.0952 185Z" fill="#7D7D7D" fill-opacity="0.8"/>
<path d="M112.714 185C114.923 185 116.714 183.209 116.714 181C116.714 178.791 114.923 177 112.714 177C110.505 177 108.714 178.791 108.714 181C108.714 183.209 110.505 185 112.714 185Z" fill="#7D7D7D" fill-opacity="0.8"/>
<path d="M126.333 185C128.542 185 130.333 183.209 130.333 181C130.333 178.791 128.542 177 126.333 177C124.124 177 122.333 178.791 122.333 181C122.333 183.209 124.124 185 126.333 185Z" fill="#7D7D7D" fill-opacity="0.8"/>
<path d="M139.952 185C142.162 185 143.952 183.209 143.952 181C143.952 178.791 142.162 177 139.952 177C137.743 177 135.952 178.791 135.952 181C135.952 183.209 137.743 185 139.952 185Z" fill="#7D7D7D" fill-opacity="0.8"/>
<path d="M153.571 185C155.781 185 157.571 183.209 157.571 181C157.571 178.791 155.781 177 153.571 177C151.362 177 149.571 178.791 149.571 181C149.571 183.209 151.362 185 153.571 185Z" fill="#7D7D7D" fill-opacity="0.8"/>
<path d="M167.19 185C169.4 185 171.19 183.209 171.19 181C171.19 178.791 169.4 177 167.19 177C164.981 177 163.19 178.791 163.19 181C163.19 183.209 164.981 185 167.19 185Z" fill="#7D7D7D" fill-opacity="0.8"/>
<path d="M180.81 185C183.019 185 184.81 183.209 184.81 181C184.81 178.791 183.019 177 180.81 177C178.6 177 176.81 178.791 176.81 181C176.81 183.209 178.6 185 180.81 185Z" fill="#7D7D7D" fill-opacity="0.8"/>
<path d="M194.429 185C196.638 185 198.429 183.209 198.429 181C198.429 178.791 196.638 177 194.429 177C192.219 177 190.429 178.791 190.429 181C190.429 183.209 192.219 185 194.429 185Z" fill="#7D7D7D" fill-opacity="0.8"/>
<path d="M208.048 185C210.257 185 212.048 183.209 212.048 181C212.048 178.791 210.257 177 208.048 177C205.838 177 204.048 178.791 204.048 181C204.048 183.209 205.838 185 208.048 185Z" fill="#7D7D7D" fill-opacity="0.8"/>
<path d="M221.667 185C223.876 185 225.667 183.209 225.667 181C225.667 178.791 223.876 177 221.667 177C219.458 177 217.667 178.791 217.667 181C217.667 183.209 219.458 185 221.667 185Z" fill="#7D7D7D" fill-opacity="0.8"/>
<path d="M235.286 185C237.495 185 239.286 183.209 239.286 181C239.286 178.791 237.495 177 235.286 177C233.077 177 231.286 178.791 231.286 181C231.286 183.209 233.077 185 235.286 185Z" fill="#7D7D7D" fill-opacity="0.8"/>
<path d="M248.905 185C251.114 185 252.905 183.209 252.905 181C252.905 178.791 251.114 177 248.905 177C246.696 177 244.905 178.791 244.905 181C244.905 183.209 246.696 185 248.905 185Z" fill="#7D7D7D" fill-opacity="0.8"/>
<path d="M262.524 185C264.733 185 266.524 183.209 266.524 181C266.524 178.791 264.733 177 262.524 177C260.315 177 258.524 178.791 258.524 181C258.524 183.209 260.315 185 262.524 185Z" fill="#7D7D7D" fill-opacity="0.8"/>
<path d="M276.143 185C278.352 185 280.143 183.209 280.143 181C280.143 178.791 278.352 177 276.143 177C273.934 177 272.143 178.791 272.143 181C272.143 183.209 273.934 185 276.143 185Z" fill="#7D7D7D" fill-opacity="0.8"/>
<path d="M289.762 185C291.971 185 293.762 183.209 293.762 181C293.762 178.791 291.971 177 289.762 177C287.553 177 285.762 178.791 285.762 181C285.762 183.209 287.553 185 289.762 185Z" fill="#7D7D7D" fill-opacity="0.8"/>
<path d="M303.381 185C305.59 185 307.381 183.209 307.381 181C307.381 178.791 305.59 177 303.381 177C301.172 177 299.381 178.791 299.381 181C299.381 183.209 301.172 185 303.381 185Z" fill="#7D7D7D" fill-opacity="0.8"/>
<path d="M317 185C319.209 185 321 183.209 321 181C321 178.791 319.209 177 317 177C314.791 177 313 178.791 313 181C313 183.209 314.791 185 317 185Z" fill="#7D7D7D" fill-opacity="0.8"/>
<path d="M31 199C33.2091 199 35 197.209 35 195C35 192.791 33.2091 191 31 191C28.7909 191 27 192.791 27 195C27 197.209 28.7909 199 31 199Z" fill="#7FD3C5"/>
<path d="M44.619 199C46.8282 199 48.619 197.209 48.619 195C48.619 192.791 46.8282 191 44.619 191C42.4099 191 40.619 192.791 40.619 195C40.619 197.209 42.4099 199 44.619 199Z" fill="#7FD3C5"/>
<path d="M58.2381 199C60.4472 199 62.2381 197.209 62.2381 195C62.2381 192.791 60.4472 191 58.2381 191C56.029 191 54.2381 192.791 54.2381 195C54.2381 197.209 56.029 199 58.2381 199Z" fill="#7FD3C5"/>
<path d="M71.8571 199C74.0663 199 75.8571 197.209 75.8571 195C75.8571 192.791 74.0663 191 71.8571 191C69.648 191 67.8571 192.791 67.8571 195C67.8571 197.209 69.648 199 71.8571 199Z" fill="#7FD3C5"/>
<path d="M85.4762 199C87.6853 199 89.4762 197.209 89.4762 195C89.4762 192.791 87.6853 191 85.4762 191C83.2671 191 81.4762 192.791 81.4762 195C81.4762 197.209 83.2671 199 85.4762 199Z" fill="#7D7D7D" fill-opacity="0.8"/>
<path d="M99.0952 199C101.304 199 103.095 197.209 103.095 195C103.095 192.791 101.304 191 99.0952 191C96.8861 191 95.0952 192.791 95.0952 195C95.0952 197.209 96.8861 199 99.0952 199Z" fill="#7D7D7D" fill-opacity="0.8"/>
<path d="M112.714 199C114.923 199 116.714 197.209 116.714 195C116.714 192.791 114.923 191 112.714 191C110.505 191 108.714 192.791 108.714 195C108.714 197.209 110.505 199 112.714 199Z" fill="#7D7D7D" fill-opacity="0.8"/>
<path d="M126.333 199C128.542 199 130.333 197.209 130.333 195C130.333 192.791 128.542 191 126.333 191C124.124 191 122.333 192.791 122.333 195C122.333 197.209 124.124 199 126.333 199Z" fill="#7D7D7D" fill-opacity="0.8"/>
<path d="M139.952 199C142.162 199 143.952 197.209 143.952 195C143.952 192.791 142.162 191 139.952 191C137.743 191 135.952 192.791 135.952 195C135.952 197.209 137.743 199 139.952 199Z" fill="#7D7D7D" fill-opacity="0.8"/>
<path d="M153.571 199C155.781 199 157.571 197.209 157.571 195C157.571 192.791 155.781 191 153.571 191C151.362 191 149.571 192.791 149.571 195C149.571 197.209 151.362 199 153.571 199Z" fill="#7D7D7D" fill-opacity="0.8"/>
<path d="M167.19 199C169.4 199 171.19 197.209 171.19 195C171.19 192.791 169.4 191 167.19 191C164.981 191 163.19 192.791 163.19 195C163.19 197.209 164.981 199 167.19 199Z" fill="#7D7D7D" fill-opacity="0.8"/>
<path d="M180.81 199C183.019 199 184.81 197.209 184.81 195C184.81 192.791 183.019 191 180.81 191C178.6 191 176.81 192.791 176.81 195C176.81 197.209 178.6 199 180.81 199Z" fill="#7D7D7D" fill-opacity="0.8"/>
<path d="M194.429 199C196.638 199 198.429 197.209 198.429 195C198.429 192.791 196.638 191 194.429 191C192.219 191 190.429 192.791 190.429 195C190.429 197.209 192.219 199 194.429 199Z" fill="#7D7D7D" fill-opacity="0.8"/>
<path d="M208.048 199C210.257 199 212.048 197.209 212.048 195C212.048 192.791 210.257 191 208.048 191C205.838 191 204.048 192.791 204.048 195C204.048 197.209 205.838 199 208.048 199Z" fill="#7D7D7D" fill-opacity="0.8"/>
<path d="M221.667 199C223.876 199 225.667 197.209 225.667 195C225.667 192.791 223.876 191 221.667 191C219.458 191 217.667 192.791 217.667 195C217.667 197.209 219.458 199 221.667 199Z" fill="#7D7D7D" fill-opacity="0.8"/>
<path d="M235.286 199C237.495 199 239.286 197.209 239.286 195C239.286 192.791 237.495 191 235.286 191C233.077 191 231.286 192.791 231.286 195C231.286 197.209 233.077 199 235.286 199Z" fill="#7D7D7D" fill-opacity="0.8"/>
<path d="M248.905 199C251.114 199 252.905 197.209 252.905 195C252.905 192.791 251.114 191 248.905 191C246.696 191 244.905 192.791 244.905 195C244.905 197.209 246.696 199 248.905 199Z" fill="#7D7D7D" fill-opacity="0.8"/>
<path d="M262.524 199C264.733 199 266.524 197.209 266.524 195C266.524 192.791 264.733 191 262.524 191C260.315 191 258.524 192.791 258.524 195C258.524 197.209 260.315 199 262.524 199Z" fill="#7D7D7D" fill-opacity="0.8"/>
<path d="M276.143 199C278.352 199 280.143 197.209 280.143 195C280.143 192.791 278.352 191 276.143 191C273.934 191 272.143 192.791 272.143 195C272.143 197.209 273.934 199 276.143 199Z" fill="#7D7D7D" fill-opacity="0.8"/>
<path d="M289.762 199C291.971 199 293.762 197.209 293.762 195C293.762 192.791 291.971 191 289.762 191C287.553 191 285.762 192.791 285.762 195C285.762 197.209 287.553 199 289.762 199Z" fill="#7D7D7D" fill-opacity="0.8"/>
<path d="M303.381 199C305.59 199 307.381 197.209 307.381 195C307.381 192.791 305.59 191 303.381 191C301.172 191 299.381 192.791 299.381 195C299.381 197.209 301.172 199 303.381 199Z" fill="#7D7D7D" fill-opacity="0.8"/>
<path d="M317 199C319.209 199 321 197.209 321 195C321 192.791 319.209 191 317 191C314.791 191 313 192.791 313 195C313 197.209 314.791 199 317 199Z" fill="#7D7D7D" fill-opacity="0.8"/>
<path d="M31 213C33.2091 213 35 211.209 35 209C35 206.791 33.2091 205 31 205C28.7909 205 27 206.791 27 209C27 211.209 28.7909 213 31 213Z" fill="#7FD3C5"/>
<path d="M44.619 213C46.8282 213 48.619 211.209 48.619 209C48.619 206.791 46.8282 205 44.619 205C42.4099 205 40.619 206.791 40.619 209C40.619 211.209 42.4099 213 44.619 213Z" fill="#7FD3C5"/>
<path d="M58.2381 213C60.4472 213 62.2381 211.209 62.2381 209C62.2381 206.791 60.4472 205 58.2381 205C56.029 205 54.2381 206.791 54.2381 209C54.2381 211.209 56.029 213 58.2381 213Z" fill="#7FD3C5"/>
<path d="M71.8571 213C74.0663 213 75.8571 211.209 75.8571 209C75.8571 206.791 74.0663 205 71.8571 205C69.648 205 67.8571 206.791 67.8571 209C67.8571 211.209 69.648 213 71.8571 213Z" fill="#7FD3C5"/>
<path d="M85.4762 213C87.6853 213 89.4762 211.209 89.4762 209C89.4762 206.791 87.6853 205 85.4762 205C83.2671 205 81.4762 206.791 81.4762 209C81.4762 211.209 83.2671 213 85.4762 213Z" fill="#7FD3C5"/>
<path d="M99.0952 213C101.304 213 103.095 211.209 103.095 209C103.095 206.791 101.304 205 99.0952 205C96.8861 205 95.0952 206.791 95.0952 209C95.0952 211.209 96.8861 213 99.0952 213Z" fill="#7D7D7D" fill-opacity="0.8"/>
<path d="M112.714 213C114.923 213 116.714 211.209 116.714 209C116.714 206.791 114.923 205 112.714 205C110.505 205 108.714 206.791 108.714 209C108.714 211.209 110.505 213 112.714 213Z" fill="#7D7D7D" fill-opacity="0.8"/>
<path d="M126.333 213C128.542 213 130.333 211.209 130.333 209C130.333 206.791 128.542 205 126.333 205C124.124 205 122.333 206.791 122.333 209C122.333 211.209 124.124 213 126.333 213Z" fill="#7D7D7D" fill-opacity="0.8"/>
<path d="M139.952 213C142.162 213 143.952 211.209 143.952 209C143.952 206.791 142.162 205 139.952 205C137.743 205 135.952 206.791 135.952 209C135.952 211.209 137.743 213 139.952 213Z" fill="#7D7D7D" fill-opacity="0.8"/>
<path d="M153.571 213C155.781 213 157.571 211.209 157.571 209C157.571 206.791 155.781 205 153.571 205C151.362 205 149.571 206.791 149.571 209C149.571 211.209 151.362 213 153.571 213Z" fill="#7D7D7D" fill-opacity="0.8"/>
<path d="M167.19 213C169.4 213 171.19 211.209 171.19 209C171.19 206.791 169.4 205 167.19 205C164.981 205 163.19 206.791 163.19 209C163.19 211.209 164.981 213 167.19 213Z" fill="#7D7D7D" fill-opacity="0.8"/>
<path d="M180.81 213C183.019 213 184.81 211.209 184.81 209C184.81 206.791 183.019 205 180.81 205C178.6 205 176.81 206.791 176.81 209C176.81 211.209 178.6 213 180.81 213Z" fill="#7D7D7D" fill-opacity="0.8"/>
<path d="M194.429 213C196.638 213 198.429 211.209 198.429 209C198.429 206.791 196.638 205 194.429 205C192.219 205 190.429 206.791 190.429 209C190.429 211.209 192.219 213 194.429 213Z" fill="#7D7D7D" fill-opacity="0.8"/>
<path d="M208.048 213C210.257 213 212.048 211.209 212.048 209C212.048 206.791 210.257 205 208.048 205C205.838 205 204.048 206.791 204.048 209C204.048 211.209 205.838 213 208.048 213Z" fill="#7D7D7D" fill-opacity="0.8"/>
<path d="M221.667 213C223.876 213 225.667 211.209 225.667 209C225.667 206.791 223.876 205 221.667 205C219.458 205 217.667 206.791 217.667 209C217.667 211.209 219.458 213 221.667 213Z" fill="#7D7D7D" fill-opacity="0.8"/>
<path d="M235.286 213C237.495 213 239.286 211.209 239.286 209C239.286 206.791 237.495 205 235.286 205C233.077 205 231.286 206.791 231.286 209C231.286 211.209 233.077 213 235.286 213Z" fill="#7D7D7D" fill-opacity="0.8"/>
<path d="M248.905 213C251.114 213 252.905 211.209 252.905 209C252.905 206.791 251.114 205 248.905 205C246.696 205 244.905 206.791 244.905 209C244.905 211.209 246.696 213 248.905 213Z" fill="#7D7D7D" fill-opacity="0.8"/>
<path d="M262.524 213C264.733 213 266.524 211.209 266.524 209C266.524 206.791 264.733 205 262.524 205C260.315 205 258.524 206.791 258.524 209C258.524 211.209 260.315 213 262.524 213Z" fill="#7D7D7D" fill-opacity="0.8"/>
<path d="M276.143 213C278.352 213 280.143 211.209 280.143 209C280.143 206.791 278.352 205 276.143 205C273.934 205 272.143 206.791 272.143 209C272.143 211.209 273.934 213 276.143 213Z" fill="#7D7D7D" fill-opacity="0.8"/>
<path d="M289.762 213C291.971 213 293.762 211.209 293.762 209C293.762 206.791 291.971 205 289.762 205C287.553 205 285.762 206.791 285.762 209C285.762 211.209 287.553 213 289.762 213Z" fill="#7D7D7D" fill-opacity="0.8"/>
<path d="M303.381 213C305.59 213 307.381 211.209 307.381 209C307.381 206.791 305.59 205 303.381 205C301.172 205 299.381 206.791 299.381 209C299.381 211.209 301.172 213 303.381 213Z" fill="#7D7D7D" fill-opacity="0.8"/>
<path d="M317 213C319.209 213 321 211.209 321 209C321 206.791 319.209 205 317 205C314.791 205 313 206.791 313 209C313 211.209 314.791 213 317 213Z" fill="#7D7D7D" fill-opacity="0.8"/>
<path d="M31 227C33.2091 227 35 225.209 35 223C35 220.791 33.2091 219 31 219C28.7909 219 27 220.791 27 223C27 225.209 28.7909 227 31 227Z" fill="#7FD3C5"/>
<path d="M44.619 227C46.8282 227 48.619 225.209 48.619 223C48.619 220.791 46.8282 219 44.619 219C42.4099 219 40.619 220.791 40.619 223C40.619 225.209 42.4099 227 44.619 227Z" fill="#7FD3C5"/>
<path d="M58.2381 227C60.4472 227 62.2381 225.209 62.2381 223C62.2381 220.791 60.4472 219 58.2381 219C56.029 219 54.2381 220.791 54.2381 223C54.2381 225.209 56.029 227 58.2381 227Z" fill="#7FD3C5"/>
<path d="M71.8571 227C74.0663 227 75.8571 225.209 75.8571 223C75.8571 220.791 74.0663 219 71.8571 219C69.648 219 67.8571 220.791 67.8571 223C67.8571 225.209 69.648 227 71.8571 227Z" fill="#7FD3C5"/>
<path d="M85.4762 227C87.6853 227 89.4762 225.209 89.4762 223C89.4762 220.791 87.6853 219 85.4762 219C83.2671 219 81.4762 220.791 81.4762 223C81.4762 225.209 83.2671 227 85.4762 227Z" fill="#7FD3C5"/>
<path d="M99.0952 227C101.304 227 103.095 225.209 103.095 223C103.095 220.791 101.304 219 99.0952 219C96.8861 219 95.0952 220.791 95.0952 223C95.0952 225.209 96.8861 227 99.0952 227Z" fill="#7D7D7D" fill-opacity="0.8"/>
<path d="M112.714 227C114.923 227 116.714 225.209 116.714 223C116.714 220.791 114.923 219 112.714 219C110.505 219 108.714 220.791 108.714 223C108.714 225.209 110.505 227 112.714 227Z" fill="#7D7D7D" fill-opacity="0.8"/>
<path d="M126.333 227C128.542 227 130.333 225.209 130.333 223C130.333 220.791 128.542 219 126.333 219C124.124 219 122.333 220.791 122.333 223C122.333 225.209 124.124 227 126.333 227Z" fill="#7D7D7D" fill-opacity="0.8"/>
<path d="M139.952 227C142.162 227 143.952 225.209 143.952 223C143.952 220.791 142.162 219 139.952 219C137.743 219 135.952 220.791 135.952 223C135.952 225.209 137.743 227 139.952 227Z" fill="#7D7D7D" fill-opacity="0.8"/>
<path d="M153.571 227C155.781 227 157.571 225.209 157.571 223C157.571 220.791 155.781 219 153.571 219C151.362 219 149.571 220.791 149.571 223C149.571 225.209 151.362 227 153.571 227Z" fill="#7D7D7D" fill-opacity="0.8"/>
<path d="M167.19 227C169.4 227 171.19 225.209 171.19 223C171.19 220.791 169.4 219 167.19 219C164.981 219 163.19 220.791 163.19 223C163.19 225.209 164.981 227 167.19 227Z" fill="#7D7D7D" fill-opacity="0.8"/>
<path d="M180.81 227C183.019 227 184.81 225.209 184.81 223C184.81 220.791 183.019 219 180.81 219C178.6 219 176.81 220.791 176.81 223C176.81 225.209 178.6 227 180.81 227Z" fill="#7D7D7D" fill-opacity="0.8"/>
<path d="M194.429 227C196.638 227 198.429 225.209 198.429 223C198.429 220.791 196.638 219 194.429 219C192.219 219 190.429 220.791 190.429 223C190.429 225.209 192.219 227 194.429 227Z" fill="#7D7D7D" fill-opacity="0.8"/>
<path d="M208.048 227C210.257 227 212.048 225.209 212.048 223C212.048 220.791 210.257 219 208.048 219C205.838 219 204.048 220.791 204.048 223C204.048 225.209 205.838 227 208.048 227Z" fill="#7D7D7D" fill-opacity="0.8"/>
<path d="M221.667 227C223.876 227 225.667 225.209 225.667 223C225.667 220.791 223.876 219 221.667 219C219.458 219 217.667 220.791 217.667 223C217.667 225.209 219.458 227 221.667 227Z" fill="#7D7D7D" fill-opacity="0.8"/>
<path d="M235.286 227C237.495 227 239.286 225.209 239.286 223C239.286 220.791 237.495 219 235.286 219C233.077 219 231.286 220.791 231.286 223C231.286 225.209 233.077 227 235.286 227Z" fill="#7D7D7D" fill-opacity="0.8"/>
<path d="M248.905 227C251.114 227 252.905 225.209 252.905 223C252.905 220.791 251.114 219 248.905 219C246.696 219 244.905 220.791 244.905 223C244.905 225.209 246.696 227 248.905 227Z" fill="#7D7D7D" fill-opacity="0.8"/>
<path d="M262.524 227C264.733 227 266.524 225.209 266.524 223C266.524 220.791 264.733 219 262.524 219C260.315 219 258.524 220.791 258.524 223C258.524 225.209 260.315 227 262.524 227Z" fill="#7D7D7D" fill-opacity="0.8"/>
<path d="M276.143 227C278.352 227 280.143 225.209 280.143 223C280.143 220.791 278.352 219 276.143 219C273.934 219 272.143 220.791 272.143 223C272.143 225.209 273.934 227 276.143 227Z" fill="#7D7D7D" fill-opacity="0.8"/>
<path d="M289.762 227C291.971 227 293.762 225.209 293.762 223C293.762 220.791 291.971 219 289.762 219C287.553 219 285.762 220.791 285.762 223C285.762 225.209 287.553 227 289.762 227Z" fill="#7D7D7D" fill-opacity="0.8"/>
<path d="M303.381 227C305.59 227 307.381 225.209 307.381 223C307.381 220.791 305.59 219 303.381 219C301.172 219 299.381 220.791 299.381 223C299.381 225.209 301.172 227 303.381 227Z" fill="#7D7D7D" fill-opacity="0.8"/>
<path d="M317 227C319.209 227 321 225.209 321 223C321 220.791 319.209 219 317 219C314.791 219 313 220.791 313 223C313 225.209 314.791 227 317 227Z" fill="#7D7D7D" fill-opacity="0.8"/>
<path d="M31 241C33.2091 241 35 239.209 35 237C35 234.791 33.2091 233 31 233C28.7909 233 27 234.791 27 237C27 239.209 28.7909 241 31 241Z" fill="#7FD3C5"/>
<path d="M44.619 241C46.8282 241 48.619 239.209 48.619 237C48.619 234.791 46.8282 233 44.619 233C42.4099 233 40.619 234.791 40.619 237C40.619 239.209 42.4099 241 44.619 241Z" fill="#7FD3C5"/>
<path d="M58.2381 241C60.4472 241 62.2381 239.209 62.2381 237C62.2381 234.791 60.4472 233 58.2381 233C56.029 233 54.2381 234.791 54.2381 237C54.2381 239.209 56.029 241 58.2381 241Z" fill="#7FD3C5"/>
<path d="M71.8571 241C74.0663 241 75.8571 239.209 75.8571 237C75.8571 234.791 74.0663 233 71.8571 233C69.648 233 67.8571 234.791 67.8571 237C67.8571 239.209 69.648 241 71.8571 241Z" fill="#7FD3C5"/>
<path d="M85.4762 241C87.6853 241 89.4762 239.209 89.4762 237C89.4762 234.791 87.6853 233 85.4762 233C83.2671 233 81.4762 234.791 81.4762 237C81.4762 239.209 83.2671 241 85.4762 241Z" fill="#7FD3C5"/>
<path d="M99.0952 241C101.304 241 103.095 239.209 103.095 237C103.095 234.791 101.304 233 99.0952 233C96.8861 233 95.0952 234.791 95.0952 237C95.0952 239.209 96.8861 241 99.0952 241Z" fill="#7D7D7D" fill-opacity="0.8"/>
<path d="M112.714 241C114.923 241 116.714 239.209 116.714 237C116.714 234.791 114.923 233 112.714 233C110.505 233 108.714 234.791 108.714 237C108.714 239.209 110.505 241 112.714 241Z" fill="#7D7D7D" fill-opacity="0.8"/>
<path d="M126.333 241C128.542 241 130.333 239.209 130.333 237C130.333 234.791 128.542 233 126.333 233C124.124 233 122.333 234.791 122.333 237C122.333 239.209 124.124 241 126.333 241Z" fill="#7D7D7D" fill-opacity="0.8"/>
<path d="M139.952 241C142.162 241 143.952 239.209 143.952 237C143.952 234.791 142.162 233 139.952 233C137.743 233 135.952 234.791 135.952 237C135.952 239.209 137.743 241 139.952 241Z" fill="#7D7D7D" fill-opacity="0.8"/>
<path d="M153.571 241C155.781 241 157.571 239.209 157.571 237C157.571 234.791 155.781 233 153.571 233C151.362 233 149.571 234.791 149.571 237C149.571 239.209 151.362 241 153.571 241Z" fill="#7D7D7D" fill-opacity="0.8"/>
<path d="M167.19 241C169.4 241 171.19 239.209 171.19 237C171.19 234.791 169.4 233 167.19 233C164.981 233 163.19 234.791 163.19 237C163.19 239.209 164.981 241 167.19 241Z" fill="#7D7D7D" fill-opacity="0.8"/>
<path d="M180.81 241C183.019 241 184.81 239.209 184.81 237C184.81 234.791 183.019 233 180.81 233C178.6 233 176.81 234.791 176.81 237C176.81 239.209 178.6 241 180.81 241Z" fill="#7D7D7D" fill-opacity="0.8"/>
<path d="M194.429 241C196.638 241 198.429 239.209 198.429 237C198.429 234.791 196.638 233 194.429 233C192.219 233 190.429 234.791 190.429 237C190.429 239.209 192.219 241 194.429 241Z" fill="#7D7D7D" fill-opacity="0.8"/>
<path d="M208.048 241C210.257 241 212.048 239.209 212.048 237C212.048 234.791 210.257 233 208.048 233C205.838 233 204.048 234.791 204.048 237C204.048 239.209 205.838 241 208.048 241Z" fill="#7D7D7D" fill-opacity="0.8"/>
<path d="M221.667 241C223.876 241 225.667 239.209 225.667 237C225.667 234.791 223.876 233 221.667 233C219.458 233 217.667 234.791 217.667 237C217.667 239.209 219.458 241 221.667 241Z" fill="#7D7D7D" fill-opacity="0.8"/>
<path d="M235.286 241C237.495 241 239.286 239.209 239.286 237C239.286 234.791 237.495 233 235.286 233C233.077 233 231.286 234.791 231.286 237C231.286 239.209 233.077 241 235.286 241Z" fill="#7D7D7D" fill-opacity="0.8"/>
<path d="M248.905 241C251.114 241 252.905 239.209 252.905 237C252.905 234.791 251.114 233 248.905 233C246.696 233 244.905 234.791 244.905 237C244.905 239.209 246.696 241 248.905 241Z" fill="#7D7D7D" fill-opacity="0.8"/>
<path d="M262.524 241C264.733 241 266.524 239.209 266.524 237C266.524 234.791 264.733 233 262.524 233C260.315 233 258.524 234.791 258.524 237C258.524 239.209 260.315 241 262.524 241Z" fill="#7D7D7D" fill-opacity="0.8"/>
<path d="M276.143 241C278.352 241 280.143 239.209 280.143 237C280.143 234.791 278.352 233 276.143 233C273.934 233 272.143 234.791 272.143 237C272.143 239.209 273.934 241 276.143 241Z" fill="#7D7D7D" fill-opacity="0.8"/>
<path d="M289.762 241C291.971 241 293.762 239.209 293.762 237C293.762 234.791 291.971 233 289.762 233C287.553 233 285.762 234.791 285.762 237C285.762 239.209 287.553 241 289.762 241Z" fill="#7D7D7D" fill-opacity="0.8"/>
<path d="M303.381 241C305.59 241 307.381 239.209 307.381 237C307.381 234.791 305.59 233 303.381 233C301.172 233 299.381 234.791 299.381 237C299.381 239.209 301.172 241 303.381 241Z" fill="#7D7D7D" fill-opacity="0.8"/>
<path d="M317 241C319.209 241 321 239.209 321 237C321 234.791 319.209 233 317 233C314.791 233 313 234.791 313 237C313 239.209 314.791 241 317 241Z" fill="#7D7D7D" fill-opacity="0.8"/>
<path d="M31 255C33.2091 255 35 253.209 35 251C35 248.791 33.2091 247 31 247C28.7909 247 27 248.791 27 251C27 253.209 28.7909 255 31 255Z" fill="#7FD3C5"/>
<path d="M44.619 255C46.8282 255 48.619 253.209 48.619 251C48.619 248.791 46.8282 247 44.619 247C42.4099 247 40.619 248.791 40.619 251C40.619 253.209 42.4099 255 44.619 255Z" fill="#7FD3C5"/>
<path d="M58.2381 255C60.4472 255 62.2381 253.209 62.2381 251C62.2381 248.791 60.4472 247 58.2381 247C56.029 247 54.2381 248.791 54.2381 251C54.2381 253.209 56.029 255 58.2381 255Z" fill="#7FD3C5"/>
<path d="M71.8571 255C74.0663 255 75.8571 253.209 75.8571 251C75.8571 248.791 74.0663 247 71.8571 247C69.648 247 67.8571 248.791 67.8571 251C67.8571 253.209 69.648 255 71.8571 255Z" fill="#7FD3C5"/>
<path d="M85.4762 255C87.6853 255 89.4762 253.209 89.4762 251C89.4762 248.791 87.6853 247 85.4762 247C83.2671 247 81.4762 248.791 81.4762 251C81.4762 253.209 83.2671 255 85.4762 255Z" fill="#7FD3C5"/>
<path d="M99.0952 255C101.304 255 103.095 253.209 103.095 251C103.095 248.791 101.304 247 99.0952 247C96.8861 247 95.0952 248.791 95.0952 251C95.0952 253.209 96.8861 255 99.0952 255Z" fill="#7D7D7D" fill-opacity="0.8"/>
<path d="M112.714 255C114.923 255 116.714 253.209 116.714 251C116.714 248.791 114.923 247 112.714 247C110.505 247 108.714 248.791 108.714 251C108.714 253.209 110.505 255 112.714 255Z" fill="#7D7D7D" fill-opacity="0.8"/>
<path d="M126.333 255C128.542 255 130.333 253.209 130.333 251C130.333 248.791 128.542 247 126.333 247C124.124 247 122.333 248.791 122.333 251C122.333 253.209 124.124 255 126.333 255Z" fill="#7D7D7D" fill-opacity="0.8"/>
<path d="M139.952 255C142.162 255 143.952 253.209 143.952 251C143.952 248.791 142.162 247 139.952 247C137.743 247 135.952 248.791 135.952 251C135.952 253.209 137.743 255 139.952 255Z" fill="#7D7D7D" fill-opacity="0.8"/>
<path d="M153.571 255C155.781 255 157.571 253.209 157.571 251C157.571 248.791 155.781 247 153.571 247C151.362 247 149.571 248.791 149.571 251C149.571 253.209 151.362 255 153.571 255Z" fill="#7D7D7D" fill-opacity="0.8"/>
<path d="M167.19 255C169.4 255 171.19 253.209 171.19 251C171.19 248.791 169.4 247 167.19 247C164.981 247 163.19 248.791 163.19 251C163.19 253.209 164.981 255 167.19 255Z" fill="#7D7D7D" fill-opacity="0.8"/>
<path d="M180.81 255C183.019 255 184.81 253.209 184.81 251C184.81 248.791 183.019 247 180.81 247C178.6 247 176.81 248.791 176.81 251C176.81 253.209 178.6 255 180.81 255Z" fill="#7D7D7D" fill-opacity="0.8"/>
<path d="M194.429 255C196.638 255 198.429 253.209 198.429 251C198.429 248.791 196.638 247 194.429 247C192.219 247 190.429 248.791 190.429 251C190.429 253.209 192.219 255 194.429 255Z" fill="#7D7D7D" fill-opacity="0.8"/>
<path d="M208.048 255C210.257 255 212.048 253.209 212.048 251C212.048 248.791 210.257 247 208.048 247C205.838 247 204.048 248.791 204.048 251C204.048 253.209 205.838 255 208.048 255Z" fill="#7D7D7D" fill-opacity="0.8"/>
<path d="M221.667 255C223.876 255 225.667 253.209 225.667 251C225.667 248.791 223.876 247 221.667 247C219.458 247 217.667 248.791 217.667 251C217.667 253.209 219.458 255 221.667 255Z" fill="#7D7D7D" fill-opacity="0.8"/>
<path d="M235.286 255C237.495 255 239.286 253.209 239.286 251C239.286 248.791 237.495 247 235.286 247C233.077 247 231.286 248.791 231.286 251C231.286 253.209 233.077 255 235.286 255Z" fill="#7D7D7D" fill-opacity="0.8"/>
<path d="M248.905 255C251.114 255 252.905 253.209 252.905 251C252.905 248.791 251.114 247 248.905 247C246.696 247 244.905 248.791 244.905 251C244.905 253.209 246.696 255 248.905 255Z" fill="#7D7D7D" fill-opacity="0.8"/>
<path d="M262.524 255C264.733 255 266.524 253.209 266.524 251C266.524 248.791 264.733 247 262.524 247C260.315 247 258.524 248.791 258.524 251C258.524 253.209 260.315 255 262.524 255Z" fill="#7D7D7D" fill-opacity="0.8"/>
<path d="M276.143 255C278.352 255 280.143 253.209 280.143 251C280.143 248.791 278.352 247 276.143 247C273.934 247 272.143 248.791 272.143 251C272.143 253.209 273.934 255 276.143 255Z" fill="#7D7D7D" fill-opacity="0.8"/>
<path d="M289.762 255C291.971 255 293.762 253.209 293.762 251C293.762 248.791 291.971 247 289.762 247C287.553 247 285.762 248.791 285.762 251C285.762 253.209 287.553 255 289.762 255Z" fill="#7D7D7D" fill-opacity="0.8"/>
<path d="M303.381 255C305.59 255 307.381 253.209 307.381 251C307.381 248.791 305.59 247 303.381 247C301.172 247 299.381 248.791 299.381 251C299.381 253.209 301.172 255 303.381 255Z" fill="#7D7D7D" fill-opacity="0.8"/>
<path d="M317 255C319.209 255 321 253.209 321 251C321 248.791 319.209 247 317 247C314.791 247 313 248.791 313 251C313 253.209 314.791 255 317 255Z" fill="#7D7D7D" fill-opacity="0.8"/>
<path d="M31 269C33.2091 269 35 267.209 35 265C35 262.791 33.2091 261 31 261C28.7909 261 27 262.791 27 265C27 267.209 28.7909 269 31 269Z" fill="#7FD3C5"/>
<path d="M44.619 269C46.8282 269 48.619 267.209 48.619 265C48.619 262.791 46.8282 261 44.619 261C42.4099 261 40.619 262.791 40.619 265C40.619 267.209 42.4099 269 44.619 269Z" fill="#7FD3C5"/>
<path d="M58.2381 269C60.4472 269 62.2381 267.209 62.2381 265C62.2381 262.791 60.4472 261 58.2381 261C56.029 261 54.2381 262.791 54.2381 265C54.2381 267.209 56.029 269 58.2381 269Z" fill="#7FD3C5"/>
<path d="M71.8571 269C74.0663 269 75.8571 267.209 75.8571 265C75.8571 262.791 74.0663 261 71.8571 261C69.648 261 67.8571 262.791 67.8571 265C67.8571 267.209 69.648 269 71.8571 269Z" fill="#7FD3C5"/>
<path d="M85.4762 269C87.6853 269 89.4762 267.209 89.4762 265C89.4762 262.791 87.6853 261 85.4762 261C83.2671 261 81.4762 262.791 81.4762 265C81.4762 267.209 83.2671 269 85.4762 269Z" fill="#7FD3C5"/>
<path d="M99.0952 269C101.304 269 103.095 267.209 103.095 265C103.095 262.791 101.304 261 99.0952 261C96.8861 261 95.0952 262.791 95.0952 265C95.0952 267.209 96.8861 269 99.0952 269Z" fill="#7D7D7D" fill-opacity="0.8"/>
<path d="M112.714 269C114.923 269 116.714 267.209 116.714 265C116.714 262.791 114.923 261 112.714 261C110.505 261 108.714 262.791 108.714 265C108.714 267.209 110.505 269 112.714 269Z" fill="#7D7D7D" fill-opacity="0.8"/>
<path d="M126.333 269C128.542 269 130.333 267.209 130.333 265C130.333 262.791 128.542 261 126.333 261C124.124 261 122.333 262.791 122.333 265C122.333 267.209 124.124 269 126.333 269Z" fill="#7D7D7D" fill-opacity="0.8"/>
<path d="M139.952 269C142.162 269 143.952 267.209 143.952 265C143.952 262.791 142.162 261 139.952 261C137.743 261 135.952 262.791 135.952 265C135.952 267.209 137.743 269 139.952 269Z" fill="#7D7D7D" fill-opacity="0.8"/>
<path d="M153.571 269C155.781 269 157.571 267.209 157.571 265C157.571 262.791 155.781 261 153.571 261C151.362 261 149.571 262.791 149.571 265C149.571 267.209 151.362 269 153.571 269Z" fill="#7D7D7D" fill-opacity="0.8"/>
<path d="M167.19 269C169.4 269 171.19 267.209 171.19 265C171.19 262.791 169.4 261 167.19 261C164.981 261 163.19 262.791 163.19 265C163.19 267.209 164.981 269 167.19 269Z" fill="#7D7D7D" fill-opacity="0.8"/>
<path d="M180.81 269C183.019 269 184.81 267.209 184.81 265C184.81 262.791 183.019 261 180.81 261C178.6 261 176.81 262.791 176.81 265C176.81 267.209 178.6 269 180.81 269Z" fill="#7D7D7D" fill-opacity="0.8"/>
<path d="M194.429 269C196.638 269 198.429 267.209 198.429 265C198.429 262.791 196.638 261 194.429 261C192.219 261 190.429 262.791 190.429 265C190.429 267.209 192.219 269 194.429 269Z" fill="#7D7D7D" fill-opacity="0.8"/>
<path d="M208.048 269C210.257 269 212.048 267.209 212.048 265C212.048 262.791 210.257 261 208.048 261C205.838 261 204.048 262.791 204.048 265C204.048 267.209 205.838 269 208.048 269Z" fill="#7D7D7D" fill-opacity="0.8"/>
<path d="M221.667 269C223.876 269 225.667 267.209 225.667 265C225.667 262.791 223.876 261 221.667 261C219.458 261 217.667 262.791 217.667 265C217.667 267.209 219.458 269 221.667 269Z" fill="#7D7D7D" fill-opacity="0.8"/>
<path d="M235.286 269C237.495 269 239.286 267.209 239.286 265C239.286 262.791 237.495 261 235.286 261C233.077 261 231.286 262.791 231.286 265C231.286 267.209 233.077 269 235.286 269Z" fill="#7D7D7D" fill-opacity="0.8"/>
<path d="M248.905 269C251.114 269 252.905 267.209 252.905 265C252.905 262.791 251.114 261 248.905 261C246.696 261 244.905 262.791 244.905 265C244.905 267.209 246.696 269 248.905 269Z" fill="#7D7D7D" fill-opacity="0.8"/>
<path d="M262.524 269C264.733 269 266.524 267.209 266.524 265C266.524 262.791 264.733 261 262.524 261C260.315 261 258.524 262.791 258.524 265C258.524 267.209 260.315 269 262.524 269Z" fill="#7D7D7D" fill-opacity="0.8"/>
<path d="M276.143 269C278.352 269 280.143 267.209 280.143 265C280.143 262.791 278.352 261 276.143 261C273.934 261 272.143 262.791 272.143 265C272.143 267.209 273.934 269 276.143 269Z" fill="#7D7D7D" fill-opacity="0.8"/>
<path d="M289.762 269C291.971 269 293.762 267.209 293.762 265C293.762 262.791 291.971 261 289.762 261C287.553 261 285.762 262.791 285.762 265C285.762 267.209 287.553 269 289.762 269Z" fill="#7D7D7D" fill-opacity="0.8"/>
<path d="M303.381 269C305.59 269 307.381 267.209 307.381 265C307.381 262.791 305.59 261 303.381 261C301.172 261 299.381 262.791 299.381 265C299.381 267.209 301.172 269 303.381 269Z" fill="#7D7D7D" fill-opacity="0.8"/>
<path d="M317 269C319.209 269 321 267.209 321 265C321 262.791 319.209 261 317 261C314.791 261 313 262.791 313 265C313 267.209 314.791 269 317 269Z" fill="#7D7D7D" fill-opacity="0.8"/>
<path d="M31 283C33.2091 283 35 281.209 35 279C35 276.791 33.2091 275 31 275C28.7909 275 27 276.791 27 279C27 281.209 28.7909 283 31 283Z" fill="#7FD3C5"/>
<path d="M44.619 283C46.8282 283 48.619 281.209 48.619 279C48.619 276.791 46.8282 275 44.619 275C42.4099 275 40.619 276.791 40.619 279C40.619 281.209 42.4099 283 44.619 283Z" fill="#7FD3C5"/>
<path d="M58.2381 283C60.4472 283 62.2381 281.209 62.2381 279C62.2381 276.791 60.4472 275 58.2381 275C56.029 275 54.2381 276.791 54.2381 279C54.2381 281.209 56.029 283 58.2381 283Z" fill="#7FD3C5"/>
<path d="M71.8571 283C74.0663 283 75.8571 281.209 75.8571 279C75.8571 276.791 74.0663 275 71.8571 275C69.648 275 67.8571 276.791 67.8571 279C67.8571 281.209 69.648 283 71.8571 283Z" fill="#7FD3C5"/>
<path d="M85.4762 283C87.6853 283 89.4762 281.209 89.4762 279C89.4762 276.791 87.6853 275 85.4762 275C83.2671 275 81.4762 276.791 81.4762 279C81.4762 281.209 83.2671 283 85.4762 283Z" fill="#7FD3C5"/>
<path d="M99.0952 283C101.304 283 103.095 281.209 103.095 279C103.095 276.791 101.304 275 99.0952 275C96.8861 275 95.0952 276.791 95.0952 279C95.0952 281.209 96.8861 283 99.0952 283Z" fill="#7D7D7D" fill-opacity="0.8"/>
<path d="M112.714 283C114.923 283 116.714 281.209 116.714 279C116.714 276.791 114.923 275 112.714 275C110.505 275 108.714 276.791 108.714 279C108.714 281.209 110.505 283 112.714 283Z" fill="#7D7D7D" fill-opacity="0.8"/>
<path d="M126.333 283C128.542 283 130.333 281.209 130.333 279C130.333 276.791 128.542 275 126.333 275C124.124 275 122.333 276.791 122.333 279C122.333 281.209 124.124 283 126.333 283Z" fill="#7D7D7D" fill-opacity="0.8"/>
<path d="M139.952 283C142.162 283 143.952 281.209 143.952 279C143.952 276.791 142.162 275 139.952 275C137.743 275 135.952 276.791 135.952 279C135.952 281.209 137.743 283 139.952 283Z" fill="#7D7D7D" fill-opacity="0.8"/>
<path d="M153.571 283C155.781 283 157.571 281.209 157.571 279C157.571 276.791 155.781 275 153.571 275C151.362 275 149.571 276.791 149.571 279C149.571 281.209 151.362 283 153.571 283Z" fill="#7D7D7D" fill-opacity="0.8"/>
<path d="M167.19 283C169.4 283 171.19 281.209 171.19 279C171.19 276.791 169.4 275 167.19 275C164.981 275 163.19 276.791 163.19 279C163.19 281.209 164.981 283 167.19 283Z" fill="#7D7D7D" fill-opacity="0.8"/>
<path d="M180.81 283C183.019 283 184.81 281.209 184.81 279C184.81 276.791 183.019 275 180.81 275C178.6 275 176.81 276.791 176.81 279C176.81 281.209 178.6 283 180.81 283Z" fill="#7D7D7D" fill-opacity="0.8"/>
<path d="M194.429 283C196.638 283 198.429 281.209 198.429 279C198.429 276.791 196.638 275 194.429 275C192.219 275 190.429 276.791 190.429 279C190.429 281.209 192.219 283 194.429 283Z" fill="#7D7D7D" fill-opacity="0.8"/>
<path d="M208.048 283C210.257 283 212.048 281.209 212.048 279C212.048 276.791 210.257 275 208.048 275C205.838 275 204.048 276.791 204.048 279C204.048 281.209 205.838 283 208.048 283Z" fill="#7D7D7D" fill-opacity="0.8"/>
<path d="M221.667 283C223.876 283 225.667 281.209 225.667 279C225.667 276.791 223.876 275 221.667 275C219.458 275 217.667 276.791 217.667 279C217.667 281.209 219.458 283 221.667 283Z" fill="#7D7D7D" fill-opacity="0.8"/>
<path d="M235.286 283C237.495 283 239.286 281.209 239.286 279C239.286 276.791 237.495 275 235.286 275C233.077 275 231.286 276.791 231.286 279C231.286 281.209 233.077 283 235.286 283Z" fill="#7D7D7D" fill-opacity="0.8"/>
<path d="M248.905 283C251.114 283 252.905 281.209 252.905 279C252.905 276.791 251.114 275 248.905 275C246.696 275 244.905 276.791 244.905 279C244.905 281.209 246.696 283 248.905 283Z" fill="#7D7D7D" fill-opacity="0.8"/>
<path d="M262.524 283C264.733 283 266.524 281.209 266.524 279C266.524 276.791 264.733 275 262.524 275C260.315 275 258.524 276.791 258.524 279C258.524 281.209 260.315 283 262.524 283Z" fill="#7D7D7D" fill-opacity="0.8"/>
<path d="M276.143 283C278.352 283 280.143 281.209 280.143 279C280.143 276.791 278.352 275 276.143 275C273.934 275 272.143 276.791 272.143 279C272.143 281.209 273.934 283 276.143 283Z" fill="#7D7D7D" fill-opacity="0.8"/>
<path d="M289.762 283C291.971 283 293.762 281.209 293.762 279C293.762 276.791 291.971 275 289.762 275C287.553 275 285.762 276.791 285.762 279C285.762 281.209 287.553 283 289.762 283Z" fill="#7D7D7D" fill-opacity="0.8"/>
<path d="M303.381 283C305.59 283 307.381 281.209 307.381 279C307.381 276.791 305.59 275 303.381 275C301.172 275 299.381 276.791 299.381 279C299.381 281.209 301.172 283 303.381 283Z" fill="#7D7D7D" fill-opacity="0.8"/>
<path d="M317 283C319.209 283 321 281.209 321 279C321 276.791 319.209 275 317 275C314.791 275 313 276.791 313 279C313 281.209 314.791 283 317 283Z" fill="#7D7D7D" fill-opacity="0.8"/>
</g>
<rect x="11.5" y="11.5" width="325" height="299" rx="4.5" stroke="url(#paint1_radial_2824_123199)" shape-rendering="crispEdges"/>
</g>
<defs>
<filter id="filter0_d_2824_123199" x="0" y="0" width="348" height="322" filterUnits="userSpaceOnUse" color-interpolation-filters="sRGB">
<feFlood flood-opacity="0" result="BackgroundImageFix"/>
<feColorMatrix in="SourceAlpha" type="matrix" values="0 0 0 0 0 0 0 0 0 0 0 0 0 0 0 0 0 0 127 0" result="hardAlpha"/>
<feMorphology radius="1" operator="dilate" in="SourceAlpha" result="effect1_dropShadow_2824_123199"/>
<feOffset/>
<feGaussianBlur stdDeviation="5"/>
<feComposite in2="hardAlpha" operator="out"/>
<feColorMatrix type="matrix" values="0 0 0 0 0.0117647 0 0 0 0 0.141176 0 0 0 0 0.196078 0 0 0 1 0"/>
<feBlend mode="normal" in2="BackgroundImageFix" result="effect1_dropShadow_2824_123199"/>
<feBlend mode="normal" in="SourceGraphic" in2="effect1_dropShadow_2824_123199" result="shape"/>
</filter>
<radialGradient id="paint0_radial_2824_123199" cx="0" cy="0" r="1" gradientUnits="userSpaceOnUse" gradientTransform="translate(102.568 52.4706) rotate(64.7982) scale(309.619 432.702)">
<stop offset="0.0885417" stop-color="#00419C"/>
<stop offset="1"/>
</radialGradient>
<radialGradient id="paint1_radial_2824_123199" cx="0" cy="0" r="1" gradientUnits="userSpaceOnUse" gradientTransform="translate(314.947 37.4706) rotate(117.262) scale(307.708 323.632)">
<stop stop-color="#1F3E78"/>
<stop offset="0.244792" stop-color="#142B56"/>
<stop offset="0.635417" stop-color="#162E5B"/>
<stop offset="1" stop-color="#06193E"/>
</radialGradient>
<clipPath id="clip0_2824_123199">
<rect width="294" height="134" fill="white" transform="translate(27 149)"/>
</clipPath>
</defs>
</svg>
