<svg width="44" height="36" viewBox="0 0 44 36" fill="none" xmlns="http://www.w3.org/2000/svg">
<path d="M39.9342 35.2562H4.06574C2.98794 35.255 1.95463 34.8263 1.19244 34.0643C0.430258 33.3022 0.00142416 32.269 0 31.1912V9.49667C0.00352453 8.42098 0.43354 7.39061 1.19573 6.63154C1.95792 5.87248 2.99005 5.4467 4.06574 5.44759H5.32953V2.41765C5.32947 2.22296 5.36778 2.03017 5.44226 1.8503C5.51674 1.67042 5.62593 1.50699 5.7636 1.36932C5.90126 1.23166 6.0647 1.12247 6.24457 1.04799C6.42445 0.973509 6.61724 0.9352 6.81192 0.935251C11.6176 0.935725 17.7972 0.433667 22 3.21097C26.1914 0.436573 32.3928 0.934198 37.1881 0.935488C37.3828 0.935396 37.5755 0.973671 37.7554 1.04812C37.9353 1.12257 38.0988 1.23174 38.2364 1.36939C38.3741 1.50704 38.4833 1.67047 38.5578 1.85034C38.6322 2.03021 38.6705 2.223 38.6705 2.41768V5.44759H39.9343C41.0099 5.4467 42.0421 5.87248 42.8043 6.63154C43.5665 7.39061 43.9965 8.42098 44 9.49667V31.1912C43.9986 32.269 43.5697 33.3022 42.8075 34.0643C42.0453 34.8263 41.012 35.255 39.9342 35.2562ZM4.06574 8.41238C3.77605 8.41048 3.49744 8.52357 3.29104 8.72685C3.08464 8.93013 2.96731 9.20698 2.96479 9.49667V31.1912C2.9652 31.483 3.08134 31.7627 3.28774 31.969C3.49414 32.1752 3.77394 32.2912 4.06574 32.2914H39.9342C40.226 32.2912 40.5058 32.1752 40.7122 31.969C40.9186 31.7627 41.0348 31.483 41.0352 31.1912V9.49667C41.0326 9.20698 40.9153 8.93013 40.7089 8.72685C40.5025 8.52357 40.2239 8.41048 39.9342 8.41238H38.6704V25.8609C38.6705 26.0556 38.6322 26.2484 38.5577 26.4283C38.4832 26.6082 38.374 26.7716 38.2364 26.9093C38.0987 27.0469 37.9353 27.1561 37.7554 27.2306C37.5755 27.3051 37.3827 27.3434 37.188 27.3433H30.6323C27.4638 27.1552 24.7514 28.6939 22 29.8623C21.9033 29.8616 21.8069 29.8524 21.7119 29.8347L21.709 29.8333L21.7032 29.8318C19.197 28.2697 16.3169 27.4103 13.3646 27.3435C13.1069 27.3408 6.8416 27.3475 6.73328 27.3412C6.35805 27.3082 6.00794 27.1388 5.74925 26.865C5.49056 26.5912 5.34125 26.2321 5.3296 25.8556C5.3296 25.5136 5.3296 8.41231 5.3296 8.41231L4.06574 8.41238ZM23.4824 5.77766V25.9C27.0028 24.109 31.8397 24.356 35.7056 24.3785V3.90004C31.8136 3.88461 26.8791 3.53466 23.4824 5.77766ZM8.29432 24.3785C12.1708 24.3569 16.9872 24.1078 20.5176 25.9V5.77766C17.1307 3.536 12.1756 3.88344 8.29432 3.90004V24.3785ZM32.08 21.3819H27.108C26.7185 21.3764 26.3468 21.2178 26.0733 20.9404C25.7998 20.663 25.6464 20.2891 25.6464 19.8995C25.6464 19.5099 25.7998 19.136 26.0733 18.8586C26.3468 18.5812 26.7185 18.4226 27.108 18.4171H32.08C32.4695 18.4226 32.8412 18.5812 33.1147 18.8586C33.3882 19.136 33.5416 19.5099 33.5416 19.8995C33.5416 20.2891 33.3882 20.663 33.1147 20.9404C32.8412 21.2178 32.4695 21.3764 32.08 21.3819ZM16.8919 21.3819H11.92C11.5305 21.3764 11.1587 21.2178 10.8852 20.9404C10.6117 20.663 10.4584 20.2891 10.4584 19.8995C10.4584 19.5099 10.6117 19.136 10.8852 18.8586C11.1587 18.5812 11.5305 18.4226 11.92 18.4171H16.8919C17.2815 18.4226 17.6532 18.5812 17.9267 18.8586C18.2002 19.136 18.3535 19.5099 18.3535 19.8995C18.3535 20.2891 18.2002 20.663 17.9267 20.9404C17.6532 21.2178 17.2815 21.3764 16.8919 21.3819ZM32.08 15.9995H27.108C26.7185 15.994 26.3468 15.8354 26.0733 15.558C25.7998 15.2806 25.6464 14.9067 25.6464 14.5171C25.6464 14.1276 25.7998 13.7537 26.0733 13.4762C26.3468 13.1988 26.7185 13.0402 27.108 13.0347H32.08C32.4695 13.0402 32.8412 13.1988 33.1147 13.4762C33.3882 13.7537 33.5416 14.1276 33.5416 14.5171C33.5416 14.9067 33.3882 15.2806 33.1147 15.558C32.8412 15.8354 32.4695 15.994 32.08 15.9995ZM16.8919 15.9995H11.92C11.5305 15.994 11.1587 15.8354 10.8852 15.558C10.6117 15.2806 10.4584 14.9067 10.4584 14.5171C10.4584 14.1276 10.6117 13.7537 10.8852 13.4762C11.1587 13.1988 11.5305 13.0402 11.92 13.0347H16.8919C17.2815 13.0402 17.6532 13.1988 17.9267 13.4762C18.2002 13.7537 18.3535 14.1276 18.3535 14.5171C18.3535 14.9067 18.2002 15.2806 17.9267 15.558C17.6532 15.8354 17.2815 15.994 16.8919 15.9995ZM32.08 10.6187H27.108C26.7185 10.6132 26.3468 10.4546 26.0733 10.1771C25.7998 9.89974 25.6464 9.52583 25.6464 9.13627C25.6464 8.7467 25.7998 8.37279 26.0733 8.09539C26.3468 7.81798 26.7185 7.65938 27.108 7.65387H32.08C32.4695 7.65938 32.8412 7.81798 33.1147 8.09539C33.3882 8.37279 33.5416 8.7467 33.5416 9.13627C33.5416 9.52583 33.3882 9.89974 33.1147 10.1771C32.8412 10.4546 32.4695 10.6132 32.08 10.6187ZM16.8919 10.6187H11.92C11.5305 10.6132 11.1587 10.4546 10.8852 10.1771C10.6117 9.89974 10.4584 9.52583 10.4584 9.13627C10.4584 8.7467 10.6117 8.37279 10.8852 8.09539C11.1587 7.81798 11.5305 7.65938 11.92 7.65387H16.8919C17.2815 7.65938 17.6532 7.81798 17.9267 8.09539C18.2002 8.37279 18.3535 8.7467 18.3535 9.13627C18.3535 9.52583 18.2002 9.89974 17.9267 10.1771C17.6532 10.4546 17.2815 10.6132 16.8919 10.6187Z" fill="#5B977C"/>
</svg>
