<svg width="44" height="39" viewBox="0 0 44 39" fill="none" xmlns="http://www.w3.org/2000/svg">
<path d="M33.2825 38.7794H3.43289C2.53367 38.7885 1.66749 38.4445 1.02433 37.8226C0.38117 37.2007 0.0135388 36.3519 0.00207018 35.4622C-0.0382494 32.8081 0.510833 30.1776 1.61054 27.7564C2.71026 25.3352 4.33378 23.1825 6.36647 21.4501C7.14349 20.835 8.09001 20.4661 9.08229 20.3917C10.0746 20.3174 11.0665 20.541 11.9282 21.0333C13.8897 22.1096 16.0951 22.6759 18.338 22.6792C20.5809 22.6824 22.788 22.1225 24.7526 21.0519C26.8473 19.7901 29.3516 20.3086 31.3732 22.3353C32.7039 21.681 34.1813 21.3733 35.6657 21.4412C37.1501 21.5092 38.5925 21.9506 39.8565 22.7237C41.1204 23.4967 42.1643 24.576 42.8893 25.8593C43.6143 27.1427 43.9966 28.5878 44 30.0581C43.7128 36.8364 38.3568 39.041 33.2825 38.7794ZM9.40788 23.3063C8.99895 23.299 8.60046 23.4344 8.28238 23.6887C6.58077 25.1446 5.22281 26.9522 4.30434 28.9841C3.38588 31.0159 2.92928 33.2224 2.96677 35.4479C2.98002 35.5599 3.03525 35.6629 3.12155 35.7367C3.20784 35.8104 3.31893 35.8494 3.43289 35.846H28.6292C27.2132 34.1881 26.4591 32.0749 26.5091 29.9048C26.5591 27.7348 27.4098 25.6578 28.9006 24.0654C28.5789 23.7098 28.1482 23.4684 27.6745 23.3784C27.2008 23.2884 26.7103 23.3546 26.2783 23.567C23.8631 24.913 21.1383 25.6209 18.3663 25.6227C15.5944 25.6244 12.8686 24.9199 10.4517 23.577C10.1325 23.401 9.77335 23.3078 9.40788 23.3063ZM31.8277 34.7861C35.4954 37.0689 40.8364 35.4418 41.0366 30.0568C41.0525 29.3031 40.9123 28.5541 40.6246 27.8561C40.3369 27.158 39.9079 26.5256 39.3639 25.9977C38.8199 25.4699 38.1724 25.0578 37.4614 24.7868C36.7504 24.5158 35.9909 24.3917 35.2296 24.4221C29.5978 24.2792 27.3974 31.4916 31.8277 34.7861ZM35.231 34.0528C35.0363 34.0528 34.8435 34.0149 34.6637 33.9413C34.4838 33.8676 34.3204 33.7595 34.1827 33.6233C34.045 33.4871 33.9359 33.3254 33.8614 33.1475C33.7869 32.9695 33.7486 32.7787 33.7486 32.5861V31.5692H32.7216C32.3284 31.5692 31.9514 31.4147 31.6734 31.1397C31.3954 30.8646 31.2392 30.4915 31.2392 30.1026C31.2392 29.7136 31.3954 29.3405 31.6734 29.0655C31.9514 28.7904 32.3284 28.6359 32.7216 28.6359H33.7486V27.6204C33.7486 27.2314 33.9048 26.8584 34.1828 26.5833C34.4608 26.3083 34.8378 26.1537 35.231 26.1537C35.6241 26.1537 36.0012 26.3083 36.2792 26.5833C36.5572 26.8584 36.7133 27.2314 36.7133 27.6204V28.6359H37.7404C38.1336 28.6359 38.5106 28.7904 38.7886 29.0655C39.0666 29.3405 39.2228 29.7136 39.2228 30.1026C39.2228 30.4915 39.0666 30.8646 38.7886 31.1397C38.5106 31.4147 38.1336 31.5692 37.7404 31.5692H36.7133V32.5862C36.7134 32.7788 36.6751 32.9695 36.6006 33.1475C36.5261 33.3255 36.4169 33.4872 36.2793 33.6234C36.1416 33.7596 35.9782 33.8676 35.7983 33.9413C35.6185 34.015 35.4257 34.0528 35.231 34.0528ZM18.3577 19.1169C17.1107 19.1394 15.872 18.9121 14.7161 18.4485C13.5603 17.9849 12.5112 17.2947 11.632 16.4195C10.7529 15.5442 10.0618 14.5019 9.60045 13.3554C9.13911 12.2089 8.91702 10.9819 8.94755 9.74828C8.96359 -2.20306 27.1152 -3.13153 27.8267 9.74828C27.8238 12.2322 26.8253 14.6135 25.0501 16.3698C23.2749 18.1262 20.8681 19.1141 18.3577 19.1169ZM18.3577 3.31299C17.5035 3.31632 16.6583 3.48609 15.8704 3.81261C15.0825 4.13913 14.3673 4.61599 13.7656 5.21599C13.164 5.81598 12.6877 6.52735 12.3639 7.30947C12.0401 8.0916 11.8752 8.92917 11.8785 9.77435C11.8819 10.6195 12.0535 11.4558 12.3835 12.2354C12.7135 13.0149 13.1955 13.7226 13.8019 14.3179C14.4083 14.9131 15.1273 15.3844 15.9178 15.7048C16.7082 16.0251 17.5548 16.1883 18.409 16.185C26.9458 15.889 26.9381 3.5751 18.3577 3.31299Z" fill="#5B977C"/>
</svg>
