<svg width="44" height="45" viewBox="0 0 44 45" fill="none" xmlns="http://www.w3.org/2000/svg">
<path d="M21.267 44.5C19.8707 44.4981 18.5153 44.0289 17.4167 43.1672C16.3182 42.3054 15.5397 41.1007 15.2055 39.745H14.0867C13.4199 39.7337 12.7689 39.5406 12.2039 39.1864C11.6389 38.8321 11.1814 38.3303 10.8807 37.7351C10.58 37.1399 10.4476 36.4738 10.4978 35.8089C10.548 35.1439 10.7788 34.5053 11.1654 33.9619C10.8487 33.5194 10.6345 33.0118 10.5383 32.4762C10.4421 31.9406 10.4663 31.3902 10.6093 30.8651C10.7522 30.34 11.0102 29.8533 11.3647 29.4403C11.7191 29.0274 12.161 28.6985 12.6583 28.4775C12.3913 26.4507 11.5721 24.5363 10.2903 22.9438C8.36481 20.4975 7.3228 17.4722 7.33339 14.3591C7.68906 -2.42774 31.4582 -4.75152 34.9591 11.7299C35.3384 13.6907 35.2901 15.7102 34.8173 17.6505C34.3446 19.5909 33.4586 21.4063 32.2198 22.9728C30.9442 24.5556 30.1323 26.461 29.8743 28.4775C30.3718 28.6982 30.814 29.0269 31.1686 29.4398C31.5233 29.8527 31.7816 30.3394 31.9246 30.8646C32.0677 31.3897 32.0921 31.9402 31.9959 32.4759C31.8997 33.0117 31.6854 33.5193 31.3686 33.9619C31.7552 34.5052 31.986 35.1439 32.0362 35.8088C32.0864 36.4738 31.954 37.1399 31.6533 37.7351C31.3526 38.3303 30.8951 38.8321 30.33 39.1863C29.765 39.5405 29.114 39.7337 28.4472 39.7449L27.3285 39.745C26.9943 41.1006 26.2158 42.3054 25.1173 43.1672C24.0187 44.029 22.6632 44.4982 21.267 44.5ZM18.3537 39.745C18.6335 40.2752 19.0526 40.719 19.566 41.0285C20.0794 41.3381 20.6675 41.5016 21.267 41.5016C21.8664 41.5016 22.4546 41.3381 22.9679 41.0285C23.4813 40.719 23.9005 40.2752 24.1803 39.745H18.3537ZM26.0219 36.7752H28.4473C28.6193 36.768 28.7818 36.6945 28.9006 36.5699C29.0194 36.4454 29.0853 36.2796 29.0844 36.1075C29.0834 35.9353 29.0157 35.7703 28.8955 35.6471C28.7754 35.5238 28.612 35.4521 28.44 35.4468H14.0939C13.9218 35.4521 13.7585 35.5239 13.6384 35.6471C13.5182 35.7703 13.4505 35.9354 13.4496 36.1075C13.4486 36.2796 13.5145 36.4454 13.6334 36.57C13.7522 36.6945 13.9147 36.768 14.0867 36.7752H26.0219ZM14.0866 32.4712H28.4473C28.6197 32.4663 28.7833 32.3942 28.9032 32.2702C29.0231 32.1462 29.0897 31.9802 29.0887 31.8078C29.0878 31.6353 29.0193 31.4701 28.8981 31.3475C28.7768 31.2248 28.6124 31.1545 28.44 31.1516H14.0939C13.9215 31.1545 13.757 31.2248 13.6358 31.3475C13.5146 31.4701 13.4461 31.6354 13.4452 31.8078C13.4443 31.9803 13.5108 32.1462 13.6307 32.2702C13.7506 32.3942 13.9143 32.4663 14.0866 32.4712ZM15.6144 28.1817H26.9181C27.2302 25.6023 28.2585 23.1619 29.8865 21.1369C30.8621 19.9002 31.5595 18.4675 31.9308 16.9366C32.3022 15.4058 32.339 13.8128 32.0385 12.2665C29.3315 -0.683606 10.5193 1.20294 10.3032 14.3592C10.2946 16.8086 11.1143 19.189 12.6292 21.1137C14.2593 23.148 15.2927 25.5948 15.6144 28.1817ZM14.3404 15.844C14.1454 15.8441 13.9523 15.8057 13.7721 15.7311C13.5919 15.6565 13.4282 15.5471 13.2903 15.4092C13.1524 15.2713 13.043 15.1076 12.9684 14.9274C12.8938 14.7472 12.8554 14.5541 12.8555 14.3591C12.8578 12.1289 13.7448 9.99065 15.3217 8.41357C16.8986 6.83649 19.0367 5.94937 21.267 5.94683C21.6572 5.95235 22.0295 6.11122 22.3035 6.3891C22.5775 6.66698 22.7311 7.04153 22.7311 7.43176C22.7311 7.822 22.5775 8.19655 22.3035 8.47442C22.0295 8.7523 21.6572 8.91118 21.267 8.9167C19.8242 8.91857 18.4411 9.49258 17.421 10.5128C16.4009 11.5331 15.8271 12.9162 15.8254 14.359C15.8255 14.554 15.7871 14.7471 15.7125 14.9273C15.6379 15.1075 15.5285 15.2713 15.3906 15.4092C15.2527 15.5471 15.089 15.6565 14.9088 15.7311C14.7286 15.8057 14.5355 15.8441 14.3404 15.844Z" fill="#5B977C"/>
</svg>
