<svg width="30" height="45" viewBox="0 0 30 45" fill="none" xmlns="http://www.w3.org/2000/svg">
<path d="M14.5924 44.4958C7.5754 44.4958 1.87122 41.5011 1.27343 37.452C1.07513 36.1045 1.28936 32.976 6.69828 30.7868C3.21584 26.6298 0.364463 21.3005 0.358683 15.9777C0.243535 14.0258 0.521161 12.0707 1.17513 10.2281C1.82909 8.38542 2.8461 6.6927 4.16595 5.25012C5.4858 3.80754 7.08166 2.64443 8.85906 1.82963C10.6365 1.01483 12.5593 0.56492 14.5136 0.506521C16.468 0.448123 18.4143 0.782427 20.2371 1.48964C22.06 2.19686 23.7225 3.26261 25.1261 4.62381C26.5297 5.98501 27.646 7.61399 28.4088 9.4143C29.1716 11.2146 29.5655 13.1497 29.5671 15.1049C29.7726 20.7997 26.8749 26.4229 23.2362 30.7716C26.6853 32.1633 28.6798 34.364 28.6798 36.8933C28.7569 41.2372 22.1961 44.6366 14.5924 44.4958ZM8.86359 33.1489C-0.43251 36.1369 5.65032 41.509 14.9252 41.5288C24.1258 41.488 30.3912 36.3025 21.0608 33.1409C19.4289 34.7984 17.5963 36.2454 15.6056 37.4484L15.6026 37.4499L15.5996 37.4514L15.5967 37.4528L15.5909 37.455L15.5879 37.4565L15.5864 37.4579L15.5835 37.4594L15.5805 37.4609L15.5775 37.4616L15.5718 37.4646L15.5688 37.466L15.5658 37.4668L15.5643 37.4683C15.4567 37.5176 15.3434 37.5538 15.2271 37.5761L15.2241 37.5768H15.2212L15.2182 37.5775L15.2167 37.5783L15.2124 37.579H15.2094L15.2079 37.5797C15.2098 37.5816 15.2151 37.583 15.2021 37.5804L15.1991 37.5812L15.1962 37.5819L15.1918 37.5826H15.1889L15.1859 37.5833L15.183 37.5841H15.1801L15.1771 37.5848L15.1741 37.5855H15.1698L15.1668 37.5862L15.1639 37.5869L15.1581 37.5877C15.0058 37.61 14.8509 37.6081 14.6992 37.5819H14.6949L14.692 37.5812L14.689 37.5804L14.685 37.5797C14.685 37.5804 14.6965 37.5841 14.682 37.579L14.6791 37.5783H14.6761L14.6732 37.5775L14.6703 37.5768L14.6645 37.5761L14.6615 37.5754L14.6586 37.5746L14.6557 37.5739L14.6527 37.5732H14.6497C12.4903 36.4276 10.5352 34.9326 8.86359 33.1489ZM11.1881 31.2528C12.3643 32.3712 13.62 33.4028 14.9455 34.3394C20.4986 30.6171 26.98 22.4892 26.6042 15.1577C26.6093 13.594 26.2996 12.0452 25.6937 10.6036C25.0877 9.16203 24.1979 7.85713 23.0771 6.76662C21.9563 5.67611 20.6276 4.82228 19.17 4.256C17.7123 3.68971 16.1557 3.42255 14.5927 3.47041C13.0296 3.51827 11.4922 3.88018 10.072 4.53458C8.65175 5.18899 7.37772 6.12251 6.32578 7.27955C5.27384 8.43659 4.46549 9.79349 3.94888 11.2694C3.43227 12.7454 3.21796 14.3102 3.31871 15.8707C3.32873 21.7058 7.32066 27.4664 11.1881 31.2528ZM14.947 21.8838C5.8867 21.7139 5.99097 8.48228 14.9471 8.33618C23.969 8.49645 23.9629 21.7266 14.947 21.8838ZM14.947 11.3005C9.9036 11.2629 9.80458 18.9364 14.9471 18.9195C20.0305 18.9453 20.0286 11.2734 14.947 11.3005Z" fill="#5B977C"/>
</svg>
