<svg width="320" height="101" viewBox="0 0 320 101" fill="none" xmlns="http://www.w3.org/2000/svg">
<path d="M318.442 67.84V61.0504H316.939C316.828 62.2191 316.772 62.7756 315.826 62.7756C315.381 62.7756 315.158 62.6643 314.602 62.3304C313.711 61.8295 312.264 61.3287 310.428 61.3287C305.419 61.3287 303.304 65.0017 303.304 68.4522C303.304 73.6835 307.089 74.9078 310.484 76.0209C312.654 76.633 316.438 77.1339 316.438 79.9165C316.438 81.6417 314.713 83.3113 311.93 83.3113C310.205 83.3113 308.369 82.6435 307.033 81.3635C305.197 79.6939 304.918 77.7461 304.584 76.0765H303.026V84.0904H304.584C304.529 83.7565 304.473 82.6991 305.419 82.6991C305.809 82.6991 306.31 82.9774 307.144 83.4782C307.423 83.7009 309.37 84.7582 311.819 84.7582C317.551 84.7582 319.944 80.2504 319.944 76.7443C319.944 71.8469 315.882 70.6782 313.322 69.9548L311.764 69.5095C310.261 69.1756 308.536 68.5078 308.035 68.1182C307.423 67.5617 307.033 66.7269 307.033 65.9478C307.033 64.2782 308.536 62.8313 310.762 62.8313C312.097 62.8313 313.656 63.2765 314.713 64.0556C316.271 65.2243 316.55 66.4487 316.939 67.84H318.442Z" fill="white"/>
<path d="M286.219 67.2279C286.386 65.0574 286.72 62.5531 290.449 62.5531C293.899 62.5531 294.066 65.1131 294.177 67.0053V70.0661H286.163L286.219 67.2279ZM291.562 83.0887C286.275 83.0887 286.108 77.8018 286.052 75.7983C285.996 74.3513 286.052 72.96 286.052 71.6244H301.19C300.8 69.2313 300.466 66.894 298.351 64.6122C296.348 62.4418 293.398 61.3287 290.449 61.3287C283.548 61.3287 278.706 66.3374 278.706 72.96C278.706 79.4157 283.325 84.7583 290.838 84.7583C297.294 84.7583 299.687 80.3618 300.911 78.0244L299.631 77.3566C298.296 79.527 296.07 83.0887 291.562 83.0887Z" fill="white"/>
<path d="M267.019 52.2017C267.019 54.3165 268.689 56.0417 270.803 56.0417C272.974 56.0417 274.643 54.3165 274.643 52.2017C274.643 50.0869 272.974 48.3617 270.803 48.3617C268.689 48.3617 267.019 50.0869 267.019 52.2017Z" fill="white"/>
<path d="M264.626 63.3321H268.243V82.7547H264.626V84.0904H278.261V82.7547H274.866V61.4956C272.362 61.6626 270.97 61.7182 269.69 61.8295C268.299 61.8852 267.019 61.9408 264.626 61.9408V63.3321Z" fill="white"/>
<path d="M252.271 82.9774C250.268 82.9774 248.32 81.2522 247.318 79.3044C246.316 77.3566 246.205 75.1861 246.205 73.0713C246.205 67.1722 248.153 65.2244 249.377 64.2783C250.156 63.7218 251.047 63.2766 252.049 63.2766C254.553 63.2766 255.388 65.447 255.777 66.894C256.278 68.7305 256.334 70.6226 256.39 72.5705C256.501 78.9705 255.833 82.9774 252.271 82.9774ZM253.329 61.3287C249.656 61.3287 247.93 63.4435 246.483 65.1687L246.595 61.4957C243.2 61.9409 242.699 61.9409 236.299 61.9409V63.3879H239.749V98.1705H236.299V99.6174H250.769V98.1705H246.483V80.9183C247.93 82.6435 249.767 84.7583 253.663 84.7583C258.115 84.7583 260.396 82.0313 261.398 80.6957C263.457 77.9131 263.736 75.3531 263.736 73.4053C263.736 64.7792 257.836 61.3287 253.329 61.3287Z" fill="white"/>
<path d="M224 83.6453C221.663 83.6453 220.216 82.254 219.603 80.974C219.158 80.2505 218.602 79.1374 218.602 72.8487C218.602 68.174 218.713 62.6644 223.944 62.6644C226.059 62.6644 227.617 63.6661 228.508 65.5583C228.786 66.2261 229.12 67.0053 229.176 72.6261C229.231 77.8018 229.231 83.6453 224 83.6453ZM236.355 72.5705C235.854 64.167 228.786 61.3287 224 61.3287C218.546 61.3287 211.256 64.7235 211.256 72.9044C211.256 78.8592 215.596 84.7026 224.111 84.7026C231.847 84.7026 235.019 79.527 235.743 77.4679C236.299 75.9653 236.466 74.1844 236.355 72.5705Z" fill="white"/>
<path d="M199.736 61.4957C196.285 61.8296 192.835 61.9409 189.329 61.9409V63.3322H192.946V82.7548H189.329V84.0905H204.021V82.7548H199.624V72.6818C199.624 70.567 200.014 67.6731 201.739 65.3357C201.739 65.3357 203.409 63.1653 204.132 63.1653C204.522 63.1653 204.911 63.4435 204.911 63.7218C204.911 63.8887 204.744 64 204.633 64.2227C204.299 64.6679 203.965 65.2244 203.965 66.1705C203.965 67.7287 205.189 69.3426 207.36 69.3426C210.031 69.3426 210.866 67.2279 210.866 65.7253C210.866 63.6661 209.53 61.3287 206.247 61.3287C204.076 61.3287 202.518 62.2192 201.294 63.6661C200.682 64.334 200.181 65.1687 199.624 66.0592L199.736 61.4957Z" fill="white"/>
<path d="M170.797 46.3583C169.906 46.4696 168.849 46.6365 165.899 46.8035C163.729 46.9148 161.892 46.9148 160.501 46.9148V48.3618H164.285V82.7548H160.501V84.0905H174.024V82.7548H170.741V73.0713C170.797 70.0661 170.852 66.6713 173.913 64.6122C174.692 64 175.75 63.6661 176.918 63.6661C179.812 63.6661 180.091 66.0591 180.035 68.7304V82.7548H177.141V84.0905H190.108V82.7548H186.602V68.5078C186.602 66.7826 186.657 65.0018 185.211 63.2765C184.431 62.4418 182.817 61.3287 179.645 61.3287C174.581 61.3287 172.021 64.3339 170.797 65.8365V46.3583Z" fill="white"/>
<path d="M154.936 53.0365H153.433C150.372 59.7148 147.089 61.3843 144.696 62.4974V63.3322H148.48L148.424 78.4695C148.424 80.8069 148.48 84.7582 153.823 84.7582C159.332 84.7582 160.612 80.9182 161.336 78.4139L159.833 78.08C159.221 80.1948 158.386 81.92 156.772 81.92C154.991 81.92 154.936 79.9721 154.936 78.6921V63.3322H159.555V61.9408H154.936V53.0365Z" fill="white"/>
<path d="M126.998 61.4957C123.047 61.6627 119.986 61.9409 116.758 61.9409V63.3322H120.376V82.7548H116.758V84.0905H130.393V82.7548H126.998V72.8487C126.998 70.4557 126.998 69.5096 127.165 68.5635C127.944 65.5583 130.894 63.7774 132.73 63.7774C136.014 63.7774 136.014 66.6157 136.014 69.5653V82.7548H133.009V84.0905H146.031V82.7548H142.581V68.5635C142.581 66.2261 142.581 62.9427 138.296 61.7183C136.849 61.3287 135.624 61.3287 135.235 61.3287C134.177 61.3287 132.786 61.4957 131.228 62.1079C129.057 62.9983 128.167 64 126.998 65.3913V61.4957Z" fill="white"/>
<path d="M104.793 80.7513C104.125 81.2522 103.346 81.6418 102.456 81.6418C100.563 81.6418 98.8383 80.1948 98.8383 77.5235C98.8383 72.8487 103.457 72.5705 106.24 72.4035V76.4661C106.24 77.8574 106.296 79.527 104.793 80.7513ZM115.478 80.8627C115.033 81.1966 114.532 81.6974 113.864 81.6974C112.64 81.6974 112.584 80.1392 112.584 78.9148V68.2853C112.584 66.3931 112.64 63.8331 109.023 62.2748C107.464 61.6627 105.628 61.3287 103.736 61.3287C98.56 61.3287 94.4417 63.7218 94.4417 67.1166C94.4417 68.7861 95.6661 70.0105 97.3913 70.0105C99.2278 70.0105 100.452 68.6192 100.452 67.0609C100.452 66.6713 100.341 66.2818 100.174 66.0035C100.007 65.5583 99.6731 65.2244 99.5061 64.8348C99.3948 64.6122 99.3391 64.4453 99.3391 64.2227C99.3391 63.7774 100.174 62.72 102.567 62.72C106.073 62.72 106.24 64.5009 106.24 66.727V70.9009C102.957 71.2348 98.6157 71.6244 95.6661 73.7948C93.3287 75.4644 92.6052 77.6348 92.6052 79.36C92.6052 80.974 93.3844 84.7026 98.8383 84.7026C102.957 84.7026 105.183 82.254 106.24 81.0296C106.963 82.4209 108.132 84.7026 111.137 84.7026C113.753 84.7026 115.367 83.0331 116.313 82.0313L115.478 80.8627Z" fill="white"/>
<path d="M87.7634 46.3583C86.0382 46.6922 83.9234 46.8591 82.0312 46.9148C80.1391 46.9705 78.3582 46.9704 77.3564 46.9704V48.4174H81.0851V82.7548H77.3564V84.0905H91.2695V82.7548H87.7634V46.3583Z" fill="white"/>
<path d="M65.1687 52.2017C65.1687 54.3165 66.8383 56.0417 69.0087 56.0417C71.1235 56.0417 72.7931 54.3165 72.7931 52.2017C72.7931 50.0869 71.1235 48.3617 69.0087 48.3617C66.8383 48.3617 65.1687 50.0869 65.1687 52.2017Z" fill="white"/>
<path d="M62.7756 63.3321H66.393V82.7547H62.7756V84.0904H76.4104V82.7547H73.0156V61.4956C70.5113 61.6626 69.12 61.7182 67.84 61.8295C66.4487 61.8852 65.1687 61.9408 62.7756 61.9408V63.3321Z" fill="white"/>
<path d="M42.5183 46.3583C41.6279 46.4696 40.5705 46.6365 37.5653 46.8035C35.3948 46.9148 33.6139 46.9148 32.167 46.9148V48.3618H36.007V82.7548H32.167V84.0905H45.6905V82.7548H42.4626V73.0713C42.5183 70.0661 42.5739 66.6713 45.5792 64.6122C46.3583 64 47.4157 63.6661 48.5844 63.6661C51.534 63.6661 51.7566 66.0591 51.7009 68.7304V82.7548H48.807V84.0905H61.7739V82.7548H58.3235V68.5078C58.3235 66.7826 58.3792 65.0018 56.8766 63.2765C56.1531 62.4418 54.4835 61.3287 51.3113 61.3287C46.247 61.3287 43.7426 64.3339 42.5183 65.8365V46.3583Z" fill="white"/>
<path d="M21.76 63.7217C20.313 64.8347 18.1426 65.0574 17.2522 65.0574H12.3548V48.0834H17.0852C18.7548 48.0834 21.0922 48.1947 22.6504 50.2539C23.6522 51.6452 23.8748 53.76 23.8748 56.6539C23.8748 61.2174 22.5948 63.1095 21.76 63.7217ZM28.5496 48.9739C25.7113 46.8591 22.2609 46.8034 19.367 46.6921H0V48.0834H4.50783V82.7547H0V84.0904H17.3078V82.7547H12.3548V66.6156H19.5339C22.3722 66.6156 25.8783 66.3374 28.6052 64.3339C32.1113 61.7739 32.2783 58.2121 32.2783 56.8765C32.2783 53.8713 30.9983 50.8104 28.5496 48.9739Z" fill="white"/>
<path d="M229.12 30.2191C225.614 30.2191 225.447 27.3252 225.447 23.1513C225.447 19.4226 225.447 16.1947 229.064 16.1947C229.51 16.1947 231.179 16.1947 232.014 17.9756C232.515 19.1443 232.515 20.313 232.515 23.3739C232.515 27.1582 232.515 30.2191 229.12 30.2191ZM235.13 42.1843C236.243 42.1843 238.915 42.1287 238.915 45.0782C238.915 48.3617 235.13 51.2556 228.842 51.2556C222.998 51.2556 220.995 48.2504 220.995 45.8574C220.995 44.0765 221.83 43.1861 222.776 42.1843H235.13ZM238.47 18.3095C238.748 18.3095 238.803 18.3095 239.193 18.8104C239.527 19.2556 240.139 19.4782 240.751 19.4782C242.31 19.4782 243.033 18.3652 243.033 17.1408C243.033 15.5826 241.864 14.6921 240.529 14.6921C239.861 14.6921 239.082 14.9704 238.414 15.4156C237.412 16.1391 237.134 17.1965 236.911 17.9756C235.409 16.6956 233.405 14.9704 229.231 14.9704C224.445 14.9704 219.047 17.6417 219.047 23.4295C219.047 26.9913 221.273 28.7165 222.609 29.8295C221.384 30.2747 217.21 31.7217 217.21 36.5634C217.21 37.3426 217.322 38.8452 218.657 40.2365C219.659 41.3495 220.438 41.5721 221.551 41.7391C220.104 42.2956 217.266 43.2417 217.266 46.1913C217.266 49.4747 221.217 52.9252 228.842 52.9252C236.077 52.9252 241.475 49.3634 241.475 42.9078C241.475 41.2939 241.252 39.9026 240.195 38.4C238.247 35.673 236.299 35.7287 232.515 35.7287H223.388C221.607 35.7287 220.104 35.673 220.104 33.9478C220.104 32.2782 222.164 31.1652 223.777 30.553C224.89 31.0539 226.337 31.7217 229.231 31.7217C234.574 31.7217 239.082 28.8278 239.082 23.1513C239.082 21.3704 238.47 20.3687 237.913 19.3113C238.08 18.5321 238.191 18.3095 238.47 18.3095Z" fill="white"/>
<path d="M206.525 15.0818C203.075 15.4713 199.569 15.5826 196.062 15.5826V16.9739H199.68V36.3409H196.062V37.7322H210.755V36.3409H206.358V26.2679C206.358 24.1531 206.803 21.3148 208.473 18.9774C208.473 18.9774 210.198 16.807 210.922 16.807C211.311 16.807 211.645 17.0852 211.645 17.3079C211.645 17.4748 211.478 17.6418 211.423 17.8644C211.089 18.3096 210.699 18.8661 210.699 19.8122C210.699 21.3705 211.923 22.9287 214.094 22.9287C216.821 22.9287 217.656 20.8139 217.656 19.367C217.656 17.2522 216.264 14.9705 212.981 14.9705C210.81 14.9705 209.252 15.8609 208.083 17.2522C207.416 17.9757 206.97 18.8105 206.414 19.6452L206.525 15.0818Z" fill="white"/>
<path d="M180.647 20.8139C180.869 18.6992 181.203 16.1392 184.876 16.1392C188.327 16.1392 188.494 18.7548 188.661 20.5913V23.7078H180.591L180.647 20.8139ZM185.989 36.7305C180.702 36.7305 180.536 31.4435 180.48 29.44C180.424 27.9931 180.48 26.6018 180.48 25.2105H195.673C195.283 22.8174 194.894 20.5357 192.779 18.2539C190.776 16.0835 187.882 14.9705 184.876 14.9705C178.031 14.9705 173.189 19.9792 173.189 26.6018C173.189 33.0018 177.809 38.3444 185.322 38.3444C191.722 38.3444 194.17 33.9479 195.395 31.6661L194.059 30.9983C192.723 33.1131 190.497 36.7305 185.989 36.7305Z" fill="white"/>
<path d="M159.555 36.6191C157.663 36.6191 155.603 35.5061 154.323 33.5026C152.988 31.4435 152.71 28.4939 152.71 26.713C152.71 25.2661 152.932 22.3722 154.101 20.2574C155.214 18.2539 157.496 16.5843 159.555 16.5843C162.838 16.5843 163.395 19.5896 163.617 20.647C163.84 22.1496 163.951 24.5983 163.951 26.1565C163.951 32 163.784 36.6191 159.555 36.6191ZM160.612 14.9704C156.55 14.9704 154.602 17.0852 152.988 18.8104V0C150.762 0.389565 148.313 0.556522 147.256 0.556522H142.636V2.05913H146.365V36.3409H142.636V37.7322H152.932V34.393C154.323 36.1183 156.55 38.3443 160.723 38.3443C163.729 38.3443 166.456 37.3983 168.737 34.4487C171.13 31.4435 171.297 28.4383 171.297 26.9357C171.297 18.3652 165.398 14.9704 160.612 14.9704Z" fill="white"/>
<path d="M110.414 15.0818C107.464 15.4713 106.351 15.5826 100.285 15.5826V16.9739H103.791V36.3409H100.285V37.7322H113.642V36.3409H110.358V25.0991C110.525 22.6504 110.636 20.8696 111.916 19.3113C112.807 18.2539 114.198 17.3635 115.812 17.3635C118.65 17.3635 118.984 19.8678 118.984 22.8731V36.3409H116.09V37.7322H128.556V36.3409H125.384V26.0452C125.384 23.207 125.496 20.8139 127.443 18.9218C128.501 17.92 129.781 17.3078 130.95 17.3078C133.955 17.3078 133.955 19.9235 133.955 22.6504V36.3409H131.061V37.7322H143.805V36.3409H140.522V22.4835C140.355 19.5896 140.299 14.9704 133.343 14.9704C128.167 14.9704 126.163 18.1983 125.384 19.4783C124.16 17.2522 122.824 14.9148 118.038 14.9148C113.92 14.9148 111.972 17.1965 110.414 18.9774V15.0818Z" fill="white"/>
<path d="M87.4297 37.2313C85.0923 37.2313 83.6453 35.8957 83.0331 34.6157C82.5879 33.8922 82.087 32.7792 82.087 26.4348C82.087 21.76 82.1983 16.2505 87.374 16.2505C89.4888 16.2505 91.1027 17.2522 91.9375 19.2C92.2714 19.8679 92.5496 20.5913 92.6053 26.2122C92.661 31.4435 92.661 37.2313 87.4297 37.2313ZM99.8401 26.1565C99.2836 17.8087 92.2714 14.9705 87.4297 14.9705C82.0314 14.9705 74.6853 18.3652 74.6853 26.5461C74.6853 32.5009 79.0818 38.3444 87.5966 38.3444C95.2766 38.3444 98.4488 33.1687 99.1723 31.1096C99.7844 29.5513 99.9514 27.8261 99.8401 26.1565Z" fill="white"/>
<path d="M60.3825 37.2313C58.0451 37.2313 56.5982 35.8957 55.986 34.6157C55.5408 33.8922 55.0399 32.7792 55.0399 26.4348C55.0399 21.76 55.0956 16.2505 60.3269 16.2505C62.4417 16.2505 63.9999 17.2522 64.8904 19.2C65.1686 19.8679 65.5025 20.5913 65.5582 26.2122C65.6138 31.4435 65.6138 37.2313 60.3825 37.2313ZM72.793 26.1565C72.2364 17.8087 65.1686 14.9705 60.3825 14.9705C54.9843 14.9705 47.6382 18.3652 47.6382 26.5461C47.6382 32.5009 51.9791 38.3444 60.5495 38.3444C68.2295 38.3444 71.4017 33.1687 72.1251 31.1096C72.7373 29.5513 72.8486 27.8261 72.793 26.1565Z" fill="white"/>
<path d="M43.5757 0C41.8504 0.333913 39.7357 0.50087 37.8435 0.556522C35.9513 0.556522 34.1704 0.556522 33.1687 0.556522V2.05913H36.8974V36.3409H33.1687V37.7322H47.0817V36.3409H43.5757V0Z" fill="white"/>
<path d="M23.04 33.8365C21.6487 36.1182 19.4783 36.3408 17.7531 36.3408H12.4661V19.033H17.3635C18.9218 19.033 21.1479 19.2 22.7061 21.0921C23.9305 22.6504 24.1531 25.0991 24.1531 27.826C24.1531 30.1078 23.9861 32.2226 23.04 33.8365ZM12.4661 1.78082H16.5844C20.9252 1.78082 23.1513 2.83821 23.1513 9.85038C23.1513 16.0834 20.9252 17.5304 16.807 17.5304H12.4661V1.78082ZM25.2105 18.8104C23.9305 18.4765 22.6505 18.3652 21.2592 18.1982C22.4835 18.0313 23.7079 17.8086 24.8765 17.4747C28.4939 16.3617 31.0539 13.6904 31.0539 9.57212C31.0539 6.90082 30.1079 4.06256 26.7687 2.11473C23.8748 0.500819 20.48 0.389514 17.3635 0.333862H0.111328V1.66951H4.61915V36.3408H0.111328V37.7321H16.64C22.2052 37.6765 28.8835 37.6765 31.7218 32.3339C32.6122 30.7199 32.7792 29.106 32.7792 27.826C32.7792 22.4278 28.8835 19.7565 25.2105 18.8104Z" fill="white"/>
</svg>
