<svg width="21" height="21" viewBox="0 0 21 21" fill="none" xmlns="http://www.w3.org/2000/svg">
<rect x="0.5" y="0.5" width="20" height="20" rx="10" fill="#5B977C"/>
<path fill-rule="evenodd" clip-rule="evenodd" d="M16.0303 6.53033C16.128 6.62796 16.128 6.78625 16.0303 6.88388L8.20711 14.7071C8.01184 14.9024 7.69526 14.9024 7.5 14.7071L4.17678 11.3839C4.07915 11.2863 4.07915 11.128 4.17678 11.0303L4.53033 10.6768C4.62796 10.5791 4.78625 10.5791 4.88388 10.6768L7.67678 13.4697C7.77441 13.5673 7.9327 13.5673 8.03033 13.4697L15.3232 6.17678C15.4209 6.07915 15.5791 6.07915 15.6768 6.17678L16.0303 6.53033Z" fill="white"/>
<rect x="0.5" y="0.5" width="20" height="20" rx="10" stroke="white"/>
</svg>
