<svg width="44" height="36" viewBox="0 0 44 36" fill="none" xmlns="http://www.w3.org/2000/svg">
<path d="M39.4233 0.900025H19.6403C18.4292 0.899424 17.2672 1.37926 16.4093 2.23428C15.5514 3.0893 15.0677 4.24968 15.0643 5.46087V8.91641H4.57676C3.36546 8.91567 2.20332 9.39544 1.3453 10.2505C0.48729 11.1055 0.00347409 12.266 0 13.4773V26.26C0.0036512 26.8835 0.134135 27.4997 0.38351 28.0711C0.632886 28.6426 0.995936 29.1573 1.45056 29.5839C1.90519 30.0106 2.44189 30.3403 3.02799 30.553C3.61409 30.7656 4.23733 30.8568 4.85978 30.8209V33.714C4.85977 34.0072 4.94671 34.2938 5.10959 34.5376C5.27247 34.7813 5.50398 34.9713 5.77484 35.0835C6.04571 35.1957 6.34375 35.225 6.63129 35.1678C6.91883 35.1106 7.18295 34.9694 7.39024 34.7621L11.3315 30.8209H24.3597C25.5709 30.8215 26.7329 30.3416 27.5908 29.4866C28.4486 28.6316 28.9323 27.4712 28.9357 26.26V22.8045H32.6685L36.6098 26.7458C36.8171 26.9531 37.0812 27.0943 37.3687 27.1516C37.6563 27.2088 37.9543 27.1794 38.2252 27.0673C38.4961 26.9551 38.7276 26.7651 38.8905 26.5213C39.0533 26.2775 39.1403 25.9909 39.1402 25.6977V22.8046C39.7627 22.8405 40.3859 22.7493 40.972 22.5367C41.5581 22.324 42.0948 21.9943 42.5494 21.5677C43.0041 21.141 43.3671 20.6263 43.6165 20.0548C43.8659 19.4834 43.9963 18.8672 44 18.2437V5.461C43.9966 4.24969 43.5128 3.0892 42.6548 2.23414C41.7968 1.37909 40.6346 0.899294 39.4233 0.900025ZM25.9709 26.2601C25.9684 26.6852 25.7974 27.092 25.4953 27.3912C25.1933 27.6904 24.7849 27.8576 24.3597 27.8561H10.7177C9.79588 27.7586 8.6557 29.4245 7.82458 30.1354V29.3385C7.82458 28.9453 7.6684 28.5683 7.3904 28.2903C7.11239 28.0123 6.73534 27.8561 6.34218 27.8561H4.57676C4.1515 27.8577 3.74294 27.6906 3.44075 27.3914C3.13855 27.0922 2.96738 26.6853 2.9648 26.2601V13.4773C2.96738 13.0521 3.13855 12.6452 3.44075 12.346C3.74294 12.0468 4.1515 11.8796 4.57676 11.8813H24.3597C24.7849 11.8798 25.1933 12.047 25.4953 12.3462C25.7974 12.6454 25.9684 13.0522 25.9709 13.4773C25.9404 16.5109 25.993 23.2898 25.9709 26.2601ZM41.0353 18.2437C41.0327 18.6689 40.8615 19.0758 40.5593 19.375C40.2571 19.6742 39.8486 19.8414 39.4233 19.8397H37.6579C37.2647 19.8397 36.8877 19.9959 36.6097 20.2739C36.3317 20.5519 36.1755 20.929 36.1755 21.3221V22.119L34.3304 20.274C34.0525 19.996 33.6755 19.8398 33.2824 19.8397H28.9357V13.4772C28.9323 12.266 28.4486 11.1057 27.5907 10.2506C26.7329 9.39564 25.5709 8.91581 24.3597 8.91641H18.0291V5.46087C18.0316 5.03572 18.2027 4.62893 18.5048 4.32973C18.8068 4.03053 19.2152 3.86333 19.6403 3.86482H39.4233C39.8486 3.86318 40.2571 4.0303 40.5593 4.32952C40.8615 4.62873 41.0327 5.0356 41.0353 5.46087V18.2437ZM14.4661 21.2913C14.0818 21.278 13.7177 21.116 13.4506 20.8395C13.1834 20.5629 13.0341 20.1934 13.0341 19.8089C13.0341 19.4244 13.1834 19.055 13.4506 18.7784C13.7177 18.5019 14.0818 18.3399 14.4661 18.3265C14.8503 18.3399 15.2144 18.5019 15.4815 18.7784C15.7487 19.055 15.898 19.4244 15.898 19.8089C15.898 20.1934 15.7487 20.5629 15.4815 20.8395C15.2144 21.116 14.8503 21.278 14.4661 21.2913ZM19.6039 21.2913C19.2196 21.278 18.8555 21.116 18.5884 20.8395C18.3213 20.5629 18.172 20.1934 18.172 19.8089C18.172 19.4244 18.3213 19.055 18.5884 18.7784C18.8555 18.5019 19.2196 18.3399 19.6039 18.3265C19.9882 18.3399 20.3522 18.5019 20.6194 18.7784C20.8865 19.055 21.0358 19.4244 21.0358 19.8089C21.0358 20.1934 20.8865 20.5629 20.6194 20.8395C20.3522 21.116 19.9882 21.278 19.6039 21.2913ZM9.33222 21.2913C8.94796 21.278 8.58387 21.116 8.31674 20.8395C8.0496 20.5629 7.9003 20.1934 7.9003 19.8089C7.9003 19.4244 8.0496 19.055 8.31674 18.7784C8.58387 18.5019 8.94796 18.3399 9.33222 18.3265C9.71649 18.3399 10.0806 18.5019 10.3477 18.7784C10.6148 19.055 10.7642 19.4244 10.7642 19.8089C10.7642 20.1934 10.6148 20.5629 10.3477 20.8395C10.0806 21.116 9.71649 21.278 9.33222 21.2913Z" fill="#5B977C"/>
</svg>
